M48
; DRILL file {KiCad 5.1.6-c6e7f7d~87~ubuntu18.04.1} date Sat Aug 29 18:23:17 2020
; FORMAT={-:-/ absolute / metric / decimal}
; #@! TF.CreationDate,2020-08-29T18:23:17+01:00
; #@! TF.GenerationSoftware,Kicad,Pcbnew,5.1.6-c6e7f7d~87~ubuntu18.04.1
FMAT,2
METRIC
T1C0.400
T2C0.650
T3C1.000
%
G90
G05
T1
X167.132Y-87.173
X167.132Y-88.697
X167.132Y-91.745
X167.132Y-93.269
T2
X151.638Y-104.8
X152.908Y-104.8
X154.178Y-104.8
X155.448Y-104.8
X156.718Y-104.8
X157.988Y-104.8
X159.258Y-104.8
X160.528Y-104.8
T3
X166.319Y-104.546
X168.859Y-104.546
X171.399Y-104.546
X173.939Y-104.546
X176.479Y-104.546
X179.019Y-104.546
T3
G00X194.564Y-87.196
M15
G01X194.564Y-85.696
M16
G05
G00X194.564Y-102.096
M15
G01X194.564Y-100.596
M16
G05
T0
M30
