G04 #@! TF.GenerationSoftware,KiCad,Pcbnew,5.1.6-c6e7f7d~87~ubuntu18.04.1*
G04 #@! TF.CreationDate,2020-08-29T18:23:14+01:00*
G04 #@! TF.ProjectId,ossw_lcd,6f737377-5f6c-4636-942e-6b696361645f,1.1*
G04 #@! TF.SameCoordinates,Original*
G04 #@! TF.FileFunction,Legend,Top*
G04 #@! TF.FilePolarity,Positive*
%FSLAX46Y46*%
G04 Gerber Fmt 4.6, Leading zero omitted, Abs format (unit mm)*
G04 Created by KiCad (PCBNEW 5.1.6-c6e7f7d~87~ubuntu18.04.1) date 2020-08-29 18:23:14*
%MOMM*%
%LPD*%
G01*
G04 APERTURE LIST*
%ADD10C,0.125000*%
%ADD11C,0.120000*%
G04 APERTURE END LIST*
D10*
X160480380Y-102658076D02*
X160432761Y-102634266D01*
X160408952Y-102610457D01*
X160385142Y-102562838D01*
X160385142Y-102539028D01*
X160408952Y-102491409D01*
X160432761Y-102467600D01*
X160480380Y-102443790D01*
X160575619Y-102443790D01*
X160623238Y-102467600D01*
X160647047Y-102491409D01*
X160670857Y-102539028D01*
X160670857Y-102562838D01*
X160647047Y-102610457D01*
X160623238Y-102634266D01*
X160575619Y-102658076D01*
X160480380Y-102658076D01*
X160432761Y-102681885D01*
X160408952Y-102705695D01*
X160385142Y-102753314D01*
X160385142Y-102848552D01*
X160408952Y-102896171D01*
X160432761Y-102919980D01*
X160480380Y-102943790D01*
X160575619Y-102943790D01*
X160623238Y-102919980D01*
X160647047Y-102896171D01*
X160670857Y-102848552D01*
X160670857Y-102753314D01*
X160647047Y-102705695D01*
X160623238Y-102681885D01*
X160575619Y-102658076D01*
X151780857Y-102943790D02*
X151495142Y-102943790D01*
X151638000Y-102943790D02*
X151638000Y-102443790D01*
X151590380Y-102515219D01*
X151542761Y-102562838D01*
X151495142Y-102586647D01*
X178587447Y-102162800D02*
X178539828Y-102138990D01*
X178468400Y-102138990D01*
X178396971Y-102162800D01*
X178349352Y-102210419D01*
X178325542Y-102258038D01*
X178301733Y-102353276D01*
X178301733Y-102424704D01*
X178325542Y-102519942D01*
X178349352Y-102567561D01*
X178396971Y-102615180D01*
X178468400Y-102638990D01*
X178516019Y-102638990D01*
X178587447Y-102615180D01*
X178611257Y-102591371D01*
X178611257Y-102424704D01*
X178516019Y-102424704D01*
X178825542Y-102638990D02*
X178825542Y-102138990D01*
X179111257Y-102638990D01*
X179111257Y-102138990D01*
X179349352Y-102638990D02*
X179349352Y-102138990D01*
X179468400Y-102138990D01*
X179539828Y-102162800D01*
X179587447Y-102210419D01*
X179611257Y-102258038D01*
X179635066Y-102353276D01*
X179635066Y-102424704D01*
X179611257Y-102519942D01*
X179587447Y-102567561D01*
X179539828Y-102615180D01*
X179468400Y-102638990D01*
X179349352Y-102638990D01*
X176333161Y-102138990D02*
X176095066Y-102138990D01*
X176071257Y-102377085D01*
X176095066Y-102353276D01*
X176142685Y-102329466D01*
X176261733Y-102329466D01*
X176309352Y-102353276D01*
X176333161Y-102377085D01*
X176356971Y-102424704D01*
X176356971Y-102543752D01*
X176333161Y-102591371D01*
X176309352Y-102615180D01*
X176261733Y-102638990D01*
X176142685Y-102638990D01*
X176095066Y-102615180D01*
X176071257Y-102591371D01*
X176499828Y-102138990D02*
X176666495Y-102638990D01*
X176833161Y-102138990D01*
X173269352Y-102138990D02*
X173578876Y-102138990D01*
X173412209Y-102329466D01*
X173483638Y-102329466D01*
X173531257Y-102353276D01*
X173555066Y-102377085D01*
X173578876Y-102424704D01*
X173578876Y-102543752D01*
X173555066Y-102591371D01*
X173531257Y-102615180D01*
X173483638Y-102638990D01*
X173340780Y-102638990D01*
X173293161Y-102615180D01*
X173269352Y-102591371D01*
X173721733Y-102138990D02*
X173888400Y-102638990D01*
X174055066Y-102138990D01*
X174174114Y-102138990D02*
X174483638Y-102138990D01*
X174316971Y-102329466D01*
X174388400Y-102329466D01*
X174436019Y-102353276D01*
X174459828Y-102377085D01*
X174483638Y-102424704D01*
X174483638Y-102543752D01*
X174459828Y-102591371D01*
X174436019Y-102615180D01*
X174388400Y-102638990D01*
X174245542Y-102638990D01*
X174197923Y-102615180D01*
X174174114Y-102591371D01*
X170741257Y-102615180D02*
X170812685Y-102638990D01*
X170931733Y-102638990D01*
X170979352Y-102615180D01*
X171003161Y-102591371D01*
X171026971Y-102543752D01*
X171026971Y-102496133D01*
X171003161Y-102448514D01*
X170979352Y-102424704D01*
X170931733Y-102400895D01*
X170836495Y-102377085D01*
X170788876Y-102353276D01*
X170765066Y-102329466D01*
X170741257Y-102281847D01*
X170741257Y-102234228D01*
X170765066Y-102186609D01*
X170788876Y-102162800D01*
X170836495Y-102138990D01*
X170955542Y-102138990D01*
X171026971Y-102162800D01*
X171241257Y-102638990D02*
X171241257Y-102138990D01*
X171360304Y-102138990D01*
X171431733Y-102162800D01*
X171479352Y-102210419D01*
X171503161Y-102258038D01*
X171526971Y-102353276D01*
X171526971Y-102424704D01*
X171503161Y-102519942D01*
X171479352Y-102567561D01*
X171431733Y-102615180D01*
X171360304Y-102638990D01*
X171241257Y-102638990D01*
X171717447Y-102496133D02*
X171955542Y-102496133D01*
X171669828Y-102638990D02*
X171836495Y-102138990D01*
X172003161Y-102638990D01*
X168213161Y-102615180D02*
X168284590Y-102638990D01*
X168403638Y-102638990D01*
X168451257Y-102615180D01*
X168475066Y-102591371D01*
X168498876Y-102543752D01*
X168498876Y-102496133D01*
X168475066Y-102448514D01*
X168451257Y-102424704D01*
X168403638Y-102400895D01*
X168308400Y-102377085D01*
X168260780Y-102353276D01*
X168236971Y-102329466D01*
X168213161Y-102281847D01*
X168213161Y-102234228D01*
X168236971Y-102186609D01*
X168260780Y-102162800D01*
X168308400Y-102138990D01*
X168427447Y-102138990D01*
X168498876Y-102162800D01*
X168998876Y-102591371D02*
X168975066Y-102615180D01*
X168903638Y-102638990D01*
X168856019Y-102638990D01*
X168784590Y-102615180D01*
X168736971Y-102567561D01*
X168713161Y-102519942D01*
X168689352Y-102424704D01*
X168689352Y-102353276D01*
X168713161Y-102258038D01*
X168736971Y-102210419D01*
X168784590Y-102162800D01*
X168856019Y-102138990D01*
X168903638Y-102138990D01*
X168975066Y-102162800D01*
X168998876Y-102186609D01*
X169451257Y-102638990D02*
X169213161Y-102638990D01*
X169213161Y-102138990D01*
X165589828Y-101890300D02*
X166089828Y-101890300D01*
X165994590Y-102638990D02*
X165827923Y-102400895D01*
X165708876Y-102638990D02*
X165708876Y-102138990D01*
X165899352Y-102138990D01*
X165946971Y-102162800D01*
X165970780Y-102186609D01*
X165994590Y-102234228D01*
X165994590Y-102305657D01*
X165970780Y-102353276D01*
X165946971Y-102377085D01*
X165899352Y-102400895D01*
X165708876Y-102400895D01*
X166089828Y-101890300D02*
X166566019Y-101890300D01*
X166185066Y-102615180D02*
X166256495Y-102638990D01*
X166375542Y-102638990D01*
X166423161Y-102615180D01*
X166446971Y-102591371D01*
X166470780Y-102543752D01*
X166470780Y-102496133D01*
X166446971Y-102448514D01*
X166423161Y-102424704D01*
X166375542Y-102400895D01*
X166280304Y-102377085D01*
X166232685Y-102353276D01*
X166208876Y-102329466D01*
X166185066Y-102281847D01*
X166185066Y-102234228D01*
X166208876Y-102186609D01*
X166232685Y-102162800D01*
X166280304Y-102138990D01*
X166399352Y-102138990D01*
X166470780Y-102162800D01*
X166566019Y-101890300D02*
X166946971Y-101890300D01*
X166613638Y-102138990D02*
X166899352Y-102138990D01*
X166756495Y-102638990D02*
X166756495Y-102138990D01*
D11*
X180349200Y-105876400D02*
X180349200Y-103216400D01*
X167589200Y-105876400D02*
X180349200Y-105876400D01*
X167589200Y-103216400D02*
X180349200Y-103216400D01*
X167589200Y-105876400D02*
X167589200Y-103216400D01*
X166319200Y-105876400D02*
X164989200Y-105876400D01*
X164989200Y-105876400D02*
X164989200Y-104546400D01*
X161223000Y-105910400D02*
X161223000Y-105107930D01*
X161223000Y-104492870D02*
X161223000Y-103690400D01*
X152398000Y-105910400D02*
X161223000Y-105910400D01*
X152398000Y-103690400D02*
X161223000Y-103690400D01*
X152398000Y-105910400D02*
X152398000Y-105363871D01*
X152398000Y-104236929D02*
X152398000Y-103690400D01*
X151638000Y-105910400D02*
X150878000Y-105910400D01*
X150878000Y-105910400D02*
X150878000Y-104800400D01*
M02*
