G04 #@! TF.GenerationSoftware,KiCad,Pcbnew,5.1.6-c6e7f7d~87~ubuntu18.04.1*
G04 #@! TF.CreationDate,2020-08-29T18:23:14+01:00*
G04 #@! TF.ProjectId,ossw_lcd,6f737377-5f6c-4636-942e-6b696361645f,1.1*
G04 #@! TF.SameCoordinates,Original*
G04 #@! TF.FileFunction,Soldermask,Bot*
G04 #@! TF.FilePolarity,Negative*
%FSLAX46Y46*%
G04 Gerber Fmt 4.6, Leading zero omitted, Abs format (unit mm)*
G04 Created by KiCad (PCBNEW 5.1.6-c6e7f7d~87~ubuntu18.04.1) date 2020-08-29 18:23:14*
%MOMM*%
%LPD*%
G01*
G04 APERTURE LIST*
%ADD10C,0.100000*%
G04 APERTURE END LIST*
D10*
G36*
X191096600Y-107605400D02*
G01*
X182994600Y-107605400D01*
X182994600Y-102503400D01*
X191096600Y-102503400D01*
X191096600Y-107605400D01*
G37*
G36*
X141084000Y-107605400D02*
G01*
X132982000Y-107605400D01*
X132982000Y-102503400D01*
X141084000Y-102503400D01*
X141084000Y-107605400D01*
G37*
G36*
X168972712Y-103650327D02*
G01*
X169122012Y-103680024D01*
X169285984Y-103747944D01*
X169433554Y-103846547D01*
X169559053Y-103972046D01*
X169657656Y-104119616D01*
X169725576Y-104283588D01*
X169743243Y-104372409D01*
X169760200Y-104457658D01*
X169760200Y-104635142D01*
X169756182Y-104655341D01*
X169725576Y-104809212D01*
X169657656Y-104973184D01*
X169559053Y-105120754D01*
X169433554Y-105246253D01*
X169285984Y-105344856D01*
X169122012Y-105412776D01*
X168972712Y-105442473D01*
X168947942Y-105447400D01*
X168770458Y-105447400D01*
X168745688Y-105442473D01*
X168596388Y-105412776D01*
X168432416Y-105344856D01*
X168284846Y-105246253D01*
X168159347Y-105120754D01*
X168060744Y-104973184D01*
X167992824Y-104809212D01*
X167962218Y-104655341D01*
X167958200Y-104635142D01*
X167958200Y-104457658D01*
X167975157Y-104372409D01*
X167992824Y-104283588D01*
X168060744Y-104119616D01*
X168159347Y-103972046D01*
X168284846Y-103846547D01*
X168432416Y-103747944D01*
X168596388Y-103680024D01*
X168745688Y-103650327D01*
X168770458Y-103645400D01*
X168947942Y-103645400D01*
X168972712Y-103650327D01*
G37*
G36*
X167220200Y-105447400D02*
G01*
X165418200Y-105447400D01*
X165418200Y-103645400D01*
X167220200Y-103645400D01*
X167220200Y-105447400D01*
G37*
G36*
X174052712Y-103650327D02*
G01*
X174202012Y-103680024D01*
X174365984Y-103747944D01*
X174513554Y-103846547D01*
X174639053Y-103972046D01*
X174737656Y-104119616D01*
X174805576Y-104283588D01*
X174823243Y-104372409D01*
X174840200Y-104457658D01*
X174840200Y-104635142D01*
X174836182Y-104655341D01*
X174805576Y-104809212D01*
X174737656Y-104973184D01*
X174639053Y-105120754D01*
X174513554Y-105246253D01*
X174365984Y-105344856D01*
X174202012Y-105412776D01*
X174052712Y-105442473D01*
X174027942Y-105447400D01*
X173850458Y-105447400D01*
X173825688Y-105442473D01*
X173676388Y-105412776D01*
X173512416Y-105344856D01*
X173364846Y-105246253D01*
X173239347Y-105120754D01*
X173140744Y-104973184D01*
X173072824Y-104809212D01*
X173042218Y-104655341D01*
X173038200Y-104635142D01*
X173038200Y-104457658D01*
X173055157Y-104372409D01*
X173072824Y-104283588D01*
X173140744Y-104119616D01*
X173239347Y-103972046D01*
X173364846Y-103846547D01*
X173512416Y-103747944D01*
X173676388Y-103680024D01*
X173825688Y-103650327D01*
X173850458Y-103645400D01*
X174027942Y-103645400D01*
X174052712Y-103650327D01*
G37*
G36*
X176592712Y-103650327D02*
G01*
X176742012Y-103680024D01*
X176905984Y-103747944D01*
X177053554Y-103846547D01*
X177179053Y-103972046D01*
X177277656Y-104119616D01*
X177345576Y-104283588D01*
X177363243Y-104372409D01*
X177380200Y-104457658D01*
X177380200Y-104635142D01*
X177376182Y-104655341D01*
X177345576Y-104809212D01*
X177277656Y-104973184D01*
X177179053Y-105120754D01*
X177053554Y-105246253D01*
X176905984Y-105344856D01*
X176742012Y-105412776D01*
X176592712Y-105442473D01*
X176567942Y-105447400D01*
X176390458Y-105447400D01*
X176365688Y-105442473D01*
X176216388Y-105412776D01*
X176052416Y-105344856D01*
X175904846Y-105246253D01*
X175779347Y-105120754D01*
X175680744Y-104973184D01*
X175612824Y-104809212D01*
X175582218Y-104655341D01*
X175578200Y-104635142D01*
X175578200Y-104457658D01*
X175595157Y-104372409D01*
X175612824Y-104283588D01*
X175680744Y-104119616D01*
X175779347Y-103972046D01*
X175904846Y-103846547D01*
X176052416Y-103747944D01*
X176216388Y-103680024D01*
X176365688Y-103650327D01*
X176390458Y-103645400D01*
X176567942Y-103645400D01*
X176592712Y-103650327D01*
G37*
G36*
X179132712Y-103650327D02*
G01*
X179282012Y-103680024D01*
X179445984Y-103747944D01*
X179593554Y-103846547D01*
X179719053Y-103972046D01*
X179817656Y-104119616D01*
X179885576Y-104283588D01*
X179903243Y-104372409D01*
X179920200Y-104457658D01*
X179920200Y-104635142D01*
X179916182Y-104655341D01*
X179885576Y-104809212D01*
X179817656Y-104973184D01*
X179719053Y-105120754D01*
X179593554Y-105246253D01*
X179445984Y-105344856D01*
X179282012Y-105412776D01*
X179132712Y-105442473D01*
X179107942Y-105447400D01*
X178930458Y-105447400D01*
X178905688Y-105442473D01*
X178756388Y-105412776D01*
X178592416Y-105344856D01*
X178444846Y-105246253D01*
X178319347Y-105120754D01*
X178220744Y-104973184D01*
X178152824Y-104809212D01*
X178122218Y-104655341D01*
X178118200Y-104635142D01*
X178118200Y-104457658D01*
X178135157Y-104372409D01*
X178152824Y-104283588D01*
X178220744Y-104119616D01*
X178319347Y-103972046D01*
X178444846Y-103846547D01*
X178592416Y-103747944D01*
X178756388Y-103680024D01*
X178905688Y-103650327D01*
X178930458Y-103645400D01*
X179107942Y-103645400D01*
X179132712Y-103650327D01*
G37*
G36*
X171512712Y-103650327D02*
G01*
X171662012Y-103680024D01*
X171825984Y-103747944D01*
X171973554Y-103846547D01*
X172099053Y-103972046D01*
X172197656Y-104119616D01*
X172265576Y-104283588D01*
X172283243Y-104372409D01*
X172300200Y-104457658D01*
X172300200Y-104635142D01*
X172296182Y-104655341D01*
X172265576Y-104809212D01*
X172197656Y-104973184D01*
X172099053Y-105120754D01*
X171973554Y-105246253D01*
X171825984Y-105344856D01*
X171662012Y-105412776D01*
X171512712Y-105442473D01*
X171487942Y-105447400D01*
X171310458Y-105447400D01*
X171285688Y-105442473D01*
X171136388Y-105412776D01*
X170972416Y-105344856D01*
X170824846Y-105246253D01*
X170699347Y-105120754D01*
X170600744Y-104973184D01*
X170532824Y-104809212D01*
X170502218Y-104655341D01*
X170498200Y-104635142D01*
X170498200Y-104457658D01*
X170515157Y-104372409D01*
X170532824Y-104283588D01*
X170600744Y-104119616D01*
X170699347Y-103972046D01*
X170824846Y-103846547D01*
X170972416Y-103747944D01*
X171136388Y-103680024D01*
X171285688Y-103650327D01*
X171310458Y-103645400D01*
X171487942Y-103645400D01*
X171512712Y-103650327D01*
G37*
G36*
X152189000Y-104472618D02*
G01*
X152191402Y-104497004D01*
X152198515Y-104520453D01*
X152210066Y-104542064D01*
X152225611Y-104561006D01*
X152244553Y-104576551D01*
X152266164Y-104588102D01*
X152289613Y-104595215D01*
X152313999Y-104597617D01*
X152338385Y-104595215D01*
X152361834Y-104588102D01*
X152383445Y-104576551D01*
X152402387Y-104561006D01*
X152417932Y-104542064D01*
X152480009Y-104449160D01*
X152480010Y-104449158D01*
X152556758Y-104372410D01*
X152647004Y-104312110D01*
X152647005Y-104312109D01*
X152747279Y-104270574D01*
X152853730Y-104249400D01*
X152962270Y-104249400D01*
X153068721Y-104270574D01*
X153168995Y-104312109D01*
X153168996Y-104312110D01*
X153259242Y-104372410D01*
X153335990Y-104449158D01*
X153335991Y-104449160D01*
X153396291Y-104539405D01*
X153427516Y-104614789D01*
X153439067Y-104636400D01*
X153454612Y-104655341D01*
X153473554Y-104670887D01*
X153495165Y-104682438D01*
X153518614Y-104689551D01*
X153543000Y-104691953D01*
X153567386Y-104689551D01*
X153590835Y-104682438D01*
X153612446Y-104670887D01*
X153631387Y-104655342D01*
X153646933Y-104636400D01*
X153658484Y-104614789D01*
X153689709Y-104539405D01*
X153750009Y-104449160D01*
X153750010Y-104449158D01*
X153826758Y-104372410D01*
X153917004Y-104312110D01*
X153917005Y-104312109D01*
X154017279Y-104270574D01*
X154123730Y-104249400D01*
X154232270Y-104249400D01*
X154338721Y-104270574D01*
X154438995Y-104312109D01*
X154438996Y-104312110D01*
X154529242Y-104372410D01*
X154605990Y-104449158D01*
X154605991Y-104449160D01*
X154666291Y-104539405D01*
X154697516Y-104614789D01*
X154709067Y-104636400D01*
X154724612Y-104655341D01*
X154743554Y-104670887D01*
X154765165Y-104682438D01*
X154788614Y-104689551D01*
X154813000Y-104691953D01*
X154837386Y-104689551D01*
X154860835Y-104682438D01*
X154882446Y-104670887D01*
X154901387Y-104655342D01*
X154916933Y-104636400D01*
X154928484Y-104614789D01*
X154959709Y-104539405D01*
X155020009Y-104449160D01*
X155020010Y-104449158D01*
X155096758Y-104372410D01*
X155187004Y-104312110D01*
X155187005Y-104312109D01*
X155287279Y-104270574D01*
X155393730Y-104249400D01*
X155502270Y-104249400D01*
X155608721Y-104270574D01*
X155708995Y-104312109D01*
X155708996Y-104312110D01*
X155799242Y-104372410D01*
X155875990Y-104449158D01*
X155875991Y-104449160D01*
X155936291Y-104539405D01*
X155967516Y-104614789D01*
X155979067Y-104636400D01*
X155994612Y-104655341D01*
X156013554Y-104670887D01*
X156035165Y-104682438D01*
X156058614Y-104689551D01*
X156083000Y-104691953D01*
X156107386Y-104689551D01*
X156130835Y-104682438D01*
X156152446Y-104670887D01*
X156171387Y-104655342D01*
X156186933Y-104636400D01*
X156198484Y-104614789D01*
X156229709Y-104539405D01*
X156290009Y-104449160D01*
X156290010Y-104449158D01*
X156366758Y-104372410D01*
X156457004Y-104312110D01*
X156457005Y-104312109D01*
X156557279Y-104270574D01*
X156663730Y-104249400D01*
X156772270Y-104249400D01*
X156878721Y-104270574D01*
X156978995Y-104312109D01*
X156978996Y-104312110D01*
X157069242Y-104372410D01*
X157145990Y-104449158D01*
X157145991Y-104449160D01*
X157206291Y-104539405D01*
X157237516Y-104614789D01*
X157249067Y-104636400D01*
X157264612Y-104655341D01*
X157283554Y-104670887D01*
X157305165Y-104682438D01*
X157328614Y-104689551D01*
X157353000Y-104691953D01*
X157377386Y-104689551D01*
X157400835Y-104682438D01*
X157422446Y-104670887D01*
X157441387Y-104655342D01*
X157456933Y-104636400D01*
X157468484Y-104614789D01*
X157499709Y-104539405D01*
X157560009Y-104449160D01*
X157560010Y-104449158D01*
X157636758Y-104372410D01*
X157727004Y-104312110D01*
X157727005Y-104312109D01*
X157827279Y-104270574D01*
X157933730Y-104249400D01*
X158042270Y-104249400D01*
X158148721Y-104270574D01*
X158248995Y-104312109D01*
X158248996Y-104312110D01*
X158339242Y-104372410D01*
X158415990Y-104449158D01*
X158415991Y-104449160D01*
X158476291Y-104539405D01*
X158507516Y-104614789D01*
X158519067Y-104636400D01*
X158534612Y-104655341D01*
X158553554Y-104670887D01*
X158575165Y-104682438D01*
X158598614Y-104689551D01*
X158623000Y-104691953D01*
X158647386Y-104689551D01*
X158670835Y-104682438D01*
X158692446Y-104670887D01*
X158711387Y-104655342D01*
X158726933Y-104636400D01*
X158738484Y-104614789D01*
X158769709Y-104539405D01*
X158830009Y-104449160D01*
X158830010Y-104449158D01*
X158906758Y-104372410D01*
X158997004Y-104312110D01*
X158997005Y-104312109D01*
X159097279Y-104270574D01*
X159203730Y-104249400D01*
X159312270Y-104249400D01*
X159418721Y-104270574D01*
X159518995Y-104312109D01*
X159518996Y-104312110D01*
X159609242Y-104372410D01*
X159685990Y-104449158D01*
X159685991Y-104449160D01*
X159746291Y-104539405D01*
X159777516Y-104614789D01*
X159789067Y-104636400D01*
X159804612Y-104655341D01*
X159823554Y-104670887D01*
X159845165Y-104682438D01*
X159868614Y-104689551D01*
X159893000Y-104691953D01*
X159917386Y-104689551D01*
X159940835Y-104682438D01*
X159962446Y-104670887D01*
X159981387Y-104655342D01*
X159996933Y-104636400D01*
X160008484Y-104614789D01*
X160039709Y-104539405D01*
X160100009Y-104449160D01*
X160100010Y-104449158D01*
X160176758Y-104372410D01*
X160267004Y-104312110D01*
X160267005Y-104312109D01*
X160367279Y-104270574D01*
X160473730Y-104249400D01*
X160582270Y-104249400D01*
X160688721Y-104270574D01*
X160788995Y-104312109D01*
X160788996Y-104312110D01*
X160879242Y-104372410D01*
X160955990Y-104449158D01*
X160955991Y-104449160D01*
X161016291Y-104539405D01*
X161057826Y-104639679D01*
X161079000Y-104746130D01*
X161079000Y-104854670D01*
X161057826Y-104961121D01*
X161016291Y-105061395D01*
X161016290Y-105061396D01*
X160955990Y-105151642D01*
X160879242Y-105228390D01*
X160852509Y-105246252D01*
X160788995Y-105288691D01*
X160688721Y-105330226D01*
X160582270Y-105351400D01*
X160473730Y-105351400D01*
X160367279Y-105330226D01*
X160267005Y-105288691D01*
X160203491Y-105246252D01*
X160176758Y-105228390D01*
X160100010Y-105151642D01*
X160039710Y-105061396D01*
X160039709Y-105061395D01*
X160008484Y-104986011D01*
X159996933Y-104964400D01*
X159981388Y-104945459D01*
X159962446Y-104929913D01*
X159940835Y-104918362D01*
X159917386Y-104911249D01*
X159893000Y-104908847D01*
X159868614Y-104911249D01*
X159845165Y-104918362D01*
X159823554Y-104929913D01*
X159804613Y-104945458D01*
X159789067Y-104964400D01*
X159777516Y-104986011D01*
X159746291Y-105061395D01*
X159746290Y-105061396D01*
X159685990Y-105151642D01*
X159609242Y-105228390D01*
X159582509Y-105246252D01*
X159518995Y-105288691D01*
X159418721Y-105330226D01*
X159312270Y-105351400D01*
X159203730Y-105351400D01*
X159097279Y-105330226D01*
X158997005Y-105288691D01*
X158933491Y-105246252D01*
X158906758Y-105228390D01*
X158830010Y-105151642D01*
X158769710Y-105061396D01*
X158769709Y-105061395D01*
X158738484Y-104986011D01*
X158726933Y-104964400D01*
X158711388Y-104945459D01*
X158692446Y-104929913D01*
X158670835Y-104918362D01*
X158647386Y-104911249D01*
X158623000Y-104908847D01*
X158598614Y-104911249D01*
X158575165Y-104918362D01*
X158553554Y-104929913D01*
X158534613Y-104945458D01*
X158519067Y-104964400D01*
X158507516Y-104986011D01*
X158476291Y-105061395D01*
X158476290Y-105061396D01*
X158415990Y-105151642D01*
X158339242Y-105228390D01*
X158312509Y-105246252D01*
X158248995Y-105288691D01*
X158148721Y-105330226D01*
X158042270Y-105351400D01*
X157933730Y-105351400D01*
X157827279Y-105330226D01*
X157727005Y-105288691D01*
X157663491Y-105246252D01*
X157636758Y-105228390D01*
X157560010Y-105151642D01*
X157499710Y-105061396D01*
X157499709Y-105061395D01*
X157468484Y-104986011D01*
X157456933Y-104964400D01*
X157441388Y-104945459D01*
X157422446Y-104929913D01*
X157400835Y-104918362D01*
X157377386Y-104911249D01*
X157353000Y-104908847D01*
X157328614Y-104911249D01*
X157305165Y-104918362D01*
X157283554Y-104929913D01*
X157264613Y-104945458D01*
X157249067Y-104964400D01*
X157237516Y-104986011D01*
X157206291Y-105061395D01*
X157206290Y-105061396D01*
X157145990Y-105151642D01*
X157069242Y-105228390D01*
X157042509Y-105246252D01*
X156978995Y-105288691D01*
X156878721Y-105330226D01*
X156772270Y-105351400D01*
X156663730Y-105351400D01*
X156557279Y-105330226D01*
X156457005Y-105288691D01*
X156393491Y-105246252D01*
X156366758Y-105228390D01*
X156290010Y-105151642D01*
X156229710Y-105061396D01*
X156229709Y-105061395D01*
X156198484Y-104986011D01*
X156186933Y-104964400D01*
X156171388Y-104945459D01*
X156152446Y-104929913D01*
X156130835Y-104918362D01*
X156107386Y-104911249D01*
X156083000Y-104908847D01*
X156058614Y-104911249D01*
X156035165Y-104918362D01*
X156013554Y-104929913D01*
X155994613Y-104945458D01*
X155979067Y-104964400D01*
X155967516Y-104986011D01*
X155936291Y-105061395D01*
X155936290Y-105061396D01*
X155875990Y-105151642D01*
X155799242Y-105228390D01*
X155772509Y-105246252D01*
X155708995Y-105288691D01*
X155608721Y-105330226D01*
X155502270Y-105351400D01*
X155393730Y-105351400D01*
X155287279Y-105330226D01*
X155187005Y-105288691D01*
X155123491Y-105246252D01*
X155096758Y-105228390D01*
X155020010Y-105151642D01*
X154959710Y-105061396D01*
X154959709Y-105061395D01*
X154928484Y-104986011D01*
X154916933Y-104964400D01*
X154901388Y-104945459D01*
X154882446Y-104929913D01*
X154860835Y-104918362D01*
X154837386Y-104911249D01*
X154813000Y-104908847D01*
X154788614Y-104911249D01*
X154765165Y-104918362D01*
X154743554Y-104929913D01*
X154724613Y-104945458D01*
X154709067Y-104964400D01*
X154697516Y-104986011D01*
X154666291Y-105061395D01*
X154666290Y-105061396D01*
X154605990Y-105151642D01*
X154529242Y-105228390D01*
X154502509Y-105246252D01*
X154438995Y-105288691D01*
X154338721Y-105330226D01*
X154232270Y-105351400D01*
X154123730Y-105351400D01*
X154017279Y-105330226D01*
X153917005Y-105288691D01*
X153853491Y-105246252D01*
X153826758Y-105228390D01*
X153750010Y-105151642D01*
X153689710Y-105061396D01*
X153689709Y-105061395D01*
X153658484Y-104986011D01*
X153646933Y-104964400D01*
X153631388Y-104945459D01*
X153612446Y-104929913D01*
X153590835Y-104918362D01*
X153567386Y-104911249D01*
X153543000Y-104908847D01*
X153518614Y-104911249D01*
X153495165Y-104918362D01*
X153473554Y-104929913D01*
X153454613Y-104945458D01*
X153439067Y-104964400D01*
X153427516Y-104986011D01*
X153396291Y-105061395D01*
X153396290Y-105061396D01*
X153335990Y-105151642D01*
X153259242Y-105228390D01*
X153232509Y-105246252D01*
X153168995Y-105288691D01*
X153068721Y-105330226D01*
X152962270Y-105351400D01*
X152853730Y-105351400D01*
X152747279Y-105330226D01*
X152647005Y-105288691D01*
X152583491Y-105246252D01*
X152556758Y-105228390D01*
X152480010Y-105151642D01*
X152459012Y-105120216D01*
X152417932Y-105058736D01*
X152402386Y-105039794D01*
X152383444Y-105024249D01*
X152361833Y-105012698D01*
X152338385Y-105005585D01*
X152313998Y-105003183D01*
X152289612Y-105005585D01*
X152266163Y-105012698D01*
X152244553Y-105024249D01*
X152225611Y-105039795D01*
X152210066Y-105058737D01*
X152198515Y-105080348D01*
X152191402Y-105103796D01*
X152189000Y-105128182D01*
X152189000Y-105351400D01*
X151087000Y-105351400D01*
X151087000Y-104249400D01*
X152189000Y-104249400D01*
X152189000Y-104472618D01*
G37*
G36*
X194809239Y-99363101D02*
G01*
X195045053Y-99434634D01*
X195262381Y-99550799D01*
X195452871Y-99707129D01*
X195609201Y-99897619D01*
X195725366Y-100114947D01*
X195796899Y-100350761D01*
X195815000Y-100534543D01*
X195815000Y-102157457D01*
X195796899Y-102341239D01*
X195725366Y-102577053D01*
X195609201Y-102794381D01*
X195452871Y-102984871D01*
X195262380Y-103141201D01*
X195045052Y-103257366D01*
X194809238Y-103328899D01*
X194564000Y-103353053D01*
X194318761Y-103328899D01*
X194082947Y-103257366D01*
X193865619Y-103141201D01*
X193675129Y-102984871D01*
X193518799Y-102794380D01*
X193402634Y-102577052D01*
X193331101Y-102341238D01*
X193313000Y-102157456D01*
X193313000Y-100534543D01*
X193331101Y-100350761D01*
X193402635Y-100114947D01*
X193518800Y-99897619D01*
X193675130Y-99707129D01*
X193865620Y-99550799D01*
X194082948Y-99434634D01*
X194318762Y-99363101D01*
X194564000Y-99338947D01*
X194809239Y-99363101D01*
G37*
G36*
X191147400Y-101788800D02*
G01*
X183045400Y-101788800D01*
X183045400Y-96686800D01*
X191147400Y-96686800D01*
X191147400Y-101788800D01*
G37*
G36*
X141109400Y-101788800D02*
G01*
X133007400Y-101788800D01*
X133007400Y-96686800D01*
X141109400Y-96686800D01*
X141109400Y-101788800D01*
G37*
G36*
X165550468Y-94046365D02*
G01*
X165589138Y-94058096D01*
X165624777Y-94077146D01*
X165656017Y-94102783D01*
X165681654Y-94134023D01*
X165700704Y-94169662D01*
X165712435Y-94208332D01*
X165717000Y-94254688D01*
X165717000Y-95330912D01*
X165712435Y-95377268D01*
X165700704Y-95415938D01*
X165681654Y-95451577D01*
X165656017Y-95482817D01*
X165624777Y-95508454D01*
X165589138Y-95527504D01*
X165550468Y-95539235D01*
X165504112Y-95543800D01*
X164852888Y-95543800D01*
X164806532Y-95539235D01*
X164767862Y-95527504D01*
X164732223Y-95508454D01*
X164700983Y-95482817D01*
X164675346Y-95451577D01*
X164656296Y-95415938D01*
X164644565Y-95377268D01*
X164640000Y-95330912D01*
X164640000Y-94254688D01*
X164644565Y-94208332D01*
X164656296Y-94169662D01*
X164675346Y-94134023D01*
X164700983Y-94102783D01*
X164732223Y-94077146D01*
X164767862Y-94058096D01*
X164806532Y-94046365D01*
X164852888Y-94041800D01*
X165504112Y-94041800D01*
X165550468Y-94046365D01*
G37*
G36*
X167425468Y-94046365D02*
G01*
X167464138Y-94058096D01*
X167499777Y-94077146D01*
X167531017Y-94102783D01*
X167556654Y-94134023D01*
X167575704Y-94169662D01*
X167587435Y-94208332D01*
X167592000Y-94254688D01*
X167592000Y-95330912D01*
X167587435Y-95377268D01*
X167575704Y-95415938D01*
X167556654Y-95451577D01*
X167531017Y-95482817D01*
X167499777Y-95508454D01*
X167464138Y-95527504D01*
X167425468Y-95539235D01*
X167379112Y-95543800D01*
X166727888Y-95543800D01*
X166681532Y-95539235D01*
X166642862Y-95527504D01*
X166607223Y-95508454D01*
X166575983Y-95482817D01*
X166550346Y-95451577D01*
X166531296Y-95415938D01*
X166519565Y-95377268D01*
X166515000Y-95330912D01*
X166515000Y-94254688D01*
X166519565Y-94208332D01*
X166531296Y-94169662D01*
X166550346Y-94134023D01*
X166575983Y-94102783D01*
X166607223Y-94077146D01*
X166642862Y-94058096D01*
X166681532Y-94046365D01*
X166727888Y-94041800D01*
X167379112Y-94041800D01*
X167425468Y-94046365D01*
G37*
G36*
X162720721Y-94262974D02*
G01*
X162820995Y-94304509D01*
X162820996Y-94304510D01*
X162911242Y-94364810D01*
X162987990Y-94441558D01*
X162987991Y-94441560D01*
X163048291Y-94531805D01*
X163089826Y-94632079D01*
X163111000Y-94738530D01*
X163111000Y-94847070D01*
X163089826Y-94953521D01*
X163048291Y-95053795D01*
X163048290Y-95053796D01*
X162987990Y-95144042D01*
X162911242Y-95220790D01*
X162869955Y-95248377D01*
X162820995Y-95281091D01*
X162720721Y-95322626D01*
X162614270Y-95343800D01*
X162505730Y-95343800D01*
X162399279Y-95322626D01*
X162299005Y-95281091D01*
X162250045Y-95248377D01*
X162208758Y-95220790D01*
X162132010Y-95144042D01*
X162071710Y-95053796D01*
X162071709Y-95053795D01*
X162030174Y-94953521D01*
X162009000Y-94847070D01*
X162009000Y-94738530D01*
X162030174Y-94632079D01*
X162071709Y-94531805D01*
X162132009Y-94441560D01*
X162132010Y-94441558D01*
X162208758Y-94364810D01*
X162299004Y-94304510D01*
X162299005Y-94304509D01*
X162399279Y-94262974D01*
X162505730Y-94241800D01*
X162614270Y-94241800D01*
X162720721Y-94262974D01*
G37*
G36*
X154803968Y-93843165D02*
G01*
X154842638Y-93854896D01*
X154878277Y-93873946D01*
X154909517Y-93899583D01*
X154935154Y-93930823D01*
X154954204Y-93966462D01*
X154965935Y-94005132D01*
X154970500Y-94051488D01*
X154970500Y-95127712D01*
X154965935Y-95174068D01*
X154954204Y-95212738D01*
X154935154Y-95248377D01*
X154909517Y-95279617D01*
X154878277Y-95305254D01*
X154842638Y-95324304D01*
X154803968Y-95336035D01*
X154757612Y-95340600D01*
X154106388Y-95340600D01*
X154060032Y-95336035D01*
X154021362Y-95324304D01*
X153985723Y-95305254D01*
X153954483Y-95279617D01*
X153928846Y-95248377D01*
X153909796Y-95212738D01*
X153898065Y-95174068D01*
X153893500Y-95127712D01*
X153893500Y-94051488D01*
X153898065Y-94005132D01*
X153909796Y-93966462D01*
X153928846Y-93930823D01*
X153954483Y-93899583D01*
X153985723Y-93873946D01*
X154021362Y-93854896D01*
X154060032Y-93843165D01*
X154106388Y-93838600D01*
X154757612Y-93838600D01*
X154803968Y-93843165D01*
G37*
G36*
X152928968Y-93843165D02*
G01*
X152967638Y-93854896D01*
X153003277Y-93873946D01*
X153034517Y-93899583D01*
X153060154Y-93930823D01*
X153079204Y-93966462D01*
X153090935Y-94005132D01*
X153095500Y-94051488D01*
X153095500Y-95127712D01*
X153090935Y-95174068D01*
X153079204Y-95212738D01*
X153060154Y-95248377D01*
X153034517Y-95279617D01*
X153003277Y-95305254D01*
X152967638Y-95324304D01*
X152928968Y-95336035D01*
X152882612Y-95340600D01*
X152231388Y-95340600D01*
X152185032Y-95336035D01*
X152146362Y-95324304D01*
X152110723Y-95305254D01*
X152079483Y-95279617D01*
X152053846Y-95248377D01*
X152034796Y-95212738D01*
X152023065Y-95174068D01*
X152018500Y-95127712D01*
X152018500Y-94051488D01*
X152023065Y-94005132D01*
X152034796Y-93966462D01*
X152053846Y-93930823D01*
X152079483Y-93899583D01*
X152110723Y-93873946D01*
X152146362Y-93854896D01*
X152185032Y-93843165D01*
X152231388Y-93838600D01*
X152882612Y-93838600D01*
X152928968Y-93843165D01*
G37*
G36*
X174366568Y-91963565D02*
G01*
X174405238Y-91975296D01*
X174440877Y-91994346D01*
X174472117Y-92019983D01*
X174497754Y-92051223D01*
X174516804Y-92086862D01*
X174528535Y-92125532D01*
X174533100Y-92171888D01*
X174533100Y-93248112D01*
X174528535Y-93294468D01*
X174516804Y-93333138D01*
X174497754Y-93368777D01*
X174472117Y-93400017D01*
X174440877Y-93425654D01*
X174405238Y-93444704D01*
X174366568Y-93456435D01*
X174320212Y-93461000D01*
X173668988Y-93461000D01*
X173622632Y-93456435D01*
X173583962Y-93444704D01*
X173548323Y-93425654D01*
X173517083Y-93400017D01*
X173491446Y-93368777D01*
X173472396Y-93333138D01*
X173460665Y-93294468D01*
X173456100Y-93248112D01*
X173456100Y-92171888D01*
X173460665Y-92125532D01*
X173472396Y-92086862D01*
X173491446Y-92051223D01*
X173517083Y-92019983D01*
X173548323Y-91994346D01*
X173583962Y-91975296D01*
X173622632Y-91963565D01*
X173668988Y-91959000D01*
X174320212Y-91959000D01*
X174366568Y-91963565D01*
G37*
G36*
X176241568Y-91963565D02*
G01*
X176280238Y-91975296D01*
X176315877Y-91994346D01*
X176347117Y-92019983D01*
X176372754Y-92051223D01*
X176391804Y-92086862D01*
X176403535Y-92125532D01*
X176408100Y-92171888D01*
X176408100Y-93248112D01*
X176403535Y-93294468D01*
X176391804Y-93333138D01*
X176372754Y-93368777D01*
X176347117Y-93400017D01*
X176315877Y-93425654D01*
X176280238Y-93444704D01*
X176241568Y-93456435D01*
X176195212Y-93461000D01*
X175543988Y-93461000D01*
X175497632Y-93456435D01*
X175458962Y-93444704D01*
X175423323Y-93425654D01*
X175392083Y-93400017D01*
X175366446Y-93368777D01*
X175347396Y-93333138D01*
X175335665Y-93294468D01*
X175331100Y-93248112D01*
X175331100Y-92171888D01*
X175335665Y-92125532D01*
X175347396Y-92086862D01*
X175366446Y-92051223D01*
X175392083Y-92019983D01*
X175423323Y-91994346D01*
X175458962Y-91975296D01*
X175497632Y-91963565D01*
X175543988Y-91959000D01*
X176195212Y-91959000D01*
X176241568Y-91963565D01*
G37*
G36*
X182854868Y-91538765D02*
G01*
X182893538Y-91550496D01*
X182929177Y-91569546D01*
X182960417Y-91595183D01*
X182986054Y-91626423D01*
X183005104Y-91662062D01*
X183016835Y-91700732D01*
X183021400Y-91747088D01*
X183021400Y-92398312D01*
X183016835Y-92444668D01*
X183005104Y-92483338D01*
X182986054Y-92518977D01*
X182960417Y-92550217D01*
X182929177Y-92575854D01*
X182893538Y-92594904D01*
X182854868Y-92606635D01*
X182808512Y-92611200D01*
X181732288Y-92611200D01*
X181685932Y-92606635D01*
X181647262Y-92594904D01*
X181611623Y-92575854D01*
X181580383Y-92550217D01*
X181554746Y-92518977D01*
X181535696Y-92483338D01*
X181523965Y-92444668D01*
X181519400Y-92398312D01*
X181519400Y-91747088D01*
X181523965Y-91700732D01*
X181535696Y-91662062D01*
X181554746Y-91626423D01*
X181580383Y-91595183D01*
X181611623Y-91569546D01*
X181647262Y-91550496D01*
X181685932Y-91538765D01*
X181732288Y-91534200D01*
X182808512Y-91534200D01*
X182854868Y-91538765D01*
G37*
G36*
X152850468Y-90287165D02*
G01*
X152889138Y-90298896D01*
X152924777Y-90317946D01*
X152956017Y-90343583D01*
X152981654Y-90374823D01*
X153000704Y-90410462D01*
X153012435Y-90449132D01*
X153017000Y-90495488D01*
X153017000Y-91571712D01*
X153012435Y-91618068D01*
X153000704Y-91656738D01*
X152981654Y-91692377D01*
X152956017Y-91723617D01*
X152924777Y-91749254D01*
X152889138Y-91768304D01*
X152850468Y-91780035D01*
X152804112Y-91784600D01*
X152152888Y-91784600D01*
X152106532Y-91780035D01*
X152067862Y-91768304D01*
X152032223Y-91749254D01*
X152000983Y-91723617D01*
X151975346Y-91692377D01*
X151956296Y-91656738D01*
X151944565Y-91618068D01*
X151940000Y-91571712D01*
X151940000Y-90495488D01*
X151944565Y-90449132D01*
X151956296Y-90410462D01*
X151975346Y-90374823D01*
X152000983Y-90343583D01*
X152032223Y-90317946D01*
X152067862Y-90298896D01*
X152106532Y-90287165D01*
X152152888Y-90282600D01*
X152804112Y-90282600D01*
X152850468Y-90287165D01*
G37*
G36*
X154725468Y-90287165D02*
G01*
X154764138Y-90298896D01*
X154799777Y-90317946D01*
X154831017Y-90343583D01*
X154856654Y-90374823D01*
X154875704Y-90410462D01*
X154887435Y-90449132D01*
X154892000Y-90495488D01*
X154892000Y-91571712D01*
X154887435Y-91618068D01*
X154875704Y-91656738D01*
X154856654Y-91692377D01*
X154831017Y-91723617D01*
X154799777Y-91749254D01*
X154764138Y-91768304D01*
X154725468Y-91780035D01*
X154679112Y-91784600D01*
X154027888Y-91784600D01*
X153981532Y-91780035D01*
X153942862Y-91768304D01*
X153907223Y-91749254D01*
X153875983Y-91723617D01*
X153850346Y-91692377D01*
X153831296Y-91656738D01*
X153819565Y-91618068D01*
X153815000Y-91571712D01*
X153815000Y-90495488D01*
X153819565Y-90449132D01*
X153831296Y-90410462D01*
X153850346Y-90374823D01*
X153875983Y-90343583D01*
X153907223Y-90317946D01*
X153942862Y-90298896D01*
X153981532Y-90287165D01*
X154027888Y-90282600D01*
X154679112Y-90282600D01*
X154725468Y-90287165D01*
G37*
G36*
X165550468Y-89474365D02*
G01*
X165589138Y-89486096D01*
X165624777Y-89505146D01*
X165656017Y-89530783D01*
X165681654Y-89562023D01*
X165700704Y-89597662D01*
X165712435Y-89636332D01*
X165717000Y-89682688D01*
X165717000Y-90758912D01*
X165712435Y-90805268D01*
X165700704Y-90843938D01*
X165681654Y-90879577D01*
X165656017Y-90910817D01*
X165624777Y-90936454D01*
X165589138Y-90955504D01*
X165550468Y-90967235D01*
X165504112Y-90971800D01*
X164852888Y-90971800D01*
X164806532Y-90967235D01*
X164767862Y-90955504D01*
X164732223Y-90936454D01*
X164700983Y-90910817D01*
X164675346Y-90879577D01*
X164656296Y-90843938D01*
X164644565Y-90805268D01*
X164640000Y-90758912D01*
X164640000Y-89682688D01*
X164644565Y-89636332D01*
X164656296Y-89597662D01*
X164675346Y-89562023D01*
X164700983Y-89530783D01*
X164732223Y-89505146D01*
X164767862Y-89486096D01*
X164806532Y-89474365D01*
X164852888Y-89469800D01*
X165504112Y-89469800D01*
X165550468Y-89474365D01*
G37*
G36*
X167425468Y-89474365D02*
G01*
X167464138Y-89486096D01*
X167499777Y-89505146D01*
X167531017Y-89530783D01*
X167556654Y-89562023D01*
X167575704Y-89597662D01*
X167587435Y-89636332D01*
X167592000Y-89682688D01*
X167592000Y-90758912D01*
X167587435Y-90805268D01*
X167575704Y-90843938D01*
X167556654Y-90879577D01*
X167531017Y-90910817D01*
X167499777Y-90936454D01*
X167464138Y-90955504D01*
X167425468Y-90967235D01*
X167379112Y-90971800D01*
X166727888Y-90971800D01*
X166681532Y-90967235D01*
X166642862Y-90955504D01*
X166607223Y-90936454D01*
X166575983Y-90910817D01*
X166550346Y-90879577D01*
X166531296Y-90843938D01*
X166519565Y-90805268D01*
X166515000Y-90758912D01*
X166515000Y-89682688D01*
X166519565Y-89636332D01*
X166531296Y-89597662D01*
X166550346Y-89562023D01*
X166575983Y-89530783D01*
X166607223Y-89505146D01*
X166642862Y-89486096D01*
X166681532Y-89474365D01*
X166727888Y-89469800D01*
X167379112Y-89469800D01*
X167425468Y-89474365D01*
G37*
G36*
X162720721Y-89690974D02*
G01*
X162820995Y-89732509D01*
X162829304Y-89738061D01*
X162911242Y-89792810D01*
X162987990Y-89869558D01*
X162989680Y-89872088D01*
X163048291Y-89959805D01*
X163089826Y-90060079D01*
X163111000Y-90166530D01*
X163111000Y-90275070D01*
X163089826Y-90381521D01*
X163048291Y-90481795D01*
X163023624Y-90518712D01*
X162987990Y-90572042D01*
X162911242Y-90648790D01*
X162898447Y-90657339D01*
X162820995Y-90709091D01*
X162720721Y-90750626D01*
X162614270Y-90771800D01*
X162505730Y-90771800D01*
X162399279Y-90750626D01*
X162299005Y-90709091D01*
X162221553Y-90657339D01*
X162208758Y-90648790D01*
X162132010Y-90572042D01*
X162096376Y-90518712D01*
X162071709Y-90481795D01*
X162030174Y-90381521D01*
X162009000Y-90275070D01*
X162009000Y-90166530D01*
X162030174Y-90060079D01*
X162071709Y-89959805D01*
X162130320Y-89872088D01*
X162132010Y-89869558D01*
X162208758Y-89792810D01*
X162290696Y-89738061D01*
X162299005Y-89732509D01*
X162399279Y-89690974D01*
X162505730Y-89669800D01*
X162614270Y-89669800D01*
X162720721Y-89690974D01*
G37*
G36*
X182854868Y-89663765D02*
G01*
X182893538Y-89675496D01*
X182929177Y-89694546D01*
X182960417Y-89720183D01*
X182986054Y-89751423D01*
X183005104Y-89787062D01*
X183016835Y-89825732D01*
X183021400Y-89872088D01*
X183021400Y-90523312D01*
X183016835Y-90569668D01*
X183005104Y-90608338D01*
X182986054Y-90643977D01*
X182960417Y-90675217D01*
X182929177Y-90700854D01*
X182893538Y-90719904D01*
X182854868Y-90731635D01*
X182808512Y-90736200D01*
X181732288Y-90736200D01*
X181685932Y-90731635D01*
X181647262Y-90719904D01*
X181611623Y-90700854D01*
X181580383Y-90675217D01*
X181554746Y-90643977D01*
X181535696Y-90608338D01*
X181523965Y-90569668D01*
X181519400Y-90523312D01*
X181519400Y-89872088D01*
X181523965Y-89825732D01*
X181535696Y-89787062D01*
X181554746Y-89751423D01*
X181580383Y-89720183D01*
X181611623Y-89694546D01*
X181647262Y-89675496D01*
X181685932Y-89663765D01*
X181732288Y-89659200D01*
X182808512Y-89659200D01*
X182854868Y-89663765D01*
G37*
G36*
X178790868Y-89659165D02*
G01*
X178829538Y-89670896D01*
X178865177Y-89689946D01*
X178896417Y-89715583D01*
X178922054Y-89746823D01*
X178941104Y-89782462D01*
X178952835Y-89821132D01*
X178957400Y-89867488D01*
X178957400Y-90518712D01*
X178952835Y-90565068D01*
X178941104Y-90603738D01*
X178922054Y-90639377D01*
X178896417Y-90670617D01*
X178865177Y-90696254D01*
X178829538Y-90715304D01*
X178790868Y-90727035D01*
X178744512Y-90731600D01*
X177668288Y-90731600D01*
X177621932Y-90727035D01*
X177583262Y-90715304D01*
X177547623Y-90696254D01*
X177516383Y-90670617D01*
X177490746Y-90639377D01*
X177471696Y-90603738D01*
X177459965Y-90565068D01*
X177455400Y-90518712D01*
X177455400Y-89867488D01*
X177459965Y-89821132D01*
X177471696Y-89782462D01*
X177490746Y-89746823D01*
X177516383Y-89715583D01*
X177547623Y-89689946D01*
X177583262Y-89670896D01*
X177621932Y-89659165D01*
X177668288Y-89654600D01*
X178744512Y-89654600D01*
X178790868Y-89659165D01*
G37*
G36*
X146972721Y-88065374D02*
G01*
X147072995Y-88106909D01*
X147072996Y-88106910D01*
X147163242Y-88167210D01*
X147239990Y-88243958D01*
X147239991Y-88243960D01*
X147300291Y-88334205D01*
X147341826Y-88434479D01*
X147363000Y-88540930D01*
X147363000Y-88649470D01*
X147341826Y-88755921D01*
X147300291Y-88856195D01*
X147300290Y-88856196D01*
X147239990Y-88946442D01*
X147163242Y-89023190D01*
X147117812Y-89053545D01*
X147072995Y-89083491D01*
X146972721Y-89125026D01*
X146866270Y-89146200D01*
X146757730Y-89146200D01*
X146651279Y-89125026D01*
X146551005Y-89083491D01*
X146506188Y-89053545D01*
X146460758Y-89023190D01*
X146384010Y-88946442D01*
X146323710Y-88856196D01*
X146323709Y-88856195D01*
X146282174Y-88755921D01*
X146261000Y-88649470D01*
X146261000Y-88540930D01*
X146282174Y-88434479D01*
X146323709Y-88334205D01*
X146384009Y-88243960D01*
X146384010Y-88243958D01*
X146460758Y-88167210D01*
X146551004Y-88106910D01*
X146551005Y-88106909D01*
X146651279Y-88065374D01*
X146757730Y-88044200D01*
X146866270Y-88044200D01*
X146972721Y-88065374D01*
G37*
G36*
X178790868Y-87784165D02*
G01*
X178829538Y-87795896D01*
X178865177Y-87814946D01*
X178896417Y-87840583D01*
X178922054Y-87871823D01*
X178941104Y-87907462D01*
X178952835Y-87946132D01*
X178957400Y-87992488D01*
X178957400Y-88643712D01*
X178952835Y-88690068D01*
X178941104Y-88728738D01*
X178922054Y-88764377D01*
X178896417Y-88795617D01*
X178865177Y-88821254D01*
X178829538Y-88840304D01*
X178790868Y-88852035D01*
X178744512Y-88856600D01*
X177668288Y-88856600D01*
X177621932Y-88852035D01*
X177583262Y-88840304D01*
X177547623Y-88821254D01*
X177516383Y-88795617D01*
X177490746Y-88764377D01*
X177471696Y-88728738D01*
X177459965Y-88690068D01*
X177455400Y-88643712D01*
X177455400Y-87992488D01*
X177459965Y-87946132D01*
X177471696Y-87907462D01*
X177490746Y-87871823D01*
X177516383Y-87840583D01*
X177547623Y-87814946D01*
X177583262Y-87795896D01*
X177621932Y-87784165D01*
X177668288Y-87779600D01*
X178744512Y-87779600D01*
X178790868Y-87784165D01*
G37*
G36*
X194809239Y-84463101D02*
G01*
X195045053Y-84534634D01*
X195262381Y-84650799D01*
X195452871Y-84807129D01*
X195609201Y-84997619D01*
X195725366Y-85214947D01*
X195796899Y-85450761D01*
X195815000Y-85634543D01*
X195815000Y-87257457D01*
X195796899Y-87441239D01*
X195725366Y-87677053D01*
X195609201Y-87894381D01*
X195452871Y-88084871D01*
X195262380Y-88241201D01*
X195045052Y-88357366D01*
X194809238Y-88428899D01*
X194564000Y-88453053D01*
X194318761Y-88428899D01*
X194082947Y-88357366D01*
X193865619Y-88241201D01*
X193675129Y-88084871D01*
X193518799Y-87894380D01*
X193402634Y-87677052D01*
X193331101Y-87441238D01*
X193313000Y-87257456D01*
X193313000Y-85634543D01*
X193331101Y-85450761D01*
X193350199Y-85387805D01*
X193402635Y-85214947D01*
X193428237Y-85167050D01*
X193518800Y-84997619D01*
X193675130Y-84807129D01*
X193865620Y-84650799D01*
X194082948Y-84534634D01*
X194318762Y-84463101D01*
X194564000Y-84438947D01*
X194809239Y-84463101D01*
G37*
G36*
X154803968Y-86731165D02*
G01*
X154842638Y-86742896D01*
X154878277Y-86761946D01*
X154909517Y-86787583D01*
X154935154Y-86818823D01*
X154954204Y-86854462D01*
X154965935Y-86893132D01*
X154970500Y-86939488D01*
X154970500Y-88015712D01*
X154965935Y-88062068D01*
X154954204Y-88100738D01*
X154935154Y-88136377D01*
X154909517Y-88167617D01*
X154878277Y-88193254D01*
X154842638Y-88212304D01*
X154803968Y-88224035D01*
X154757612Y-88228600D01*
X154106388Y-88228600D01*
X154060032Y-88224035D01*
X154021362Y-88212304D01*
X153985723Y-88193254D01*
X153954483Y-88167617D01*
X153928846Y-88136377D01*
X153909796Y-88100738D01*
X153898065Y-88062068D01*
X153893500Y-88015712D01*
X153893500Y-86939488D01*
X153898065Y-86893132D01*
X153909796Y-86854462D01*
X153928846Y-86818823D01*
X153954483Y-86787583D01*
X153985723Y-86761946D01*
X154021362Y-86742896D01*
X154060032Y-86731165D01*
X154106388Y-86726600D01*
X154757612Y-86726600D01*
X154803968Y-86731165D01*
G37*
G36*
X152928968Y-86731165D02*
G01*
X152967638Y-86742896D01*
X153003277Y-86761946D01*
X153034517Y-86787583D01*
X153060154Y-86818823D01*
X153079204Y-86854462D01*
X153090935Y-86893132D01*
X153095500Y-86939488D01*
X153095500Y-88015712D01*
X153090935Y-88062068D01*
X153079204Y-88100738D01*
X153060154Y-88136377D01*
X153034517Y-88167617D01*
X153003277Y-88193254D01*
X152967638Y-88212304D01*
X152928968Y-88224035D01*
X152882612Y-88228600D01*
X152231388Y-88228600D01*
X152185032Y-88224035D01*
X152146362Y-88212304D01*
X152110723Y-88193254D01*
X152079483Y-88167617D01*
X152053846Y-88136377D01*
X152034796Y-88100738D01*
X152023065Y-88062068D01*
X152018500Y-88015712D01*
X152018500Y-86939488D01*
X152023065Y-86893132D01*
X152034796Y-86854462D01*
X152053846Y-86818823D01*
X152079483Y-86787583D01*
X152110723Y-86761946D01*
X152146362Y-86742896D01*
X152185032Y-86731165D01*
X152231388Y-86726600D01*
X152882612Y-86726600D01*
X152928968Y-86731165D01*
G37*
G36*
X182431121Y-86846174D02*
G01*
X182531395Y-86887709D01*
X182531396Y-86887710D01*
X182621642Y-86948010D01*
X182698390Y-87024758D01*
X182698391Y-87024760D01*
X182758691Y-87115005D01*
X182800226Y-87215279D01*
X182821400Y-87321730D01*
X182821400Y-87430270D01*
X182800226Y-87536721D01*
X182758691Y-87636995D01*
X182758690Y-87636996D01*
X182698390Y-87727242D01*
X182621642Y-87803990D01*
X182576212Y-87834345D01*
X182531395Y-87864291D01*
X182431121Y-87905826D01*
X182324670Y-87927000D01*
X182216130Y-87927000D01*
X182109679Y-87905826D01*
X182009405Y-87864291D01*
X181964588Y-87834345D01*
X181919158Y-87803990D01*
X181842410Y-87727242D01*
X181782110Y-87636996D01*
X181782109Y-87636995D01*
X181740574Y-87536721D01*
X181719400Y-87430270D01*
X181719400Y-87321730D01*
X181740574Y-87215279D01*
X181782109Y-87115005D01*
X181842409Y-87024760D01*
X181842410Y-87024758D01*
X181919158Y-86948010D01*
X182009404Y-86887710D01*
X182009405Y-86887709D01*
X182109679Y-86846174D01*
X182216130Y-86825000D01*
X182324670Y-86825000D01*
X182431121Y-86846174D01*
G37*
G36*
X174087221Y-86833474D02*
G01*
X174187495Y-86875009D01*
X174187496Y-86875010D01*
X174277742Y-86935310D01*
X174354490Y-87012058D01*
X174354491Y-87012060D01*
X174414791Y-87102305D01*
X174456326Y-87202579D01*
X174477500Y-87309030D01*
X174477500Y-87417570D01*
X174456326Y-87524021D01*
X174414791Y-87624295D01*
X174414790Y-87624296D01*
X174354490Y-87714542D01*
X174277742Y-87791290D01*
X174264564Y-87800095D01*
X174187495Y-87851591D01*
X174087221Y-87893126D01*
X173980770Y-87914300D01*
X173872230Y-87914300D01*
X173765779Y-87893126D01*
X173665505Y-87851591D01*
X173588436Y-87800095D01*
X173575258Y-87791290D01*
X173498510Y-87714542D01*
X173438210Y-87624296D01*
X173438209Y-87624295D01*
X173396674Y-87524021D01*
X173375500Y-87417570D01*
X173375500Y-87309030D01*
X173396674Y-87202579D01*
X173438209Y-87102305D01*
X173498509Y-87012060D01*
X173498510Y-87012058D01*
X173575258Y-86935310D01*
X173665504Y-86875010D01*
X173665505Y-86875009D01*
X173765779Y-86833474D01*
X173872230Y-86812300D01*
X173980770Y-86812300D01*
X174087221Y-86833474D01*
G37*
G36*
X189093968Y-85511965D02*
G01*
X189132638Y-85523696D01*
X189168277Y-85542746D01*
X189199517Y-85568383D01*
X189225154Y-85599623D01*
X189244204Y-85635262D01*
X189255935Y-85673932D01*
X189260500Y-85720288D01*
X189260500Y-86796512D01*
X189255935Y-86842868D01*
X189244204Y-86881538D01*
X189225154Y-86917177D01*
X189199517Y-86948417D01*
X189168277Y-86974054D01*
X189132638Y-86993104D01*
X189093968Y-87004835D01*
X189047612Y-87009400D01*
X188396388Y-87009400D01*
X188350032Y-87004835D01*
X188311362Y-86993104D01*
X188275723Y-86974054D01*
X188244483Y-86948417D01*
X188218846Y-86917177D01*
X188199796Y-86881538D01*
X188188065Y-86842868D01*
X188183500Y-86796512D01*
X188183500Y-85720288D01*
X188188065Y-85673932D01*
X188199796Y-85635262D01*
X188218846Y-85599623D01*
X188244483Y-85568383D01*
X188275723Y-85542746D01*
X188311362Y-85523696D01*
X188350032Y-85511965D01*
X188396388Y-85507400D01*
X189047612Y-85507400D01*
X189093968Y-85511965D01*
G37*
G36*
X187218968Y-85511965D02*
G01*
X187257638Y-85523696D01*
X187293277Y-85542746D01*
X187324517Y-85568383D01*
X187350154Y-85599623D01*
X187369204Y-85635262D01*
X187380935Y-85673932D01*
X187385500Y-85720288D01*
X187385500Y-86796512D01*
X187380935Y-86842868D01*
X187369204Y-86881538D01*
X187350154Y-86917177D01*
X187324517Y-86948417D01*
X187293277Y-86974054D01*
X187257638Y-86993104D01*
X187218968Y-87004835D01*
X187172612Y-87009400D01*
X186521388Y-87009400D01*
X186475032Y-87004835D01*
X186436362Y-86993104D01*
X186400723Y-86974054D01*
X186369483Y-86948417D01*
X186343846Y-86917177D01*
X186324796Y-86881538D01*
X186313065Y-86842868D01*
X186308500Y-86796512D01*
X186308500Y-85720288D01*
X186313065Y-85673932D01*
X186324796Y-85635262D01*
X186343846Y-85599623D01*
X186369483Y-85568383D01*
X186400723Y-85542746D01*
X186436362Y-85523696D01*
X186475032Y-85511965D01*
X186521388Y-85507400D01*
X187172612Y-85507400D01*
X187218968Y-85511965D01*
G37*
G36*
X167425468Y-84902365D02*
G01*
X167464138Y-84914096D01*
X167499777Y-84933146D01*
X167531017Y-84958783D01*
X167556654Y-84990023D01*
X167575704Y-85025662D01*
X167587435Y-85064332D01*
X167592000Y-85110688D01*
X167592000Y-86186912D01*
X167587435Y-86233268D01*
X167575704Y-86271938D01*
X167556654Y-86307577D01*
X167531017Y-86338817D01*
X167499777Y-86364454D01*
X167464138Y-86383504D01*
X167425468Y-86395235D01*
X167379112Y-86399800D01*
X166727888Y-86399800D01*
X166681532Y-86395235D01*
X166642862Y-86383504D01*
X166607223Y-86364454D01*
X166575983Y-86338817D01*
X166550346Y-86307577D01*
X166531296Y-86271938D01*
X166519565Y-86233268D01*
X166515000Y-86186912D01*
X166515000Y-85110688D01*
X166519565Y-85064332D01*
X166531296Y-85025662D01*
X166550346Y-84990023D01*
X166575983Y-84958783D01*
X166607223Y-84933146D01*
X166642862Y-84914096D01*
X166681532Y-84902365D01*
X166727888Y-84897800D01*
X167379112Y-84897800D01*
X167425468Y-84902365D01*
G37*
G36*
X165550468Y-84902365D02*
G01*
X165589138Y-84914096D01*
X165624777Y-84933146D01*
X165656017Y-84958783D01*
X165681654Y-84990023D01*
X165700704Y-85025662D01*
X165712435Y-85064332D01*
X165717000Y-85110688D01*
X165717000Y-86186912D01*
X165712435Y-86233268D01*
X165700704Y-86271938D01*
X165681654Y-86307577D01*
X165656017Y-86338817D01*
X165624777Y-86364454D01*
X165589138Y-86383504D01*
X165550468Y-86395235D01*
X165504112Y-86399800D01*
X164852888Y-86399800D01*
X164806532Y-86395235D01*
X164767862Y-86383504D01*
X164732223Y-86364454D01*
X164700983Y-86338817D01*
X164675346Y-86307577D01*
X164656296Y-86271938D01*
X164644565Y-86233268D01*
X164640000Y-86186912D01*
X164640000Y-85110688D01*
X164644565Y-85064332D01*
X164656296Y-85025662D01*
X164675346Y-84990023D01*
X164700983Y-84958783D01*
X164732223Y-84933146D01*
X164767862Y-84914096D01*
X164806532Y-84902365D01*
X164852888Y-84897800D01*
X165504112Y-84897800D01*
X165550468Y-84902365D01*
G37*
G36*
X162720721Y-85118974D02*
G01*
X162820995Y-85160509D01*
X162820996Y-85160510D01*
X162911242Y-85220810D01*
X162987990Y-85297558D01*
X162987991Y-85297560D01*
X163048291Y-85387805D01*
X163089826Y-85488079D01*
X163111000Y-85594530D01*
X163111000Y-85703070D01*
X163089826Y-85809521D01*
X163048291Y-85909795D01*
X163048290Y-85909796D01*
X162987990Y-86000042D01*
X162911242Y-86076790D01*
X162865812Y-86107145D01*
X162820995Y-86137091D01*
X162720721Y-86178626D01*
X162614270Y-86199800D01*
X162505730Y-86199800D01*
X162399279Y-86178626D01*
X162299005Y-86137091D01*
X162254188Y-86107145D01*
X162208758Y-86076790D01*
X162132010Y-86000042D01*
X162071710Y-85909796D01*
X162071709Y-85909795D01*
X162030174Y-85809521D01*
X162009000Y-85703070D01*
X162009000Y-85594530D01*
X162030174Y-85488079D01*
X162071709Y-85387805D01*
X162132009Y-85297560D01*
X162132010Y-85297558D01*
X162208758Y-85220810D01*
X162299004Y-85160510D01*
X162299005Y-85160509D01*
X162399279Y-85118974D01*
X162505730Y-85097800D01*
X162614270Y-85097800D01*
X162720721Y-85118974D01*
G37*
M02*
