G04 #@! TF.GenerationSoftware,KiCad,Pcbnew,5.1.6-c6e7f7d~87~ubuntu18.04.1*
G04 #@! TF.CreationDate,2020-08-29T18:23:14+01:00*
G04 #@! TF.ProjectId,ossw_lcd,6f737377-5f6c-4636-942e-6b696361645f,1.1*
G04 #@! TF.SameCoordinates,Original*
G04 #@! TF.FileFunction,Copper,L2,Bot*
G04 #@! TF.FilePolarity,Positive*
%FSLAX46Y46*%
G04 Gerber Fmt 4.6, Leading zero omitted, Abs format (unit mm)*
G04 Created by KiCad (PCBNEW 5.1.6-c6e7f7d~87~ubuntu18.04.1) date 2020-08-29 18:23:14*
%MOMM*%
%LPD*%
G01*
G04 APERTURE LIST*
G04 #@! TA.AperFunction,SMDPad,CuDef*
%ADD10R,8.000000X5.000000*%
G04 #@! TD*
G04 #@! TA.AperFunction,ComponentPad*
%ADD11O,2.400000X3.900000*%
G04 #@! TD*
G04 #@! TA.AperFunction,ComponentPad*
%ADD12R,1.700000X1.700000*%
G04 #@! TD*
G04 #@! TA.AperFunction,ComponentPad*
%ADD13O,1.700000X1.700000*%
G04 #@! TD*
G04 #@! TA.AperFunction,ComponentPad*
%ADD14R,1.000000X1.000000*%
G04 #@! TD*
G04 #@! TA.AperFunction,ComponentPad*
%ADD15O,1.000000X1.000000*%
G04 #@! TD*
G04 #@! TA.AperFunction,SMDPad,CuDef*
%ADD16C,1.000000*%
G04 #@! TD*
G04 #@! TA.AperFunction,ViaPad*
%ADD17C,0.800000*%
G04 #@! TD*
G04 #@! TA.AperFunction,Conductor*
%ADD18C,0.250000*%
G04 #@! TD*
G04 #@! TA.AperFunction,Conductor*
%ADD19C,0.200000*%
G04 #@! TD*
G04 APERTURE END LIST*
D10*
X187096400Y-99237800D03*
X137058400Y-99237800D03*
X187045600Y-105054400D03*
X137033000Y-105054400D03*
D11*
X194564000Y-101346000D03*
X194564000Y-86446000D03*
G04 #@! TA.AperFunction,SMDPad,CuDef*
G36*
G01*
X178662650Y-88805600D02*
X177750150Y-88805600D01*
G75*
G02*
X177506400Y-88561850I0J243750D01*
G01*
X177506400Y-88074350D01*
G75*
G02*
X177750150Y-87830600I243750J0D01*
G01*
X178662650Y-87830600D01*
G75*
G02*
X178906400Y-88074350I0J-243750D01*
G01*
X178906400Y-88561850D01*
G75*
G02*
X178662650Y-88805600I-243750J0D01*
G01*
G37*
G04 #@! TD.AperFunction*
G04 #@! TA.AperFunction,SMDPad,CuDef*
G36*
G01*
X178662650Y-90680600D02*
X177750150Y-90680600D01*
G75*
G02*
X177506400Y-90436850I0J243750D01*
G01*
X177506400Y-89949350D01*
G75*
G02*
X177750150Y-89705600I243750J0D01*
G01*
X178662650Y-89705600D01*
G75*
G02*
X178906400Y-89949350I0J-243750D01*
G01*
X178906400Y-90436850D01*
G75*
G02*
X178662650Y-90680600I-243750J0D01*
G01*
G37*
G04 #@! TD.AperFunction*
G04 #@! TA.AperFunction,SMDPad,CuDef*
G36*
G01*
X173507100Y-93166250D02*
X173507100Y-92253750D01*
G75*
G02*
X173750850Y-92010000I243750J0D01*
G01*
X174238350Y-92010000D01*
G75*
G02*
X174482100Y-92253750I0J-243750D01*
G01*
X174482100Y-93166250D01*
G75*
G02*
X174238350Y-93410000I-243750J0D01*
G01*
X173750850Y-93410000D01*
G75*
G02*
X173507100Y-93166250I0J243750D01*
G01*
G37*
G04 #@! TD.AperFunction*
G04 #@! TA.AperFunction,SMDPad,CuDef*
G36*
G01*
X175382100Y-93166250D02*
X175382100Y-92253750D01*
G75*
G02*
X175625850Y-92010000I243750J0D01*
G01*
X176113350Y-92010000D01*
G75*
G02*
X176357100Y-92253750I0J-243750D01*
G01*
X176357100Y-93166250D01*
G75*
G02*
X176113350Y-93410000I-243750J0D01*
G01*
X175625850Y-93410000D01*
G75*
G02*
X175382100Y-93166250I0J243750D01*
G01*
G37*
G04 #@! TD.AperFunction*
G04 #@! TA.AperFunction,SMDPad,CuDef*
G36*
G01*
X153866000Y-91489850D02*
X153866000Y-90577350D01*
G75*
G02*
X154109750Y-90333600I243750J0D01*
G01*
X154597250Y-90333600D01*
G75*
G02*
X154841000Y-90577350I0J-243750D01*
G01*
X154841000Y-91489850D01*
G75*
G02*
X154597250Y-91733600I-243750J0D01*
G01*
X154109750Y-91733600D01*
G75*
G02*
X153866000Y-91489850I0J243750D01*
G01*
G37*
G04 #@! TD.AperFunction*
G04 #@! TA.AperFunction,SMDPad,CuDef*
G36*
G01*
X151991000Y-91489850D02*
X151991000Y-90577350D01*
G75*
G02*
X152234750Y-90333600I243750J0D01*
G01*
X152722250Y-90333600D01*
G75*
G02*
X152966000Y-90577350I0J-243750D01*
G01*
X152966000Y-91489850D01*
G75*
G02*
X152722250Y-91733600I-243750J0D01*
G01*
X152234750Y-91733600D01*
G75*
G02*
X151991000Y-91489850I0J243750D01*
G01*
G37*
G04 #@! TD.AperFunction*
G04 #@! TA.AperFunction,SMDPad,CuDef*
G36*
G01*
X154919500Y-87021350D02*
X154919500Y-87933850D01*
G75*
G02*
X154675750Y-88177600I-243750J0D01*
G01*
X154188250Y-88177600D01*
G75*
G02*
X153944500Y-87933850I0J243750D01*
G01*
X153944500Y-87021350D01*
G75*
G02*
X154188250Y-86777600I243750J0D01*
G01*
X154675750Y-86777600D01*
G75*
G02*
X154919500Y-87021350I0J-243750D01*
G01*
G37*
G04 #@! TD.AperFunction*
G04 #@! TA.AperFunction,SMDPad,CuDef*
G36*
G01*
X153044500Y-87021350D02*
X153044500Y-87933850D01*
G75*
G02*
X152800750Y-88177600I-243750J0D01*
G01*
X152313250Y-88177600D01*
G75*
G02*
X152069500Y-87933850I0J243750D01*
G01*
X152069500Y-87021350D01*
G75*
G02*
X152313250Y-86777600I243750J0D01*
G01*
X152800750Y-86777600D01*
G75*
G02*
X153044500Y-87021350I0J-243750D01*
G01*
G37*
G04 #@! TD.AperFunction*
G04 #@! TA.AperFunction,SMDPad,CuDef*
G36*
G01*
X152069500Y-95045850D02*
X152069500Y-94133350D01*
G75*
G02*
X152313250Y-93889600I243750J0D01*
G01*
X152800750Y-93889600D01*
G75*
G02*
X153044500Y-94133350I0J-243750D01*
G01*
X153044500Y-95045850D01*
G75*
G02*
X152800750Y-95289600I-243750J0D01*
G01*
X152313250Y-95289600D01*
G75*
G02*
X152069500Y-95045850I0J243750D01*
G01*
G37*
G04 #@! TD.AperFunction*
G04 #@! TA.AperFunction,SMDPad,CuDef*
G36*
G01*
X153944500Y-95045850D02*
X153944500Y-94133350D01*
G75*
G02*
X154188250Y-93889600I243750J0D01*
G01*
X154675750Y-93889600D01*
G75*
G02*
X154919500Y-94133350I0J-243750D01*
G01*
X154919500Y-95045850D01*
G75*
G02*
X154675750Y-95289600I-243750J0D01*
G01*
X154188250Y-95289600D01*
G75*
G02*
X153944500Y-95045850I0J243750D01*
G01*
G37*
G04 #@! TD.AperFunction*
D12*
X166319200Y-104546400D03*
D13*
X168859200Y-104546400D03*
X171399200Y-104546400D03*
X173939200Y-104546400D03*
X176479200Y-104546400D03*
X179019200Y-104546400D03*
D14*
X151638000Y-104800400D03*
D15*
X152908000Y-104800400D03*
X154178000Y-104800400D03*
X155448000Y-104800400D03*
X156718000Y-104800400D03*
X157988000Y-104800400D03*
X159258000Y-104800400D03*
X160528000Y-104800400D03*
G04 #@! TA.AperFunction,SMDPad,CuDef*
G36*
G01*
X164691000Y-86105050D02*
X164691000Y-85192550D01*
G75*
G02*
X164934750Y-84948800I243750J0D01*
G01*
X165422250Y-84948800D01*
G75*
G02*
X165666000Y-85192550I0J-243750D01*
G01*
X165666000Y-86105050D01*
G75*
G02*
X165422250Y-86348800I-243750J0D01*
G01*
X164934750Y-86348800D01*
G75*
G02*
X164691000Y-86105050I0J243750D01*
G01*
G37*
G04 #@! TD.AperFunction*
G04 #@! TA.AperFunction,SMDPad,CuDef*
G36*
G01*
X166566000Y-86105050D02*
X166566000Y-85192550D01*
G75*
G02*
X166809750Y-84948800I243750J0D01*
G01*
X167297250Y-84948800D01*
G75*
G02*
X167541000Y-85192550I0J-243750D01*
G01*
X167541000Y-86105050D01*
G75*
G02*
X167297250Y-86348800I-243750J0D01*
G01*
X166809750Y-86348800D01*
G75*
G02*
X166566000Y-86105050I0J243750D01*
G01*
G37*
G04 #@! TD.AperFunction*
G04 #@! TA.AperFunction,SMDPad,CuDef*
G36*
G01*
X166566000Y-90677050D02*
X166566000Y-89764550D01*
G75*
G02*
X166809750Y-89520800I243750J0D01*
G01*
X167297250Y-89520800D01*
G75*
G02*
X167541000Y-89764550I0J-243750D01*
G01*
X167541000Y-90677050D01*
G75*
G02*
X167297250Y-90920800I-243750J0D01*
G01*
X166809750Y-90920800D01*
G75*
G02*
X166566000Y-90677050I0J243750D01*
G01*
G37*
G04 #@! TD.AperFunction*
G04 #@! TA.AperFunction,SMDPad,CuDef*
G36*
G01*
X164691000Y-90677050D02*
X164691000Y-89764550D01*
G75*
G02*
X164934750Y-89520800I243750J0D01*
G01*
X165422250Y-89520800D01*
G75*
G02*
X165666000Y-89764550I0J-243750D01*
G01*
X165666000Y-90677050D01*
G75*
G02*
X165422250Y-90920800I-243750J0D01*
G01*
X164934750Y-90920800D01*
G75*
G02*
X164691000Y-90677050I0J243750D01*
G01*
G37*
G04 #@! TD.AperFunction*
G04 #@! TA.AperFunction,SMDPad,CuDef*
G36*
G01*
X164691000Y-95249050D02*
X164691000Y-94336550D01*
G75*
G02*
X164934750Y-94092800I243750J0D01*
G01*
X165422250Y-94092800D01*
G75*
G02*
X165666000Y-94336550I0J-243750D01*
G01*
X165666000Y-95249050D01*
G75*
G02*
X165422250Y-95492800I-243750J0D01*
G01*
X164934750Y-95492800D01*
G75*
G02*
X164691000Y-95249050I0J243750D01*
G01*
G37*
G04 #@! TD.AperFunction*
G04 #@! TA.AperFunction,SMDPad,CuDef*
G36*
G01*
X166566000Y-95249050D02*
X166566000Y-94336550D01*
G75*
G02*
X166809750Y-94092800I243750J0D01*
G01*
X167297250Y-94092800D01*
G75*
G02*
X167541000Y-94336550I0J-243750D01*
G01*
X167541000Y-95249050D01*
G75*
G02*
X167297250Y-95492800I-243750J0D01*
G01*
X166809750Y-95492800D01*
G75*
G02*
X166566000Y-95249050I0J243750D01*
G01*
G37*
G04 #@! TD.AperFunction*
G04 #@! TA.AperFunction,SMDPad,CuDef*
G36*
G01*
X182726650Y-92560200D02*
X181814150Y-92560200D01*
G75*
G02*
X181570400Y-92316450I0J243750D01*
G01*
X181570400Y-91828950D01*
G75*
G02*
X181814150Y-91585200I243750J0D01*
G01*
X182726650Y-91585200D01*
G75*
G02*
X182970400Y-91828950I0J-243750D01*
G01*
X182970400Y-92316450D01*
G75*
G02*
X182726650Y-92560200I-243750J0D01*
G01*
G37*
G04 #@! TD.AperFunction*
G04 #@! TA.AperFunction,SMDPad,CuDef*
G36*
G01*
X182726650Y-90685200D02*
X181814150Y-90685200D01*
G75*
G02*
X181570400Y-90441450I0J243750D01*
G01*
X181570400Y-89953950D01*
G75*
G02*
X181814150Y-89710200I243750J0D01*
G01*
X182726650Y-89710200D01*
G75*
G02*
X182970400Y-89953950I0J-243750D01*
G01*
X182970400Y-90441450D01*
G75*
G02*
X182726650Y-90685200I-243750J0D01*
G01*
G37*
G04 #@! TD.AperFunction*
G04 #@! TA.AperFunction,SMDPad,CuDef*
G36*
G01*
X187334500Y-85802150D02*
X187334500Y-86714650D01*
G75*
G02*
X187090750Y-86958400I-243750J0D01*
G01*
X186603250Y-86958400D01*
G75*
G02*
X186359500Y-86714650I0J243750D01*
G01*
X186359500Y-85802150D01*
G75*
G02*
X186603250Y-85558400I243750J0D01*
G01*
X187090750Y-85558400D01*
G75*
G02*
X187334500Y-85802150I0J-243750D01*
G01*
G37*
G04 #@! TD.AperFunction*
G04 #@! TA.AperFunction,SMDPad,CuDef*
G36*
G01*
X189209500Y-85802150D02*
X189209500Y-86714650D01*
G75*
G02*
X188965750Y-86958400I-243750J0D01*
G01*
X188478250Y-86958400D01*
G75*
G02*
X188234500Y-86714650I0J243750D01*
G01*
X188234500Y-85802150D01*
G75*
G02*
X188478250Y-85558400I243750J0D01*
G01*
X188965750Y-85558400D01*
G75*
G02*
X189209500Y-85802150I0J-243750D01*
G01*
G37*
G04 #@! TD.AperFunction*
D16*
X146812000Y-88595200D03*
X182270400Y-87376000D03*
X173926500Y-87363300D03*
X162560000Y-94792800D03*
X162560000Y-90220800D03*
X162560000Y-85648800D03*
D17*
X167132000Y-88696800D03*
X167132000Y-87172800D03*
X167132000Y-93268800D03*
X167132000Y-91744800D03*
D18*
X152044400Y-91033600D02*
X152478500Y-91033600D01*
X151485600Y-91033600D02*
X152478500Y-91033600D01*
X150825200Y-91694000D02*
X151485600Y-91033600D01*
X150825200Y-95961200D02*
X150825200Y-91694000D01*
X151638000Y-104800400D02*
X151638000Y-96774000D01*
X151638000Y-96774000D02*
X150825200Y-95961200D01*
X152557000Y-98963000D02*
X152557000Y-98806000D01*
X152557000Y-98806000D02*
X152557000Y-94589600D01*
X152908000Y-104800400D02*
X152908000Y-99314000D01*
X152908000Y-99314000D02*
X152557000Y-98963000D01*
X154432000Y-98806000D02*
X154432000Y-94589600D01*
X154178000Y-104800400D02*
X154178000Y-99263200D01*
X154432000Y-99009200D02*
X154432000Y-98806000D01*
X154178000Y-99263200D02*
X154432000Y-99009200D01*
X182270400Y-92072700D02*
X193672700Y-92072700D01*
X194564000Y-92964000D02*
X194564000Y-101346000D01*
X193672700Y-92072700D02*
X194564000Y-92964000D01*
X194376400Y-86258400D02*
X194564000Y-86446000D01*
X188722000Y-86258400D02*
X194376400Y-86258400D01*
X178206400Y-90193100D02*
X182270400Y-90193100D01*
X178206400Y-98196400D02*
X178206400Y-90193100D01*
X176479200Y-99923600D02*
X178206400Y-98196400D01*
X182270400Y-90197700D02*
X182270400Y-87376000D01*
X176479200Y-102108000D02*
X176479200Y-101803200D01*
X176479200Y-104546400D02*
X176479200Y-101803200D01*
X176479200Y-101803200D02*
X176479200Y-99923600D01*
X167132000Y-85981300D02*
X167053500Y-85902800D01*
X167132000Y-85727300D02*
X167053500Y-85648800D01*
X167053500Y-88775300D02*
X167132000Y-88696800D01*
X167132000Y-90299300D02*
X167053500Y-90220800D01*
X167053500Y-90220800D02*
X167053500Y-88775300D01*
X167132000Y-87172800D02*
X167132000Y-85727300D01*
X167053500Y-93347300D02*
X167132000Y-93268800D01*
X167132000Y-91744800D02*
X167132000Y-90299300D01*
X167053500Y-94792800D02*
X167053500Y-93347300D01*
X167053500Y-84046300D02*
X167053500Y-85648800D01*
X166624000Y-83616800D02*
X167053500Y-84046300D01*
X154940000Y-83616800D02*
X166624000Y-83616800D01*
X154432000Y-84124800D02*
X154940000Y-83616800D01*
X167053500Y-85648800D02*
X171246800Y-85648800D01*
X173939200Y-89357200D02*
X173939200Y-87071200D01*
X173939200Y-87071200D02*
X173939200Y-86309200D01*
X173278800Y-85648800D02*
X171246800Y-85648800D01*
X173939200Y-86309200D02*
X173278800Y-85648800D01*
X154432000Y-84124800D02*
X154432000Y-87477600D01*
X154432000Y-90955100D02*
X154353500Y-91033600D01*
X154432000Y-87477600D02*
X154432000Y-90955100D01*
X155448000Y-91033600D02*
X154353500Y-91033600D01*
X156108400Y-95961200D02*
X156108400Y-91694000D01*
X155448000Y-104800400D02*
X155448000Y-96621600D01*
X156108400Y-91694000D02*
X155448000Y-91033600D01*
X155448000Y-96621600D02*
X156108400Y-95961200D01*
X173939200Y-104546400D02*
X173939200Y-101396800D01*
X173939200Y-102108000D02*
X173939200Y-101396800D01*
X173939200Y-101396800D02*
X173939200Y-89357200D01*
X162560000Y-94792800D02*
X165178500Y-94792800D01*
X165178500Y-96344500D02*
X165178500Y-94792800D01*
X165178500Y-97614500D02*
X165178500Y-96344500D01*
X166319200Y-98755200D02*
X165178500Y-97614500D01*
X161290000Y-94792800D02*
X162560000Y-94792800D01*
X160528000Y-95554800D02*
X161290000Y-94792800D01*
X160528000Y-104800400D02*
X160528000Y-102209600D01*
X160528000Y-102362000D02*
X160528000Y-102209600D01*
X160528000Y-102209600D02*
X160528000Y-95554800D01*
X166319200Y-102108000D02*
X166319200Y-101396800D01*
X166319200Y-104546400D02*
X166319200Y-101396800D01*
X166319200Y-101396800D02*
X166319200Y-98755200D01*
X162560000Y-90220800D02*
X165178500Y-90220800D01*
X165178500Y-91823300D02*
X165178500Y-90220800D01*
X165898999Y-92543799D02*
X165178500Y-91823300D01*
X168083399Y-92543799D02*
X165898999Y-92543799D01*
X168859200Y-93319600D02*
X168083399Y-92543799D01*
X159766000Y-90220800D02*
X162560000Y-90220800D01*
X159258000Y-90728800D02*
X159766000Y-90220800D01*
X159258000Y-102362000D02*
X159258000Y-102209600D01*
X159258000Y-104800400D02*
X159258000Y-102209600D01*
X159258000Y-102209600D02*
X159258000Y-90728800D01*
X168859200Y-104546400D02*
X168859200Y-101498400D01*
X168859200Y-102108000D02*
X168859200Y-101498400D01*
X168859200Y-101498400D02*
X168859200Y-93319600D01*
X162560000Y-85648800D02*
X165178500Y-85648800D01*
X165178500Y-87149700D02*
X165178500Y-85648800D01*
X170572599Y-87971799D02*
X166000599Y-87971799D01*
X166000599Y-87971799D02*
X165178500Y-87149700D01*
X171399200Y-88798400D02*
X170572599Y-87971799D01*
X158496000Y-85648800D02*
X162560000Y-85648800D01*
X157988000Y-104800400D02*
X157988000Y-86156800D01*
X157988000Y-86156800D02*
X158496000Y-85648800D01*
X171399200Y-104546400D02*
X171399200Y-101447600D01*
X171399200Y-102108000D02*
X171399200Y-101447600D01*
X171399200Y-101447600D02*
X171399200Y-88798400D01*
D19*
G36*
X196221001Y-107624750D02*
G01*
X191338746Y-107621492D01*
X191341259Y-107613210D01*
X191347051Y-107554400D01*
X191347051Y-102554400D01*
X191341259Y-102495590D01*
X191324104Y-102439040D01*
X191296247Y-102386923D01*
X191258758Y-102341242D01*
X191213077Y-102303753D01*
X191160960Y-102275896D01*
X191104410Y-102258741D01*
X191045600Y-102252949D01*
X183045600Y-102252949D01*
X182986790Y-102258741D01*
X182930240Y-102275896D01*
X182878123Y-102303753D01*
X182832442Y-102341242D01*
X182794953Y-102386923D01*
X182767096Y-102439040D01*
X182749941Y-102495590D01*
X182744149Y-102554400D01*
X182744149Y-107554400D01*
X182749941Y-107613210D01*
X182750715Y-107615762D01*
X141331130Y-107588123D01*
X141334451Y-107554400D01*
X141334451Y-102554400D01*
X141328659Y-102495590D01*
X141311504Y-102439040D01*
X141283647Y-102386923D01*
X141246158Y-102341242D01*
X141200477Y-102303753D01*
X141148360Y-102275896D01*
X141091810Y-102258741D01*
X141033000Y-102252949D01*
X133033000Y-102252949D01*
X132974190Y-102258741D01*
X132917640Y-102275896D01*
X132865523Y-102303753D01*
X132819842Y-102341242D01*
X132782353Y-102386923D01*
X132754496Y-102439040D01*
X132737341Y-102495590D01*
X132731549Y-102554400D01*
X132731549Y-107554400D01*
X132734305Y-107582386D01*
X122041000Y-107575250D01*
X122041000Y-96737800D01*
X132756949Y-96737800D01*
X132756949Y-101737800D01*
X132762741Y-101796610D01*
X132779896Y-101853160D01*
X132807753Y-101905277D01*
X132845242Y-101950958D01*
X132890923Y-101988447D01*
X132943040Y-102016304D01*
X132999590Y-102033459D01*
X133058400Y-102039251D01*
X141058400Y-102039251D01*
X141117210Y-102033459D01*
X141173760Y-102016304D01*
X141225877Y-101988447D01*
X141271558Y-101950958D01*
X141309047Y-101905277D01*
X141336904Y-101853160D01*
X141354059Y-101796610D01*
X141359851Y-101737800D01*
X141359851Y-96737800D01*
X141354059Y-96678990D01*
X141336904Y-96622440D01*
X141309047Y-96570323D01*
X141271558Y-96524642D01*
X141225877Y-96487153D01*
X141173760Y-96459296D01*
X141117210Y-96442141D01*
X141058400Y-96436349D01*
X133058400Y-96436349D01*
X132999590Y-96442141D01*
X132943040Y-96459296D01*
X132890923Y-96487153D01*
X132845242Y-96524642D01*
X132807753Y-96570323D01*
X132779896Y-96622440D01*
X132762741Y-96678990D01*
X132756949Y-96737800D01*
X122041000Y-96737800D01*
X122041000Y-91694000D01*
X150398145Y-91694000D01*
X150400201Y-91714877D01*
X150400200Y-95940333D01*
X150398145Y-95961200D01*
X150400200Y-95982067D01*
X150400200Y-95982073D01*
X150406350Y-96044513D01*
X150430652Y-96124626D01*
X150470116Y-96198459D01*
X150523226Y-96263174D01*
X150539443Y-96276483D01*
X151213001Y-96950042D01*
X151213000Y-103998949D01*
X151138000Y-103998949D01*
X151079190Y-104004741D01*
X151022640Y-104021896D01*
X150970523Y-104049753D01*
X150924842Y-104087242D01*
X150887353Y-104132923D01*
X150859496Y-104185040D01*
X150842341Y-104241590D01*
X150836549Y-104300400D01*
X150836549Y-105300400D01*
X150842341Y-105359210D01*
X150859496Y-105415760D01*
X150887353Y-105467877D01*
X150924842Y-105513558D01*
X150970523Y-105551047D01*
X151022640Y-105578904D01*
X151079190Y-105596059D01*
X151138000Y-105601851D01*
X152138000Y-105601851D01*
X152196810Y-105596059D01*
X152253360Y-105578904D01*
X152305477Y-105551047D01*
X152351158Y-105513558D01*
X152388647Y-105467877D01*
X152409263Y-105429307D01*
X152529058Y-105509351D01*
X152674649Y-105569657D01*
X152829207Y-105600400D01*
X152986793Y-105600400D01*
X153141351Y-105569657D01*
X153286942Y-105509351D01*
X153417970Y-105421801D01*
X153529401Y-105310370D01*
X153543000Y-105290018D01*
X153556599Y-105310370D01*
X153668030Y-105421801D01*
X153799058Y-105509351D01*
X153944649Y-105569657D01*
X154099207Y-105600400D01*
X154256793Y-105600400D01*
X154411351Y-105569657D01*
X154556942Y-105509351D01*
X154687970Y-105421801D01*
X154799401Y-105310370D01*
X154813000Y-105290018D01*
X154826599Y-105310370D01*
X154938030Y-105421801D01*
X155069058Y-105509351D01*
X155214649Y-105569657D01*
X155369207Y-105600400D01*
X155526793Y-105600400D01*
X155681351Y-105569657D01*
X155826942Y-105509351D01*
X155853777Y-105491421D01*
X155862902Y-105505019D01*
X156016797Y-105658301D01*
X156197639Y-105778615D01*
X156394249Y-105860046D01*
X156564000Y-105743915D01*
X156564000Y-104954400D01*
X156544000Y-104954400D01*
X156544000Y-104646400D01*
X156564000Y-104646400D01*
X156564000Y-103856885D01*
X156394249Y-103740754D01*
X156197639Y-103822185D01*
X156016797Y-103942499D01*
X155873000Y-104085723D01*
X155873000Y-96797640D01*
X156394158Y-96276482D01*
X156410374Y-96263174D01*
X156463484Y-96198460D01*
X156502948Y-96124627D01*
X156527250Y-96044514D01*
X156533400Y-95982074D01*
X156533400Y-95982067D01*
X156535455Y-95961200D01*
X156533400Y-95940333D01*
X156533400Y-91714867D01*
X156535455Y-91694000D01*
X156533400Y-91673133D01*
X156533400Y-91673126D01*
X156527250Y-91610686D01*
X156502948Y-91530573D01*
X156463484Y-91456740D01*
X156410374Y-91392026D01*
X156394156Y-91378716D01*
X155763284Y-90747844D01*
X155749974Y-90731626D01*
X155685260Y-90678516D01*
X155611427Y-90639052D01*
X155531314Y-90614750D01*
X155468874Y-90608600D01*
X155468867Y-90608600D01*
X155448000Y-90606545D01*
X155427133Y-90608600D01*
X155142451Y-90608600D01*
X155142451Y-90577350D01*
X155131975Y-90470987D01*
X155100950Y-90368711D01*
X155050568Y-90274453D01*
X154982765Y-90191835D01*
X154900147Y-90124032D01*
X154857000Y-90100969D01*
X154857000Y-88445858D01*
X154884389Y-88437550D01*
X154978647Y-88387168D01*
X155061265Y-88319365D01*
X155129068Y-88236747D01*
X155179450Y-88142489D01*
X155210475Y-88040213D01*
X155220951Y-87933850D01*
X155220951Y-87021350D01*
X155210475Y-86914987D01*
X155179450Y-86812711D01*
X155129068Y-86718453D01*
X155061265Y-86635835D01*
X154978647Y-86568032D01*
X154884389Y-86517650D01*
X154857000Y-86509342D01*
X154857000Y-84300840D01*
X155116041Y-84041800D01*
X166447960Y-84041800D01*
X166628500Y-84222341D01*
X166628500Y-84680542D01*
X166601111Y-84688850D01*
X166506853Y-84739232D01*
X166424235Y-84807035D01*
X166356432Y-84889653D01*
X166306050Y-84983911D01*
X166275025Y-85086187D01*
X166264549Y-85192550D01*
X166264549Y-86105050D01*
X166275025Y-86211413D01*
X166306050Y-86313689D01*
X166356432Y-86407947D01*
X166424235Y-86490565D01*
X166506853Y-86558368D01*
X166601111Y-86608750D01*
X166681664Y-86633186D01*
X166588274Y-86726576D01*
X166511668Y-86841226D01*
X166458901Y-86968618D01*
X166432000Y-87103856D01*
X166432000Y-87241744D01*
X166458901Y-87376982D01*
X166511668Y-87504374D01*
X166540015Y-87546799D01*
X166176639Y-87546799D01*
X165603500Y-86973660D01*
X165603500Y-86617058D01*
X165630889Y-86608750D01*
X165725147Y-86558368D01*
X165807765Y-86490565D01*
X165875568Y-86407947D01*
X165925950Y-86313689D01*
X165956975Y-86211413D01*
X165967451Y-86105050D01*
X165967451Y-85192550D01*
X165956975Y-85086187D01*
X165925950Y-84983911D01*
X165875568Y-84889653D01*
X165807765Y-84807035D01*
X165725147Y-84739232D01*
X165630889Y-84688850D01*
X165528613Y-84657825D01*
X165422250Y-84647349D01*
X164934750Y-84647349D01*
X164828387Y-84657825D01*
X164726111Y-84688850D01*
X164631853Y-84739232D01*
X164549235Y-84807035D01*
X164481432Y-84889653D01*
X164431050Y-84983911D01*
X164400025Y-85086187D01*
X164389549Y-85192550D01*
X164389549Y-85223800D01*
X163238176Y-85223800D01*
X163181401Y-85138830D01*
X163069970Y-85027399D01*
X162938942Y-84939849D01*
X162793351Y-84879543D01*
X162638793Y-84848800D01*
X162481207Y-84848800D01*
X162326649Y-84879543D01*
X162181058Y-84939849D01*
X162050030Y-85027399D01*
X161938599Y-85138830D01*
X161881824Y-85223800D01*
X158516866Y-85223800D01*
X158495999Y-85221745D01*
X158475132Y-85223800D01*
X158475126Y-85223800D01*
X158421098Y-85229121D01*
X158412685Y-85229950D01*
X158388383Y-85237322D01*
X158332573Y-85254252D01*
X158258740Y-85293716D01*
X158258738Y-85293717D01*
X158258739Y-85293717D01*
X158221105Y-85324603D01*
X158194026Y-85346826D01*
X158180721Y-85363038D01*
X157702239Y-85841521D01*
X157686027Y-85854826D01*
X157632917Y-85919540D01*
X157608854Y-85964559D01*
X157593453Y-85993373D01*
X157569150Y-86073486D01*
X157560945Y-86156800D01*
X157563001Y-86177677D01*
X157563000Y-104085723D01*
X157419203Y-103942499D01*
X157238361Y-103822185D01*
X157041751Y-103740754D01*
X156872000Y-103856885D01*
X156872000Y-104646400D01*
X156892000Y-104646400D01*
X156892000Y-104954400D01*
X156872000Y-104954400D01*
X156872000Y-105743915D01*
X157041751Y-105860046D01*
X157238361Y-105778615D01*
X157419203Y-105658301D01*
X157573098Y-105505019D01*
X157582223Y-105491421D01*
X157609058Y-105509351D01*
X157754649Y-105569657D01*
X157909207Y-105600400D01*
X158066793Y-105600400D01*
X158221351Y-105569657D01*
X158366942Y-105509351D01*
X158497970Y-105421801D01*
X158609401Y-105310370D01*
X158623000Y-105290018D01*
X158636599Y-105310370D01*
X158748030Y-105421801D01*
X158879058Y-105509351D01*
X159024649Y-105569657D01*
X159179207Y-105600400D01*
X159336793Y-105600400D01*
X159491351Y-105569657D01*
X159636942Y-105509351D01*
X159767970Y-105421801D01*
X159879401Y-105310370D01*
X159893000Y-105290018D01*
X159906599Y-105310370D01*
X160018030Y-105421801D01*
X160149058Y-105509351D01*
X160294649Y-105569657D01*
X160449207Y-105600400D01*
X160606793Y-105600400D01*
X160761351Y-105569657D01*
X160906942Y-105509351D01*
X161037970Y-105421801D01*
X161149401Y-105310370D01*
X161236951Y-105179342D01*
X161297257Y-105033751D01*
X161328000Y-104879193D01*
X161328000Y-104721607D01*
X161297257Y-104567049D01*
X161236951Y-104421458D01*
X161149401Y-104290430D01*
X161037970Y-104178999D01*
X160953000Y-104122224D01*
X160953000Y-95730840D01*
X161466041Y-95217800D01*
X161881824Y-95217800D01*
X161938599Y-95302770D01*
X162050030Y-95414201D01*
X162181058Y-95501751D01*
X162326649Y-95562057D01*
X162481207Y-95592800D01*
X162638793Y-95592800D01*
X162793351Y-95562057D01*
X162938942Y-95501751D01*
X163069970Y-95414201D01*
X163181401Y-95302770D01*
X163238176Y-95217800D01*
X164389549Y-95217800D01*
X164389549Y-95249050D01*
X164400025Y-95355413D01*
X164431050Y-95457689D01*
X164481432Y-95551947D01*
X164549235Y-95634565D01*
X164631853Y-95702368D01*
X164726111Y-95752750D01*
X164753500Y-95761058D01*
X164753500Y-96365373D01*
X164753501Y-96365383D01*
X164753500Y-97593633D01*
X164751445Y-97614500D01*
X164753500Y-97635367D01*
X164753500Y-97635373D01*
X164759650Y-97697813D01*
X164783952Y-97777926D01*
X164823416Y-97851759D01*
X164876526Y-97916474D01*
X164892743Y-97929783D01*
X165894201Y-98931242D01*
X165894200Y-101417673D01*
X165894201Y-101417683D01*
X165894200Y-102128873D01*
X165894201Y-102128881D01*
X165894200Y-103394949D01*
X165469200Y-103394949D01*
X165410390Y-103400741D01*
X165353840Y-103417896D01*
X165301723Y-103445753D01*
X165256042Y-103483242D01*
X165218553Y-103528923D01*
X165190696Y-103581040D01*
X165173541Y-103637590D01*
X165167749Y-103696400D01*
X165167749Y-105396400D01*
X165173541Y-105455210D01*
X165190696Y-105511760D01*
X165218553Y-105563877D01*
X165256042Y-105609558D01*
X165301723Y-105647047D01*
X165353840Y-105674904D01*
X165410390Y-105692059D01*
X165469200Y-105697851D01*
X167169200Y-105697851D01*
X167228010Y-105692059D01*
X167284560Y-105674904D01*
X167336677Y-105647047D01*
X167382358Y-105609558D01*
X167419847Y-105563877D01*
X167447704Y-105511760D01*
X167464859Y-105455210D01*
X167470651Y-105396400D01*
X167470651Y-103696400D01*
X167464859Y-103637590D01*
X167447704Y-103581040D01*
X167419847Y-103528923D01*
X167382358Y-103483242D01*
X167336677Y-103445753D01*
X167284560Y-103417896D01*
X167228010Y-103400741D01*
X167169200Y-103394949D01*
X166744200Y-103394949D01*
X166744200Y-98776066D01*
X166746255Y-98755199D01*
X166744200Y-98734332D01*
X166744200Y-98734326D01*
X166738050Y-98671886D01*
X166713748Y-98591773D01*
X166674284Y-98517940D01*
X166621174Y-98453226D01*
X166604962Y-98439921D01*
X165603500Y-97438460D01*
X165603500Y-95761058D01*
X165630889Y-95752750D01*
X165725147Y-95702368D01*
X165807765Y-95634565D01*
X165875568Y-95551947D01*
X165925950Y-95457689D01*
X165956975Y-95355413D01*
X165967451Y-95249050D01*
X165967451Y-94336550D01*
X165956975Y-94230187D01*
X165925950Y-94127911D01*
X165875568Y-94033653D01*
X165807765Y-93951035D01*
X165725147Y-93883232D01*
X165630889Y-93832850D01*
X165528613Y-93801825D01*
X165422250Y-93791349D01*
X164934750Y-93791349D01*
X164828387Y-93801825D01*
X164726111Y-93832850D01*
X164631853Y-93883232D01*
X164549235Y-93951035D01*
X164481432Y-94033653D01*
X164431050Y-94127911D01*
X164400025Y-94230187D01*
X164389549Y-94336550D01*
X164389549Y-94367800D01*
X163238176Y-94367800D01*
X163181401Y-94282830D01*
X163069970Y-94171399D01*
X162938942Y-94083849D01*
X162793351Y-94023543D01*
X162638793Y-93992800D01*
X162481207Y-93992800D01*
X162326649Y-94023543D01*
X162181058Y-94083849D01*
X162050030Y-94171399D01*
X161938599Y-94282830D01*
X161881824Y-94367800D01*
X161310867Y-94367800D01*
X161290000Y-94365745D01*
X161269133Y-94367800D01*
X161269126Y-94367800D01*
X161206686Y-94373950D01*
X161126572Y-94398252D01*
X161100855Y-94411999D01*
X161052740Y-94437716D01*
X160988026Y-94490826D01*
X160974721Y-94507038D01*
X160242239Y-95239521D01*
X160226027Y-95252826D01*
X160172917Y-95317540D01*
X160156237Y-95348747D01*
X160133453Y-95391373D01*
X160109150Y-95471486D01*
X160100945Y-95554800D01*
X160103001Y-95575677D01*
X160103000Y-102188726D01*
X160103000Y-102382873D01*
X160103001Y-102382882D01*
X160103000Y-104122224D01*
X160018030Y-104178999D01*
X159906599Y-104290430D01*
X159893000Y-104310782D01*
X159879401Y-104290430D01*
X159767970Y-104178999D01*
X159683000Y-104122224D01*
X159683000Y-90904840D01*
X159942041Y-90645800D01*
X161881824Y-90645800D01*
X161938599Y-90730770D01*
X162050030Y-90842201D01*
X162181058Y-90929751D01*
X162326649Y-90990057D01*
X162481207Y-91020800D01*
X162638793Y-91020800D01*
X162793351Y-90990057D01*
X162938942Y-90929751D01*
X163069970Y-90842201D01*
X163181401Y-90730770D01*
X163238176Y-90645800D01*
X164389549Y-90645800D01*
X164389549Y-90677050D01*
X164400025Y-90783413D01*
X164431050Y-90885689D01*
X164481432Y-90979947D01*
X164549235Y-91062565D01*
X164631853Y-91130368D01*
X164726111Y-91180750D01*
X164753500Y-91189058D01*
X164753500Y-91802433D01*
X164751445Y-91823300D01*
X164753500Y-91844167D01*
X164753500Y-91844173D01*
X164758094Y-91890811D01*
X164759650Y-91906614D01*
X164760457Y-91909273D01*
X164783952Y-91986726D01*
X164823416Y-92060559D01*
X164876526Y-92125274D01*
X164892743Y-92138583D01*
X165583718Y-92829559D01*
X165597025Y-92845773D01*
X165661739Y-92898883D01*
X165735572Y-92938347D01*
X165783059Y-92952752D01*
X165815684Y-92962649D01*
X165824097Y-92963478D01*
X165878125Y-92968799D01*
X165878131Y-92968799D01*
X165898998Y-92970854D01*
X165919865Y-92968799D01*
X166498590Y-92968799D01*
X166458901Y-93064618D01*
X166432000Y-93199856D01*
X166432000Y-93337744D01*
X166458901Y-93472982D01*
X166511668Y-93600374D01*
X166588274Y-93715024D01*
X166628501Y-93755251D01*
X166628501Y-93824541D01*
X166601111Y-93832850D01*
X166506853Y-93883232D01*
X166424235Y-93951035D01*
X166356432Y-94033653D01*
X166306050Y-94127911D01*
X166275025Y-94230187D01*
X166264549Y-94336550D01*
X166264549Y-95249050D01*
X166275025Y-95355413D01*
X166306050Y-95457689D01*
X166356432Y-95551947D01*
X166424235Y-95634565D01*
X166506853Y-95702368D01*
X166601111Y-95752750D01*
X166703387Y-95783775D01*
X166809750Y-95794251D01*
X167297250Y-95794251D01*
X167403613Y-95783775D01*
X167505889Y-95752750D01*
X167600147Y-95702368D01*
X167682765Y-95634565D01*
X167750568Y-95551947D01*
X167800950Y-95457689D01*
X167831975Y-95355413D01*
X167842451Y-95249050D01*
X167842451Y-94336550D01*
X167831975Y-94230187D01*
X167800950Y-94127911D01*
X167750568Y-94033653D01*
X167682765Y-93951035D01*
X167600147Y-93883232D01*
X167529177Y-93845298D01*
X167578224Y-93812526D01*
X167675726Y-93715024D01*
X167752332Y-93600374D01*
X167805099Y-93472982D01*
X167832000Y-93337744D01*
X167832000Y-93199856D01*
X167805099Y-93064618D01*
X167765410Y-92968799D01*
X167907359Y-92968799D01*
X168434201Y-93495642D01*
X168434200Y-101519273D01*
X168434201Y-101519283D01*
X168434200Y-102128873D01*
X168434201Y-102128881D01*
X168434200Y-103477690D01*
X168314471Y-103527284D01*
X168126118Y-103653137D01*
X167965937Y-103813318D01*
X167840084Y-104001671D01*
X167753394Y-104210957D01*
X167709200Y-104433135D01*
X167709200Y-104659665D01*
X167753394Y-104881843D01*
X167840084Y-105091129D01*
X167965937Y-105279482D01*
X168126118Y-105439663D01*
X168314471Y-105565516D01*
X168523757Y-105652206D01*
X168745935Y-105696400D01*
X168972465Y-105696400D01*
X169194643Y-105652206D01*
X169403929Y-105565516D01*
X169592282Y-105439663D01*
X169752463Y-105279482D01*
X169878316Y-105091129D01*
X169965006Y-104881843D01*
X170009200Y-104659665D01*
X170009200Y-104433135D01*
X169965006Y-104210957D01*
X169878316Y-104001671D01*
X169752463Y-103813318D01*
X169592282Y-103653137D01*
X169403929Y-103527284D01*
X169284200Y-103477690D01*
X169284200Y-93340466D01*
X169286255Y-93319599D01*
X169284200Y-93298732D01*
X169284200Y-93298726D01*
X169278050Y-93236286D01*
X169253748Y-93156173D01*
X169214284Y-93082340D01*
X169161174Y-93017626D01*
X169144962Y-93004321D01*
X168398682Y-92258042D01*
X168385373Y-92241825D01*
X168320659Y-92188715D01*
X168246826Y-92149251D01*
X168166713Y-92124949D01*
X168104273Y-92118799D01*
X168104266Y-92118799D01*
X168083399Y-92116744D01*
X168062532Y-92118799D01*
X167723985Y-92118799D01*
X167752332Y-92076374D01*
X167805099Y-91948982D01*
X167832000Y-91813744D01*
X167832000Y-91675856D01*
X167805099Y-91540618D01*
X167752332Y-91413226D01*
X167675726Y-91298576D01*
X167578224Y-91201074D01*
X167557000Y-91186893D01*
X167557000Y-91153431D01*
X167600147Y-91130368D01*
X167682765Y-91062565D01*
X167750568Y-90979947D01*
X167800950Y-90885689D01*
X167831975Y-90783413D01*
X167842451Y-90677050D01*
X167842451Y-89764550D01*
X167831975Y-89658187D01*
X167800950Y-89555911D01*
X167750568Y-89461653D01*
X167682765Y-89379035D01*
X167600147Y-89311232D01*
X167529177Y-89273298D01*
X167578224Y-89240526D01*
X167675726Y-89143024D01*
X167752332Y-89028374D01*
X167805099Y-88900982D01*
X167832000Y-88765744D01*
X167832000Y-88627856D01*
X167805099Y-88492618D01*
X167765410Y-88396799D01*
X170396559Y-88396799D01*
X170974201Y-88974442D01*
X170974200Y-101468473D01*
X170974201Y-101468483D01*
X170974200Y-102128873D01*
X170974201Y-102128881D01*
X170974200Y-103477690D01*
X170854471Y-103527284D01*
X170666118Y-103653137D01*
X170505937Y-103813318D01*
X170380084Y-104001671D01*
X170293394Y-104210957D01*
X170249200Y-104433135D01*
X170249200Y-104659665D01*
X170293394Y-104881843D01*
X170380084Y-105091129D01*
X170505937Y-105279482D01*
X170666118Y-105439663D01*
X170854471Y-105565516D01*
X171063757Y-105652206D01*
X171285935Y-105696400D01*
X171512465Y-105696400D01*
X171734643Y-105652206D01*
X171943929Y-105565516D01*
X172132282Y-105439663D01*
X172292463Y-105279482D01*
X172418316Y-105091129D01*
X172505006Y-104881843D01*
X172549200Y-104659665D01*
X172549200Y-104433135D01*
X172505006Y-104210957D01*
X172418316Y-104001671D01*
X172292463Y-103813318D01*
X172132282Y-103653137D01*
X171943929Y-103527284D01*
X171824200Y-103477690D01*
X171824200Y-88819266D01*
X171826255Y-88798399D01*
X171824200Y-88777532D01*
X171824200Y-88777526D01*
X171818050Y-88715086D01*
X171793748Y-88634973D01*
X171754284Y-88561140D01*
X171701174Y-88496426D01*
X171684962Y-88483121D01*
X170887882Y-87686042D01*
X170874573Y-87669825D01*
X170809859Y-87616715D01*
X170736026Y-87577251D01*
X170655913Y-87552949D01*
X170593473Y-87546799D01*
X170593466Y-87546799D01*
X170572599Y-87544744D01*
X170551732Y-87546799D01*
X167723985Y-87546799D01*
X167752332Y-87504374D01*
X167805099Y-87376982D01*
X167832000Y-87241744D01*
X167832000Y-87103856D01*
X167805099Y-86968618D01*
X167752332Y-86841226D01*
X167675726Y-86726576D01*
X167578224Y-86629074D01*
X167557000Y-86614893D01*
X167557000Y-86581431D01*
X167600147Y-86558368D01*
X167682765Y-86490565D01*
X167750568Y-86407947D01*
X167800950Y-86313689D01*
X167831975Y-86211413D01*
X167842451Y-86105050D01*
X167842451Y-86073800D01*
X173102760Y-86073800D01*
X173514201Y-86485241D01*
X173514201Y-86676638D01*
X173416530Y-86741899D01*
X173305099Y-86853330D01*
X173217549Y-86984358D01*
X173157243Y-87129949D01*
X173126500Y-87284507D01*
X173126500Y-87442093D01*
X173157243Y-87596651D01*
X173217549Y-87742242D01*
X173305099Y-87873270D01*
X173416530Y-87984701D01*
X173514201Y-88049962D01*
X173514200Y-89378073D01*
X173514201Y-89378083D01*
X173514201Y-91765022D01*
X173447953Y-91800432D01*
X173365335Y-91868235D01*
X173297532Y-91950853D01*
X173247150Y-92045111D01*
X173216125Y-92147387D01*
X173205649Y-92253750D01*
X173205649Y-93166250D01*
X173216125Y-93272613D01*
X173247150Y-93374889D01*
X173297532Y-93469147D01*
X173365335Y-93551765D01*
X173447953Y-93619568D01*
X173514201Y-93654978D01*
X173514200Y-101417673D01*
X173514201Y-101417683D01*
X173514200Y-102128873D01*
X173514201Y-102128881D01*
X173514200Y-103477690D01*
X173394471Y-103527284D01*
X173206118Y-103653137D01*
X173045937Y-103813318D01*
X172920084Y-104001671D01*
X172833394Y-104210957D01*
X172789200Y-104433135D01*
X172789200Y-104659665D01*
X172833394Y-104881843D01*
X172920084Y-105091129D01*
X173045937Y-105279482D01*
X173206118Y-105439663D01*
X173394471Y-105565516D01*
X173603757Y-105652206D01*
X173825935Y-105696400D01*
X174052465Y-105696400D01*
X174274643Y-105652206D01*
X174483929Y-105565516D01*
X174672282Y-105439663D01*
X174832463Y-105279482D01*
X174958316Y-105091129D01*
X175045006Y-104881843D01*
X175089200Y-104659665D01*
X175089200Y-104433135D01*
X175329200Y-104433135D01*
X175329200Y-104659665D01*
X175373394Y-104881843D01*
X175460084Y-105091129D01*
X175585937Y-105279482D01*
X175746118Y-105439663D01*
X175934471Y-105565516D01*
X176143757Y-105652206D01*
X176365935Y-105696400D01*
X176592465Y-105696400D01*
X176814643Y-105652206D01*
X177023929Y-105565516D01*
X177212282Y-105439663D01*
X177372463Y-105279482D01*
X177498316Y-105091129D01*
X177585006Y-104881843D01*
X177621097Y-104700402D01*
X177721349Y-104700402D01*
X177611291Y-104925311D01*
X177712265Y-105192700D01*
X177863464Y-105435252D01*
X178059078Y-105643646D01*
X178291589Y-105809873D01*
X178552061Y-105927546D01*
X178640290Y-105954303D01*
X178865200Y-105843289D01*
X178865200Y-104700400D01*
X179173200Y-104700400D01*
X179173200Y-105843289D01*
X179398110Y-105954303D01*
X179486339Y-105927546D01*
X179746811Y-105809873D01*
X179979322Y-105643646D01*
X180174936Y-105435252D01*
X180326135Y-105192700D01*
X180427109Y-104925311D01*
X180317050Y-104700400D01*
X179173200Y-104700400D01*
X178865200Y-104700400D01*
X178845200Y-104700400D01*
X178845200Y-104392400D01*
X178865200Y-104392400D01*
X178865200Y-103249511D01*
X179173200Y-103249511D01*
X179173200Y-104392400D01*
X180317050Y-104392400D01*
X180427109Y-104167489D01*
X180326135Y-103900100D01*
X180174936Y-103657548D01*
X179979322Y-103449154D01*
X179746811Y-103282927D01*
X179486339Y-103165254D01*
X179398110Y-103138497D01*
X179173200Y-103249511D01*
X178865200Y-103249511D01*
X178640290Y-103138497D01*
X178552061Y-103165254D01*
X178291589Y-103282927D01*
X178059078Y-103449154D01*
X177863464Y-103657548D01*
X177712265Y-103900100D01*
X177611291Y-104167489D01*
X177721349Y-104392398D01*
X177621097Y-104392398D01*
X177585006Y-104210957D01*
X177498316Y-104001671D01*
X177372463Y-103813318D01*
X177212282Y-103653137D01*
X177023929Y-103527284D01*
X176904200Y-103477690D01*
X176904200Y-100099640D01*
X178492158Y-98511682D01*
X178508374Y-98498374D01*
X178561484Y-98433660D01*
X178600948Y-98359827D01*
X178625250Y-98279714D01*
X178631400Y-98217274D01*
X178631400Y-98217267D01*
X178633455Y-98196400D01*
X178631400Y-98175533D01*
X178631400Y-96737800D01*
X182794949Y-96737800D01*
X182794949Y-101737800D01*
X182800741Y-101796610D01*
X182817896Y-101853160D01*
X182845753Y-101905277D01*
X182883242Y-101950958D01*
X182928923Y-101988447D01*
X182981040Y-102016304D01*
X183037590Y-102033459D01*
X183096400Y-102039251D01*
X191096400Y-102039251D01*
X191155210Y-102033459D01*
X191211760Y-102016304D01*
X191263877Y-101988447D01*
X191309558Y-101950958D01*
X191347047Y-101905277D01*
X191374904Y-101853160D01*
X191392059Y-101796610D01*
X191397851Y-101737800D01*
X191397851Y-96737800D01*
X191392059Y-96678990D01*
X191374904Y-96622440D01*
X191347047Y-96570323D01*
X191309558Y-96524642D01*
X191263877Y-96487153D01*
X191211760Y-96459296D01*
X191155210Y-96442141D01*
X191096400Y-96436349D01*
X183096400Y-96436349D01*
X183037590Y-96442141D01*
X182981040Y-96459296D01*
X182928923Y-96487153D01*
X182883242Y-96524642D01*
X182845753Y-96570323D01*
X182817896Y-96622440D01*
X182800741Y-96678990D01*
X182794949Y-96737800D01*
X178631400Y-96737800D01*
X178631400Y-91828950D01*
X181268949Y-91828950D01*
X181268949Y-92316450D01*
X181279425Y-92422813D01*
X181310450Y-92525089D01*
X181360832Y-92619347D01*
X181428635Y-92701965D01*
X181511253Y-92769768D01*
X181605511Y-92820150D01*
X181707787Y-92851175D01*
X181814150Y-92861651D01*
X182726650Y-92861651D01*
X182833013Y-92851175D01*
X182935289Y-92820150D01*
X183029547Y-92769768D01*
X183112165Y-92701965D01*
X183179968Y-92619347D01*
X183230350Y-92525089D01*
X183238658Y-92497700D01*
X193496660Y-92497700D01*
X194139000Y-93140040D01*
X194139001Y-99157428D01*
X193987199Y-99203476D01*
X193726614Y-99342762D01*
X193498209Y-99530208D01*
X193310763Y-99758613D01*
X193171477Y-100019198D01*
X193085705Y-100301949D01*
X193064000Y-100522320D01*
X193064000Y-102169679D01*
X193085705Y-102390050D01*
X193171476Y-102672801D01*
X193310762Y-102933386D01*
X193498208Y-103161792D01*
X193726613Y-103349238D01*
X193987198Y-103488524D01*
X194269949Y-103574295D01*
X194564000Y-103603257D01*
X194858050Y-103574295D01*
X195140801Y-103488524D01*
X195401386Y-103349238D01*
X195629792Y-103161792D01*
X195817238Y-102933387D01*
X195956524Y-102672802D01*
X196042295Y-102390051D01*
X196064000Y-102169680D01*
X196064000Y-100522320D01*
X196042295Y-100301949D01*
X195956524Y-100019198D01*
X195817238Y-99758613D01*
X195629792Y-99530208D01*
X195401387Y-99342762D01*
X195140802Y-99203476D01*
X194989000Y-99157428D01*
X194989000Y-92984874D01*
X194991056Y-92964000D01*
X194982850Y-92880686D01*
X194958548Y-92800573D01*
X194919084Y-92726740D01*
X194865974Y-92662026D01*
X194849758Y-92648718D01*
X193987984Y-91786944D01*
X193974674Y-91770726D01*
X193909960Y-91717616D01*
X193836127Y-91678152D01*
X193756014Y-91653850D01*
X193693574Y-91647700D01*
X193693567Y-91647700D01*
X193672700Y-91645645D01*
X193651833Y-91647700D01*
X183238658Y-91647700D01*
X183230350Y-91620311D01*
X183179968Y-91526053D01*
X183112165Y-91443435D01*
X183029547Y-91375632D01*
X182935289Y-91325250D01*
X182833013Y-91294225D01*
X182726650Y-91283749D01*
X181814150Y-91283749D01*
X181707787Y-91294225D01*
X181605511Y-91325250D01*
X181511253Y-91375632D01*
X181428635Y-91443435D01*
X181360832Y-91526053D01*
X181310450Y-91620311D01*
X181279425Y-91722587D01*
X181268949Y-91828950D01*
X178631400Y-91828950D01*
X178631400Y-90982051D01*
X178662650Y-90982051D01*
X178769013Y-90971575D01*
X178871289Y-90940550D01*
X178965547Y-90890168D01*
X179048165Y-90822365D01*
X179115968Y-90739747D01*
X179166350Y-90645489D01*
X179174658Y-90618100D01*
X181300746Y-90618100D01*
X181310450Y-90650089D01*
X181360832Y-90744347D01*
X181428635Y-90826965D01*
X181511253Y-90894768D01*
X181605511Y-90945150D01*
X181707787Y-90976175D01*
X181814150Y-90986651D01*
X182726650Y-90986651D01*
X182833013Y-90976175D01*
X182935289Y-90945150D01*
X183029547Y-90894768D01*
X183112165Y-90826965D01*
X183179968Y-90744347D01*
X183230350Y-90650089D01*
X183261375Y-90547813D01*
X183271851Y-90441450D01*
X183271851Y-89953950D01*
X183261375Y-89847587D01*
X183230350Y-89745311D01*
X183179968Y-89651053D01*
X183112165Y-89568435D01*
X183029547Y-89500632D01*
X182935289Y-89450250D01*
X182833013Y-89419225D01*
X182726650Y-89408749D01*
X182695400Y-89408749D01*
X182695400Y-88054176D01*
X182780370Y-87997401D01*
X182891801Y-87885970D01*
X182979351Y-87754942D01*
X183039657Y-87609351D01*
X183070400Y-87454793D01*
X183070400Y-87297207D01*
X183039657Y-87142649D01*
X182979351Y-86997058D01*
X182953521Y-86958400D01*
X185748558Y-86958400D01*
X185760297Y-87077589D01*
X185795063Y-87192197D01*
X185851520Y-87297821D01*
X185927499Y-87390401D01*
X186020079Y-87466380D01*
X186125703Y-87522837D01*
X186240311Y-87557603D01*
X186359500Y-87569342D01*
X186541000Y-87566400D01*
X186693000Y-87414400D01*
X186693000Y-86412400D01*
X185903500Y-86412400D01*
X185751500Y-86564400D01*
X185748558Y-86958400D01*
X182953521Y-86958400D01*
X182891801Y-86866030D01*
X182780370Y-86754599D01*
X182649342Y-86667049D01*
X182503751Y-86606743D01*
X182349193Y-86576000D01*
X182191607Y-86576000D01*
X182037049Y-86606743D01*
X181891458Y-86667049D01*
X181760430Y-86754599D01*
X181648999Y-86866030D01*
X181561449Y-86997058D01*
X181501143Y-87142649D01*
X181470400Y-87297207D01*
X181470400Y-87454793D01*
X181501143Y-87609351D01*
X181561449Y-87754942D01*
X181648999Y-87885970D01*
X181760430Y-87997401D01*
X181845401Y-88054177D01*
X181845400Y-89408749D01*
X181814150Y-89408749D01*
X181707787Y-89419225D01*
X181605511Y-89450250D01*
X181511253Y-89500632D01*
X181428635Y-89568435D01*
X181360832Y-89651053D01*
X181310450Y-89745311D01*
X181303537Y-89768100D01*
X179174658Y-89768100D01*
X179166350Y-89740711D01*
X179115968Y-89646453D01*
X179048165Y-89563835D01*
X178965547Y-89496032D01*
X178871289Y-89445650D01*
X178772025Y-89415539D01*
X178906400Y-89416542D01*
X179025589Y-89404803D01*
X179140197Y-89370037D01*
X179245821Y-89313580D01*
X179338401Y-89237601D01*
X179414380Y-89145021D01*
X179470837Y-89039397D01*
X179505603Y-88924789D01*
X179517342Y-88805600D01*
X179514400Y-88624100D01*
X179362400Y-88472100D01*
X178360400Y-88472100D01*
X178360400Y-88492100D01*
X178052400Y-88492100D01*
X178052400Y-88472100D01*
X177050400Y-88472100D01*
X176898400Y-88624100D01*
X176895458Y-88805600D01*
X176907197Y-88924789D01*
X176941963Y-89039397D01*
X176998420Y-89145021D01*
X177074399Y-89237601D01*
X177166979Y-89313580D01*
X177272603Y-89370037D01*
X177387211Y-89404803D01*
X177506400Y-89416542D01*
X177640775Y-89415539D01*
X177541511Y-89445650D01*
X177447253Y-89496032D01*
X177364635Y-89563835D01*
X177296832Y-89646453D01*
X177246450Y-89740711D01*
X177215425Y-89842987D01*
X177204949Y-89949350D01*
X177204949Y-90436850D01*
X177215425Y-90543213D01*
X177246450Y-90645489D01*
X177296832Y-90739747D01*
X177364635Y-90822365D01*
X177447253Y-90890168D01*
X177541511Y-90940550D01*
X177643787Y-90971575D01*
X177750150Y-90982051D01*
X177781401Y-90982051D01*
X177781400Y-98020360D01*
X176193439Y-99608321D01*
X176177227Y-99621626D01*
X176124117Y-99686340D01*
X176099257Y-99732850D01*
X176084653Y-99760173D01*
X176060350Y-99840286D01*
X176052145Y-99923600D01*
X176054201Y-99944477D01*
X176054200Y-101782326D01*
X176054200Y-102128873D01*
X176054201Y-102128882D01*
X176054200Y-103477690D01*
X175934471Y-103527284D01*
X175746118Y-103653137D01*
X175585937Y-103813318D01*
X175460084Y-104001671D01*
X175373394Y-104210957D01*
X175329200Y-104433135D01*
X175089200Y-104433135D01*
X175045006Y-104210957D01*
X174958316Y-104001671D01*
X174832463Y-103813318D01*
X174672282Y-103653137D01*
X174483929Y-103527284D01*
X174364200Y-103477690D01*
X174364200Y-93695064D01*
X174446989Y-93669950D01*
X174541247Y-93619568D01*
X174623865Y-93551765D01*
X174691668Y-93469147D01*
X174742050Y-93374889D01*
X174772161Y-93275625D01*
X174771158Y-93410000D01*
X174782897Y-93529189D01*
X174817663Y-93643797D01*
X174874120Y-93749421D01*
X174950099Y-93842001D01*
X175042679Y-93917980D01*
X175148303Y-93974437D01*
X175262911Y-94009203D01*
X175382100Y-94020942D01*
X175563600Y-94018000D01*
X175715600Y-93866000D01*
X175715600Y-92864000D01*
X176023600Y-92864000D01*
X176023600Y-93866000D01*
X176175600Y-94018000D01*
X176357100Y-94020942D01*
X176476289Y-94009203D01*
X176590897Y-93974437D01*
X176696521Y-93917980D01*
X176789101Y-93842001D01*
X176865080Y-93749421D01*
X176921537Y-93643797D01*
X176956303Y-93529189D01*
X176968042Y-93410000D01*
X176965100Y-93016000D01*
X176813100Y-92864000D01*
X176023600Y-92864000D01*
X175715600Y-92864000D01*
X175695600Y-92864000D01*
X175695600Y-92556000D01*
X175715600Y-92556000D01*
X175715600Y-91554000D01*
X176023600Y-91554000D01*
X176023600Y-92556000D01*
X176813100Y-92556000D01*
X176965100Y-92404000D01*
X176968042Y-92010000D01*
X176956303Y-91890811D01*
X176921537Y-91776203D01*
X176865080Y-91670579D01*
X176789101Y-91577999D01*
X176696521Y-91502020D01*
X176590897Y-91445563D01*
X176476289Y-91410797D01*
X176357100Y-91399058D01*
X176175600Y-91402000D01*
X176023600Y-91554000D01*
X175715600Y-91554000D01*
X175563600Y-91402000D01*
X175382100Y-91399058D01*
X175262911Y-91410797D01*
X175148303Y-91445563D01*
X175042679Y-91502020D01*
X174950099Y-91577999D01*
X174874120Y-91670579D01*
X174817663Y-91776203D01*
X174782897Y-91890811D01*
X174771158Y-92010000D01*
X174772161Y-92144375D01*
X174742050Y-92045111D01*
X174691668Y-91950853D01*
X174623865Y-91868235D01*
X174541247Y-91800432D01*
X174446989Y-91750050D01*
X174364200Y-91724936D01*
X174364200Y-88032990D01*
X174436470Y-87984701D01*
X174547901Y-87873270D01*
X174576412Y-87830600D01*
X176895458Y-87830600D01*
X176898400Y-88012100D01*
X177050400Y-88164100D01*
X178052400Y-88164100D01*
X178052400Y-87374600D01*
X178360400Y-87374600D01*
X178360400Y-88164100D01*
X179362400Y-88164100D01*
X179514400Y-88012100D01*
X179517342Y-87830600D01*
X179505603Y-87711411D01*
X179470837Y-87596803D01*
X179414380Y-87491179D01*
X179338401Y-87398599D01*
X179245821Y-87322620D01*
X179140197Y-87266163D01*
X179025589Y-87231397D01*
X178906400Y-87219658D01*
X178512400Y-87222600D01*
X178360400Y-87374600D01*
X178052400Y-87374600D01*
X177900400Y-87222600D01*
X177506400Y-87219658D01*
X177387211Y-87231397D01*
X177272603Y-87266163D01*
X177166979Y-87322620D01*
X177074399Y-87398599D01*
X176998420Y-87491179D01*
X176941963Y-87596803D01*
X176907197Y-87711411D01*
X176895458Y-87830600D01*
X174576412Y-87830600D01*
X174635451Y-87742242D01*
X174695757Y-87596651D01*
X174726500Y-87442093D01*
X174726500Y-87284507D01*
X174695757Y-87129949D01*
X174635451Y-86984358D01*
X174547901Y-86853330D01*
X174436470Y-86741899D01*
X174364200Y-86693610D01*
X174364200Y-86330067D01*
X174366255Y-86309200D01*
X174364200Y-86288333D01*
X174364200Y-86288326D01*
X174358050Y-86225886D01*
X174333748Y-86145773D01*
X174294284Y-86071940D01*
X174241174Y-86007226D01*
X174224956Y-85993916D01*
X173789440Y-85558400D01*
X185748558Y-85558400D01*
X185751500Y-85952400D01*
X185903500Y-86104400D01*
X186693000Y-86104400D01*
X186693000Y-85102400D01*
X187001000Y-85102400D01*
X187001000Y-86104400D01*
X187021000Y-86104400D01*
X187021000Y-86412400D01*
X187001000Y-86412400D01*
X187001000Y-87414400D01*
X187153000Y-87566400D01*
X187334500Y-87569342D01*
X187453689Y-87557603D01*
X187568297Y-87522837D01*
X187673921Y-87466380D01*
X187766501Y-87390401D01*
X187842480Y-87297821D01*
X187898937Y-87192197D01*
X187933703Y-87077589D01*
X187945442Y-86958400D01*
X187944439Y-86824025D01*
X187974550Y-86923289D01*
X188024932Y-87017547D01*
X188092735Y-87100165D01*
X188175353Y-87167968D01*
X188269611Y-87218350D01*
X188371887Y-87249375D01*
X188478250Y-87259851D01*
X188965750Y-87259851D01*
X189072113Y-87249375D01*
X189174389Y-87218350D01*
X189268647Y-87167968D01*
X189351265Y-87100165D01*
X189419068Y-87017547D01*
X189469450Y-86923289D01*
X189500475Y-86821013D01*
X189510951Y-86714650D01*
X189510951Y-86683400D01*
X193064000Y-86683400D01*
X193064000Y-87269679D01*
X193085705Y-87490050D01*
X193171476Y-87772801D01*
X193310762Y-88033386D01*
X193498208Y-88261792D01*
X193726613Y-88449238D01*
X193987198Y-88588524D01*
X194269949Y-88674295D01*
X194564000Y-88703257D01*
X194858050Y-88674295D01*
X195140801Y-88588524D01*
X195401386Y-88449238D01*
X195629792Y-88261792D01*
X195817238Y-88033387D01*
X195956524Y-87772802D01*
X196042295Y-87490051D01*
X196064000Y-87269680D01*
X196064000Y-85622320D01*
X196042295Y-85401949D01*
X195956524Y-85119198D01*
X195817238Y-84858613D01*
X195629792Y-84630208D01*
X195401387Y-84442762D01*
X195140802Y-84303476D01*
X194858051Y-84217705D01*
X194564000Y-84188743D01*
X194269950Y-84217705D01*
X193987199Y-84303476D01*
X193726614Y-84442762D01*
X193498209Y-84630208D01*
X193310763Y-84858613D01*
X193171477Y-85119198D01*
X193085705Y-85401949D01*
X193064000Y-85622320D01*
X193064000Y-85833400D01*
X189510951Y-85833400D01*
X189510951Y-85802150D01*
X189500475Y-85695787D01*
X189469450Y-85593511D01*
X189419068Y-85499253D01*
X189351265Y-85416635D01*
X189268647Y-85348832D01*
X189174389Y-85298450D01*
X189072113Y-85267425D01*
X188965750Y-85256949D01*
X188478250Y-85256949D01*
X188371887Y-85267425D01*
X188269611Y-85298450D01*
X188175353Y-85348832D01*
X188092735Y-85416635D01*
X188024932Y-85499253D01*
X187974550Y-85593511D01*
X187944439Y-85692775D01*
X187945442Y-85558400D01*
X187933703Y-85439211D01*
X187898937Y-85324603D01*
X187842480Y-85218979D01*
X187766501Y-85126399D01*
X187673921Y-85050420D01*
X187568297Y-84993963D01*
X187453689Y-84959197D01*
X187334500Y-84947458D01*
X187153000Y-84950400D01*
X187001000Y-85102400D01*
X186693000Y-85102400D01*
X186541000Y-84950400D01*
X186359500Y-84947458D01*
X186240311Y-84959197D01*
X186125703Y-84993963D01*
X186020079Y-85050420D01*
X185927499Y-85126399D01*
X185851520Y-85218979D01*
X185795063Y-85324603D01*
X185760297Y-85439211D01*
X185748558Y-85558400D01*
X173789440Y-85558400D01*
X173594084Y-85363044D01*
X173580774Y-85346826D01*
X173516060Y-85293716D01*
X173442227Y-85254252D01*
X173362114Y-85229950D01*
X173299674Y-85223800D01*
X173299667Y-85223800D01*
X173278800Y-85221745D01*
X173257933Y-85223800D01*
X167842451Y-85223800D01*
X167842451Y-85192550D01*
X167831975Y-85086187D01*
X167800950Y-84983911D01*
X167750568Y-84889653D01*
X167682765Y-84807035D01*
X167600147Y-84739232D01*
X167505889Y-84688850D01*
X167478500Y-84680542D01*
X167478500Y-84067167D01*
X167480555Y-84046300D01*
X167478500Y-84025433D01*
X167478500Y-84025426D01*
X167472350Y-83962986D01*
X167471861Y-83961373D01*
X167448048Y-83882872D01*
X167424619Y-83839040D01*
X167408584Y-83809040D01*
X167355474Y-83744326D01*
X167339263Y-83731022D01*
X166939283Y-83331043D01*
X166925974Y-83314826D01*
X166861260Y-83261716D01*
X166787427Y-83222252D01*
X166707314Y-83197950D01*
X166644874Y-83191800D01*
X166644867Y-83191800D01*
X166624000Y-83189745D01*
X166603133Y-83191800D01*
X154960866Y-83191800D01*
X154939999Y-83189745D01*
X154919132Y-83191800D01*
X154919126Y-83191800D01*
X154865098Y-83197121D01*
X154856685Y-83197950D01*
X154832383Y-83205322D01*
X154776573Y-83222252D01*
X154702740Y-83261716D01*
X154638026Y-83314826D01*
X154624721Y-83331038D01*
X154146243Y-83809517D01*
X154130026Y-83822826D01*
X154076916Y-83887541D01*
X154037452Y-83961374D01*
X154036963Y-83962987D01*
X154014921Y-84035650D01*
X154013150Y-84041487D01*
X154007000Y-84103927D01*
X154007000Y-84103933D01*
X154004945Y-84124800D01*
X154007000Y-84145667D01*
X154007001Y-86509341D01*
X153979611Y-86517650D01*
X153885353Y-86568032D01*
X153802735Y-86635835D01*
X153734932Y-86718453D01*
X153684550Y-86812711D01*
X153654439Y-86911975D01*
X153655442Y-86777600D01*
X153643703Y-86658411D01*
X153608937Y-86543803D01*
X153552480Y-86438179D01*
X153476501Y-86345599D01*
X153383921Y-86269620D01*
X153278297Y-86213163D01*
X153163689Y-86178397D01*
X153044500Y-86166658D01*
X152863000Y-86169600D01*
X152711000Y-86321600D01*
X152711000Y-87323600D01*
X152731000Y-87323600D01*
X152731000Y-87631600D01*
X152711000Y-87631600D01*
X152711000Y-88633600D01*
X152863000Y-88785600D01*
X153044500Y-88788542D01*
X153163689Y-88776803D01*
X153278297Y-88742037D01*
X153383921Y-88685580D01*
X153476501Y-88609601D01*
X153552480Y-88517021D01*
X153608937Y-88411397D01*
X153643703Y-88296789D01*
X153655442Y-88177600D01*
X153654439Y-88043225D01*
X153684550Y-88142489D01*
X153734932Y-88236747D01*
X153802735Y-88319365D01*
X153885353Y-88387168D01*
X153979611Y-88437550D01*
X154007000Y-88445858D01*
X154007001Y-90042269D01*
X154003387Y-90042625D01*
X153901111Y-90073650D01*
X153806853Y-90124032D01*
X153724235Y-90191835D01*
X153656432Y-90274453D01*
X153606050Y-90368711D01*
X153575025Y-90470987D01*
X153564549Y-90577350D01*
X153564549Y-91489850D01*
X153575025Y-91596213D01*
X153606050Y-91698489D01*
X153656432Y-91792747D01*
X153724235Y-91875365D01*
X153806853Y-91943168D01*
X153901111Y-91993550D01*
X154003387Y-92024575D01*
X154109750Y-92035051D01*
X154597250Y-92035051D01*
X154703613Y-92024575D01*
X154805889Y-91993550D01*
X154900147Y-91943168D01*
X154982765Y-91875365D01*
X155050568Y-91792747D01*
X155100950Y-91698489D01*
X155131975Y-91596213D01*
X155142451Y-91489850D01*
X155142451Y-91458600D01*
X155271960Y-91458600D01*
X155683401Y-91870041D01*
X155683400Y-95785160D01*
X155162239Y-96306321D01*
X155146027Y-96319626D01*
X155092917Y-96384340D01*
X155090824Y-96388256D01*
X155053453Y-96458173D01*
X155029150Y-96538286D01*
X155020945Y-96621600D01*
X155023001Y-96642477D01*
X155023000Y-104122224D01*
X154938030Y-104178999D01*
X154826599Y-104290430D01*
X154813000Y-104310782D01*
X154799401Y-104290430D01*
X154687970Y-104178999D01*
X154603000Y-104122224D01*
X154603000Y-99439240D01*
X154717758Y-99324482D01*
X154733974Y-99311174D01*
X154787084Y-99246460D01*
X154826548Y-99172627D01*
X154850850Y-99092514D01*
X154857000Y-99030074D01*
X154857000Y-99030068D01*
X154859055Y-99009201D01*
X154857000Y-98988334D01*
X154857000Y-95557858D01*
X154884389Y-95549550D01*
X154978647Y-95499168D01*
X155061265Y-95431365D01*
X155129068Y-95348747D01*
X155179450Y-95254489D01*
X155210475Y-95152213D01*
X155220951Y-95045850D01*
X155220951Y-94133350D01*
X155210475Y-94026987D01*
X155179450Y-93924711D01*
X155129068Y-93830453D01*
X155061265Y-93747835D01*
X154978647Y-93680032D01*
X154884389Y-93629650D01*
X154782113Y-93598625D01*
X154675750Y-93588149D01*
X154188250Y-93588149D01*
X154081887Y-93598625D01*
X153979611Y-93629650D01*
X153885353Y-93680032D01*
X153802735Y-93747835D01*
X153734932Y-93830453D01*
X153684550Y-93924711D01*
X153653525Y-94026987D01*
X153643049Y-94133350D01*
X153643049Y-95045850D01*
X153653525Y-95152213D01*
X153684550Y-95254489D01*
X153734932Y-95348747D01*
X153802735Y-95431365D01*
X153885353Y-95499168D01*
X153979611Y-95549550D01*
X154007001Y-95557859D01*
X154007000Y-98785126D01*
X154007000Y-98833160D01*
X153892239Y-98947921D01*
X153876027Y-98961226D01*
X153822917Y-99025940D01*
X153787333Y-99092514D01*
X153783453Y-99099773D01*
X153759150Y-99179886D01*
X153750945Y-99263200D01*
X153753001Y-99284077D01*
X153753000Y-104122224D01*
X153668030Y-104178999D01*
X153556599Y-104290430D01*
X153543000Y-104310782D01*
X153529401Y-104290430D01*
X153417970Y-104178999D01*
X153333000Y-104122224D01*
X153333000Y-99334867D01*
X153335055Y-99314000D01*
X153333000Y-99293133D01*
X153333000Y-99293126D01*
X153327603Y-99238327D01*
X153326850Y-99230685D01*
X153317620Y-99200259D01*
X153302548Y-99150573D01*
X153263084Y-99076740D01*
X153209974Y-99012026D01*
X153193762Y-98998721D01*
X152982000Y-98786960D01*
X152982000Y-95557858D01*
X153009389Y-95549550D01*
X153103647Y-95499168D01*
X153186265Y-95431365D01*
X153254068Y-95348747D01*
X153304450Y-95254489D01*
X153335475Y-95152213D01*
X153345951Y-95045850D01*
X153345951Y-94133350D01*
X153335475Y-94026987D01*
X153304450Y-93924711D01*
X153254068Y-93830453D01*
X153186265Y-93747835D01*
X153103647Y-93680032D01*
X153009389Y-93629650D01*
X152907113Y-93598625D01*
X152800750Y-93588149D01*
X152313250Y-93588149D01*
X152206887Y-93598625D01*
X152104611Y-93629650D01*
X152010353Y-93680032D01*
X151927735Y-93747835D01*
X151859932Y-93830453D01*
X151809550Y-93924711D01*
X151778525Y-94026987D01*
X151768049Y-94133350D01*
X151768049Y-95045850D01*
X151778525Y-95152213D01*
X151809550Y-95254489D01*
X151859932Y-95348747D01*
X151927735Y-95431365D01*
X152010353Y-95499168D01*
X152104611Y-95549550D01*
X152132001Y-95557859D01*
X152132000Y-98785126D01*
X152132000Y-98942133D01*
X152129945Y-98963000D01*
X152132000Y-98983867D01*
X152132000Y-98983873D01*
X152138150Y-99046313D01*
X152162452Y-99126426D01*
X152201916Y-99200259D01*
X152255026Y-99264974D01*
X152271243Y-99278283D01*
X152483001Y-99490042D01*
X152483000Y-104122224D01*
X152409263Y-104171493D01*
X152388647Y-104132923D01*
X152351158Y-104087242D01*
X152305477Y-104049753D01*
X152253360Y-104021896D01*
X152196810Y-104004741D01*
X152138000Y-103998949D01*
X152063000Y-103998949D01*
X152063000Y-96794867D01*
X152065055Y-96774000D01*
X152063000Y-96753133D01*
X152063000Y-96753126D01*
X152056850Y-96690686D01*
X152053302Y-96678990D01*
X152032548Y-96610572D01*
X152011034Y-96570323D01*
X151993084Y-96536740D01*
X151939974Y-96472026D01*
X151923762Y-96458721D01*
X151250200Y-95785160D01*
X151250200Y-91870040D01*
X151661640Y-91458600D01*
X151689549Y-91458600D01*
X151689549Y-91489850D01*
X151700025Y-91596213D01*
X151731050Y-91698489D01*
X151781432Y-91792747D01*
X151849235Y-91875365D01*
X151931853Y-91943168D01*
X152026111Y-91993550D01*
X152128387Y-92024575D01*
X152234750Y-92035051D01*
X152722250Y-92035051D01*
X152828613Y-92024575D01*
X152930889Y-91993550D01*
X153025147Y-91943168D01*
X153107765Y-91875365D01*
X153175568Y-91792747D01*
X153225950Y-91698489D01*
X153256975Y-91596213D01*
X153267451Y-91489850D01*
X153267451Y-90577350D01*
X153256975Y-90470987D01*
X153225950Y-90368711D01*
X153175568Y-90274453D01*
X153107765Y-90191835D01*
X153025147Y-90124032D01*
X152930889Y-90073650D01*
X152828613Y-90042625D01*
X152722250Y-90032149D01*
X152234750Y-90032149D01*
X152128387Y-90042625D01*
X152026111Y-90073650D01*
X151931853Y-90124032D01*
X151849235Y-90191835D01*
X151781432Y-90274453D01*
X151731050Y-90368711D01*
X151700025Y-90470987D01*
X151689549Y-90577350D01*
X151689549Y-90608600D01*
X151506467Y-90608600D01*
X151485600Y-90606545D01*
X151464733Y-90608600D01*
X151464726Y-90608600D01*
X151402286Y-90614750D01*
X151322173Y-90639052D01*
X151248340Y-90678516D01*
X151183626Y-90731626D01*
X151170316Y-90747844D01*
X150539439Y-91378721D01*
X150523227Y-91392026D01*
X150470117Y-91456740D01*
X150463983Y-91468217D01*
X150430653Y-91530573D01*
X150406350Y-91610686D01*
X150398145Y-91694000D01*
X122041000Y-91694000D01*
X122041000Y-89375101D01*
X146249888Y-89375101D01*
X146288462Y-89577789D01*
X146490215Y-89661047D01*
X146704335Y-89703344D01*
X146922592Y-89703055D01*
X147136598Y-89660193D01*
X147335538Y-89577789D01*
X147374112Y-89375101D01*
X146812000Y-88812989D01*
X146249888Y-89375101D01*
X122041000Y-89375101D01*
X122041000Y-88487535D01*
X145703856Y-88487535D01*
X145704145Y-88705792D01*
X145747007Y-88919798D01*
X145829411Y-89118738D01*
X146032099Y-89157312D01*
X146594211Y-88595200D01*
X147029789Y-88595200D01*
X147591901Y-89157312D01*
X147794589Y-89118738D01*
X147877847Y-88916985D01*
X147920144Y-88702865D01*
X147919855Y-88484608D01*
X147876993Y-88270602D01*
X147838471Y-88177600D01*
X151458558Y-88177600D01*
X151470297Y-88296789D01*
X151505063Y-88411397D01*
X151561520Y-88517021D01*
X151637499Y-88609601D01*
X151730079Y-88685580D01*
X151835703Y-88742037D01*
X151950311Y-88776803D01*
X152069500Y-88788542D01*
X152251000Y-88785600D01*
X152403000Y-88633600D01*
X152403000Y-87631600D01*
X151613500Y-87631600D01*
X151461500Y-87783600D01*
X151458558Y-88177600D01*
X147838471Y-88177600D01*
X147794589Y-88071662D01*
X147591901Y-88033088D01*
X147029789Y-88595200D01*
X146594211Y-88595200D01*
X146032099Y-88033088D01*
X145829411Y-88071662D01*
X145746153Y-88273415D01*
X145703856Y-88487535D01*
X122041000Y-88487535D01*
X122041000Y-87815299D01*
X146249888Y-87815299D01*
X146812000Y-88377411D01*
X147374112Y-87815299D01*
X147335538Y-87612611D01*
X147133785Y-87529353D01*
X146919665Y-87487056D01*
X146701408Y-87487345D01*
X146487402Y-87530207D01*
X146288462Y-87612611D01*
X146249888Y-87815299D01*
X122041000Y-87815299D01*
X122041000Y-86777600D01*
X151458558Y-86777600D01*
X151461500Y-87171600D01*
X151613500Y-87323600D01*
X152403000Y-87323600D01*
X152403000Y-86321600D01*
X152251000Y-86169600D01*
X152069500Y-86166658D01*
X151950311Y-86178397D01*
X151835703Y-86213163D01*
X151730079Y-86269620D01*
X151637499Y-86345599D01*
X151561520Y-86438179D01*
X151505063Y-86543803D01*
X151470297Y-86658411D01*
X151458558Y-86777600D01*
X122041000Y-86777600D01*
X122041000Y-81527984D01*
X196221000Y-81525015D01*
X196221001Y-107624750D01*
G37*
X196221001Y-107624750D02*
X191338746Y-107621492D01*
X191341259Y-107613210D01*
X191347051Y-107554400D01*
X191347051Y-102554400D01*
X191341259Y-102495590D01*
X191324104Y-102439040D01*
X191296247Y-102386923D01*
X191258758Y-102341242D01*
X191213077Y-102303753D01*
X191160960Y-102275896D01*
X191104410Y-102258741D01*
X191045600Y-102252949D01*
X183045600Y-102252949D01*
X182986790Y-102258741D01*
X182930240Y-102275896D01*
X182878123Y-102303753D01*
X182832442Y-102341242D01*
X182794953Y-102386923D01*
X182767096Y-102439040D01*
X182749941Y-102495590D01*
X182744149Y-102554400D01*
X182744149Y-107554400D01*
X182749941Y-107613210D01*
X182750715Y-107615762D01*
X141331130Y-107588123D01*
X141334451Y-107554400D01*
X141334451Y-102554400D01*
X141328659Y-102495590D01*
X141311504Y-102439040D01*
X141283647Y-102386923D01*
X141246158Y-102341242D01*
X141200477Y-102303753D01*
X141148360Y-102275896D01*
X141091810Y-102258741D01*
X141033000Y-102252949D01*
X133033000Y-102252949D01*
X132974190Y-102258741D01*
X132917640Y-102275896D01*
X132865523Y-102303753D01*
X132819842Y-102341242D01*
X132782353Y-102386923D01*
X132754496Y-102439040D01*
X132737341Y-102495590D01*
X132731549Y-102554400D01*
X132731549Y-107554400D01*
X132734305Y-107582386D01*
X122041000Y-107575250D01*
X122041000Y-96737800D01*
X132756949Y-96737800D01*
X132756949Y-101737800D01*
X132762741Y-101796610D01*
X132779896Y-101853160D01*
X132807753Y-101905277D01*
X132845242Y-101950958D01*
X132890923Y-101988447D01*
X132943040Y-102016304D01*
X132999590Y-102033459D01*
X133058400Y-102039251D01*
X141058400Y-102039251D01*
X141117210Y-102033459D01*
X141173760Y-102016304D01*
X141225877Y-101988447D01*
X141271558Y-101950958D01*
X141309047Y-101905277D01*
X141336904Y-101853160D01*
X141354059Y-101796610D01*
X141359851Y-101737800D01*
X141359851Y-96737800D01*
X141354059Y-96678990D01*
X141336904Y-96622440D01*
X141309047Y-96570323D01*
X141271558Y-96524642D01*
X141225877Y-96487153D01*
X141173760Y-96459296D01*
X141117210Y-96442141D01*
X141058400Y-96436349D01*
X133058400Y-96436349D01*
X132999590Y-96442141D01*
X132943040Y-96459296D01*
X132890923Y-96487153D01*
X132845242Y-96524642D01*
X132807753Y-96570323D01*
X132779896Y-96622440D01*
X132762741Y-96678990D01*
X132756949Y-96737800D01*
X122041000Y-96737800D01*
X122041000Y-91694000D01*
X150398145Y-91694000D01*
X150400201Y-91714877D01*
X150400200Y-95940333D01*
X150398145Y-95961200D01*
X150400200Y-95982067D01*
X150400200Y-95982073D01*
X150406350Y-96044513D01*
X150430652Y-96124626D01*
X150470116Y-96198459D01*
X150523226Y-96263174D01*
X150539443Y-96276483D01*
X151213001Y-96950042D01*
X151213000Y-103998949D01*
X151138000Y-103998949D01*
X151079190Y-104004741D01*
X151022640Y-104021896D01*
X150970523Y-104049753D01*
X150924842Y-104087242D01*
X150887353Y-104132923D01*
X150859496Y-104185040D01*
X150842341Y-104241590D01*
X150836549Y-104300400D01*
X150836549Y-105300400D01*
X150842341Y-105359210D01*
X150859496Y-105415760D01*
X150887353Y-105467877D01*
X150924842Y-105513558D01*
X150970523Y-105551047D01*
X151022640Y-105578904D01*
X151079190Y-105596059D01*
X151138000Y-105601851D01*
X152138000Y-105601851D01*
X152196810Y-105596059D01*
X152253360Y-105578904D01*
X152305477Y-105551047D01*
X152351158Y-105513558D01*
X152388647Y-105467877D01*
X152409263Y-105429307D01*
X152529058Y-105509351D01*
X152674649Y-105569657D01*
X152829207Y-105600400D01*
X152986793Y-105600400D01*
X153141351Y-105569657D01*
X153286942Y-105509351D01*
X153417970Y-105421801D01*
X153529401Y-105310370D01*
X153543000Y-105290018D01*
X153556599Y-105310370D01*
X153668030Y-105421801D01*
X153799058Y-105509351D01*
X153944649Y-105569657D01*
X154099207Y-105600400D01*
X154256793Y-105600400D01*
X154411351Y-105569657D01*
X154556942Y-105509351D01*
X154687970Y-105421801D01*
X154799401Y-105310370D01*
X154813000Y-105290018D01*
X154826599Y-105310370D01*
X154938030Y-105421801D01*
X155069058Y-105509351D01*
X155214649Y-105569657D01*
X155369207Y-105600400D01*
X155526793Y-105600400D01*
X155681351Y-105569657D01*
X155826942Y-105509351D01*
X155853777Y-105491421D01*
X155862902Y-105505019D01*
X156016797Y-105658301D01*
X156197639Y-105778615D01*
X156394249Y-105860046D01*
X156564000Y-105743915D01*
X156564000Y-104954400D01*
X156544000Y-104954400D01*
X156544000Y-104646400D01*
X156564000Y-104646400D01*
X156564000Y-103856885D01*
X156394249Y-103740754D01*
X156197639Y-103822185D01*
X156016797Y-103942499D01*
X155873000Y-104085723D01*
X155873000Y-96797640D01*
X156394158Y-96276482D01*
X156410374Y-96263174D01*
X156463484Y-96198460D01*
X156502948Y-96124627D01*
X156527250Y-96044514D01*
X156533400Y-95982074D01*
X156533400Y-95982067D01*
X156535455Y-95961200D01*
X156533400Y-95940333D01*
X156533400Y-91714867D01*
X156535455Y-91694000D01*
X156533400Y-91673133D01*
X156533400Y-91673126D01*
X156527250Y-91610686D01*
X156502948Y-91530573D01*
X156463484Y-91456740D01*
X156410374Y-91392026D01*
X156394156Y-91378716D01*
X155763284Y-90747844D01*
X155749974Y-90731626D01*
X155685260Y-90678516D01*
X155611427Y-90639052D01*
X155531314Y-90614750D01*
X155468874Y-90608600D01*
X155468867Y-90608600D01*
X155448000Y-90606545D01*
X155427133Y-90608600D01*
X155142451Y-90608600D01*
X155142451Y-90577350D01*
X155131975Y-90470987D01*
X155100950Y-90368711D01*
X155050568Y-90274453D01*
X154982765Y-90191835D01*
X154900147Y-90124032D01*
X154857000Y-90100969D01*
X154857000Y-88445858D01*
X154884389Y-88437550D01*
X154978647Y-88387168D01*
X155061265Y-88319365D01*
X155129068Y-88236747D01*
X155179450Y-88142489D01*
X155210475Y-88040213D01*
X155220951Y-87933850D01*
X155220951Y-87021350D01*
X155210475Y-86914987D01*
X155179450Y-86812711D01*
X155129068Y-86718453D01*
X155061265Y-86635835D01*
X154978647Y-86568032D01*
X154884389Y-86517650D01*
X154857000Y-86509342D01*
X154857000Y-84300840D01*
X155116041Y-84041800D01*
X166447960Y-84041800D01*
X166628500Y-84222341D01*
X166628500Y-84680542D01*
X166601111Y-84688850D01*
X166506853Y-84739232D01*
X166424235Y-84807035D01*
X166356432Y-84889653D01*
X166306050Y-84983911D01*
X166275025Y-85086187D01*
X166264549Y-85192550D01*
X166264549Y-86105050D01*
X166275025Y-86211413D01*
X166306050Y-86313689D01*
X166356432Y-86407947D01*
X166424235Y-86490565D01*
X166506853Y-86558368D01*
X166601111Y-86608750D01*
X166681664Y-86633186D01*
X166588274Y-86726576D01*
X166511668Y-86841226D01*
X166458901Y-86968618D01*
X166432000Y-87103856D01*
X166432000Y-87241744D01*
X166458901Y-87376982D01*
X166511668Y-87504374D01*
X166540015Y-87546799D01*
X166176639Y-87546799D01*
X165603500Y-86973660D01*
X165603500Y-86617058D01*
X165630889Y-86608750D01*
X165725147Y-86558368D01*
X165807765Y-86490565D01*
X165875568Y-86407947D01*
X165925950Y-86313689D01*
X165956975Y-86211413D01*
X165967451Y-86105050D01*
X165967451Y-85192550D01*
X165956975Y-85086187D01*
X165925950Y-84983911D01*
X165875568Y-84889653D01*
X165807765Y-84807035D01*
X165725147Y-84739232D01*
X165630889Y-84688850D01*
X165528613Y-84657825D01*
X165422250Y-84647349D01*
X164934750Y-84647349D01*
X164828387Y-84657825D01*
X164726111Y-84688850D01*
X164631853Y-84739232D01*
X164549235Y-84807035D01*
X164481432Y-84889653D01*
X164431050Y-84983911D01*
X164400025Y-85086187D01*
X164389549Y-85192550D01*
X164389549Y-85223800D01*
X163238176Y-85223800D01*
X163181401Y-85138830D01*
X163069970Y-85027399D01*
X162938942Y-84939849D01*
X162793351Y-84879543D01*
X162638793Y-84848800D01*
X162481207Y-84848800D01*
X162326649Y-84879543D01*
X162181058Y-84939849D01*
X162050030Y-85027399D01*
X161938599Y-85138830D01*
X161881824Y-85223800D01*
X158516866Y-85223800D01*
X158495999Y-85221745D01*
X158475132Y-85223800D01*
X158475126Y-85223800D01*
X158421098Y-85229121D01*
X158412685Y-85229950D01*
X158388383Y-85237322D01*
X158332573Y-85254252D01*
X158258740Y-85293716D01*
X158258738Y-85293717D01*
X158258739Y-85293717D01*
X158221105Y-85324603D01*
X158194026Y-85346826D01*
X158180721Y-85363038D01*
X157702239Y-85841521D01*
X157686027Y-85854826D01*
X157632917Y-85919540D01*
X157608854Y-85964559D01*
X157593453Y-85993373D01*
X157569150Y-86073486D01*
X157560945Y-86156800D01*
X157563001Y-86177677D01*
X157563000Y-104085723D01*
X157419203Y-103942499D01*
X157238361Y-103822185D01*
X157041751Y-103740754D01*
X156872000Y-103856885D01*
X156872000Y-104646400D01*
X156892000Y-104646400D01*
X156892000Y-104954400D01*
X156872000Y-104954400D01*
X156872000Y-105743915D01*
X157041751Y-105860046D01*
X157238361Y-105778615D01*
X157419203Y-105658301D01*
X157573098Y-105505019D01*
X157582223Y-105491421D01*
X157609058Y-105509351D01*
X157754649Y-105569657D01*
X157909207Y-105600400D01*
X158066793Y-105600400D01*
X158221351Y-105569657D01*
X158366942Y-105509351D01*
X158497970Y-105421801D01*
X158609401Y-105310370D01*
X158623000Y-105290018D01*
X158636599Y-105310370D01*
X158748030Y-105421801D01*
X158879058Y-105509351D01*
X159024649Y-105569657D01*
X159179207Y-105600400D01*
X159336793Y-105600400D01*
X159491351Y-105569657D01*
X159636942Y-105509351D01*
X159767970Y-105421801D01*
X159879401Y-105310370D01*
X159893000Y-105290018D01*
X159906599Y-105310370D01*
X160018030Y-105421801D01*
X160149058Y-105509351D01*
X160294649Y-105569657D01*
X160449207Y-105600400D01*
X160606793Y-105600400D01*
X160761351Y-105569657D01*
X160906942Y-105509351D01*
X161037970Y-105421801D01*
X161149401Y-105310370D01*
X161236951Y-105179342D01*
X161297257Y-105033751D01*
X161328000Y-104879193D01*
X161328000Y-104721607D01*
X161297257Y-104567049D01*
X161236951Y-104421458D01*
X161149401Y-104290430D01*
X161037970Y-104178999D01*
X160953000Y-104122224D01*
X160953000Y-95730840D01*
X161466041Y-95217800D01*
X161881824Y-95217800D01*
X161938599Y-95302770D01*
X162050030Y-95414201D01*
X162181058Y-95501751D01*
X162326649Y-95562057D01*
X162481207Y-95592800D01*
X162638793Y-95592800D01*
X162793351Y-95562057D01*
X162938942Y-95501751D01*
X163069970Y-95414201D01*
X163181401Y-95302770D01*
X163238176Y-95217800D01*
X164389549Y-95217800D01*
X164389549Y-95249050D01*
X164400025Y-95355413D01*
X164431050Y-95457689D01*
X164481432Y-95551947D01*
X164549235Y-95634565D01*
X164631853Y-95702368D01*
X164726111Y-95752750D01*
X164753500Y-95761058D01*
X164753500Y-96365373D01*
X164753501Y-96365383D01*
X164753500Y-97593633D01*
X164751445Y-97614500D01*
X164753500Y-97635367D01*
X164753500Y-97635373D01*
X164759650Y-97697813D01*
X164783952Y-97777926D01*
X164823416Y-97851759D01*
X164876526Y-97916474D01*
X164892743Y-97929783D01*
X165894201Y-98931242D01*
X165894200Y-101417673D01*
X165894201Y-101417683D01*
X165894200Y-102128873D01*
X165894201Y-102128881D01*
X165894200Y-103394949D01*
X165469200Y-103394949D01*
X165410390Y-103400741D01*
X165353840Y-103417896D01*
X165301723Y-103445753D01*
X165256042Y-103483242D01*
X165218553Y-103528923D01*
X165190696Y-103581040D01*
X165173541Y-103637590D01*
X165167749Y-103696400D01*
X165167749Y-105396400D01*
X165173541Y-105455210D01*
X165190696Y-105511760D01*
X165218553Y-105563877D01*
X165256042Y-105609558D01*
X165301723Y-105647047D01*
X165353840Y-105674904D01*
X165410390Y-105692059D01*
X165469200Y-105697851D01*
X167169200Y-105697851D01*
X167228010Y-105692059D01*
X167284560Y-105674904D01*
X167336677Y-105647047D01*
X167382358Y-105609558D01*
X167419847Y-105563877D01*
X167447704Y-105511760D01*
X167464859Y-105455210D01*
X167470651Y-105396400D01*
X167470651Y-103696400D01*
X167464859Y-103637590D01*
X167447704Y-103581040D01*
X167419847Y-103528923D01*
X167382358Y-103483242D01*
X167336677Y-103445753D01*
X167284560Y-103417896D01*
X167228010Y-103400741D01*
X167169200Y-103394949D01*
X166744200Y-103394949D01*
X166744200Y-98776066D01*
X166746255Y-98755199D01*
X166744200Y-98734332D01*
X166744200Y-98734326D01*
X166738050Y-98671886D01*
X166713748Y-98591773D01*
X166674284Y-98517940D01*
X166621174Y-98453226D01*
X166604962Y-98439921D01*
X165603500Y-97438460D01*
X165603500Y-95761058D01*
X165630889Y-95752750D01*
X165725147Y-95702368D01*
X165807765Y-95634565D01*
X165875568Y-95551947D01*
X165925950Y-95457689D01*
X165956975Y-95355413D01*
X165967451Y-95249050D01*
X165967451Y-94336550D01*
X165956975Y-94230187D01*
X165925950Y-94127911D01*
X165875568Y-94033653D01*
X165807765Y-93951035D01*
X165725147Y-93883232D01*
X165630889Y-93832850D01*
X165528613Y-93801825D01*
X165422250Y-93791349D01*
X164934750Y-93791349D01*
X164828387Y-93801825D01*
X164726111Y-93832850D01*
X164631853Y-93883232D01*
X164549235Y-93951035D01*
X164481432Y-94033653D01*
X164431050Y-94127911D01*
X164400025Y-94230187D01*
X164389549Y-94336550D01*
X164389549Y-94367800D01*
X163238176Y-94367800D01*
X163181401Y-94282830D01*
X163069970Y-94171399D01*
X162938942Y-94083849D01*
X162793351Y-94023543D01*
X162638793Y-93992800D01*
X162481207Y-93992800D01*
X162326649Y-94023543D01*
X162181058Y-94083849D01*
X162050030Y-94171399D01*
X161938599Y-94282830D01*
X161881824Y-94367800D01*
X161310867Y-94367800D01*
X161290000Y-94365745D01*
X161269133Y-94367800D01*
X161269126Y-94367800D01*
X161206686Y-94373950D01*
X161126572Y-94398252D01*
X161100855Y-94411999D01*
X161052740Y-94437716D01*
X160988026Y-94490826D01*
X160974721Y-94507038D01*
X160242239Y-95239521D01*
X160226027Y-95252826D01*
X160172917Y-95317540D01*
X160156237Y-95348747D01*
X160133453Y-95391373D01*
X160109150Y-95471486D01*
X160100945Y-95554800D01*
X160103001Y-95575677D01*
X160103000Y-102188726D01*
X160103000Y-102382873D01*
X160103001Y-102382882D01*
X160103000Y-104122224D01*
X160018030Y-104178999D01*
X159906599Y-104290430D01*
X159893000Y-104310782D01*
X159879401Y-104290430D01*
X159767970Y-104178999D01*
X159683000Y-104122224D01*
X159683000Y-90904840D01*
X159942041Y-90645800D01*
X161881824Y-90645800D01*
X161938599Y-90730770D01*
X162050030Y-90842201D01*
X162181058Y-90929751D01*
X162326649Y-90990057D01*
X162481207Y-91020800D01*
X162638793Y-91020800D01*
X162793351Y-90990057D01*
X162938942Y-90929751D01*
X163069970Y-90842201D01*
X163181401Y-90730770D01*
X163238176Y-90645800D01*
X164389549Y-90645800D01*
X164389549Y-90677050D01*
X164400025Y-90783413D01*
X164431050Y-90885689D01*
X164481432Y-90979947D01*
X164549235Y-91062565D01*
X164631853Y-91130368D01*
X164726111Y-91180750D01*
X164753500Y-91189058D01*
X164753500Y-91802433D01*
X164751445Y-91823300D01*
X164753500Y-91844167D01*
X164753500Y-91844173D01*
X164758094Y-91890811D01*
X164759650Y-91906614D01*
X164760457Y-91909273D01*
X164783952Y-91986726D01*
X164823416Y-92060559D01*
X164876526Y-92125274D01*
X164892743Y-92138583D01*
X165583718Y-92829559D01*
X165597025Y-92845773D01*
X165661739Y-92898883D01*
X165735572Y-92938347D01*
X165783059Y-92952752D01*
X165815684Y-92962649D01*
X165824097Y-92963478D01*
X165878125Y-92968799D01*
X165878131Y-92968799D01*
X165898998Y-92970854D01*
X165919865Y-92968799D01*
X166498590Y-92968799D01*
X166458901Y-93064618D01*
X166432000Y-93199856D01*
X166432000Y-93337744D01*
X166458901Y-93472982D01*
X166511668Y-93600374D01*
X166588274Y-93715024D01*
X166628501Y-93755251D01*
X166628501Y-93824541D01*
X166601111Y-93832850D01*
X166506853Y-93883232D01*
X166424235Y-93951035D01*
X166356432Y-94033653D01*
X166306050Y-94127911D01*
X166275025Y-94230187D01*
X166264549Y-94336550D01*
X166264549Y-95249050D01*
X166275025Y-95355413D01*
X166306050Y-95457689D01*
X166356432Y-95551947D01*
X166424235Y-95634565D01*
X166506853Y-95702368D01*
X166601111Y-95752750D01*
X166703387Y-95783775D01*
X166809750Y-95794251D01*
X167297250Y-95794251D01*
X167403613Y-95783775D01*
X167505889Y-95752750D01*
X167600147Y-95702368D01*
X167682765Y-95634565D01*
X167750568Y-95551947D01*
X167800950Y-95457689D01*
X167831975Y-95355413D01*
X167842451Y-95249050D01*
X167842451Y-94336550D01*
X167831975Y-94230187D01*
X167800950Y-94127911D01*
X167750568Y-94033653D01*
X167682765Y-93951035D01*
X167600147Y-93883232D01*
X167529177Y-93845298D01*
X167578224Y-93812526D01*
X167675726Y-93715024D01*
X167752332Y-93600374D01*
X167805099Y-93472982D01*
X167832000Y-93337744D01*
X167832000Y-93199856D01*
X167805099Y-93064618D01*
X167765410Y-92968799D01*
X167907359Y-92968799D01*
X168434201Y-93495642D01*
X168434200Y-101519273D01*
X168434201Y-101519283D01*
X168434200Y-102128873D01*
X168434201Y-102128881D01*
X168434200Y-103477690D01*
X168314471Y-103527284D01*
X168126118Y-103653137D01*
X167965937Y-103813318D01*
X167840084Y-104001671D01*
X167753394Y-104210957D01*
X167709200Y-104433135D01*
X167709200Y-104659665D01*
X167753394Y-104881843D01*
X167840084Y-105091129D01*
X167965937Y-105279482D01*
X168126118Y-105439663D01*
X168314471Y-105565516D01*
X168523757Y-105652206D01*
X168745935Y-105696400D01*
X168972465Y-105696400D01*
X169194643Y-105652206D01*
X169403929Y-105565516D01*
X169592282Y-105439663D01*
X169752463Y-105279482D01*
X169878316Y-105091129D01*
X169965006Y-104881843D01*
X170009200Y-104659665D01*
X170009200Y-104433135D01*
X169965006Y-104210957D01*
X169878316Y-104001671D01*
X169752463Y-103813318D01*
X169592282Y-103653137D01*
X169403929Y-103527284D01*
X169284200Y-103477690D01*
X169284200Y-93340466D01*
X169286255Y-93319599D01*
X169284200Y-93298732D01*
X169284200Y-93298726D01*
X169278050Y-93236286D01*
X169253748Y-93156173D01*
X169214284Y-93082340D01*
X169161174Y-93017626D01*
X169144962Y-93004321D01*
X168398682Y-92258042D01*
X168385373Y-92241825D01*
X168320659Y-92188715D01*
X168246826Y-92149251D01*
X168166713Y-92124949D01*
X168104273Y-92118799D01*
X168104266Y-92118799D01*
X168083399Y-92116744D01*
X168062532Y-92118799D01*
X167723985Y-92118799D01*
X167752332Y-92076374D01*
X167805099Y-91948982D01*
X167832000Y-91813744D01*
X167832000Y-91675856D01*
X167805099Y-91540618D01*
X167752332Y-91413226D01*
X167675726Y-91298576D01*
X167578224Y-91201074D01*
X167557000Y-91186893D01*
X167557000Y-91153431D01*
X167600147Y-91130368D01*
X167682765Y-91062565D01*
X167750568Y-90979947D01*
X167800950Y-90885689D01*
X167831975Y-90783413D01*
X167842451Y-90677050D01*
X167842451Y-89764550D01*
X167831975Y-89658187D01*
X167800950Y-89555911D01*
X167750568Y-89461653D01*
X167682765Y-89379035D01*
X167600147Y-89311232D01*
X167529177Y-89273298D01*
X167578224Y-89240526D01*
X167675726Y-89143024D01*
X167752332Y-89028374D01*
X167805099Y-88900982D01*
X167832000Y-88765744D01*
X167832000Y-88627856D01*
X167805099Y-88492618D01*
X167765410Y-88396799D01*
X170396559Y-88396799D01*
X170974201Y-88974442D01*
X170974200Y-101468473D01*
X170974201Y-101468483D01*
X170974200Y-102128873D01*
X170974201Y-102128881D01*
X170974200Y-103477690D01*
X170854471Y-103527284D01*
X170666118Y-103653137D01*
X170505937Y-103813318D01*
X170380084Y-104001671D01*
X170293394Y-104210957D01*
X170249200Y-104433135D01*
X170249200Y-104659665D01*
X170293394Y-104881843D01*
X170380084Y-105091129D01*
X170505937Y-105279482D01*
X170666118Y-105439663D01*
X170854471Y-105565516D01*
X171063757Y-105652206D01*
X171285935Y-105696400D01*
X171512465Y-105696400D01*
X171734643Y-105652206D01*
X171943929Y-105565516D01*
X172132282Y-105439663D01*
X172292463Y-105279482D01*
X172418316Y-105091129D01*
X172505006Y-104881843D01*
X172549200Y-104659665D01*
X172549200Y-104433135D01*
X172505006Y-104210957D01*
X172418316Y-104001671D01*
X172292463Y-103813318D01*
X172132282Y-103653137D01*
X171943929Y-103527284D01*
X171824200Y-103477690D01*
X171824200Y-88819266D01*
X171826255Y-88798399D01*
X171824200Y-88777532D01*
X171824200Y-88777526D01*
X171818050Y-88715086D01*
X171793748Y-88634973D01*
X171754284Y-88561140D01*
X171701174Y-88496426D01*
X171684962Y-88483121D01*
X170887882Y-87686042D01*
X170874573Y-87669825D01*
X170809859Y-87616715D01*
X170736026Y-87577251D01*
X170655913Y-87552949D01*
X170593473Y-87546799D01*
X170593466Y-87546799D01*
X170572599Y-87544744D01*
X170551732Y-87546799D01*
X167723985Y-87546799D01*
X167752332Y-87504374D01*
X167805099Y-87376982D01*
X167832000Y-87241744D01*
X167832000Y-87103856D01*
X167805099Y-86968618D01*
X167752332Y-86841226D01*
X167675726Y-86726576D01*
X167578224Y-86629074D01*
X167557000Y-86614893D01*
X167557000Y-86581431D01*
X167600147Y-86558368D01*
X167682765Y-86490565D01*
X167750568Y-86407947D01*
X167800950Y-86313689D01*
X167831975Y-86211413D01*
X167842451Y-86105050D01*
X167842451Y-86073800D01*
X173102760Y-86073800D01*
X173514201Y-86485241D01*
X173514201Y-86676638D01*
X173416530Y-86741899D01*
X173305099Y-86853330D01*
X173217549Y-86984358D01*
X173157243Y-87129949D01*
X173126500Y-87284507D01*
X173126500Y-87442093D01*
X173157243Y-87596651D01*
X173217549Y-87742242D01*
X173305099Y-87873270D01*
X173416530Y-87984701D01*
X173514201Y-88049962D01*
X173514200Y-89378073D01*
X173514201Y-89378083D01*
X173514201Y-91765022D01*
X173447953Y-91800432D01*
X173365335Y-91868235D01*
X173297532Y-91950853D01*
X173247150Y-92045111D01*
X173216125Y-92147387D01*
X173205649Y-92253750D01*
X173205649Y-93166250D01*
X173216125Y-93272613D01*
X173247150Y-93374889D01*
X173297532Y-93469147D01*
X173365335Y-93551765D01*
X173447953Y-93619568D01*
X173514201Y-93654978D01*
X173514200Y-101417673D01*
X173514201Y-101417683D01*
X173514200Y-102128873D01*
X173514201Y-102128881D01*
X173514200Y-103477690D01*
X173394471Y-103527284D01*
X173206118Y-103653137D01*
X173045937Y-103813318D01*
X172920084Y-104001671D01*
X172833394Y-104210957D01*
X172789200Y-104433135D01*
X172789200Y-104659665D01*
X172833394Y-104881843D01*
X172920084Y-105091129D01*
X173045937Y-105279482D01*
X173206118Y-105439663D01*
X173394471Y-105565516D01*
X173603757Y-105652206D01*
X173825935Y-105696400D01*
X174052465Y-105696400D01*
X174274643Y-105652206D01*
X174483929Y-105565516D01*
X174672282Y-105439663D01*
X174832463Y-105279482D01*
X174958316Y-105091129D01*
X175045006Y-104881843D01*
X175089200Y-104659665D01*
X175089200Y-104433135D01*
X175329200Y-104433135D01*
X175329200Y-104659665D01*
X175373394Y-104881843D01*
X175460084Y-105091129D01*
X175585937Y-105279482D01*
X175746118Y-105439663D01*
X175934471Y-105565516D01*
X176143757Y-105652206D01*
X176365935Y-105696400D01*
X176592465Y-105696400D01*
X176814643Y-105652206D01*
X177023929Y-105565516D01*
X177212282Y-105439663D01*
X177372463Y-105279482D01*
X177498316Y-105091129D01*
X177585006Y-104881843D01*
X177621097Y-104700402D01*
X177721349Y-104700402D01*
X177611291Y-104925311D01*
X177712265Y-105192700D01*
X177863464Y-105435252D01*
X178059078Y-105643646D01*
X178291589Y-105809873D01*
X178552061Y-105927546D01*
X178640290Y-105954303D01*
X178865200Y-105843289D01*
X178865200Y-104700400D01*
X179173200Y-104700400D01*
X179173200Y-105843289D01*
X179398110Y-105954303D01*
X179486339Y-105927546D01*
X179746811Y-105809873D01*
X179979322Y-105643646D01*
X180174936Y-105435252D01*
X180326135Y-105192700D01*
X180427109Y-104925311D01*
X180317050Y-104700400D01*
X179173200Y-104700400D01*
X178865200Y-104700400D01*
X178845200Y-104700400D01*
X178845200Y-104392400D01*
X178865200Y-104392400D01*
X178865200Y-103249511D01*
X179173200Y-103249511D01*
X179173200Y-104392400D01*
X180317050Y-104392400D01*
X180427109Y-104167489D01*
X180326135Y-103900100D01*
X180174936Y-103657548D01*
X179979322Y-103449154D01*
X179746811Y-103282927D01*
X179486339Y-103165254D01*
X179398110Y-103138497D01*
X179173200Y-103249511D01*
X178865200Y-103249511D01*
X178640290Y-103138497D01*
X178552061Y-103165254D01*
X178291589Y-103282927D01*
X178059078Y-103449154D01*
X177863464Y-103657548D01*
X177712265Y-103900100D01*
X177611291Y-104167489D01*
X177721349Y-104392398D01*
X177621097Y-104392398D01*
X177585006Y-104210957D01*
X177498316Y-104001671D01*
X177372463Y-103813318D01*
X177212282Y-103653137D01*
X177023929Y-103527284D01*
X176904200Y-103477690D01*
X176904200Y-100099640D01*
X178492158Y-98511682D01*
X178508374Y-98498374D01*
X178561484Y-98433660D01*
X178600948Y-98359827D01*
X178625250Y-98279714D01*
X178631400Y-98217274D01*
X178631400Y-98217267D01*
X178633455Y-98196400D01*
X178631400Y-98175533D01*
X178631400Y-96737800D01*
X182794949Y-96737800D01*
X182794949Y-101737800D01*
X182800741Y-101796610D01*
X182817896Y-101853160D01*
X182845753Y-101905277D01*
X182883242Y-101950958D01*
X182928923Y-101988447D01*
X182981040Y-102016304D01*
X183037590Y-102033459D01*
X183096400Y-102039251D01*
X191096400Y-102039251D01*
X191155210Y-102033459D01*
X191211760Y-102016304D01*
X191263877Y-101988447D01*
X191309558Y-101950958D01*
X191347047Y-101905277D01*
X191374904Y-101853160D01*
X191392059Y-101796610D01*
X191397851Y-101737800D01*
X191397851Y-96737800D01*
X191392059Y-96678990D01*
X191374904Y-96622440D01*
X191347047Y-96570323D01*
X191309558Y-96524642D01*
X191263877Y-96487153D01*
X191211760Y-96459296D01*
X191155210Y-96442141D01*
X191096400Y-96436349D01*
X183096400Y-96436349D01*
X183037590Y-96442141D01*
X182981040Y-96459296D01*
X182928923Y-96487153D01*
X182883242Y-96524642D01*
X182845753Y-96570323D01*
X182817896Y-96622440D01*
X182800741Y-96678990D01*
X182794949Y-96737800D01*
X178631400Y-96737800D01*
X178631400Y-91828950D01*
X181268949Y-91828950D01*
X181268949Y-92316450D01*
X181279425Y-92422813D01*
X181310450Y-92525089D01*
X181360832Y-92619347D01*
X181428635Y-92701965D01*
X181511253Y-92769768D01*
X181605511Y-92820150D01*
X181707787Y-92851175D01*
X181814150Y-92861651D01*
X182726650Y-92861651D01*
X182833013Y-92851175D01*
X182935289Y-92820150D01*
X183029547Y-92769768D01*
X183112165Y-92701965D01*
X183179968Y-92619347D01*
X183230350Y-92525089D01*
X183238658Y-92497700D01*
X193496660Y-92497700D01*
X194139000Y-93140040D01*
X194139001Y-99157428D01*
X193987199Y-99203476D01*
X193726614Y-99342762D01*
X193498209Y-99530208D01*
X193310763Y-99758613D01*
X193171477Y-100019198D01*
X193085705Y-100301949D01*
X193064000Y-100522320D01*
X193064000Y-102169679D01*
X193085705Y-102390050D01*
X193171476Y-102672801D01*
X193310762Y-102933386D01*
X193498208Y-103161792D01*
X193726613Y-103349238D01*
X193987198Y-103488524D01*
X194269949Y-103574295D01*
X194564000Y-103603257D01*
X194858050Y-103574295D01*
X195140801Y-103488524D01*
X195401386Y-103349238D01*
X195629792Y-103161792D01*
X195817238Y-102933387D01*
X195956524Y-102672802D01*
X196042295Y-102390051D01*
X196064000Y-102169680D01*
X196064000Y-100522320D01*
X196042295Y-100301949D01*
X195956524Y-100019198D01*
X195817238Y-99758613D01*
X195629792Y-99530208D01*
X195401387Y-99342762D01*
X195140802Y-99203476D01*
X194989000Y-99157428D01*
X194989000Y-92984874D01*
X194991056Y-92964000D01*
X194982850Y-92880686D01*
X194958548Y-92800573D01*
X194919084Y-92726740D01*
X194865974Y-92662026D01*
X194849758Y-92648718D01*
X193987984Y-91786944D01*
X193974674Y-91770726D01*
X193909960Y-91717616D01*
X193836127Y-91678152D01*
X193756014Y-91653850D01*
X193693574Y-91647700D01*
X193693567Y-91647700D01*
X193672700Y-91645645D01*
X193651833Y-91647700D01*
X183238658Y-91647700D01*
X183230350Y-91620311D01*
X183179968Y-91526053D01*
X183112165Y-91443435D01*
X183029547Y-91375632D01*
X182935289Y-91325250D01*
X182833013Y-91294225D01*
X182726650Y-91283749D01*
X181814150Y-91283749D01*
X181707787Y-91294225D01*
X181605511Y-91325250D01*
X181511253Y-91375632D01*
X181428635Y-91443435D01*
X181360832Y-91526053D01*
X181310450Y-91620311D01*
X181279425Y-91722587D01*
X181268949Y-91828950D01*
X178631400Y-91828950D01*
X178631400Y-90982051D01*
X178662650Y-90982051D01*
X178769013Y-90971575D01*
X178871289Y-90940550D01*
X178965547Y-90890168D01*
X179048165Y-90822365D01*
X179115968Y-90739747D01*
X179166350Y-90645489D01*
X179174658Y-90618100D01*
X181300746Y-90618100D01*
X181310450Y-90650089D01*
X181360832Y-90744347D01*
X181428635Y-90826965D01*
X181511253Y-90894768D01*
X181605511Y-90945150D01*
X181707787Y-90976175D01*
X181814150Y-90986651D01*
X182726650Y-90986651D01*
X182833013Y-90976175D01*
X182935289Y-90945150D01*
X183029547Y-90894768D01*
X183112165Y-90826965D01*
X183179968Y-90744347D01*
X183230350Y-90650089D01*
X183261375Y-90547813D01*
X183271851Y-90441450D01*
X183271851Y-89953950D01*
X183261375Y-89847587D01*
X183230350Y-89745311D01*
X183179968Y-89651053D01*
X183112165Y-89568435D01*
X183029547Y-89500632D01*
X182935289Y-89450250D01*
X182833013Y-89419225D01*
X182726650Y-89408749D01*
X182695400Y-89408749D01*
X182695400Y-88054176D01*
X182780370Y-87997401D01*
X182891801Y-87885970D01*
X182979351Y-87754942D01*
X183039657Y-87609351D01*
X183070400Y-87454793D01*
X183070400Y-87297207D01*
X183039657Y-87142649D01*
X182979351Y-86997058D01*
X182953521Y-86958400D01*
X185748558Y-86958400D01*
X185760297Y-87077589D01*
X185795063Y-87192197D01*
X185851520Y-87297821D01*
X185927499Y-87390401D01*
X186020079Y-87466380D01*
X186125703Y-87522837D01*
X186240311Y-87557603D01*
X186359500Y-87569342D01*
X186541000Y-87566400D01*
X186693000Y-87414400D01*
X186693000Y-86412400D01*
X185903500Y-86412400D01*
X185751500Y-86564400D01*
X185748558Y-86958400D01*
X182953521Y-86958400D01*
X182891801Y-86866030D01*
X182780370Y-86754599D01*
X182649342Y-86667049D01*
X182503751Y-86606743D01*
X182349193Y-86576000D01*
X182191607Y-86576000D01*
X182037049Y-86606743D01*
X181891458Y-86667049D01*
X181760430Y-86754599D01*
X181648999Y-86866030D01*
X181561449Y-86997058D01*
X181501143Y-87142649D01*
X181470400Y-87297207D01*
X181470400Y-87454793D01*
X181501143Y-87609351D01*
X181561449Y-87754942D01*
X181648999Y-87885970D01*
X181760430Y-87997401D01*
X181845401Y-88054177D01*
X181845400Y-89408749D01*
X181814150Y-89408749D01*
X181707787Y-89419225D01*
X181605511Y-89450250D01*
X181511253Y-89500632D01*
X181428635Y-89568435D01*
X181360832Y-89651053D01*
X181310450Y-89745311D01*
X181303537Y-89768100D01*
X179174658Y-89768100D01*
X179166350Y-89740711D01*
X179115968Y-89646453D01*
X179048165Y-89563835D01*
X178965547Y-89496032D01*
X178871289Y-89445650D01*
X178772025Y-89415539D01*
X178906400Y-89416542D01*
X179025589Y-89404803D01*
X179140197Y-89370037D01*
X179245821Y-89313580D01*
X179338401Y-89237601D01*
X179414380Y-89145021D01*
X179470837Y-89039397D01*
X179505603Y-88924789D01*
X179517342Y-88805600D01*
X179514400Y-88624100D01*
X179362400Y-88472100D01*
X178360400Y-88472100D01*
X178360400Y-88492100D01*
X178052400Y-88492100D01*
X178052400Y-88472100D01*
X177050400Y-88472100D01*
X176898400Y-88624100D01*
X176895458Y-88805600D01*
X176907197Y-88924789D01*
X176941963Y-89039397D01*
X176998420Y-89145021D01*
X177074399Y-89237601D01*
X177166979Y-89313580D01*
X177272603Y-89370037D01*
X177387211Y-89404803D01*
X177506400Y-89416542D01*
X177640775Y-89415539D01*
X177541511Y-89445650D01*
X177447253Y-89496032D01*
X177364635Y-89563835D01*
X177296832Y-89646453D01*
X177246450Y-89740711D01*
X177215425Y-89842987D01*
X177204949Y-89949350D01*
X177204949Y-90436850D01*
X177215425Y-90543213D01*
X177246450Y-90645489D01*
X177296832Y-90739747D01*
X177364635Y-90822365D01*
X177447253Y-90890168D01*
X177541511Y-90940550D01*
X177643787Y-90971575D01*
X177750150Y-90982051D01*
X177781401Y-90982051D01*
X177781400Y-98020360D01*
X176193439Y-99608321D01*
X176177227Y-99621626D01*
X176124117Y-99686340D01*
X176099257Y-99732850D01*
X176084653Y-99760173D01*
X176060350Y-99840286D01*
X176052145Y-99923600D01*
X176054201Y-99944477D01*
X176054200Y-101782326D01*
X176054200Y-102128873D01*
X176054201Y-102128882D01*
X176054200Y-103477690D01*
X175934471Y-103527284D01*
X175746118Y-103653137D01*
X175585937Y-103813318D01*
X175460084Y-104001671D01*
X175373394Y-104210957D01*
X175329200Y-104433135D01*
X175089200Y-104433135D01*
X175045006Y-104210957D01*
X174958316Y-104001671D01*
X174832463Y-103813318D01*
X174672282Y-103653137D01*
X174483929Y-103527284D01*
X174364200Y-103477690D01*
X174364200Y-93695064D01*
X174446989Y-93669950D01*
X174541247Y-93619568D01*
X174623865Y-93551765D01*
X174691668Y-93469147D01*
X174742050Y-93374889D01*
X174772161Y-93275625D01*
X174771158Y-93410000D01*
X174782897Y-93529189D01*
X174817663Y-93643797D01*
X174874120Y-93749421D01*
X174950099Y-93842001D01*
X175042679Y-93917980D01*
X175148303Y-93974437D01*
X175262911Y-94009203D01*
X175382100Y-94020942D01*
X175563600Y-94018000D01*
X175715600Y-93866000D01*
X175715600Y-92864000D01*
X176023600Y-92864000D01*
X176023600Y-93866000D01*
X176175600Y-94018000D01*
X176357100Y-94020942D01*
X176476289Y-94009203D01*
X176590897Y-93974437D01*
X176696521Y-93917980D01*
X176789101Y-93842001D01*
X176865080Y-93749421D01*
X176921537Y-93643797D01*
X176956303Y-93529189D01*
X176968042Y-93410000D01*
X176965100Y-93016000D01*
X176813100Y-92864000D01*
X176023600Y-92864000D01*
X175715600Y-92864000D01*
X175695600Y-92864000D01*
X175695600Y-92556000D01*
X175715600Y-92556000D01*
X175715600Y-91554000D01*
X176023600Y-91554000D01*
X176023600Y-92556000D01*
X176813100Y-92556000D01*
X176965100Y-92404000D01*
X176968042Y-92010000D01*
X176956303Y-91890811D01*
X176921537Y-91776203D01*
X176865080Y-91670579D01*
X176789101Y-91577999D01*
X176696521Y-91502020D01*
X176590897Y-91445563D01*
X176476289Y-91410797D01*
X176357100Y-91399058D01*
X176175600Y-91402000D01*
X176023600Y-91554000D01*
X175715600Y-91554000D01*
X175563600Y-91402000D01*
X175382100Y-91399058D01*
X175262911Y-91410797D01*
X175148303Y-91445563D01*
X175042679Y-91502020D01*
X174950099Y-91577999D01*
X174874120Y-91670579D01*
X174817663Y-91776203D01*
X174782897Y-91890811D01*
X174771158Y-92010000D01*
X174772161Y-92144375D01*
X174742050Y-92045111D01*
X174691668Y-91950853D01*
X174623865Y-91868235D01*
X174541247Y-91800432D01*
X174446989Y-91750050D01*
X174364200Y-91724936D01*
X174364200Y-88032990D01*
X174436470Y-87984701D01*
X174547901Y-87873270D01*
X174576412Y-87830600D01*
X176895458Y-87830600D01*
X176898400Y-88012100D01*
X177050400Y-88164100D01*
X178052400Y-88164100D01*
X178052400Y-87374600D01*
X178360400Y-87374600D01*
X178360400Y-88164100D01*
X179362400Y-88164100D01*
X179514400Y-88012100D01*
X179517342Y-87830600D01*
X179505603Y-87711411D01*
X179470837Y-87596803D01*
X179414380Y-87491179D01*
X179338401Y-87398599D01*
X179245821Y-87322620D01*
X179140197Y-87266163D01*
X179025589Y-87231397D01*
X178906400Y-87219658D01*
X178512400Y-87222600D01*
X178360400Y-87374600D01*
X178052400Y-87374600D01*
X177900400Y-87222600D01*
X177506400Y-87219658D01*
X177387211Y-87231397D01*
X177272603Y-87266163D01*
X177166979Y-87322620D01*
X177074399Y-87398599D01*
X176998420Y-87491179D01*
X176941963Y-87596803D01*
X176907197Y-87711411D01*
X176895458Y-87830600D01*
X174576412Y-87830600D01*
X174635451Y-87742242D01*
X174695757Y-87596651D01*
X174726500Y-87442093D01*
X174726500Y-87284507D01*
X174695757Y-87129949D01*
X174635451Y-86984358D01*
X174547901Y-86853330D01*
X174436470Y-86741899D01*
X174364200Y-86693610D01*
X174364200Y-86330067D01*
X174366255Y-86309200D01*
X174364200Y-86288333D01*
X174364200Y-86288326D01*
X174358050Y-86225886D01*
X174333748Y-86145773D01*
X174294284Y-86071940D01*
X174241174Y-86007226D01*
X174224956Y-85993916D01*
X173789440Y-85558400D01*
X185748558Y-85558400D01*
X185751500Y-85952400D01*
X185903500Y-86104400D01*
X186693000Y-86104400D01*
X186693000Y-85102400D01*
X187001000Y-85102400D01*
X187001000Y-86104400D01*
X187021000Y-86104400D01*
X187021000Y-86412400D01*
X187001000Y-86412400D01*
X187001000Y-87414400D01*
X187153000Y-87566400D01*
X187334500Y-87569342D01*
X187453689Y-87557603D01*
X187568297Y-87522837D01*
X187673921Y-87466380D01*
X187766501Y-87390401D01*
X187842480Y-87297821D01*
X187898937Y-87192197D01*
X187933703Y-87077589D01*
X187945442Y-86958400D01*
X187944439Y-86824025D01*
X187974550Y-86923289D01*
X188024932Y-87017547D01*
X188092735Y-87100165D01*
X188175353Y-87167968D01*
X188269611Y-87218350D01*
X188371887Y-87249375D01*
X188478250Y-87259851D01*
X188965750Y-87259851D01*
X189072113Y-87249375D01*
X189174389Y-87218350D01*
X189268647Y-87167968D01*
X189351265Y-87100165D01*
X189419068Y-87017547D01*
X189469450Y-86923289D01*
X189500475Y-86821013D01*
X189510951Y-86714650D01*
X189510951Y-86683400D01*
X193064000Y-86683400D01*
X193064000Y-87269679D01*
X193085705Y-87490050D01*
X193171476Y-87772801D01*
X193310762Y-88033386D01*
X193498208Y-88261792D01*
X193726613Y-88449238D01*
X193987198Y-88588524D01*
X194269949Y-88674295D01*
X194564000Y-88703257D01*
X194858050Y-88674295D01*
X195140801Y-88588524D01*
X195401386Y-88449238D01*
X195629792Y-88261792D01*
X195817238Y-88033387D01*
X195956524Y-87772802D01*
X196042295Y-87490051D01*
X196064000Y-87269680D01*
X196064000Y-85622320D01*
X196042295Y-85401949D01*
X195956524Y-85119198D01*
X195817238Y-84858613D01*
X195629792Y-84630208D01*
X195401387Y-84442762D01*
X195140802Y-84303476D01*
X194858051Y-84217705D01*
X194564000Y-84188743D01*
X194269950Y-84217705D01*
X193987199Y-84303476D01*
X193726614Y-84442762D01*
X193498209Y-84630208D01*
X193310763Y-84858613D01*
X193171477Y-85119198D01*
X193085705Y-85401949D01*
X193064000Y-85622320D01*
X193064000Y-85833400D01*
X189510951Y-85833400D01*
X189510951Y-85802150D01*
X189500475Y-85695787D01*
X189469450Y-85593511D01*
X189419068Y-85499253D01*
X189351265Y-85416635D01*
X189268647Y-85348832D01*
X189174389Y-85298450D01*
X189072113Y-85267425D01*
X188965750Y-85256949D01*
X188478250Y-85256949D01*
X188371887Y-85267425D01*
X188269611Y-85298450D01*
X188175353Y-85348832D01*
X188092735Y-85416635D01*
X188024932Y-85499253D01*
X187974550Y-85593511D01*
X187944439Y-85692775D01*
X187945442Y-85558400D01*
X187933703Y-85439211D01*
X187898937Y-85324603D01*
X187842480Y-85218979D01*
X187766501Y-85126399D01*
X187673921Y-85050420D01*
X187568297Y-84993963D01*
X187453689Y-84959197D01*
X187334500Y-84947458D01*
X187153000Y-84950400D01*
X187001000Y-85102400D01*
X186693000Y-85102400D01*
X186541000Y-84950400D01*
X186359500Y-84947458D01*
X186240311Y-84959197D01*
X186125703Y-84993963D01*
X186020079Y-85050420D01*
X185927499Y-85126399D01*
X185851520Y-85218979D01*
X185795063Y-85324603D01*
X185760297Y-85439211D01*
X185748558Y-85558400D01*
X173789440Y-85558400D01*
X173594084Y-85363044D01*
X173580774Y-85346826D01*
X173516060Y-85293716D01*
X173442227Y-85254252D01*
X173362114Y-85229950D01*
X173299674Y-85223800D01*
X173299667Y-85223800D01*
X173278800Y-85221745D01*
X173257933Y-85223800D01*
X167842451Y-85223800D01*
X167842451Y-85192550D01*
X167831975Y-85086187D01*
X167800950Y-84983911D01*
X167750568Y-84889653D01*
X167682765Y-84807035D01*
X167600147Y-84739232D01*
X167505889Y-84688850D01*
X167478500Y-84680542D01*
X167478500Y-84067167D01*
X167480555Y-84046300D01*
X167478500Y-84025433D01*
X167478500Y-84025426D01*
X167472350Y-83962986D01*
X167471861Y-83961373D01*
X167448048Y-83882872D01*
X167424619Y-83839040D01*
X167408584Y-83809040D01*
X167355474Y-83744326D01*
X167339263Y-83731022D01*
X166939283Y-83331043D01*
X166925974Y-83314826D01*
X166861260Y-83261716D01*
X166787427Y-83222252D01*
X166707314Y-83197950D01*
X166644874Y-83191800D01*
X166644867Y-83191800D01*
X166624000Y-83189745D01*
X166603133Y-83191800D01*
X154960866Y-83191800D01*
X154939999Y-83189745D01*
X154919132Y-83191800D01*
X154919126Y-83191800D01*
X154865098Y-83197121D01*
X154856685Y-83197950D01*
X154832383Y-83205322D01*
X154776573Y-83222252D01*
X154702740Y-83261716D01*
X154638026Y-83314826D01*
X154624721Y-83331038D01*
X154146243Y-83809517D01*
X154130026Y-83822826D01*
X154076916Y-83887541D01*
X154037452Y-83961374D01*
X154036963Y-83962987D01*
X154014921Y-84035650D01*
X154013150Y-84041487D01*
X154007000Y-84103927D01*
X154007000Y-84103933D01*
X154004945Y-84124800D01*
X154007000Y-84145667D01*
X154007001Y-86509341D01*
X153979611Y-86517650D01*
X153885353Y-86568032D01*
X153802735Y-86635835D01*
X153734932Y-86718453D01*
X153684550Y-86812711D01*
X153654439Y-86911975D01*
X153655442Y-86777600D01*
X153643703Y-86658411D01*
X153608937Y-86543803D01*
X153552480Y-86438179D01*
X153476501Y-86345599D01*
X153383921Y-86269620D01*
X153278297Y-86213163D01*
X153163689Y-86178397D01*
X153044500Y-86166658D01*
X152863000Y-86169600D01*
X152711000Y-86321600D01*
X152711000Y-87323600D01*
X152731000Y-87323600D01*
X152731000Y-87631600D01*
X152711000Y-87631600D01*
X152711000Y-88633600D01*
X152863000Y-88785600D01*
X153044500Y-88788542D01*
X153163689Y-88776803D01*
X153278297Y-88742037D01*
X153383921Y-88685580D01*
X153476501Y-88609601D01*
X153552480Y-88517021D01*
X153608937Y-88411397D01*
X153643703Y-88296789D01*
X153655442Y-88177600D01*
X153654439Y-88043225D01*
X153684550Y-88142489D01*
X153734932Y-88236747D01*
X153802735Y-88319365D01*
X153885353Y-88387168D01*
X153979611Y-88437550D01*
X154007000Y-88445858D01*
X154007001Y-90042269D01*
X154003387Y-90042625D01*
X153901111Y-90073650D01*
X153806853Y-90124032D01*
X153724235Y-90191835D01*
X153656432Y-90274453D01*
X153606050Y-90368711D01*
X153575025Y-90470987D01*
X153564549Y-90577350D01*
X153564549Y-91489850D01*
X153575025Y-91596213D01*
X153606050Y-91698489D01*
X153656432Y-91792747D01*
X153724235Y-91875365D01*
X153806853Y-91943168D01*
X153901111Y-91993550D01*
X154003387Y-92024575D01*
X154109750Y-92035051D01*
X154597250Y-92035051D01*
X154703613Y-92024575D01*
X154805889Y-91993550D01*
X154900147Y-91943168D01*
X154982765Y-91875365D01*
X155050568Y-91792747D01*
X155100950Y-91698489D01*
X155131975Y-91596213D01*
X155142451Y-91489850D01*
X155142451Y-91458600D01*
X155271960Y-91458600D01*
X155683401Y-91870041D01*
X155683400Y-95785160D01*
X155162239Y-96306321D01*
X155146027Y-96319626D01*
X155092917Y-96384340D01*
X155090824Y-96388256D01*
X155053453Y-96458173D01*
X155029150Y-96538286D01*
X155020945Y-96621600D01*
X155023001Y-96642477D01*
X155023000Y-104122224D01*
X154938030Y-104178999D01*
X154826599Y-104290430D01*
X154813000Y-104310782D01*
X154799401Y-104290430D01*
X154687970Y-104178999D01*
X154603000Y-104122224D01*
X154603000Y-99439240D01*
X154717758Y-99324482D01*
X154733974Y-99311174D01*
X154787084Y-99246460D01*
X154826548Y-99172627D01*
X154850850Y-99092514D01*
X154857000Y-99030074D01*
X154857000Y-99030068D01*
X154859055Y-99009201D01*
X154857000Y-98988334D01*
X154857000Y-95557858D01*
X154884389Y-95549550D01*
X154978647Y-95499168D01*
X155061265Y-95431365D01*
X155129068Y-95348747D01*
X155179450Y-95254489D01*
X155210475Y-95152213D01*
X155220951Y-95045850D01*
X155220951Y-94133350D01*
X155210475Y-94026987D01*
X155179450Y-93924711D01*
X155129068Y-93830453D01*
X155061265Y-93747835D01*
X154978647Y-93680032D01*
X154884389Y-93629650D01*
X154782113Y-93598625D01*
X154675750Y-93588149D01*
X154188250Y-93588149D01*
X154081887Y-93598625D01*
X153979611Y-93629650D01*
X153885353Y-93680032D01*
X153802735Y-93747835D01*
X153734932Y-93830453D01*
X153684550Y-93924711D01*
X153653525Y-94026987D01*
X153643049Y-94133350D01*
X153643049Y-95045850D01*
X153653525Y-95152213D01*
X153684550Y-95254489D01*
X153734932Y-95348747D01*
X153802735Y-95431365D01*
X153885353Y-95499168D01*
X153979611Y-95549550D01*
X154007001Y-95557859D01*
X154007000Y-98785126D01*
X154007000Y-98833160D01*
X153892239Y-98947921D01*
X153876027Y-98961226D01*
X153822917Y-99025940D01*
X153787333Y-99092514D01*
X153783453Y-99099773D01*
X153759150Y-99179886D01*
X153750945Y-99263200D01*
X153753001Y-99284077D01*
X153753000Y-104122224D01*
X153668030Y-104178999D01*
X153556599Y-104290430D01*
X153543000Y-104310782D01*
X153529401Y-104290430D01*
X153417970Y-104178999D01*
X153333000Y-104122224D01*
X153333000Y-99334867D01*
X153335055Y-99314000D01*
X153333000Y-99293133D01*
X153333000Y-99293126D01*
X153327603Y-99238327D01*
X153326850Y-99230685D01*
X153317620Y-99200259D01*
X153302548Y-99150573D01*
X153263084Y-99076740D01*
X153209974Y-99012026D01*
X153193762Y-98998721D01*
X152982000Y-98786960D01*
X152982000Y-95557858D01*
X153009389Y-95549550D01*
X153103647Y-95499168D01*
X153186265Y-95431365D01*
X153254068Y-95348747D01*
X153304450Y-95254489D01*
X153335475Y-95152213D01*
X153345951Y-95045850D01*
X153345951Y-94133350D01*
X153335475Y-94026987D01*
X153304450Y-93924711D01*
X153254068Y-93830453D01*
X153186265Y-93747835D01*
X153103647Y-93680032D01*
X153009389Y-93629650D01*
X152907113Y-93598625D01*
X152800750Y-93588149D01*
X152313250Y-93588149D01*
X152206887Y-93598625D01*
X152104611Y-93629650D01*
X152010353Y-93680032D01*
X151927735Y-93747835D01*
X151859932Y-93830453D01*
X151809550Y-93924711D01*
X151778525Y-94026987D01*
X151768049Y-94133350D01*
X151768049Y-95045850D01*
X151778525Y-95152213D01*
X151809550Y-95254489D01*
X151859932Y-95348747D01*
X151927735Y-95431365D01*
X152010353Y-95499168D01*
X152104611Y-95549550D01*
X152132001Y-95557859D01*
X152132000Y-98785126D01*
X152132000Y-98942133D01*
X152129945Y-98963000D01*
X152132000Y-98983867D01*
X152132000Y-98983873D01*
X152138150Y-99046313D01*
X152162452Y-99126426D01*
X152201916Y-99200259D01*
X152255026Y-99264974D01*
X152271243Y-99278283D01*
X152483001Y-99490042D01*
X152483000Y-104122224D01*
X152409263Y-104171493D01*
X152388647Y-104132923D01*
X152351158Y-104087242D01*
X152305477Y-104049753D01*
X152253360Y-104021896D01*
X152196810Y-104004741D01*
X152138000Y-103998949D01*
X152063000Y-103998949D01*
X152063000Y-96794867D01*
X152065055Y-96774000D01*
X152063000Y-96753133D01*
X152063000Y-96753126D01*
X152056850Y-96690686D01*
X152053302Y-96678990D01*
X152032548Y-96610572D01*
X152011034Y-96570323D01*
X151993084Y-96536740D01*
X151939974Y-96472026D01*
X151923762Y-96458721D01*
X151250200Y-95785160D01*
X151250200Y-91870040D01*
X151661640Y-91458600D01*
X151689549Y-91458600D01*
X151689549Y-91489850D01*
X151700025Y-91596213D01*
X151731050Y-91698489D01*
X151781432Y-91792747D01*
X151849235Y-91875365D01*
X151931853Y-91943168D01*
X152026111Y-91993550D01*
X152128387Y-92024575D01*
X152234750Y-92035051D01*
X152722250Y-92035051D01*
X152828613Y-92024575D01*
X152930889Y-91993550D01*
X153025147Y-91943168D01*
X153107765Y-91875365D01*
X153175568Y-91792747D01*
X153225950Y-91698489D01*
X153256975Y-91596213D01*
X153267451Y-91489850D01*
X153267451Y-90577350D01*
X153256975Y-90470987D01*
X153225950Y-90368711D01*
X153175568Y-90274453D01*
X153107765Y-90191835D01*
X153025147Y-90124032D01*
X152930889Y-90073650D01*
X152828613Y-90042625D01*
X152722250Y-90032149D01*
X152234750Y-90032149D01*
X152128387Y-90042625D01*
X152026111Y-90073650D01*
X151931853Y-90124032D01*
X151849235Y-90191835D01*
X151781432Y-90274453D01*
X151731050Y-90368711D01*
X151700025Y-90470987D01*
X151689549Y-90577350D01*
X151689549Y-90608600D01*
X151506467Y-90608600D01*
X151485600Y-90606545D01*
X151464733Y-90608600D01*
X151464726Y-90608600D01*
X151402286Y-90614750D01*
X151322173Y-90639052D01*
X151248340Y-90678516D01*
X151183626Y-90731626D01*
X151170316Y-90747844D01*
X150539439Y-91378721D01*
X150523227Y-91392026D01*
X150470117Y-91456740D01*
X150463983Y-91468217D01*
X150430653Y-91530573D01*
X150406350Y-91610686D01*
X150398145Y-91694000D01*
X122041000Y-91694000D01*
X122041000Y-89375101D01*
X146249888Y-89375101D01*
X146288462Y-89577789D01*
X146490215Y-89661047D01*
X146704335Y-89703344D01*
X146922592Y-89703055D01*
X147136598Y-89660193D01*
X147335538Y-89577789D01*
X147374112Y-89375101D01*
X146812000Y-88812989D01*
X146249888Y-89375101D01*
X122041000Y-89375101D01*
X122041000Y-88487535D01*
X145703856Y-88487535D01*
X145704145Y-88705792D01*
X145747007Y-88919798D01*
X145829411Y-89118738D01*
X146032099Y-89157312D01*
X146594211Y-88595200D01*
X147029789Y-88595200D01*
X147591901Y-89157312D01*
X147794589Y-89118738D01*
X147877847Y-88916985D01*
X147920144Y-88702865D01*
X147919855Y-88484608D01*
X147876993Y-88270602D01*
X147838471Y-88177600D01*
X151458558Y-88177600D01*
X151470297Y-88296789D01*
X151505063Y-88411397D01*
X151561520Y-88517021D01*
X151637499Y-88609601D01*
X151730079Y-88685580D01*
X151835703Y-88742037D01*
X151950311Y-88776803D01*
X152069500Y-88788542D01*
X152251000Y-88785600D01*
X152403000Y-88633600D01*
X152403000Y-87631600D01*
X151613500Y-87631600D01*
X151461500Y-87783600D01*
X151458558Y-88177600D01*
X147838471Y-88177600D01*
X147794589Y-88071662D01*
X147591901Y-88033088D01*
X147029789Y-88595200D01*
X146594211Y-88595200D01*
X146032099Y-88033088D01*
X145829411Y-88071662D01*
X145746153Y-88273415D01*
X145703856Y-88487535D01*
X122041000Y-88487535D01*
X122041000Y-87815299D01*
X146249888Y-87815299D01*
X146812000Y-88377411D01*
X147374112Y-87815299D01*
X147335538Y-87612611D01*
X147133785Y-87529353D01*
X146919665Y-87487056D01*
X146701408Y-87487345D01*
X146487402Y-87530207D01*
X146288462Y-87612611D01*
X146249888Y-87815299D01*
X122041000Y-87815299D01*
X122041000Y-86777600D01*
X151458558Y-86777600D01*
X151461500Y-87171600D01*
X151613500Y-87323600D01*
X152403000Y-87323600D01*
X152403000Y-86321600D01*
X152251000Y-86169600D01*
X152069500Y-86166658D01*
X151950311Y-86178397D01*
X151835703Y-86213163D01*
X151730079Y-86269620D01*
X151637499Y-86345599D01*
X151561520Y-86438179D01*
X151505063Y-86543803D01*
X151470297Y-86658411D01*
X151458558Y-86777600D01*
X122041000Y-86777600D01*
X122041000Y-81527984D01*
X196221000Y-81525015D01*
X196221001Y-107624750D01*
M02*
