G04 #@! TF.GenerationSoftware,KiCad,Pcbnew,5.1.6-c6e7f7d~87~ubuntu18.04.1*
G04 #@! TF.CreationDate,2020-08-29T18:23:14+01:00*
G04 #@! TF.ProjectId,ossw_lcd,6f737377-5f6c-4636-942e-6b696361645f,1.1*
G04 #@! TF.SameCoordinates,Original*
G04 #@! TF.FileFunction,Paste,Bot*
G04 #@! TF.FilePolarity,Positive*
%FSLAX46Y46*%
G04 Gerber Fmt 4.6, Leading zero omitted, Abs format (unit mm)*
G04 Created by KiCad (PCBNEW 5.1.6-c6e7f7d~87~ubuntu18.04.1) date 2020-08-29 18:23:14*
%MOMM*%
%LPD*%
G01*
G04 APERTURE LIST*
%ADD10R,8.000000X5.000000*%
G04 APERTURE END LIST*
D10*
X187096400Y-99237800D03*
X137058400Y-99237800D03*
X187045600Y-105054400D03*
X137033000Y-105054400D03*
G36*
G01*
X178662650Y-88805600D02*
X177750150Y-88805600D01*
G75*
G02*
X177506400Y-88561850I0J243750D01*
G01*
X177506400Y-88074350D01*
G75*
G02*
X177750150Y-87830600I243750J0D01*
G01*
X178662650Y-87830600D01*
G75*
G02*
X178906400Y-88074350I0J-243750D01*
G01*
X178906400Y-88561850D01*
G75*
G02*
X178662650Y-88805600I-243750J0D01*
G01*
G37*
G36*
G01*
X178662650Y-90680600D02*
X177750150Y-90680600D01*
G75*
G02*
X177506400Y-90436850I0J243750D01*
G01*
X177506400Y-89949350D01*
G75*
G02*
X177750150Y-89705600I243750J0D01*
G01*
X178662650Y-89705600D01*
G75*
G02*
X178906400Y-89949350I0J-243750D01*
G01*
X178906400Y-90436850D01*
G75*
G02*
X178662650Y-90680600I-243750J0D01*
G01*
G37*
G36*
G01*
X173507100Y-93166250D02*
X173507100Y-92253750D01*
G75*
G02*
X173750850Y-92010000I243750J0D01*
G01*
X174238350Y-92010000D01*
G75*
G02*
X174482100Y-92253750I0J-243750D01*
G01*
X174482100Y-93166250D01*
G75*
G02*
X174238350Y-93410000I-243750J0D01*
G01*
X173750850Y-93410000D01*
G75*
G02*
X173507100Y-93166250I0J243750D01*
G01*
G37*
G36*
G01*
X175382100Y-93166250D02*
X175382100Y-92253750D01*
G75*
G02*
X175625850Y-92010000I243750J0D01*
G01*
X176113350Y-92010000D01*
G75*
G02*
X176357100Y-92253750I0J-243750D01*
G01*
X176357100Y-93166250D01*
G75*
G02*
X176113350Y-93410000I-243750J0D01*
G01*
X175625850Y-93410000D01*
G75*
G02*
X175382100Y-93166250I0J243750D01*
G01*
G37*
G36*
G01*
X153866000Y-91489850D02*
X153866000Y-90577350D01*
G75*
G02*
X154109750Y-90333600I243750J0D01*
G01*
X154597250Y-90333600D01*
G75*
G02*
X154841000Y-90577350I0J-243750D01*
G01*
X154841000Y-91489850D01*
G75*
G02*
X154597250Y-91733600I-243750J0D01*
G01*
X154109750Y-91733600D01*
G75*
G02*
X153866000Y-91489850I0J243750D01*
G01*
G37*
G36*
G01*
X151991000Y-91489850D02*
X151991000Y-90577350D01*
G75*
G02*
X152234750Y-90333600I243750J0D01*
G01*
X152722250Y-90333600D01*
G75*
G02*
X152966000Y-90577350I0J-243750D01*
G01*
X152966000Y-91489850D01*
G75*
G02*
X152722250Y-91733600I-243750J0D01*
G01*
X152234750Y-91733600D01*
G75*
G02*
X151991000Y-91489850I0J243750D01*
G01*
G37*
G36*
G01*
X154919500Y-87021350D02*
X154919500Y-87933850D01*
G75*
G02*
X154675750Y-88177600I-243750J0D01*
G01*
X154188250Y-88177600D01*
G75*
G02*
X153944500Y-87933850I0J243750D01*
G01*
X153944500Y-87021350D01*
G75*
G02*
X154188250Y-86777600I243750J0D01*
G01*
X154675750Y-86777600D01*
G75*
G02*
X154919500Y-87021350I0J-243750D01*
G01*
G37*
G36*
G01*
X153044500Y-87021350D02*
X153044500Y-87933850D01*
G75*
G02*
X152800750Y-88177600I-243750J0D01*
G01*
X152313250Y-88177600D01*
G75*
G02*
X152069500Y-87933850I0J243750D01*
G01*
X152069500Y-87021350D01*
G75*
G02*
X152313250Y-86777600I243750J0D01*
G01*
X152800750Y-86777600D01*
G75*
G02*
X153044500Y-87021350I0J-243750D01*
G01*
G37*
G36*
G01*
X152069500Y-95045850D02*
X152069500Y-94133350D01*
G75*
G02*
X152313250Y-93889600I243750J0D01*
G01*
X152800750Y-93889600D01*
G75*
G02*
X153044500Y-94133350I0J-243750D01*
G01*
X153044500Y-95045850D01*
G75*
G02*
X152800750Y-95289600I-243750J0D01*
G01*
X152313250Y-95289600D01*
G75*
G02*
X152069500Y-95045850I0J243750D01*
G01*
G37*
G36*
G01*
X153944500Y-95045850D02*
X153944500Y-94133350D01*
G75*
G02*
X154188250Y-93889600I243750J0D01*
G01*
X154675750Y-93889600D01*
G75*
G02*
X154919500Y-94133350I0J-243750D01*
G01*
X154919500Y-95045850D01*
G75*
G02*
X154675750Y-95289600I-243750J0D01*
G01*
X154188250Y-95289600D01*
G75*
G02*
X153944500Y-95045850I0J243750D01*
G01*
G37*
G36*
G01*
X164691000Y-86105050D02*
X164691000Y-85192550D01*
G75*
G02*
X164934750Y-84948800I243750J0D01*
G01*
X165422250Y-84948800D01*
G75*
G02*
X165666000Y-85192550I0J-243750D01*
G01*
X165666000Y-86105050D01*
G75*
G02*
X165422250Y-86348800I-243750J0D01*
G01*
X164934750Y-86348800D01*
G75*
G02*
X164691000Y-86105050I0J243750D01*
G01*
G37*
G36*
G01*
X166566000Y-86105050D02*
X166566000Y-85192550D01*
G75*
G02*
X166809750Y-84948800I243750J0D01*
G01*
X167297250Y-84948800D01*
G75*
G02*
X167541000Y-85192550I0J-243750D01*
G01*
X167541000Y-86105050D01*
G75*
G02*
X167297250Y-86348800I-243750J0D01*
G01*
X166809750Y-86348800D01*
G75*
G02*
X166566000Y-86105050I0J243750D01*
G01*
G37*
G36*
G01*
X166566000Y-90677050D02*
X166566000Y-89764550D01*
G75*
G02*
X166809750Y-89520800I243750J0D01*
G01*
X167297250Y-89520800D01*
G75*
G02*
X167541000Y-89764550I0J-243750D01*
G01*
X167541000Y-90677050D01*
G75*
G02*
X167297250Y-90920800I-243750J0D01*
G01*
X166809750Y-90920800D01*
G75*
G02*
X166566000Y-90677050I0J243750D01*
G01*
G37*
G36*
G01*
X164691000Y-90677050D02*
X164691000Y-89764550D01*
G75*
G02*
X164934750Y-89520800I243750J0D01*
G01*
X165422250Y-89520800D01*
G75*
G02*
X165666000Y-89764550I0J-243750D01*
G01*
X165666000Y-90677050D01*
G75*
G02*
X165422250Y-90920800I-243750J0D01*
G01*
X164934750Y-90920800D01*
G75*
G02*
X164691000Y-90677050I0J243750D01*
G01*
G37*
G36*
G01*
X164691000Y-95249050D02*
X164691000Y-94336550D01*
G75*
G02*
X164934750Y-94092800I243750J0D01*
G01*
X165422250Y-94092800D01*
G75*
G02*
X165666000Y-94336550I0J-243750D01*
G01*
X165666000Y-95249050D01*
G75*
G02*
X165422250Y-95492800I-243750J0D01*
G01*
X164934750Y-95492800D01*
G75*
G02*
X164691000Y-95249050I0J243750D01*
G01*
G37*
G36*
G01*
X166566000Y-95249050D02*
X166566000Y-94336550D01*
G75*
G02*
X166809750Y-94092800I243750J0D01*
G01*
X167297250Y-94092800D01*
G75*
G02*
X167541000Y-94336550I0J-243750D01*
G01*
X167541000Y-95249050D01*
G75*
G02*
X167297250Y-95492800I-243750J0D01*
G01*
X166809750Y-95492800D01*
G75*
G02*
X166566000Y-95249050I0J243750D01*
G01*
G37*
G36*
G01*
X182726650Y-92560200D02*
X181814150Y-92560200D01*
G75*
G02*
X181570400Y-92316450I0J243750D01*
G01*
X181570400Y-91828950D01*
G75*
G02*
X181814150Y-91585200I243750J0D01*
G01*
X182726650Y-91585200D01*
G75*
G02*
X182970400Y-91828950I0J-243750D01*
G01*
X182970400Y-92316450D01*
G75*
G02*
X182726650Y-92560200I-243750J0D01*
G01*
G37*
G36*
G01*
X182726650Y-90685200D02*
X181814150Y-90685200D01*
G75*
G02*
X181570400Y-90441450I0J243750D01*
G01*
X181570400Y-89953950D01*
G75*
G02*
X181814150Y-89710200I243750J0D01*
G01*
X182726650Y-89710200D01*
G75*
G02*
X182970400Y-89953950I0J-243750D01*
G01*
X182970400Y-90441450D01*
G75*
G02*
X182726650Y-90685200I-243750J0D01*
G01*
G37*
G36*
G01*
X187334500Y-85802150D02*
X187334500Y-86714650D01*
G75*
G02*
X187090750Y-86958400I-243750J0D01*
G01*
X186603250Y-86958400D01*
G75*
G02*
X186359500Y-86714650I0J243750D01*
G01*
X186359500Y-85802150D01*
G75*
G02*
X186603250Y-85558400I243750J0D01*
G01*
X187090750Y-85558400D01*
G75*
G02*
X187334500Y-85802150I0J-243750D01*
G01*
G37*
G36*
G01*
X189209500Y-85802150D02*
X189209500Y-86714650D01*
G75*
G02*
X188965750Y-86958400I-243750J0D01*
G01*
X188478250Y-86958400D01*
G75*
G02*
X188234500Y-86714650I0J243750D01*
G01*
X188234500Y-85802150D01*
G75*
G02*
X188478250Y-85558400I243750J0D01*
G01*
X188965750Y-85558400D01*
G75*
G02*
X189209500Y-85802150I0J-243750D01*
G01*
G37*
M02*
