G04 #@! TF.GenerationSoftware,KiCad,Pcbnew,5.1.6-c6e7f7d~87~ubuntu18.04.1*
G04 #@! TF.CreationDate,2020-10-17T10:37:56+01:00*
G04 #@! TF.ProjectId,ossw,6f737377-2e6b-4696-9361-645f70636258,1.1*
G04 #@! TF.SameCoordinates,Original*
G04 #@! TF.FileFunction,Legend,Top*
G04 #@! TF.FilePolarity,Positive*
%FSLAX46Y46*%
G04 Gerber Fmt 4.6, Leading zero omitted, Abs format (unit mm)*
G04 Created by KiCad (PCBNEW 5.1.6-c6e7f7d~87~ubuntu18.04.1) date 2020-10-17 10:37:56*
%MOMM*%
%LPD*%
G01*
G04 APERTURE LIST*
%ADD10C,0.300000*%
%ADD11C,0.800000*%
%ADD12C,0.200000*%
%ADD13C,0.400000*%
%ADD14C,0.150000*%
%ADD15C,0.120000*%
%ADD16C,0.010000*%
%ADD17C,0.250000*%
%ADD18C,0.304800*%
G04 APERTURE END LIST*
D10*
X484994685Y-219982171D02*
X484494685Y-219267885D01*
X484137542Y-219982171D02*
X484137542Y-218482171D01*
X484708971Y-218482171D01*
X484851828Y-218553600D01*
X484923257Y-218625028D01*
X484994685Y-218767885D01*
X484994685Y-218982171D01*
X484923257Y-219125028D01*
X484851828Y-219196457D01*
X484708971Y-219267885D01*
X484137542Y-219267885D01*
D11*
X152785171Y-244975404D02*
X153737552Y-244975404D01*
X154213742Y-245213500D01*
X154689933Y-245689690D01*
X154928028Y-246642071D01*
X154928028Y-248308738D01*
X154689933Y-249261119D01*
X154213742Y-249737309D01*
X153737552Y-249975404D01*
X152785171Y-249975404D01*
X152308980Y-249737309D01*
X151832790Y-249261119D01*
X151594695Y-248308738D01*
X151594695Y-246642071D01*
X151832790Y-245689690D01*
X152308980Y-245213500D01*
X152785171Y-244975404D01*
X156832790Y-249737309D02*
X157547076Y-249975404D01*
X158737552Y-249975404D01*
X159213742Y-249737309D01*
X159451838Y-249499214D01*
X159689933Y-249023023D01*
X159689933Y-248546833D01*
X159451838Y-248070642D01*
X159213742Y-247832547D01*
X158737552Y-247594452D01*
X157785171Y-247356357D01*
X157308980Y-247118261D01*
X157070885Y-246880166D01*
X156832790Y-246403976D01*
X156832790Y-245927785D01*
X157070885Y-245451595D01*
X157308980Y-245213500D01*
X157785171Y-244975404D01*
X158975647Y-244975404D01*
X159689933Y-245213500D01*
X161594695Y-249737309D02*
X162308980Y-249975404D01*
X163499457Y-249975404D01*
X163975647Y-249737309D01*
X164213742Y-249499214D01*
X164451838Y-249023023D01*
X164451838Y-248546833D01*
X164213742Y-248070642D01*
X163975647Y-247832547D01*
X163499457Y-247594452D01*
X162547076Y-247356357D01*
X162070885Y-247118261D01*
X161832790Y-246880166D01*
X161594695Y-246403976D01*
X161594695Y-245927785D01*
X161832790Y-245451595D01*
X162070885Y-245213500D01*
X162547076Y-244975404D01*
X163737552Y-244975404D01*
X164451838Y-245213500D01*
X166118504Y-244975404D02*
X167308980Y-249975404D01*
X168261361Y-246403976D01*
X169213742Y-249975404D01*
X170404219Y-244975404D01*
X172308980Y-249499214D02*
X172547076Y-249737309D01*
X172308980Y-249975404D01*
X172070885Y-249737309D01*
X172308980Y-249499214D01*
X172308980Y-249975404D01*
X172308980Y-246880166D02*
X172547076Y-247118261D01*
X172308980Y-247356357D01*
X172070885Y-247118261D01*
X172308980Y-246880166D01*
X172308980Y-247356357D01*
X179451838Y-244975404D02*
X180404219Y-244975404D01*
X180880409Y-245213500D01*
X181356599Y-245689690D01*
X181594695Y-246642071D01*
X181594695Y-248308738D01*
X181356599Y-249261119D01*
X180880409Y-249737309D01*
X180404219Y-249975404D01*
X179451838Y-249975404D01*
X178975647Y-249737309D01*
X178499457Y-249261119D01*
X178261361Y-248308738D01*
X178261361Y-246642071D01*
X178499457Y-245689690D01*
X178975647Y-245213500D01*
X179451838Y-244975404D01*
X183737552Y-246642071D02*
X183737552Y-251642071D01*
X183737552Y-246880166D02*
X184213742Y-246642071D01*
X185166123Y-246642071D01*
X185642314Y-246880166D01*
X185880409Y-247118261D01*
X186118504Y-247594452D01*
X186118504Y-249023023D01*
X185880409Y-249499214D01*
X185642314Y-249737309D01*
X185166123Y-249975404D01*
X184213742Y-249975404D01*
X183737552Y-249737309D01*
X190166123Y-249737309D02*
X189689933Y-249975404D01*
X188737552Y-249975404D01*
X188261361Y-249737309D01*
X188023266Y-249261119D01*
X188023266Y-247356357D01*
X188261361Y-246880166D01*
X188737552Y-246642071D01*
X189689933Y-246642071D01*
X190166123Y-246880166D01*
X190404219Y-247356357D01*
X190404219Y-247832547D01*
X188023266Y-248308738D01*
X192547076Y-246642071D02*
X192547076Y-249975404D01*
X192547076Y-247118261D02*
X192785171Y-246880166D01*
X193261361Y-246642071D01*
X193975647Y-246642071D01*
X194451838Y-246880166D01*
X194689933Y-247356357D01*
X194689933Y-249975404D01*
X200642314Y-249737309D02*
X201356599Y-249975404D01*
X202547076Y-249975404D01*
X203023266Y-249737309D01*
X203261361Y-249499214D01*
X203499457Y-249023023D01*
X203499457Y-248546833D01*
X203261361Y-248070642D01*
X203023266Y-247832547D01*
X202547076Y-247594452D01*
X201594695Y-247356357D01*
X201118504Y-247118261D01*
X200880409Y-246880166D01*
X200642314Y-246403976D01*
X200642314Y-245927785D01*
X200880409Y-245451595D01*
X201118504Y-245213500D01*
X201594695Y-244975404D01*
X202785171Y-244975404D01*
X203499457Y-245213500D01*
X207785171Y-249737309D02*
X207308980Y-249975404D01*
X206356599Y-249975404D01*
X205880409Y-249737309D01*
X205642314Y-249499214D01*
X205404219Y-249023023D01*
X205404219Y-247594452D01*
X205642314Y-247118261D01*
X205880409Y-246880166D01*
X206356599Y-246642071D01*
X207308980Y-246642071D01*
X207785171Y-246880166D01*
X212070885Y-249975404D02*
X212070885Y-247356357D01*
X211832790Y-246880166D01*
X211356599Y-246642071D01*
X210404219Y-246642071D01*
X209928028Y-246880166D01*
X212070885Y-249737309D02*
X211594695Y-249975404D01*
X210404219Y-249975404D01*
X209928028Y-249737309D01*
X209689933Y-249261119D01*
X209689933Y-248784928D01*
X209928028Y-248308738D01*
X210404219Y-248070642D01*
X211594695Y-248070642D01*
X212070885Y-247832547D01*
X214451838Y-249975404D02*
X214451838Y-246642071D01*
X214451838Y-247594452D02*
X214689933Y-247118261D01*
X214928028Y-246880166D01*
X215404219Y-246642071D01*
X215880409Y-246642071D01*
X216832790Y-246642071D02*
X218737552Y-246642071D01*
X217547076Y-244975404D02*
X217547076Y-249261119D01*
X217785171Y-249737309D01*
X218261361Y-249975404D01*
X218737552Y-249975404D01*
X223975647Y-249737309D02*
X224689933Y-249975404D01*
X225880409Y-249975404D01*
X226356599Y-249737309D01*
X226594695Y-249499214D01*
X226832790Y-249023023D01*
X226832790Y-248546833D01*
X226594695Y-248070642D01*
X226356599Y-247832547D01*
X225880409Y-247594452D01*
X224928028Y-247356357D01*
X224451838Y-247118261D01*
X224213742Y-246880166D01*
X223975647Y-246403976D01*
X223975647Y-245927785D01*
X224213742Y-245451595D01*
X224451838Y-245213500D01*
X224928028Y-244975404D01*
X226118504Y-244975404D01*
X226832790Y-245213500D01*
X228499457Y-246642071D02*
X229451838Y-249975404D01*
X230404219Y-247594452D01*
X231356599Y-249975404D01*
X232308980Y-246642071D01*
X234213742Y-249975404D02*
X234213742Y-246642071D01*
X234213742Y-244975404D02*
X233975647Y-245213500D01*
X234213742Y-245451595D01*
X234451838Y-245213500D01*
X234213742Y-244975404D01*
X234213742Y-245451595D01*
X235880409Y-246642071D02*
X237785171Y-246642071D01*
X236594695Y-244975404D02*
X236594695Y-249261119D01*
X236832790Y-249737309D01*
X237308980Y-249975404D01*
X237785171Y-249975404D01*
X241594695Y-249737309D02*
X241118504Y-249975404D01*
X240166123Y-249975404D01*
X239689933Y-249737309D01*
X239451838Y-249499214D01*
X239213742Y-249023023D01*
X239213742Y-247594452D01*
X239451838Y-247118261D01*
X239689933Y-246880166D01*
X240166123Y-246642071D01*
X241118504Y-246642071D01*
X241594695Y-246880166D01*
X243737552Y-249975404D02*
X243737552Y-244975404D01*
X245880409Y-249975404D02*
X245880409Y-247356357D01*
X245642314Y-246880166D01*
X245166123Y-246642071D01*
X244451838Y-246642071D01*
X243975647Y-246880166D01*
X243737552Y-247118261D01*
D10*
X484994685Y-227602171D02*
X484280400Y-227602171D01*
X484280400Y-226102171D01*
D12*
X117825261Y-257055880D02*
X117825261Y-256055880D01*
X118206214Y-256055880D01*
X118301452Y-256103500D01*
X118349071Y-256151119D01*
X118396690Y-256246357D01*
X118396690Y-256389214D01*
X118349071Y-256484452D01*
X118301452Y-256532071D01*
X118206214Y-256579690D01*
X117825261Y-256579690D01*
X119396690Y-256960642D02*
X119349071Y-257008261D01*
X119206214Y-257055880D01*
X119110976Y-257055880D01*
X118968119Y-257008261D01*
X118872880Y-256913023D01*
X118825261Y-256817785D01*
X118777642Y-256627309D01*
X118777642Y-256484452D01*
X118825261Y-256293976D01*
X118872880Y-256198738D01*
X118968119Y-256103500D01*
X119110976Y-256055880D01*
X119206214Y-256055880D01*
X119349071Y-256103500D01*
X119396690Y-256151119D01*
X120158595Y-256532071D02*
X120301452Y-256579690D01*
X120349071Y-256627309D01*
X120396690Y-256722547D01*
X120396690Y-256865404D01*
X120349071Y-256960642D01*
X120301452Y-257008261D01*
X120206214Y-257055880D01*
X119825261Y-257055880D01*
X119825261Y-256055880D01*
X120158595Y-256055880D01*
X120253833Y-256103500D01*
X120301452Y-256151119D01*
X120349071Y-256246357D01*
X120349071Y-256341595D01*
X120301452Y-256436833D01*
X120253833Y-256484452D01*
X120158595Y-256532071D01*
X119825261Y-256532071D01*
X122158595Y-257055880D02*
X121825261Y-256579690D01*
X121587166Y-257055880D02*
X121587166Y-256055880D01*
X121968119Y-256055880D01*
X122063357Y-256103500D01*
X122110976Y-256151119D01*
X122158595Y-256246357D01*
X122158595Y-256389214D01*
X122110976Y-256484452D01*
X122063357Y-256532071D01*
X121968119Y-256579690D01*
X121587166Y-256579690D01*
X122968119Y-257008261D02*
X122872880Y-257055880D01*
X122682404Y-257055880D01*
X122587166Y-257008261D01*
X122539547Y-256913023D01*
X122539547Y-256532071D01*
X122587166Y-256436833D01*
X122682404Y-256389214D01*
X122872880Y-256389214D01*
X122968119Y-256436833D01*
X123015738Y-256532071D01*
X123015738Y-256627309D01*
X122539547Y-256722547D01*
X123349071Y-256389214D02*
X123587166Y-257055880D01*
X123825261Y-256389214D01*
X124206214Y-256960642D02*
X124253833Y-257008261D01*
X124206214Y-257055880D01*
X124158595Y-257008261D01*
X124206214Y-256960642D01*
X124206214Y-257055880D01*
X124206214Y-256436833D02*
X124253833Y-256484452D01*
X124206214Y-256532071D01*
X124158595Y-256484452D01*
X124206214Y-256436833D01*
X124206214Y-256532071D01*
X125968119Y-257055880D02*
X125396690Y-257055880D01*
X125682404Y-257055880D02*
X125682404Y-256055880D01*
X125587166Y-256198738D01*
X125491928Y-256293976D01*
X125396690Y-256341595D01*
X126396690Y-256960642D02*
X126444309Y-257008261D01*
X126396690Y-257055880D01*
X126349071Y-257008261D01*
X126396690Y-256960642D01*
X126396690Y-257055880D01*
X127396690Y-257055880D02*
X126825261Y-257055880D01*
X127110976Y-257055880D02*
X127110976Y-256055880D01*
X127015738Y-256198738D01*
X126920500Y-256293976D01*
X126825261Y-256341595D01*
X128872880Y-257389214D02*
X128634785Y-257389214D01*
X128634785Y-255960642D01*
X128872880Y-255960642D01*
X129206214Y-256770166D02*
X129682404Y-256770166D01*
X129110976Y-257055880D02*
X129444309Y-256055880D01*
X129777642Y-257055880D01*
X130587166Y-257055880D02*
X130110976Y-257055880D01*
X130110976Y-256055880D01*
X130920500Y-257055880D02*
X130920500Y-256055880D01*
X131301452Y-256055880D01*
X131396690Y-256103500D01*
X131444309Y-256151119D01*
X131491928Y-256246357D01*
X131491928Y-256389214D01*
X131444309Y-256484452D01*
X131396690Y-256532071D01*
X131301452Y-256579690D01*
X130920500Y-256579690D01*
X131920500Y-257055880D02*
X131920500Y-256055880D01*
X131920500Y-256532071D02*
X132491928Y-256532071D01*
X132491928Y-257055880D02*
X132491928Y-256055880D01*
X132920500Y-256770166D02*
X133396690Y-256770166D01*
X132825261Y-257055880D02*
X133158595Y-256055880D01*
X133491928Y-257055880D01*
X133730023Y-257389214D02*
X133968119Y-257389214D01*
X133968119Y-255960642D01*
X133730023Y-255960642D01*
D13*
X176810714Y-254030242D02*
X177382142Y-256030242D01*
X177953571Y-254601671D01*
X178525000Y-256030242D01*
X179096428Y-254030242D01*
X179953571Y-254030242D02*
X180525000Y-256030242D01*
X181096428Y-254601671D01*
X181667857Y-256030242D01*
X182239285Y-254030242D01*
X183096428Y-254030242D02*
X183667857Y-256030242D01*
X184239285Y-254601671D01*
X184810714Y-256030242D01*
X185382142Y-254030242D01*
X186525000Y-255744528D02*
X186667857Y-255887385D01*
X186525000Y-256030242D01*
X186382142Y-255887385D01*
X186525000Y-255744528D01*
X186525000Y-256030242D01*
X187953571Y-256030242D02*
X187953571Y-253030242D01*
X187953571Y-254173100D02*
X188239285Y-254030242D01*
X188810714Y-254030242D01*
X189096428Y-254173100D01*
X189239285Y-254315957D01*
X189382142Y-254601671D01*
X189382142Y-255458814D01*
X189239285Y-255744528D01*
X189096428Y-255887385D01*
X188810714Y-256030242D01*
X188239285Y-256030242D01*
X187953571Y-255887385D01*
X190667857Y-256030242D02*
X190667857Y-254030242D01*
X190667857Y-253030242D02*
X190525000Y-253173100D01*
X190667857Y-253315957D01*
X190810714Y-253173100D01*
X190667857Y-253030242D01*
X190667857Y-253315957D01*
X192096428Y-254030242D02*
X192096428Y-256030242D01*
X192096428Y-254315957D02*
X192239285Y-254173100D01*
X192525000Y-254030242D01*
X192953571Y-254030242D01*
X193239285Y-254173100D01*
X193382142Y-254458814D01*
X193382142Y-256030242D01*
X196096428Y-256030242D02*
X196096428Y-254458814D01*
X195953571Y-254173100D01*
X195667857Y-254030242D01*
X195096428Y-254030242D01*
X194810714Y-254173100D01*
X196096428Y-255887385D02*
X195810714Y-256030242D01*
X195096428Y-256030242D01*
X194810714Y-255887385D01*
X194667857Y-255601671D01*
X194667857Y-255315957D01*
X194810714Y-255030242D01*
X195096428Y-254887385D01*
X195810714Y-254887385D01*
X196096428Y-254744528D01*
X197525000Y-256030242D02*
X197525000Y-254030242D01*
X197525000Y-254601671D02*
X197667857Y-254315957D01*
X197810714Y-254173100D01*
X198096428Y-254030242D01*
X198382142Y-254030242D01*
X199096428Y-254030242D02*
X199810714Y-256030242D01*
X200525000Y-254030242D02*
X199810714Y-256030242D01*
X199525000Y-256744528D01*
X199382142Y-256887385D01*
X199096428Y-257030242D01*
X201525000Y-255887385D02*
X201810714Y-256030242D01*
X202382142Y-256030242D01*
X202667857Y-255887385D01*
X202810714Y-255601671D01*
X202810714Y-255458814D01*
X202667857Y-255173100D01*
X202382142Y-255030242D01*
X201953571Y-255030242D01*
X201667857Y-254887385D01*
X201525000Y-254601671D01*
X201525000Y-254458814D01*
X201667857Y-254173100D01*
X201953571Y-254030242D01*
X202382142Y-254030242D01*
X202667857Y-254173100D01*
X204525000Y-256030242D02*
X204239285Y-255887385D01*
X204096428Y-255744528D01*
X203953571Y-255458814D01*
X203953571Y-254601671D01*
X204096428Y-254315957D01*
X204239285Y-254173100D01*
X204525000Y-254030242D01*
X204953571Y-254030242D01*
X205239285Y-254173100D01*
X205382142Y-254315957D01*
X205525000Y-254601671D01*
X205525000Y-255458814D01*
X205382142Y-255744528D01*
X205239285Y-255887385D01*
X204953571Y-256030242D01*
X204525000Y-256030242D01*
X207239285Y-256030242D02*
X206953571Y-255887385D01*
X206810714Y-255601671D01*
X206810714Y-253030242D01*
X208810714Y-256030242D02*
X208525000Y-255887385D01*
X208382142Y-255744528D01*
X208239285Y-255458814D01*
X208239285Y-254601671D01*
X208382142Y-254315957D01*
X208525000Y-254173100D01*
X208810714Y-254030242D01*
X209239285Y-254030242D01*
X209525000Y-254173100D01*
X209667857Y-254315957D01*
X209810714Y-254601671D01*
X209810714Y-255458814D01*
X209667857Y-255744528D01*
X209525000Y-255887385D01*
X209239285Y-256030242D01*
X208810714Y-256030242D01*
X211096428Y-255744528D02*
X211239285Y-255887385D01*
X211096428Y-256030242D01*
X210953571Y-255887385D01*
X211096428Y-255744528D01*
X211096428Y-256030242D01*
X213810714Y-255887385D02*
X213525000Y-256030242D01*
X212953571Y-256030242D01*
X212667857Y-255887385D01*
X212525000Y-255744528D01*
X212382142Y-255458814D01*
X212382142Y-254601671D01*
X212525000Y-254315957D01*
X212667857Y-254173100D01*
X212953571Y-254030242D01*
X213525000Y-254030242D01*
X213810714Y-254173100D01*
X215525000Y-256030242D02*
X215239285Y-255887385D01*
X215096428Y-255744528D01*
X214953571Y-255458814D01*
X214953571Y-254601671D01*
X215096428Y-254315957D01*
X215239285Y-254173100D01*
X215525000Y-254030242D01*
X215953571Y-254030242D01*
X216239285Y-254173100D01*
X216382142Y-254315957D01*
X216525000Y-254601671D01*
X216525000Y-255458814D01*
X216382142Y-255744528D01*
X216239285Y-255887385D01*
X215953571Y-256030242D01*
X215525000Y-256030242D01*
X217810714Y-255744528D02*
X217953571Y-255887385D01*
X217810714Y-256030242D01*
X217667857Y-255887385D01*
X217810714Y-255744528D01*
X217810714Y-256030242D01*
X220525000Y-254030242D02*
X220525000Y-256030242D01*
X219239285Y-254030242D02*
X219239285Y-255601671D01*
X219382142Y-255887385D01*
X219667857Y-256030242D01*
X220096428Y-256030242D01*
X220382142Y-255887385D01*
X220525000Y-255744528D01*
X221953571Y-256030242D02*
X221953571Y-253030242D01*
X222239285Y-254887385D02*
X223096428Y-256030242D01*
X223096428Y-254030242D02*
X221953571Y-255173100D01*
D12*
X118901414Y-254866661D02*
X118901414Y-252866661D01*
X119568080Y-254295233D01*
X120234747Y-252866661D01*
X120234747Y-254866661D01*
X122044271Y-254866661D02*
X122044271Y-253819042D01*
X121949033Y-253628566D01*
X121758557Y-253533328D01*
X121377604Y-253533328D01*
X121187128Y-253628566D01*
X122044271Y-254771423D02*
X121853795Y-254866661D01*
X121377604Y-254866661D01*
X121187128Y-254771423D01*
X121091890Y-254580947D01*
X121091890Y-254390471D01*
X121187128Y-254199995D01*
X121377604Y-254104757D01*
X121853795Y-254104757D01*
X122044271Y-254009519D01*
X122996652Y-254866661D02*
X122996652Y-253533328D01*
X122996652Y-252866661D02*
X122901414Y-252961900D01*
X122996652Y-253057138D01*
X123091890Y-252961900D01*
X122996652Y-252866661D01*
X122996652Y-253057138D01*
X123949033Y-253533328D02*
X123949033Y-254866661D01*
X123949033Y-253723804D02*
X124044271Y-253628566D01*
X124234747Y-253533328D01*
X124520461Y-253533328D01*
X124710938Y-253628566D01*
X124806176Y-253819042D01*
X124806176Y-254866661D01*
X127282366Y-254866661D02*
X127282366Y-252866661D01*
X128044271Y-252866661D01*
X128234747Y-252961900D01*
X128329985Y-253057138D01*
X128425223Y-253247614D01*
X128425223Y-253533328D01*
X128329985Y-253723804D01*
X128234747Y-253819042D01*
X128044271Y-253914280D01*
X127282366Y-253914280D01*
X130425223Y-254676185D02*
X130329985Y-254771423D01*
X130044271Y-254866661D01*
X129853795Y-254866661D01*
X129568080Y-254771423D01*
X129377604Y-254580947D01*
X129282366Y-254390471D01*
X129187128Y-254009519D01*
X129187128Y-253723804D01*
X129282366Y-253342852D01*
X129377604Y-253152376D01*
X129568080Y-252961900D01*
X129853795Y-252866661D01*
X130044271Y-252866661D01*
X130329985Y-252961900D01*
X130425223Y-253057138D01*
X131949033Y-253819042D02*
X132234747Y-253914280D01*
X132329985Y-254009519D01*
X132425223Y-254199995D01*
X132425223Y-254485709D01*
X132329985Y-254676185D01*
X132234747Y-254771423D01*
X132044271Y-254866661D01*
X131282366Y-254866661D01*
X131282366Y-252866661D01*
X131949033Y-252866661D01*
X132139509Y-252961900D01*
X132234747Y-253057138D01*
X132329985Y-253247614D01*
X132329985Y-253438090D01*
X132234747Y-253628566D01*
X132139509Y-253723804D01*
X131949033Y-253819042D01*
X131282366Y-253819042D01*
D14*
X499643400Y-226822000D02*
X499643400Y-231902000D01*
X486156000Y-231902000D02*
X499643400Y-231902000D01*
X486156000Y-214122000D02*
X486156000Y-231902000D01*
X499618000Y-214122000D02*
X486156000Y-214122000D01*
X499645200Y-226822000D02*
X499645200Y-214122000D01*
D15*
X111662200Y-242015000D02*
X111662200Y-239409800D01*
X109827860Y-242015000D02*
X111662200Y-242015000D01*
X101212600Y-221888400D02*
X101972600Y-221888400D01*
X101212600Y-223248400D02*
X101212600Y-221888400D01*
X101972600Y-223248400D02*
X101212600Y-223248400D01*
X101212600Y-236924400D02*
X101972600Y-236924400D01*
X101212600Y-238284400D02*
X101212600Y-236924400D01*
X101972600Y-238284400D02*
X101212600Y-238284400D01*
X112662200Y-228540000D02*
X111362200Y-228540000D01*
X112662200Y-231760000D02*
X112662200Y-228540000D01*
X111362200Y-231760000D02*
X112662200Y-231760000D01*
X101972600Y-218635800D02*
X109510502Y-218635800D01*
X101972600Y-241715000D02*
X101972600Y-218635800D01*
X107303898Y-241715000D02*
X101972600Y-241715000D01*
X111362200Y-218635800D02*
X109510502Y-218635800D01*
X111362200Y-241715000D02*
X111362200Y-218635800D01*
X109510502Y-241715000D02*
X111362200Y-241715000D01*
X264494000Y-259289200D02*
X263994000Y-259389200D01*
X265794000Y-258989200D02*
X264494000Y-259289200D01*
X267294000Y-258789200D02*
X265794000Y-258989200D01*
X268594000Y-258689200D02*
X267294000Y-258789200D01*
X270394000Y-258689200D02*
X268594000Y-258689200D01*
X271694000Y-258789200D02*
X270394000Y-258689200D01*
X272494000Y-258889200D02*
X271694000Y-258789200D01*
X274194000Y-259189200D02*
X272494000Y-258889200D01*
X274994000Y-259389200D02*
X274194000Y-259189200D01*
X274494000Y-259989200D02*
X264494000Y-259989200D01*
X274994000Y-258489200D02*
X274994000Y-259489200D01*
X263994000Y-258489200D02*
X263994000Y-259489200D01*
X276404000Y-258489200D02*
X262584000Y-258489200D01*
X262584000Y-244569200D02*
X276404000Y-244569200D01*
X262584000Y-247269200D02*
X262584000Y-244569200D01*
X262584000Y-258489200D02*
X262584000Y-258089200D01*
X262584000Y-255569200D02*
X262584000Y-249789200D01*
X276404000Y-247269200D02*
X276404000Y-244569200D01*
X276404000Y-255569200D02*
X276404000Y-249789200D01*
X276404000Y-258489200D02*
X276404000Y-258089200D01*
X274494000Y-259989200D02*
G75*
G03*
X274994000Y-259489200I0J500000D01*
G01*
X263994000Y-259489200D02*
G75*
G03*
X264494000Y-259989200I500000J0D01*
G01*
D14*
X407236785Y-149758400D02*
G75*
G03*
X407236785Y-149758400I-227185J0D01*
G01*
X407060400Y-149758400D02*
G75*
G03*
X407060400Y-149758400I-50800J0D01*
G01*
X407192762Y-149758400D02*
G75*
G03*
X407192762Y-149758400I-183162J0D01*
G01*
X409092400Y-150063200D02*
X409092400Y-149453600D01*
X408787600Y-149758400D02*
X409397200Y-149758400D01*
X404469600Y-149707600D02*
X405079200Y-149707600D01*
X406196800Y-149758400D02*
X405587200Y-149758400D01*
X407365200Y-149758400D02*
X408298879Y-149758400D01*
X407375924Y-149758400D02*
G75*
G03*
X407375924Y-149758400I-366324J0D01*
G01*
X405567921Y-149707600D02*
G75*
G03*
X405567921Y-149707600I-793521J0D01*
G01*
X409885921Y-149758400D02*
G75*
G03*
X409885921Y-149758400I-793521J0D01*
G01*
X407568400Y-150317200D02*
G75*
G02*
X407568400Y-149199600I-558800J558800D01*
G01*
D16*
G36*
X415331605Y-188446448D02*
G01*
X415330378Y-188618906D01*
X414435786Y-189527828D01*
X413541194Y-190436749D01*
X413539890Y-191270965D01*
X412995099Y-191270965D01*
X412981061Y-191376798D01*
X412975745Y-191425037D01*
X412966786Y-191515879D01*
X412954661Y-191643904D01*
X412939850Y-191803694D01*
X412922832Y-191989830D01*
X412904087Y-192196893D01*
X412884094Y-192419465D01*
X412863332Y-192652126D01*
X412842280Y-192889457D01*
X412821417Y-193126040D01*
X412801223Y-193356456D01*
X412782178Y-193575286D01*
X412764759Y-193777111D01*
X412749447Y-193956512D01*
X412736721Y-194108070D01*
X412727059Y-194226368D01*
X412720942Y-194305984D01*
X412718849Y-194341502D01*
X412718850Y-194341671D01*
X412734116Y-194370170D01*
X412779970Y-194429015D01*
X412857035Y-194518891D01*
X412965935Y-194640483D01*
X413107295Y-194794476D01*
X413281738Y-194981555D01*
X413489888Y-195202404D01*
X413732368Y-195457710D01*
X413800525Y-195529200D01*
X414881475Y-196662239D01*
X414794084Y-196749396D01*
X414706694Y-196836553D01*
X414565302Y-196682721D01*
X414513576Y-196627126D01*
X414432776Y-196541153D01*
X414328233Y-196430435D01*
X414205279Y-196300603D01*
X414069243Y-196157289D01*
X413925459Y-196006127D01*
X413839440Y-195915844D01*
X413677949Y-195746709D01*
X413547417Y-195611233D01*
X413444516Y-195506952D01*
X413365917Y-195431403D01*
X413308292Y-195382122D01*
X413268311Y-195356646D01*
X413242648Y-195352511D01*
X413227973Y-195367254D01*
X413220958Y-195398412D01*
X413218275Y-195443520D01*
X413217915Y-195455830D01*
X413199263Y-195540633D01*
X413153306Y-195643134D01*
X413089219Y-195747124D01*
X413016174Y-195836391D01*
X412986946Y-195863966D01*
X412836978Y-195960450D01*
X412661795Y-196014434D01*
X412506912Y-196027239D01*
X412331386Y-196003086D01*
X412169279Y-195932261D01*
X412025804Y-195817217D01*
X411999332Y-195788581D01*
X411902533Y-195678612D01*
X410227929Y-195678612D01*
X410227929Y-196027239D01*
X409779694Y-196027239D01*
X409779694Y-195864368D01*
X409774069Y-195753180D01*
X409755171Y-195676005D01*
X409732203Y-195634025D01*
X409715793Y-195603989D01*
X409701741Y-195560439D01*
X409689116Y-195496920D01*
X409676987Y-195406974D01*
X409664424Y-195284147D01*
X409650494Y-195121982D01*
X409640956Y-195001344D01*
X409597200Y-194436134D01*
X408523026Y-195524285D01*
X408328805Y-195721181D01*
X408142357Y-195910481D01*
X407967090Y-196088706D01*
X407806411Y-196252380D01*
X407663726Y-196398024D01*
X407542442Y-196522162D01*
X407445966Y-196621315D01*
X407377704Y-196692007D01*
X407341102Y-196730720D01*
X407280968Y-196792011D01*
X407230808Y-196834759D01*
X407203829Y-196849004D01*
X407169368Y-196832318D01*
X407119136Y-196790625D01*
X407102109Y-196773647D01*
X407029912Y-196698289D01*
X407427401Y-196294364D01*
X407528808Y-196191466D01*
X407659567Y-196059020D01*
X407813941Y-195902825D01*
X407986196Y-195728678D01*
X408170594Y-195542376D01*
X408361399Y-195349718D01*
X408552877Y-195156501D01*
X408690233Y-195017977D01*
X408899028Y-194806878D01*
X409074438Y-194628160D01*
X409218708Y-194479404D01*
X409334080Y-194358191D01*
X409422799Y-194262103D01*
X409466770Y-194211927D01*
X409819869Y-194211927D01*
X409864077Y-194777181D01*
X409877409Y-194942868D01*
X409890305Y-195094385D01*
X409902036Y-195223811D01*
X409911870Y-195323227D01*
X409919076Y-195384715D01*
X409921395Y-195398465D01*
X409934505Y-195454494D01*
X411814836Y-195454494D01*
X411827388Y-195298125D01*
X411865284Y-195113373D01*
X411944588Y-194949942D01*
X412060299Y-194813785D01*
X412207419Y-194710854D01*
X412372546Y-194649066D01*
X412426116Y-194620083D01*
X412452935Y-194557880D01*
X412453497Y-194555137D01*
X412456715Y-194528877D01*
X412452737Y-194501987D01*
X412437681Y-194469479D01*
X412407664Y-194426366D01*
X412358803Y-194367661D01*
X412287216Y-194288374D01*
X412189020Y-194183519D01*
X412060332Y-194048107D01*
X412052017Y-194039386D01*
X411913600Y-193894037D01*
X411766443Y-193739221D01*
X411620659Y-193585597D01*
X411486358Y-193443823D01*
X411373653Y-193324555D01*
X411348518Y-193297892D01*
X411252162Y-193197353D01*
X411166566Y-193111315D01*
X411097873Y-193045696D01*
X411052228Y-193006414D01*
X411036903Y-192997780D01*
X411014048Y-193015850D01*
X410960601Y-193065419D01*
X410880770Y-193142362D01*
X410778764Y-193242551D01*
X410658792Y-193361860D01*
X410525063Y-193496162D01*
X410415764Y-193606789D01*
X409819869Y-194211927D01*
X409466770Y-194211927D01*
X409487108Y-194188719D01*
X409529252Y-194135620D01*
X409551473Y-194100389D01*
X409556417Y-194084073D01*
X409554544Y-194048466D01*
X409548854Y-193967869D01*
X409539715Y-193846920D01*
X409527496Y-193690258D01*
X409512564Y-193502520D01*
X409495287Y-193288346D01*
X409476035Y-193052372D01*
X409455175Y-192799236D01*
X409438363Y-192596929D01*
X409343243Y-191456299D01*
X409588002Y-191456299D01*
X409589056Y-191480914D01*
X409594014Y-191550241D01*
X409602478Y-191659371D01*
X409614048Y-191803400D01*
X409628328Y-191977419D01*
X409644917Y-192176522D01*
X409663419Y-192395804D01*
X409681175Y-192603997D01*
X409701287Y-192840216D01*
X409720021Y-193063200D01*
X409736946Y-193267628D01*
X409751635Y-193448175D01*
X409763657Y-193599520D01*
X409772583Y-193716339D01*
X409777985Y-193793311D01*
X409779484Y-193823204D01*
X409781823Y-193841808D01*
X409791089Y-193849191D01*
X409810854Y-193842270D01*
X409844690Y-193817967D01*
X409896169Y-193773199D01*
X409968862Y-193704888D01*
X410066342Y-193609951D01*
X410192179Y-193485310D01*
X410325697Y-193352117D01*
X410871701Y-192806537D01*
X410867874Y-192802435D01*
X411228787Y-192802435D01*
X411245236Y-192824961D01*
X411291283Y-192878001D01*
X411362314Y-192956681D01*
X411453714Y-193056126D01*
X411560868Y-193171461D01*
X411679160Y-193297812D01*
X411803976Y-193430304D01*
X411930700Y-193564063D01*
X412054718Y-193694213D01*
X412171413Y-193815880D01*
X412276172Y-193924190D01*
X412364379Y-194014268D01*
X412431419Y-194081238D01*
X412472676Y-194120227D01*
X412483927Y-194128170D01*
X412487636Y-194102532D01*
X412495335Y-194031719D01*
X412506602Y-193920164D01*
X412521011Y-193772300D01*
X412538141Y-193592559D01*
X412557567Y-193385375D01*
X412578867Y-193155181D01*
X412601617Y-192906410D01*
X412619781Y-192705815D01*
X412643016Y-192445712D01*
X412664483Y-192200684D01*
X412683821Y-191975176D01*
X412700668Y-191773632D01*
X412714665Y-191600497D01*
X412725450Y-191460218D01*
X412732661Y-191357237D01*
X412735939Y-191296001D01*
X412735564Y-191280102D01*
X412715974Y-191294264D01*
X412666089Y-191339787D01*
X412590268Y-191412264D01*
X412492872Y-191507290D01*
X412378264Y-191620458D01*
X412250803Y-191747362D01*
X412114852Y-191883596D01*
X411974771Y-192024754D01*
X411834922Y-192166430D01*
X411699665Y-192304216D01*
X411573362Y-192433708D01*
X411460374Y-192550500D01*
X411365062Y-192650184D01*
X411291788Y-192728354D01*
X411244911Y-192780606D01*
X411228787Y-192802435D01*
X410867874Y-192802435D01*
X410668099Y-192588332D01*
X410564408Y-192477593D01*
X410448028Y-192353959D01*
X410323560Y-192222254D01*
X410195606Y-192087300D01*
X410068767Y-191953920D01*
X409947645Y-191826937D01*
X409836842Y-191711172D01*
X409740958Y-191611450D01*
X409664594Y-191532592D01*
X409612354Y-191479422D01*
X409588837Y-191456762D01*
X409588002Y-191456299D01*
X409343243Y-191456299D01*
X409319469Y-191171226D01*
X406940871Y-188669720D01*
X406942621Y-188320082D01*
X407134736Y-188525303D01*
X407242255Y-188639764D01*
X407369196Y-188774241D01*
X407512134Y-188925156D01*
X407667643Y-189088929D01*
X407832297Y-189261982D01*
X408002671Y-189440737D01*
X408175339Y-189621615D01*
X408346875Y-189801038D01*
X408513854Y-189975426D01*
X408672850Y-190141202D01*
X408820437Y-190294786D01*
X408953189Y-190432600D01*
X409067682Y-190551066D01*
X409160488Y-190646604D01*
X409228183Y-190715637D01*
X409267340Y-190754585D01*
X409275922Y-190762057D01*
X409276512Y-190736066D01*
X409273266Y-190669519D01*
X409266747Y-190571472D01*
X409257520Y-190450979D01*
X409253559Y-190402845D01*
X409224061Y-190050769D01*
X409455020Y-190050769D01*
X409466944Y-190106798D01*
X409473025Y-190151109D01*
X409481570Y-190234483D01*
X409491591Y-190346297D01*
X409502101Y-190475928D01*
X409505738Y-190523906D01*
X409516466Y-190661660D01*
X409527294Y-190789587D01*
X409537139Y-190895599D01*
X409544918Y-190967609D01*
X409546672Y-190980677D01*
X409553289Y-191007507D01*
X409567612Y-191038912D01*
X409592687Y-191078414D01*
X409631559Y-191129532D01*
X409687274Y-191195789D01*
X409762877Y-191280703D01*
X409861413Y-191387795D01*
X409985929Y-191520586D01*
X410139470Y-191682597D01*
X410296100Y-191846983D01*
X410451930Y-192009661D01*
X410597394Y-192160318D01*
X410728869Y-192295293D01*
X410842735Y-192410922D01*
X410935370Y-192503543D01*
X411003154Y-192569494D01*
X411042465Y-192605110D01*
X411050848Y-192610408D01*
X411072904Y-192591196D01*
X411124458Y-192541093D01*
X411200506Y-192465126D01*
X411296045Y-192368321D01*
X411406072Y-192255704D01*
X411485640Y-192173661D01*
X411901050Y-191744102D01*
X410676165Y-191744102D01*
X410676165Y-191270965D01*
X412170282Y-191270965D01*
X412170282Y-191481782D01*
X412444204Y-191208710D01*
X412638516Y-191015000D01*
X413016949Y-191015000D01*
X413020569Y-191045558D01*
X413038891Y-191062583D01*
X413083107Y-191070001D01*
X413164412Y-191071736D01*
X413178812Y-191071749D01*
X413340674Y-191071749D01*
X413340674Y-190637404D01*
X413178812Y-190797828D01*
X413087505Y-190895361D01*
X413032893Y-190970083D01*
X413016949Y-191015000D01*
X412638516Y-191015000D01*
X412718125Y-190935638D01*
X412718125Y-190692419D01*
X412718888Y-190580523D01*
X412722379Y-190509337D01*
X412730400Y-190469779D01*
X412744756Y-190452762D01*
X412766404Y-190449200D01*
X412790480Y-190443971D01*
X412808275Y-190423005D01*
X412821941Y-190378386D01*
X412833628Y-190302197D01*
X412845489Y-190186520D01*
X412849296Y-190144151D01*
X412857537Y-190050769D01*
X409455020Y-190050769D01*
X409224061Y-190050769D01*
X408908125Y-190050769D01*
X408908125Y-189826651D01*
X409042387Y-189826651D01*
X409120914Y-189824500D01*
X409163583Y-189814119D01*
X409168803Y-189807940D01*
X409443807Y-189807940D01*
X409458280Y-189822055D01*
X409508414Y-189826412D01*
X409542249Y-189826651D01*
X409655184Y-189826651D01*
X410076336Y-189826651D01*
X412877645Y-189826651D01*
X412782896Y-189729619D01*
X412635736Y-189609881D01*
X412453607Y-189517530D01*
X412233423Y-189451300D01*
X412014645Y-189414670D01*
X411871459Y-189397579D01*
X411871459Y-189577631D01*
X410725969Y-189577631D01*
X410725969Y-189373361D01*
X410557880Y-189390397D01*
X410440437Y-189404774D01*
X410315309Y-189423833D01*
X410240380Y-189437445D01*
X410090969Y-189467457D01*
X410083652Y-189647054D01*
X410076336Y-189826651D01*
X409655184Y-189826651D01*
X409655184Y-189727043D01*
X409651892Y-189664643D01*
X409643667Y-189629960D01*
X409640352Y-189627435D01*
X409603486Y-189643408D01*
X409549626Y-189682157D01*
X409495631Y-189729932D01*
X409458362Y-189772981D01*
X409455042Y-189778579D01*
X409443807Y-189807940D01*
X409168803Y-189807940D01*
X409184285Y-189789616D01*
X409192642Y-189762924D01*
X409226752Y-189693656D01*
X409292264Y-189610385D01*
X409377907Y-189524787D01*
X409472409Y-189448539D01*
X409534483Y-189408825D01*
X409605195Y-189365355D01*
X409641444Y-189328838D01*
X409654180Y-189285778D01*
X409655159Y-189260131D01*
X409655160Y-189253906D01*
X410925184Y-189253906D01*
X410925184Y-189378416D01*
X411672243Y-189378416D01*
X411672243Y-189253906D01*
X410925184Y-189253906D01*
X409655160Y-189253906D01*
X409655184Y-189179200D01*
X409864776Y-189179200D01*
X409961207Y-189181531D01*
X410036363Y-189187743D01*
X410078143Y-189196665D01*
X410082668Y-189200278D01*
X410109170Y-189205824D01*
X410173667Y-189203552D01*
X410265077Y-189194135D01*
X410327537Y-189185440D01*
X410440792Y-189168359D01*
X410544370Y-189152939D01*
X410622208Y-189141563D01*
X410645037Y-189138332D01*
X410704682Y-189119860D01*
X410725969Y-189090915D01*
X410732441Y-189079126D01*
X410755592Y-189070133D01*
X410801026Y-189063581D01*
X410874345Y-189059115D01*
X410981154Y-189056381D01*
X411127054Y-189055026D01*
X411298714Y-189054690D01*
X411481919Y-189054881D01*
X411621292Y-189055779D01*
X411722804Y-189057877D01*
X411792426Y-189061667D01*
X411836131Y-189067639D01*
X411859888Y-189076285D01*
X411869669Y-189088097D01*
X411871459Y-189101830D01*
X411886695Y-189145421D01*
X411936601Y-189170227D01*
X412027476Y-189179074D01*
X412043826Y-189179200D01*
X412197720Y-189195076D01*
X412372509Y-189238779D01*
X412552432Y-189304424D01*
X412721724Y-189386127D01*
X412864623Y-189478001D01*
X412883131Y-189492558D01*
X412943456Y-189539920D01*
X412979180Y-189558890D01*
X413004128Y-189552757D01*
X413029736Y-189527456D01*
X413105372Y-189477895D01*
X413203809Y-189458869D01*
X413309812Y-189468764D01*
X413408146Y-189505963D01*
X413483576Y-189568851D01*
X413489039Y-189576161D01*
X413545481Y-189693554D01*
X413555982Y-189815069D01*
X413521701Y-189930907D01*
X413443796Y-190031268D01*
X413434270Y-190039555D01*
X413378958Y-190078922D01*
X413322838Y-190096258D01*
X413243941Y-190097510D01*
X413224232Y-190096400D01*
X413147038Y-190093567D01*
X413107276Y-190100057D01*
X413092881Y-190119641D01*
X413091404Y-190137926D01*
X413088387Y-190190968D01*
X413080900Y-190270739D01*
X413075519Y-190318465D01*
X413067714Y-190394269D01*
X413070960Y-190433074D01*
X413089783Y-190447258D01*
X413123311Y-190449200D01*
X413143196Y-190442787D01*
X413175274Y-190422031D01*
X413221922Y-190384656D01*
X413285518Y-190328389D01*
X413368438Y-190250955D01*
X413473060Y-190150078D01*
X413601761Y-190023483D01*
X413756918Y-189868896D01*
X413940908Y-189684042D01*
X414156109Y-189466646D01*
X414259819Y-189361595D01*
X415332831Y-188273991D01*
X415331605Y-188446448D01*
G37*
X415331605Y-188446448D02*
X415330378Y-188618906D01*
X414435786Y-189527828D01*
X413541194Y-190436749D01*
X413539890Y-191270965D01*
X412995099Y-191270965D01*
X412981061Y-191376798D01*
X412975745Y-191425037D01*
X412966786Y-191515879D01*
X412954661Y-191643904D01*
X412939850Y-191803694D01*
X412922832Y-191989830D01*
X412904087Y-192196893D01*
X412884094Y-192419465D01*
X412863332Y-192652126D01*
X412842280Y-192889457D01*
X412821417Y-193126040D01*
X412801223Y-193356456D01*
X412782178Y-193575286D01*
X412764759Y-193777111D01*
X412749447Y-193956512D01*
X412736721Y-194108070D01*
X412727059Y-194226368D01*
X412720942Y-194305984D01*
X412718849Y-194341502D01*
X412718850Y-194341671D01*
X412734116Y-194370170D01*
X412779970Y-194429015D01*
X412857035Y-194518891D01*
X412965935Y-194640483D01*
X413107295Y-194794476D01*
X413281738Y-194981555D01*
X413489888Y-195202404D01*
X413732368Y-195457710D01*
X413800525Y-195529200D01*
X414881475Y-196662239D01*
X414794084Y-196749396D01*
X414706694Y-196836553D01*
X414565302Y-196682721D01*
X414513576Y-196627126D01*
X414432776Y-196541153D01*
X414328233Y-196430435D01*
X414205279Y-196300603D01*
X414069243Y-196157289D01*
X413925459Y-196006127D01*
X413839440Y-195915844D01*
X413677949Y-195746709D01*
X413547417Y-195611233D01*
X413444516Y-195506952D01*
X413365917Y-195431403D01*
X413308292Y-195382122D01*
X413268311Y-195356646D01*
X413242648Y-195352511D01*
X413227973Y-195367254D01*
X413220958Y-195398412D01*
X413218275Y-195443520D01*
X413217915Y-195455830D01*
X413199263Y-195540633D01*
X413153306Y-195643134D01*
X413089219Y-195747124D01*
X413016174Y-195836391D01*
X412986946Y-195863966D01*
X412836978Y-195960450D01*
X412661795Y-196014434D01*
X412506912Y-196027239D01*
X412331386Y-196003086D01*
X412169279Y-195932261D01*
X412025804Y-195817217D01*
X411999332Y-195788581D01*
X411902533Y-195678612D01*
X410227929Y-195678612D01*
X410227929Y-196027239D01*
X409779694Y-196027239D01*
X409779694Y-195864368D01*
X409774069Y-195753180D01*
X409755171Y-195676005D01*
X409732203Y-195634025D01*
X409715793Y-195603989D01*
X409701741Y-195560439D01*
X409689116Y-195496920D01*
X409676987Y-195406974D01*
X409664424Y-195284147D01*
X409650494Y-195121982D01*
X409640956Y-195001344D01*
X409597200Y-194436134D01*
X408523026Y-195524285D01*
X408328805Y-195721181D01*
X408142357Y-195910481D01*
X407967090Y-196088706D01*
X407806411Y-196252380D01*
X407663726Y-196398024D01*
X407542442Y-196522162D01*
X407445966Y-196621315D01*
X407377704Y-196692007D01*
X407341102Y-196730720D01*
X407280968Y-196792011D01*
X407230808Y-196834759D01*
X407203829Y-196849004D01*
X407169368Y-196832318D01*
X407119136Y-196790625D01*
X407102109Y-196773647D01*
X407029912Y-196698289D01*
X407427401Y-196294364D01*
X407528808Y-196191466D01*
X407659567Y-196059020D01*
X407813941Y-195902825D01*
X407986196Y-195728678D01*
X408170594Y-195542376D01*
X408361399Y-195349718D01*
X408552877Y-195156501D01*
X408690233Y-195017977D01*
X408899028Y-194806878D01*
X409074438Y-194628160D01*
X409218708Y-194479404D01*
X409334080Y-194358191D01*
X409422799Y-194262103D01*
X409466770Y-194211927D01*
X409819869Y-194211927D01*
X409864077Y-194777181D01*
X409877409Y-194942868D01*
X409890305Y-195094385D01*
X409902036Y-195223811D01*
X409911870Y-195323227D01*
X409919076Y-195384715D01*
X409921395Y-195398465D01*
X409934505Y-195454494D01*
X411814836Y-195454494D01*
X411827388Y-195298125D01*
X411865284Y-195113373D01*
X411944588Y-194949942D01*
X412060299Y-194813785D01*
X412207419Y-194710854D01*
X412372546Y-194649066D01*
X412426116Y-194620083D01*
X412452935Y-194557880D01*
X412453497Y-194555137D01*
X412456715Y-194528877D01*
X412452737Y-194501987D01*
X412437681Y-194469479D01*
X412407664Y-194426366D01*
X412358803Y-194367661D01*
X412287216Y-194288374D01*
X412189020Y-194183519D01*
X412060332Y-194048107D01*
X412052017Y-194039386D01*
X411913600Y-193894037D01*
X411766443Y-193739221D01*
X411620659Y-193585597D01*
X411486358Y-193443823D01*
X411373653Y-193324555D01*
X411348518Y-193297892D01*
X411252162Y-193197353D01*
X411166566Y-193111315D01*
X411097873Y-193045696D01*
X411052228Y-193006414D01*
X411036903Y-192997780D01*
X411014048Y-193015850D01*
X410960601Y-193065419D01*
X410880770Y-193142362D01*
X410778764Y-193242551D01*
X410658792Y-193361860D01*
X410525063Y-193496162D01*
X410415764Y-193606789D01*
X409819869Y-194211927D01*
X409466770Y-194211927D01*
X409487108Y-194188719D01*
X409529252Y-194135620D01*
X409551473Y-194100389D01*
X409556417Y-194084073D01*
X409554544Y-194048466D01*
X409548854Y-193967869D01*
X409539715Y-193846920D01*
X409527496Y-193690258D01*
X409512564Y-193502520D01*
X409495287Y-193288346D01*
X409476035Y-193052372D01*
X409455175Y-192799236D01*
X409438363Y-192596929D01*
X409343243Y-191456299D01*
X409588002Y-191456299D01*
X409589056Y-191480914D01*
X409594014Y-191550241D01*
X409602478Y-191659371D01*
X409614048Y-191803400D01*
X409628328Y-191977419D01*
X409644917Y-192176522D01*
X409663419Y-192395804D01*
X409681175Y-192603997D01*
X409701287Y-192840216D01*
X409720021Y-193063200D01*
X409736946Y-193267628D01*
X409751635Y-193448175D01*
X409763657Y-193599520D01*
X409772583Y-193716339D01*
X409777985Y-193793311D01*
X409779484Y-193823204D01*
X409781823Y-193841808D01*
X409791089Y-193849191D01*
X409810854Y-193842270D01*
X409844690Y-193817967D01*
X409896169Y-193773199D01*
X409968862Y-193704888D01*
X410066342Y-193609951D01*
X410192179Y-193485310D01*
X410325697Y-193352117D01*
X410871701Y-192806537D01*
X410867874Y-192802435D01*
X411228787Y-192802435D01*
X411245236Y-192824961D01*
X411291283Y-192878001D01*
X411362314Y-192956681D01*
X411453714Y-193056126D01*
X411560868Y-193171461D01*
X411679160Y-193297812D01*
X411803976Y-193430304D01*
X411930700Y-193564063D01*
X412054718Y-193694213D01*
X412171413Y-193815880D01*
X412276172Y-193924190D01*
X412364379Y-194014268D01*
X412431419Y-194081238D01*
X412472676Y-194120227D01*
X412483927Y-194128170D01*
X412487636Y-194102532D01*
X412495335Y-194031719D01*
X412506602Y-193920164D01*
X412521011Y-193772300D01*
X412538141Y-193592559D01*
X412557567Y-193385375D01*
X412578867Y-193155181D01*
X412601617Y-192906410D01*
X412619781Y-192705815D01*
X412643016Y-192445712D01*
X412664483Y-192200684D01*
X412683821Y-191975176D01*
X412700668Y-191773632D01*
X412714665Y-191600497D01*
X412725450Y-191460218D01*
X412732661Y-191357237D01*
X412735939Y-191296001D01*
X412735564Y-191280102D01*
X412715974Y-191294264D01*
X412666089Y-191339787D01*
X412590268Y-191412264D01*
X412492872Y-191507290D01*
X412378264Y-191620458D01*
X412250803Y-191747362D01*
X412114852Y-191883596D01*
X411974771Y-192024754D01*
X411834922Y-192166430D01*
X411699665Y-192304216D01*
X411573362Y-192433708D01*
X411460374Y-192550500D01*
X411365062Y-192650184D01*
X411291788Y-192728354D01*
X411244911Y-192780606D01*
X411228787Y-192802435D01*
X410867874Y-192802435D01*
X410668099Y-192588332D01*
X410564408Y-192477593D01*
X410448028Y-192353959D01*
X410323560Y-192222254D01*
X410195606Y-192087300D01*
X410068767Y-191953920D01*
X409947645Y-191826937D01*
X409836842Y-191711172D01*
X409740958Y-191611450D01*
X409664594Y-191532592D01*
X409612354Y-191479422D01*
X409588837Y-191456762D01*
X409588002Y-191456299D01*
X409343243Y-191456299D01*
X409319469Y-191171226D01*
X406940871Y-188669720D01*
X406942621Y-188320082D01*
X407134736Y-188525303D01*
X407242255Y-188639764D01*
X407369196Y-188774241D01*
X407512134Y-188925156D01*
X407667643Y-189088929D01*
X407832297Y-189261982D01*
X408002671Y-189440737D01*
X408175339Y-189621615D01*
X408346875Y-189801038D01*
X408513854Y-189975426D01*
X408672850Y-190141202D01*
X408820437Y-190294786D01*
X408953189Y-190432600D01*
X409067682Y-190551066D01*
X409160488Y-190646604D01*
X409228183Y-190715637D01*
X409267340Y-190754585D01*
X409275922Y-190762057D01*
X409276512Y-190736066D01*
X409273266Y-190669519D01*
X409266747Y-190571472D01*
X409257520Y-190450979D01*
X409253559Y-190402845D01*
X409224061Y-190050769D01*
X409455020Y-190050769D01*
X409466944Y-190106798D01*
X409473025Y-190151109D01*
X409481570Y-190234483D01*
X409491591Y-190346297D01*
X409502101Y-190475928D01*
X409505738Y-190523906D01*
X409516466Y-190661660D01*
X409527294Y-190789587D01*
X409537139Y-190895599D01*
X409544918Y-190967609D01*
X409546672Y-190980677D01*
X409553289Y-191007507D01*
X409567612Y-191038912D01*
X409592687Y-191078414D01*
X409631559Y-191129532D01*
X409687274Y-191195789D01*
X409762877Y-191280703D01*
X409861413Y-191387795D01*
X409985929Y-191520586D01*
X410139470Y-191682597D01*
X410296100Y-191846983D01*
X410451930Y-192009661D01*
X410597394Y-192160318D01*
X410728869Y-192295293D01*
X410842735Y-192410922D01*
X410935370Y-192503543D01*
X411003154Y-192569494D01*
X411042465Y-192605110D01*
X411050848Y-192610408D01*
X411072904Y-192591196D01*
X411124458Y-192541093D01*
X411200506Y-192465126D01*
X411296045Y-192368321D01*
X411406072Y-192255704D01*
X411485640Y-192173661D01*
X411901050Y-191744102D01*
X410676165Y-191744102D01*
X410676165Y-191270965D01*
X412170282Y-191270965D01*
X412170282Y-191481782D01*
X412444204Y-191208710D01*
X412638516Y-191015000D01*
X413016949Y-191015000D01*
X413020569Y-191045558D01*
X413038891Y-191062583D01*
X413083107Y-191070001D01*
X413164412Y-191071736D01*
X413178812Y-191071749D01*
X413340674Y-191071749D01*
X413340674Y-190637404D01*
X413178812Y-190797828D01*
X413087505Y-190895361D01*
X413032893Y-190970083D01*
X413016949Y-191015000D01*
X412638516Y-191015000D01*
X412718125Y-190935638D01*
X412718125Y-190692419D01*
X412718888Y-190580523D01*
X412722379Y-190509337D01*
X412730400Y-190469779D01*
X412744756Y-190452762D01*
X412766404Y-190449200D01*
X412790480Y-190443971D01*
X412808275Y-190423005D01*
X412821941Y-190378386D01*
X412833628Y-190302197D01*
X412845489Y-190186520D01*
X412849296Y-190144151D01*
X412857537Y-190050769D01*
X409455020Y-190050769D01*
X409224061Y-190050769D01*
X408908125Y-190050769D01*
X408908125Y-189826651D01*
X409042387Y-189826651D01*
X409120914Y-189824500D01*
X409163583Y-189814119D01*
X409168803Y-189807940D01*
X409443807Y-189807940D01*
X409458280Y-189822055D01*
X409508414Y-189826412D01*
X409542249Y-189826651D01*
X409655184Y-189826651D01*
X410076336Y-189826651D01*
X412877645Y-189826651D01*
X412782896Y-189729619D01*
X412635736Y-189609881D01*
X412453607Y-189517530D01*
X412233423Y-189451300D01*
X412014645Y-189414670D01*
X411871459Y-189397579D01*
X411871459Y-189577631D01*
X410725969Y-189577631D01*
X410725969Y-189373361D01*
X410557880Y-189390397D01*
X410440437Y-189404774D01*
X410315309Y-189423833D01*
X410240380Y-189437445D01*
X410090969Y-189467457D01*
X410083652Y-189647054D01*
X410076336Y-189826651D01*
X409655184Y-189826651D01*
X409655184Y-189727043D01*
X409651892Y-189664643D01*
X409643667Y-189629960D01*
X409640352Y-189627435D01*
X409603486Y-189643408D01*
X409549626Y-189682157D01*
X409495631Y-189729932D01*
X409458362Y-189772981D01*
X409455042Y-189778579D01*
X409443807Y-189807940D01*
X409168803Y-189807940D01*
X409184285Y-189789616D01*
X409192642Y-189762924D01*
X409226752Y-189693656D01*
X409292264Y-189610385D01*
X409377907Y-189524787D01*
X409472409Y-189448539D01*
X409534483Y-189408825D01*
X409605195Y-189365355D01*
X409641444Y-189328838D01*
X409654180Y-189285778D01*
X409655159Y-189260131D01*
X409655160Y-189253906D01*
X410925184Y-189253906D01*
X410925184Y-189378416D01*
X411672243Y-189378416D01*
X411672243Y-189253906D01*
X410925184Y-189253906D01*
X409655160Y-189253906D01*
X409655184Y-189179200D01*
X409864776Y-189179200D01*
X409961207Y-189181531D01*
X410036363Y-189187743D01*
X410078143Y-189196665D01*
X410082668Y-189200278D01*
X410109170Y-189205824D01*
X410173667Y-189203552D01*
X410265077Y-189194135D01*
X410327537Y-189185440D01*
X410440792Y-189168359D01*
X410544370Y-189152939D01*
X410622208Y-189141563D01*
X410645037Y-189138332D01*
X410704682Y-189119860D01*
X410725969Y-189090915D01*
X410732441Y-189079126D01*
X410755592Y-189070133D01*
X410801026Y-189063581D01*
X410874345Y-189059115D01*
X410981154Y-189056381D01*
X411127054Y-189055026D01*
X411298714Y-189054690D01*
X411481919Y-189054881D01*
X411621292Y-189055779D01*
X411722804Y-189057877D01*
X411792426Y-189061667D01*
X411836131Y-189067639D01*
X411859888Y-189076285D01*
X411869669Y-189088097D01*
X411871459Y-189101830D01*
X411886695Y-189145421D01*
X411936601Y-189170227D01*
X412027476Y-189179074D01*
X412043826Y-189179200D01*
X412197720Y-189195076D01*
X412372509Y-189238779D01*
X412552432Y-189304424D01*
X412721724Y-189386127D01*
X412864623Y-189478001D01*
X412883131Y-189492558D01*
X412943456Y-189539920D01*
X412979180Y-189558890D01*
X413004128Y-189552757D01*
X413029736Y-189527456D01*
X413105372Y-189477895D01*
X413203809Y-189458869D01*
X413309812Y-189468764D01*
X413408146Y-189505963D01*
X413483576Y-189568851D01*
X413489039Y-189576161D01*
X413545481Y-189693554D01*
X413555982Y-189815069D01*
X413521701Y-189930907D01*
X413443796Y-190031268D01*
X413434270Y-190039555D01*
X413378958Y-190078922D01*
X413322838Y-190096258D01*
X413243941Y-190097510D01*
X413224232Y-190096400D01*
X413147038Y-190093567D01*
X413107276Y-190100057D01*
X413092881Y-190119641D01*
X413091404Y-190137926D01*
X413088387Y-190190968D01*
X413080900Y-190270739D01*
X413075519Y-190318465D01*
X413067714Y-190394269D01*
X413070960Y-190433074D01*
X413089783Y-190447258D01*
X413123311Y-190449200D01*
X413143196Y-190442787D01*
X413175274Y-190422031D01*
X413221922Y-190384656D01*
X413285518Y-190328389D01*
X413368438Y-190250955D01*
X413473060Y-190150078D01*
X413601761Y-190023483D01*
X413756918Y-189868896D01*
X413940908Y-189684042D01*
X414156109Y-189466646D01*
X414259819Y-189361595D01*
X415332831Y-188273991D01*
X415331605Y-188446448D01*
G36*
X414585772Y-200235671D02*
G01*
X407613223Y-200235671D01*
X407613223Y-198517435D01*
X414585772Y-198517435D01*
X414585772Y-200235671D01*
G37*
X414585772Y-200235671D02*
X407613223Y-200235671D01*
X407613223Y-198517435D01*
X414585772Y-198517435D01*
X414585772Y-200235671D01*
G36*
X411333414Y-171490998D02*
G01*
X411491406Y-171491863D01*
X411605747Y-171494205D01*
X411683807Y-171498762D01*
X411732954Y-171506270D01*
X411760559Y-171517466D01*
X411773992Y-171533088D01*
X411780621Y-171553873D01*
X411781265Y-171556563D01*
X411791335Y-171605113D01*
X411809975Y-171700905D01*
X411835245Y-171833743D01*
X411865207Y-171993431D01*
X411897922Y-172169774D01*
X411899064Y-172175967D01*
X411931833Y-172348782D01*
X411962493Y-172501469D01*
X411989064Y-172624871D01*
X412009567Y-172709831D01*
X412022026Y-172747190D01*
X412022620Y-172747852D01*
X412059319Y-172766095D01*
X412134986Y-172796497D01*
X412233278Y-172832493D01*
X412233825Y-172832685D01*
X412357633Y-172879222D01*
X412503596Y-172938504D01*
X412641181Y-172998109D01*
X412647693Y-173001056D01*
X412871790Y-173102765D01*
X413368019Y-172763897D01*
X413520246Y-172660592D01*
X413658141Y-172568237D01*
X413773715Y-172492084D01*
X413858979Y-172437385D01*
X413905944Y-172409393D01*
X413910404Y-172407317D01*
X413944534Y-172416560D01*
X414008281Y-172461156D01*
X414104131Y-172543209D01*
X414234569Y-172664821D01*
X414367728Y-172794205D01*
X414496094Y-172921702D01*
X414610981Y-173038046D01*
X414705473Y-173136052D01*
X414772653Y-173208536D01*
X414805606Y-173248313D01*
X414806832Y-173250361D01*
X414810474Y-173277656D01*
X414796750Y-173322234D01*
X414762269Y-173390112D01*
X414703639Y-173487311D01*
X414617470Y-173619851D01*
X414502600Y-173790476D01*
X414400654Y-173940655D01*
X414309523Y-174075350D01*
X414234473Y-174186740D01*
X414180769Y-174267005D01*
X414153680Y-174308325D01*
X414151974Y-174311130D01*
X414155282Y-174350721D01*
X414180353Y-174427669D01*
X414222198Y-174527432D01*
X414237112Y-174559291D01*
X414302186Y-174701226D01*
X414371612Y-174862273D01*
X414428009Y-175001621D01*
X414468647Y-175105044D01*
X414500926Y-175183642D01*
X414519578Y-175224720D01*
X414521897Y-175227885D01*
X414556203Y-175233128D01*
X414637069Y-175247494D01*
X414753743Y-175268937D01*
X414895475Y-175295413D01*
X415051510Y-175324877D01*
X415211098Y-175355283D01*
X415363485Y-175384588D01*
X415497921Y-175410745D01*
X415603652Y-175431710D01*
X415669926Y-175445439D01*
X415686182Y-175449320D01*
X415702973Y-175458900D01*
X415715649Y-175480536D01*
X415724778Y-175521531D01*
X415730931Y-175589189D01*
X415734680Y-175690812D01*
X415736592Y-175833703D01*
X415737240Y-176025165D01*
X415737274Y-176103645D01*
X415737274Y-176741906D01*
X415583998Y-176772160D01*
X415498722Y-176788564D01*
X415371470Y-176812509D01*
X415217715Y-176841107D01*
X415052934Y-176871467D01*
X415007389Y-176879806D01*
X414855332Y-176909370D01*
X414722868Y-176938442D01*
X414621114Y-176964329D01*
X414561188Y-176984337D01*
X414551205Y-176990301D01*
X414526693Y-177032534D01*
X414491548Y-177114370D01*
X414452573Y-177219683D01*
X414444842Y-177242368D01*
X414393760Y-177383018D01*
X414330354Y-177541714D01*
X414268304Y-177684225D01*
X414267998Y-177684886D01*
X414164667Y-177908440D01*
X414844361Y-178908232D01*
X414408021Y-179345300D01*
X414276049Y-179475381D01*
X414155679Y-179590048D01*
X414053673Y-179683181D01*
X413976791Y-179748658D01*
X413931793Y-179780357D01*
X413925338Y-179782368D01*
X413887440Y-179766529D01*
X413810108Y-179722496D01*
X413701789Y-179655490D01*
X413570932Y-179570734D01*
X413429452Y-179475816D01*
X413285861Y-179378998D01*
X413157835Y-179294751D01*
X413053505Y-179228258D01*
X412981000Y-179184702D01*
X412948558Y-179169264D01*
X412908976Y-179182328D01*
X412833919Y-179216750D01*
X412738868Y-179265380D01*
X412728792Y-179270785D01*
X412600791Y-179334980D01*
X412513018Y-179366463D01*
X412458428Y-179366798D01*
X412429975Y-179337548D01*
X412429810Y-179337138D01*
X412415588Y-179302498D01*
X412381669Y-179220269D01*
X412330684Y-179096814D01*
X412265262Y-178938498D01*
X412188034Y-178751686D01*
X412101629Y-178542742D01*
X412017951Y-178340446D01*
X411925988Y-178117200D01*
X411841550Y-177910392D01*
X411767169Y-177726362D01*
X411705374Y-177571451D01*
X411658697Y-177451996D01*
X411629668Y-177374339D01*
X411620722Y-177345356D01*
X411643156Y-177312110D01*
X411701839Y-177259123D01*
X411780089Y-177200704D01*
X412002934Y-177015952D01*
X412177118Y-176804182D01*
X412300554Y-176569856D01*
X412371154Y-176317434D01*
X412386831Y-176051377D01*
X412375436Y-175928575D01*
X412313350Y-175673793D01*
X412206423Y-175448801D01*
X412061289Y-175255817D01*
X411884578Y-175097061D01*
X411682922Y-174974750D01*
X411462954Y-174891105D01*
X411231306Y-174848344D01*
X410994609Y-174848687D01*
X410759495Y-174894352D01*
X410532596Y-174987559D01*
X410320544Y-175130527D01*
X410232036Y-175211383D01*
X410062289Y-175419007D01*
X409944099Y-175645895D01*
X409876678Y-175885433D01*
X409859240Y-176131007D01*
X409890998Y-176376003D01*
X409971165Y-176613808D01*
X410098955Y-176837807D01*
X410273580Y-177041387D01*
X410468712Y-177200704D01*
X410549991Y-177261602D01*
X410607409Y-177314015D01*
X410628078Y-177345406D01*
X410617256Y-177379639D01*
X410586477Y-177461419D01*
X410538274Y-177584407D01*
X410475178Y-177742263D01*
X410399722Y-177928649D01*
X410314438Y-178137226D01*
X410230619Y-178340496D01*
X410138145Y-178563933D01*
X410052489Y-178770984D01*
X409976282Y-178955286D01*
X409912153Y-179110475D01*
X409862732Y-179230188D01*
X409830648Y-179308061D01*
X409818759Y-179337138D01*
X409790674Y-179366677D01*
X409736349Y-179366591D01*
X409648795Y-179335326D01*
X409521019Y-179271329D01*
X409520008Y-179270785D01*
X409423802Y-179221121D01*
X409346031Y-179184945D01*
X409302177Y-179169408D01*
X409300242Y-179169264D01*
X409267229Y-179185024D01*
X409194346Y-179228850D01*
X409089722Y-179295557D01*
X408961490Y-179379964D01*
X408819348Y-179475816D01*
X408674633Y-179572867D01*
X408544204Y-179657270D01*
X408436510Y-179723801D01*
X408359998Y-179767238D01*
X408323462Y-179782368D01*
X408289818Y-179762482D01*
X408222176Y-179706903D01*
X408127293Y-179621754D01*
X408011930Y-179513153D01*
X407882845Y-179387221D01*
X407840629Y-179345149D01*
X407404139Y-178907931D01*
X407736377Y-178420340D01*
X407837346Y-178270605D01*
X407925962Y-178136220D01*
X407997254Y-178024969D01*
X408046250Y-177944639D01*
X408067978Y-177903014D01*
X408068615Y-177900053D01*
X408057160Y-177860818D01*
X408026349Y-177781895D01*
X407981516Y-177676509D01*
X407950047Y-177605954D01*
X407891208Y-177470876D01*
X407835796Y-177334409D01*
X407792836Y-177219103D01*
X407781166Y-177183977D01*
X407748011Y-177090174D01*
X407715601Y-177017694D01*
X407697799Y-176990301D01*
X407658514Y-176973536D01*
X407572774Y-176949770D01*
X407451703Y-176921697D01*
X407306427Y-176892009D01*
X407241412Y-176879806D01*
X407076313Y-176849468D01*
X406917952Y-176820093D01*
X406781804Y-176794569D01*
X406683343Y-176775785D01*
X406664802Y-176772160D01*
X406511527Y-176741906D01*
X406511527Y-176103645D01*
X406511871Y-175893770D01*
X406513284Y-175734980D01*
X406516336Y-175619973D01*
X406521597Y-175541446D01*
X406529637Y-175492096D01*
X406541027Y-175464619D01*
X406556337Y-175451713D01*
X406562618Y-175449320D01*
X406600504Y-175440833D01*
X406684205Y-175423900D01*
X406802967Y-175400566D01*
X406946039Y-175372875D01*
X407102668Y-175342873D01*
X407262103Y-175312604D01*
X407413591Y-175284115D01*
X407546381Y-175259449D01*
X407649719Y-175240651D01*
X407712855Y-175229767D01*
X407726903Y-175227885D01*
X407739630Y-175202704D01*
X407767800Y-175135622D01*
X407806148Y-175039333D01*
X407820791Y-175001621D01*
X407879852Y-174855921D01*
X407949400Y-174694951D01*
X408011688Y-174559291D01*
X408057521Y-174455561D01*
X408088013Y-174370326D01*
X408098192Y-174318126D01*
X408096569Y-174311130D01*
X408075057Y-174278102D01*
X408025935Y-174204643D01*
X407954477Y-174098577D01*
X407865955Y-173967726D01*
X407765641Y-173819912D01*
X407745806Y-173790734D01*
X407629412Y-173617863D01*
X407543852Y-173486226D01*
X407485716Y-173389761D01*
X407451592Y-173322408D01*
X407438069Y-173278106D01*
X407441736Y-173250794D01*
X407441830Y-173250620D01*
X407470693Y-173214746D01*
X407534533Y-173145391D01*
X407626431Y-173049745D01*
X407739467Y-172934999D01*
X407866721Y-172808341D01*
X407881072Y-172794205D01*
X408041443Y-172638903D01*
X408165205Y-172524870D01*
X408254845Y-172450002D01*
X408312848Y-172412196D01*
X408338396Y-172407317D01*
X408375682Y-172428603D01*
X408453057Y-172477773D01*
X408562533Y-172549575D01*
X408696120Y-172638755D01*
X408845830Y-172740063D01*
X408880782Y-172763897D01*
X409377010Y-173102765D01*
X409601107Y-173001056D01*
X409737389Y-172941783D01*
X409883676Y-172882170D01*
X410009435Y-172834640D01*
X410014975Y-172832685D01*
X410113343Y-172796677D01*
X410189171Y-172766229D01*
X410226118Y-172747905D01*
X410226180Y-172747852D01*
X410237904Y-172714729D01*
X410257832Y-172633267D01*
X410283987Y-172512625D01*
X410314390Y-172361959D01*
X410347063Y-172190428D01*
X410349736Y-172175967D01*
X410382510Y-171999235D01*
X410412598Y-171838810D01*
X410438061Y-171704888D01*
X410456959Y-171607663D01*
X410467353Y-171557332D01*
X410467535Y-171556563D01*
X410473861Y-171535153D01*
X410486161Y-171518988D01*
X410511806Y-171507331D01*
X410558165Y-171499445D01*
X410632608Y-171494593D01*
X410742505Y-171492039D01*
X410895225Y-171491045D01*
X411098138Y-171490874D01*
X411124400Y-171490874D01*
X411333414Y-171490998D01*
G37*
X411333414Y-171490998D02*
X411491406Y-171491863D01*
X411605747Y-171494205D01*
X411683807Y-171498762D01*
X411732954Y-171506270D01*
X411760559Y-171517466D01*
X411773992Y-171533088D01*
X411780621Y-171553873D01*
X411781265Y-171556563D01*
X411791335Y-171605113D01*
X411809975Y-171700905D01*
X411835245Y-171833743D01*
X411865207Y-171993431D01*
X411897922Y-172169774D01*
X411899064Y-172175967D01*
X411931833Y-172348782D01*
X411962493Y-172501469D01*
X411989064Y-172624871D01*
X412009567Y-172709831D01*
X412022026Y-172747190D01*
X412022620Y-172747852D01*
X412059319Y-172766095D01*
X412134986Y-172796497D01*
X412233278Y-172832493D01*
X412233825Y-172832685D01*
X412357633Y-172879222D01*
X412503596Y-172938504D01*
X412641181Y-172998109D01*
X412647693Y-173001056D01*
X412871790Y-173102765D01*
X413368019Y-172763897D01*
X413520246Y-172660592D01*
X413658141Y-172568237D01*
X413773715Y-172492084D01*
X413858979Y-172437385D01*
X413905944Y-172409393D01*
X413910404Y-172407317D01*
X413944534Y-172416560D01*
X414008281Y-172461156D01*
X414104131Y-172543209D01*
X414234569Y-172664821D01*
X414367728Y-172794205D01*
X414496094Y-172921702D01*
X414610981Y-173038046D01*
X414705473Y-173136052D01*
X414772653Y-173208536D01*
X414805606Y-173248313D01*
X414806832Y-173250361D01*
X414810474Y-173277656D01*
X414796750Y-173322234D01*
X414762269Y-173390112D01*
X414703639Y-173487311D01*
X414617470Y-173619851D01*
X414502600Y-173790476D01*
X414400654Y-173940655D01*
X414309523Y-174075350D01*
X414234473Y-174186740D01*
X414180769Y-174267005D01*
X414153680Y-174308325D01*
X414151974Y-174311130D01*
X414155282Y-174350721D01*
X414180353Y-174427669D01*
X414222198Y-174527432D01*
X414237112Y-174559291D01*
X414302186Y-174701226D01*
X414371612Y-174862273D01*
X414428009Y-175001621D01*
X414468647Y-175105044D01*
X414500926Y-175183642D01*
X414519578Y-175224720D01*
X414521897Y-175227885D01*
X414556203Y-175233128D01*
X414637069Y-175247494D01*
X414753743Y-175268937D01*
X414895475Y-175295413D01*
X415051510Y-175324877D01*
X415211098Y-175355283D01*
X415363485Y-175384588D01*
X415497921Y-175410745D01*
X415603652Y-175431710D01*
X415669926Y-175445439D01*
X415686182Y-175449320D01*
X415702973Y-175458900D01*
X415715649Y-175480536D01*
X415724778Y-175521531D01*
X415730931Y-175589189D01*
X415734680Y-175690812D01*
X415736592Y-175833703D01*
X415737240Y-176025165D01*
X415737274Y-176103645D01*
X415737274Y-176741906D01*
X415583998Y-176772160D01*
X415498722Y-176788564D01*
X415371470Y-176812509D01*
X415217715Y-176841107D01*
X415052934Y-176871467D01*
X415007389Y-176879806D01*
X414855332Y-176909370D01*
X414722868Y-176938442D01*
X414621114Y-176964329D01*
X414561188Y-176984337D01*
X414551205Y-176990301D01*
X414526693Y-177032534D01*
X414491548Y-177114370D01*
X414452573Y-177219683D01*
X414444842Y-177242368D01*
X414393760Y-177383018D01*
X414330354Y-177541714D01*
X414268304Y-177684225D01*
X414267998Y-177684886D01*
X414164667Y-177908440D01*
X414844361Y-178908232D01*
X414408021Y-179345300D01*
X414276049Y-179475381D01*
X414155679Y-179590048D01*
X414053673Y-179683181D01*
X413976791Y-179748658D01*
X413931793Y-179780357D01*
X413925338Y-179782368D01*
X413887440Y-179766529D01*
X413810108Y-179722496D01*
X413701789Y-179655490D01*
X413570932Y-179570734D01*
X413429452Y-179475816D01*
X413285861Y-179378998D01*
X413157835Y-179294751D01*
X413053505Y-179228258D01*
X412981000Y-179184702D01*
X412948558Y-179169264D01*
X412908976Y-179182328D01*
X412833919Y-179216750D01*
X412738868Y-179265380D01*
X412728792Y-179270785D01*
X412600791Y-179334980D01*
X412513018Y-179366463D01*
X412458428Y-179366798D01*
X412429975Y-179337548D01*
X412429810Y-179337138D01*
X412415588Y-179302498D01*
X412381669Y-179220269D01*
X412330684Y-179096814D01*
X412265262Y-178938498D01*
X412188034Y-178751686D01*
X412101629Y-178542742D01*
X412017951Y-178340446D01*
X411925988Y-178117200D01*
X411841550Y-177910392D01*
X411767169Y-177726362D01*
X411705374Y-177571451D01*
X411658697Y-177451996D01*
X411629668Y-177374339D01*
X411620722Y-177345356D01*
X411643156Y-177312110D01*
X411701839Y-177259123D01*
X411780089Y-177200704D01*
X412002934Y-177015952D01*
X412177118Y-176804182D01*
X412300554Y-176569856D01*
X412371154Y-176317434D01*
X412386831Y-176051377D01*
X412375436Y-175928575D01*
X412313350Y-175673793D01*
X412206423Y-175448801D01*
X412061289Y-175255817D01*
X411884578Y-175097061D01*
X411682922Y-174974750D01*
X411462954Y-174891105D01*
X411231306Y-174848344D01*
X410994609Y-174848687D01*
X410759495Y-174894352D01*
X410532596Y-174987559D01*
X410320544Y-175130527D01*
X410232036Y-175211383D01*
X410062289Y-175419007D01*
X409944099Y-175645895D01*
X409876678Y-175885433D01*
X409859240Y-176131007D01*
X409890998Y-176376003D01*
X409971165Y-176613808D01*
X410098955Y-176837807D01*
X410273580Y-177041387D01*
X410468712Y-177200704D01*
X410549991Y-177261602D01*
X410607409Y-177314015D01*
X410628078Y-177345406D01*
X410617256Y-177379639D01*
X410586477Y-177461419D01*
X410538274Y-177584407D01*
X410475178Y-177742263D01*
X410399722Y-177928649D01*
X410314438Y-178137226D01*
X410230619Y-178340496D01*
X410138145Y-178563933D01*
X410052489Y-178770984D01*
X409976282Y-178955286D01*
X409912153Y-179110475D01*
X409862732Y-179230188D01*
X409830648Y-179308061D01*
X409818759Y-179337138D01*
X409790674Y-179366677D01*
X409736349Y-179366591D01*
X409648795Y-179335326D01*
X409521019Y-179271329D01*
X409520008Y-179270785D01*
X409423802Y-179221121D01*
X409346031Y-179184945D01*
X409302177Y-179169408D01*
X409300242Y-179169264D01*
X409267229Y-179185024D01*
X409194346Y-179228850D01*
X409089722Y-179295557D01*
X408961490Y-179379964D01*
X408819348Y-179475816D01*
X408674633Y-179572867D01*
X408544204Y-179657270D01*
X408436510Y-179723801D01*
X408359998Y-179767238D01*
X408323462Y-179782368D01*
X408289818Y-179762482D01*
X408222176Y-179706903D01*
X408127293Y-179621754D01*
X408011930Y-179513153D01*
X407882845Y-179387221D01*
X407840629Y-179345149D01*
X407404139Y-178907931D01*
X407736377Y-178420340D01*
X407837346Y-178270605D01*
X407925962Y-178136220D01*
X407997254Y-178024969D01*
X408046250Y-177944639D01*
X408067978Y-177903014D01*
X408068615Y-177900053D01*
X408057160Y-177860818D01*
X408026349Y-177781895D01*
X407981516Y-177676509D01*
X407950047Y-177605954D01*
X407891208Y-177470876D01*
X407835796Y-177334409D01*
X407792836Y-177219103D01*
X407781166Y-177183977D01*
X407748011Y-177090174D01*
X407715601Y-177017694D01*
X407697799Y-176990301D01*
X407658514Y-176973536D01*
X407572774Y-176949770D01*
X407451703Y-176921697D01*
X407306427Y-176892009D01*
X407241412Y-176879806D01*
X407076313Y-176849468D01*
X406917952Y-176820093D01*
X406781804Y-176794569D01*
X406683343Y-176775785D01*
X406664802Y-176772160D01*
X406511527Y-176741906D01*
X406511527Y-176103645D01*
X406511871Y-175893770D01*
X406513284Y-175734980D01*
X406516336Y-175619973D01*
X406521597Y-175541446D01*
X406529637Y-175492096D01*
X406541027Y-175464619D01*
X406556337Y-175451713D01*
X406562618Y-175449320D01*
X406600504Y-175440833D01*
X406684205Y-175423900D01*
X406802967Y-175400566D01*
X406946039Y-175372875D01*
X407102668Y-175342873D01*
X407262103Y-175312604D01*
X407413591Y-175284115D01*
X407546381Y-175259449D01*
X407649719Y-175240651D01*
X407712855Y-175229767D01*
X407726903Y-175227885D01*
X407739630Y-175202704D01*
X407767800Y-175135622D01*
X407806148Y-175039333D01*
X407820791Y-175001621D01*
X407879852Y-174855921D01*
X407949400Y-174694951D01*
X408011688Y-174559291D01*
X408057521Y-174455561D01*
X408088013Y-174370326D01*
X408098192Y-174318126D01*
X408096569Y-174311130D01*
X408075057Y-174278102D01*
X408025935Y-174204643D01*
X407954477Y-174098577D01*
X407865955Y-173967726D01*
X407765641Y-173819912D01*
X407745806Y-173790734D01*
X407629412Y-173617863D01*
X407543852Y-173486226D01*
X407485716Y-173389761D01*
X407451592Y-173322408D01*
X407438069Y-173278106D01*
X407441736Y-173250794D01*
X407441830Y-173250620D01*
X407470693Y-173214746D01*
X407534533Y-173145391D01*
X407626431Y-173049745D01*
X407739467Y-172934999D01*
X407866721Y-172808341D01*
X407881072Y-172794205D01*
X408041443Y-172638903D01*
X408165205Y-172524870D01*
X408254845Y-172450002D01*
X408312848Y-172412196D01*
X408338396Y-172407317D01*
X408375682Y-172428603D01*
X408453057Y-172477773D01*
X408562533Y-172549575D01*
X408696120Y-172638755D01*
X408845830Y-172740063D01*
X408880782Y-172763897D01*
X409377010Y-173102765D01*
X409601107Y-173001056D01*
X409737389Y-172941783D01*
X409883676Y-172882170D01*
X410009435Y-172834640D01*
X410014975Y-172832685D01*
X410113343Y-172796677D01*
X410189171Y-172766229D01*
X410226118Y-172747905D01*
X410226180Y-172747852D01*
X410237904Y-172714729D01*
X410257832Y-172633267D01*
X410283987Y-172512625D01*
X410314390Y-172361959D01*
X410347063Y-172190428D01*
X410349736Y-172175967D01*
X410382510Y-171999235D01*
X410412598Y-171838810D01*
X410438061Y-171704888D01*
X410456959Y-171607663D01*
X410467353Y-171557332D01*
X410467535Y-171556563D01*
X410473861Y-171535153D01*
X410486161Y-171518988D01*
X410511806Y-171507331D01*
X410558165Y-171499445D01*
X410632608Y-171494593D01*
X410742505Y-171492039D01*
X410895225Y-171491045D01*
X411098138Y-171490874D01*
X411124400Y-171490874D01*
X411333414Y-171490998D01*
G36*
X417467839Y-180994540D02*
G01*
X417583350Y-181070034D01*
X417639064Y-181137617D01*
X417683204Y-181260255D01*
X417686709Y-181357298D01*
X417678768Y-181487056D01*
X417379515Y-181618039D01*
X417234011Y-181684958D01*
X417138937Y-181738790D01*
X417089501Y-181785416D01*
X417080911Y-181830720D01*
X417108372Y-181880582D01*
X417138653Y-181913632D01*
X417226763Y-181966633D01*
X417322596Y-181970347D01*
X417410612Y-181929041D01*
X417475269Y-181846983D01*
X417486833Y-181818008D01*
X417542225Y-181727509D01*
X417605953Y-181688940D01*
X417693366Y-181655946D01*
X417693366Y-181781034D01*
X417685638Y-181866156D01*
X417655366Y-181937938D01*
X417591918Y-182020356D01*
X417582488Y-182031066D01*
X417511913Y-182104391D01*
X417451247Y-182143742D01*
X417375350Y-182161845D01*
X417312430Y-182167774D01*
X417199887Y-182169251D01*
X417119770Y-182150535D01*
X417069790Y-182122747D01*
X416991238Y-182061641D01*
X416936863Y-181995554D01*
X416902452Y-181912441D01*
X416883788Y-181800254D01*
X416876656Y-181646946D01*
X416876087Y-181569136D01*
X416878022Y-181475853D01*
X417054299Y-181475853D01*
X417056344Y-181525896D01*
X417061439Y-181534092D01*
X417095066Y-181522958D01*
X417167430Y-181493493D01*
X417264147Y-181451601D01*
X417284373Y-181442597D01*
X417406603Y-181380442D01*
X417473947Y-181325815D01*
X417488748Y-181274649D01*
X417453347Y-181222876D01*
X417424111Y-181200000D01*
X417318616Y-181154250D01*
X417219876Y-181161808D01*
X417137212Y-181217651D01*
X417079948Y-181316753D01*
X417061588Y-181395414D01*
X417054299Y-181475853D01*
X416878022Y-181475853D01*
X416879859Y-181387351D01*
X416893759Y-181252853D01*
X416921294Y-181154916D01*
X416965972Y-181082811D01*
X417031301Y-181025813D01*
X417059783Y-181007393D01*
X417189163Y-180959422D01*
X417330812Y-180956403D01*
X417467839Y-180994540D01*
G37*
X417467839Y-180994540D02*
X417583350Y-181070034D01*
X417639064Y-181137617D01*
X417683204Y-181260255D01*
X417686709Y-181357298D01*
X417678768Y-181487056D01*
X417379515Y-181618039D01*
X417234011Y-181684958D01*
X417138937Y-181738790D01*
X417089501Y-181785416D01*
X417080911Y-181830720D01*
X417108372Y-181880582D01*
X417138653Y-181913632D01*
X417226763Y-181966633D01*
X417322596Y-181970347D01*
X417410612Y-181929041D01*
X417475269Y-181846983D01*
X417486833Y-181818008D01*
X417542225Y-181727509D01*
X417605953Y-181688940D01*
X417693366Y-181655946D01*
X417693366Y-181781034D01*
X417685638Y-181866156D01*
X417655366Y-181937938D01*
X417591918Y-182020356D01*
X417582488Y-182031066D01*
X417511913Y-182104391D01*
X417451247Y-182143742D01*
X417375350Y-182161845D01*
X417312430Y-182167774D01*
X417199887Y-182169251D01*
X417119770Y-182150535D01*
X417069790Y-182122747D01*
X416991238Y-182061641D01*
X416936863Y-181995554D01*
X416902452Y-181912441D01*
X416883788Y-181800254D01*
X416876656Y-181646946D01*
X416876087Y-181569136D01*
X416878022Y-181475853D01*
X417054299Y-181475853D01*
X417056344Y-181525896D01*
X417061439Y-181534092D01*
X417095066Y-181522958D01*
X417167430Y-181493493D01*
X417264147Y-181451601D01*
X417284373Y-181442597D01*
X417406603Y-181380442D01*
X417473947Y-181325815D01*
X417488748Y-181274649D01*
X417453347Y-181222876D01*
X417424111Y-181200000D01*
X417318616Y-181154250D01*
X417219876Y-181161808D01*
X417137212Y-181217651D01*
X417079948Y-181316753D01*
X417061588Y-181395414D01*
X417054299Y-181475853D01*
X416878022Y-181475853D01*
X416879859Y-181387351D01*
X416893759Y-181252853D01*
X416921294Y-181154916D01*
X416965972Y-181082811D01*
X417031301Y-181025813D01*
X417059783Y-181007393D01*
X417189163Y-180959422D01*
X417330812Y-180956403D01*
X417467839Y-180994540D01*
G36*
X416460090Y-180978018D02*
G01*
X416494985Y-180993269D01*
X416578277Y-181059235D01*
X416649503Y-181154618D01*
X416693553Y-181256406D01*
X416700722Y-181306587D01*
X416676685Y-181376647D01*
X416623961Y-181413717D01*
X416567431Y-181436164D01*
X416541546Y-181440300D01*
X416528942Y-181410283D01*
X416504054Y-181344961D01*
X416493135Y-181315445D01*
X416431908Y-181213348D01*
X416343261Y-181162423D01*
X416229593Y-181163989D01*
X416221174Y-181165994D01*
X416160488Y-181194767D01*
X416115874Y-181250859D01*
X416085402Y-181341163D01*
X416067144Y-181472571D01*
X416059171Y-181651974D01*
X416058423Y-181747433D01*
X416058052Y-181897913D01*
X416055623Y-182000495D01*
X416049160Y-182065672D01*
X416036688Y-182103938D01*
X416016233Y-182125785D01*
X415985819Y-182141707D01*
X415984061Y-182142509D01*
X415925491Y-182167272D01*
X415896475Y-182176391D01*
X415892016Y-182148822D01*
X415888199Y-182072620D01*
X415885299Y-181957541D01*
X415883591Y-181813341D01*
X415883251Y-181707814D01*
X415884988Y-181503613D01*
X415891782Y-181348697D01*
X415906007Y-181234024D01*
X415930038Y-181150551D01*
X415966248Y-181089236D01*
X416017012Y-181041034D01*
X416067139Y-181007393D01*
X416187675Y-180962619D01*
X416327957Y-180952521D01*
X416460090Y-180978018D01*
G37*
X416460090Y-180978018D02*
X416494985Y-180993269D01*
X416578277Y-181059235D01*
X416649503Y-181154618D01*
X416693553Y-181256406D01*
X416700722Y-181306587D01*
X416676685Y-181376647D01*
X416623961Y-181413717D01*
X416567431Y-181436164D01*
X416541546Y-181440300D01*
X416528942Y-181410283D01*
X416504054Y-181344961D01*
X416493135Y-181315445D01*
X416431908Y-181213348D01*
X416343261Y-181162423D01*
X416229593Y-181163989D01*
X416221174Y-181165994D01*
X416160488Y-181194767D01*
X416115874Y-181250859D01*
X416085402Y-181341163D01*
X416067144Y-181472571D01*
X416059171Y-181651974D01*
X416058423Y-181747433D01*
X416058052Y-181897913D01*
X416055623Y-182000495D01*
X416049160Y-182065672D01*
X416036688Y-182103938D01*
X416016233Y-182125785D01*
X415985819Y-182141707D01*
X415984061Y-182142509D01*
X415925491Y-182167272D01*
X415896475Y-182176391D01*
X415892016Y-182148822D01*
X415888199Y-182072620D01*
X415885299Y-181957541D01*
X415883591Y-181813341D01*
X415883251Y-181707814D01*
X415884988Y-181503613D01*
X415891782Y-181348697D01*
X415906007Y-181234024D01*
X415930038Y-181150551D01*
X415966248Y-181089236D01*
X416017012Y-181041034D01*
X416067139Y-181007393D01*
X416187675Y-180962619D01*
X416327957Y-180952521D01*
X416460090Y-180978018D01*
G36*
X415438806Y-180973156D02*
G01*
X415522869Y-181011393D01*
X415588850Y-181057726D01*
X415637194Y-181109532D01*
X415670572Y-181176363D01*
X415691653Y-181267769D01*
X415703107Y-181393301D01*
X415707603Y-181562508D01*
X415708078Y-181673933D01*
X415708078Y-182108627D01*
X415633716Y-182142509D01*
X415575146Y-182167272D01*
X415546130Y-182176391D01*
X415540579Y-182149257D01*
X415536175Y-182076094D01*
X415533478Y-181969263D01*
X415532906Y-181884437D01*
X415530446Y-181761887D01*
X415523812Y-181664668D01*
X415514126Y-181605134D01*
X415506432Y-181592483D01*
X415454711Y-181605402D01*
X415373517Y-181638539D01*
X415279502Y-181683461D01*
X415189317Y-181731735D01*
X415119615Y-181774928D01*
X415087048Y-181804608D01*
X415086919Y-181804929D01*
X415089720Y-181859857D01*
X415114839Y-181912292D01*
X415158941Y-181954881D01*
X415223309Y-181969126D01*
X415278321Y-181967466D01*
X415356235Y-181966245D01*
X415397132Y-181984498D01*
X415421695Y-182032726D01*
X415424792Y-182041820D01*
X415435440Y-182110598D01*
X415406965Y-182152360D01*
X415332744Y-182172263D01*
X415252568Y-182175944D01*
X415108290Y-182148658D01*
X415033603Y-182109690D01*
X414941363Y-182018148D01*
X414892443Y-181905782D01*
X414888054Y-181787051D01*
X414929401Y-181676411D01*
X414991597Y-181607080D01*
X415053694Y-181568265D01*
X415151295Y-181519125D01*
X415265032Y-181469292D01*
X415283990Y-181461677D01*
X415408921Y-181406545D01*
X415480939Y-181357954D01*
X415504100Y-181309647D01*
X415482464Y-181255370D01*
X415445320Y-181212943D01*
X415357527Y-181160702D01*
X415260930Y-181156784D01*
X415172344Y-181197041D01*
X415108586Y-181277326D01*
X415100217Y-181298040D01*
X415051496Y-181374225D01*
X414980365Y-181430785D01*
X414890607Y-181477201D01*
X414890607Y-181345584D01*
X414895890Y-181265168D01*
X414918542Y-181201786D01*
X414968767Y-181134163D01*
X415016982Y-181082076D01*
X415091954Y-181008322D01*
X415150206Y-180968702D01*
X415212772Y-180952810D01*
X415283593Y-180950184D01*
X415438806Y-180973156D01*
G37*
X415438806Y-180973156D02*
X415522869Y-181011393D01*
X415588850Y-181057726D01*
X415637194Y-181109532D01*
X415670572Y-181176363D01*
X415691653Y-181267769D01*
X415703107Y-181393301D01*
X415707603Y-181562508D01*
X415708078Y-181673933D01*
X415708078Y-182108627D01*
X415633716Y-182142509D01*
X415575146Y-182167272D01*
X415546130Y-182176391D01*
X415540579Y-182149257D01*
X415536175Y-182076094D01*
X415533478Y-181969263D01*
X415532906Y-181884437D01*
X415530446Y-181761887D01*
X415523812Y-181664668D01*
X415514126Y-181605134D01*
X415506432Y-181592483D01*
X415454711Y-181605402D01*
X415373517Y-181638539D01*
X415279502Y-181683461D01*
X415189317Y-181731735D01*
X415119615Y-181774928D01*
X415087048Y-181804608D01*
X415086919Y-181804929D01*
X415089720Y-181859857D01*
X415114839Y-181912292D01*
X415158941Y-181954881D01*
X415223309Y-181969126D01*
X415278321Y-181967466D01*
X415356235Y-181966245D01*
X415397132Y-181984498D01*
X415421695Y-182032726D01*
X415424792Y-182041820D01*
X415435440Y-182110598D01*
X415406965Y-182152360D01*
X415332744Y-182172263D01*
X415252568Y-182175944D01*
X415108290Y-182148658D01*
X415033603Y-182109690D01*
X414941363Y-182018148D01*
X414892443Y-181905782D01*
X414888054Y-181787051D01*
X414929401Y-181676411D01*
X414991597Y-181607080D01*
X415053694Y-181568265D01*
X415151295Y-181519125D01*
X415265032Y-181469292D01*
X415283990Y-181461677D01*
X415408921Y-181406545D01*
X415480939Y-181357954D01*
X415504100Y-181309647D01*
X415482464Y-181255370D01*
X415445320Y-181212943D01*
X415357527Y-181160702D01*
X415260930Y-181156784D01*
X415172344Y-181197041D01*
X415108586Y-181277326D01*
X415100217Y-181298040D01*
X415051496Y-181374225D01*
X414980365Y-181430785D01*
X414890607Y-181477201D01*
X414890607Y-181345584D01*
X414895890Y-181265168D01*
X414918542Y-181201786D01*
X414968767Y-181134163D01*
X415016982Y-181082076D01*
X415091954Y-181008322D01*
X415150206Y-180968702D01*
X415212772Y-180952810D01*
X415283593Y-180950184D01*
X415438806Y-180973156D01*
G36*
X414704524Y-180977840D02*
G01*
X414708979Y-181054653D01*
X414712471Y-181171391D01*
X414714715Y-181318821D01*
X414715435Y-181473455D01*
X414715435Y-181996727D01*
X414623045Y-182089117D01*
X414559378Y-182146047D01*
X414503489Y-182169107D01*
X414427102Y-182167647D01*
X414396780Y-182163934D01*
X414302010Y-182153126D01*
X414223622Y-182146933D01*
X414204515Y-182146361D01*
X414140099Y-182150102D01*
X414047971Y-182159494D01*
X414012250Y-182163934D01*
X413924514Y-182170801D01*
X413865553Y-182155885D01*
X413807090Y-182109835D01*
X413785985Y-182089117D01*
X413693595Y-181996727D01*
X413693595Y-181017947D01*
X413767958Y-180984066D01*
X413831990Y-180958970D01*
X413869452Y-180950184D01*
X413879057Y-180977950D01*
X413888035Y-181055530D01*
X413895786Y-181174348D01*
X413901714Y-181325828D01*
X413904573Y-181453805D01*
X413912561Y-181957425D01*
X413982248Y-181967278D01*
X414045629Y-181960389D01*
X414076686Y-181938083D01*
X414085367Y-181896379D01*
X414092778Y-181807544D01*
X414098331Y-181682834D01*
X414101436Y-181533507D01*
X414101884Y-181456661D01*
X414102331Y-181014287D01*
X414194274Y-180982235D01*
X414259349Y-180960443D01*
X414294747Y-180950281D01*
X414295768Y-180950184D01*
X414299320Y-180977809D01*
X414303223Y-181054411D01*
X414307151Y-181170579D01*
X414310776Y-181316904D01*
X414313308Y-181453805D01*
X414321297Y-181957425D01*
X414496469Y-181957425D01*
X414504507Y-181497965D01*
X414512546Y-181038505D01*
X414597943Y-180994344D01*
X414660993Y-180964019D01*
X414698310Y-180950258D01*
X414699387Y-180950184D01*
X414704524Y-180977840D01*
G37*
X414704524Y-180977840D02*
X414708979Y-181054653D01*
X414712471Y-181171391D01*
X414714715Y-181318821D01*
X414715435Y-181473455D01*
X414715435Y-181996727D01*
X414623045Y-182089117D01*
X414559378Y-182146047D01*
X414503489Y-182169107D01*
X414427102Y-182167647D01*
X414396780Y-182163934D01*
X414302010Y-182153126D01*
X414223622Y-182146933D01*
X414204515Y-182146361D01*
X414140099Y-182150102D01*
X414047971Y-182159494D01*
X414012250Y-182163934D01*
X413924514Y-182170801D01*
X413865553Y-182155885D01*
X413807090Y-182109835D01*
X413785985Y-182089117D01*
X413693595Y-181996727D01*
X413693595Y-181017947D01*
X413767958Y-180984066D01*
X413831990Y-180958970D01*
X413869452Y-180950184D01*
X413879057Y-180977950D01*
X413888035Y-181055530D01*
X413895786Y-181174348D01*
X413901714Y-181325828D01*
X413904573Y-181453805D01*
X413912561Y-181957425D01*
X413982248Y-181967278D01*
X414045629Y-181960389D01*
X414076686Y-181938083D01*
X414085367Y-181896379D01*
X414092778Y-181807544D01*
X414098331Y-181682834D01*
X414101436Y-181533507D01*
X414101884Y-181456661D01*
X414102331Y-181014287D01*
X414194274Y-180982235D01*
X414259349Y-180960443D01*
X414294747Y-180950281D01*
X414295768Y-180950184D01*
X414299320Y-180977809D01*
X414303223Y-181054411D01*
X414307151Y-181170579D01*
X414310776Y-181316904D01*
X414313308Y-181453805D01*
X414321297Y-181957425D01*
X414496469Y-181957425D01*
X414504507Y-181497965D01*
X414512546Y-181038505D01*
X414597943Y-180994344D01*
X414660993Y-180964019D01*
X414698310Y-180950258D01*
X414699387Y-180950184D01*
X414704524Y-180977840D01*
G36*
X413518314Y-181192455D02*
G01*
X413517943Y-181410661D01*
X413516508Y-181578519D01*
X413513402Y-181704070D01*
X413508022Y-181795355D01*
X413499762Y-181860415D01*
X413488016Y-181907291D01*
X413472181Y-181944024D01*
X413460190Y-181964991D01*
X413360890Y-182078694D01*
X413234988Y-182149965D01*
X413095691Y-182175538D01*
X412956205Y-182152150D01*
X412873143Y-182110119D01*
X412785945Y-182037411D01*
X412726517Y-181948612D01*
X412690661Y-181832320D01*
X412674181Y-181677135D01*
X412671847Y-181563287D01*
X412672161Y-181555106D01*
X412876124Y-181555106D01*
X412877370Y-181685657D01*
X412883078Y-181772080D01*
X412896204Y-181828618D01*
X412919706Y-181869514D01*
X412947786Y-181900362D01*
X413042088Y-181959905D01*
X413143340Y-181964992D01*
X413239036Y-181915279D01*
X413246484Y-181908543D01*
X413278274Y-181873502D01*
X413298208Y-181831811D01*
X413309000Y-181769762D01*
X413313365Y-181673644D01*
X413314055Y-181567379D01*
X413312559Y-181433880D01*
X413306364Y-181344822D01*
X413292914Y-181286293D01*
X413269651Y-181244382D01*
X413250575Y-181222123D01*
X413161963Y-181165985D01*
X413059908Y-181159235D01*
X412962495Y-181202114D01*
X412943696Y-181218032D01*
X412911693Y-181253382D01*
X412891718Y-181295502D01*
X412880993Y-181358251D01*
X412876739Y-181455487D01*
X412876124Y-181555106D01*
X412672161Y-181555106D01*
X412678904Y-181379947D01*
X412702872Y-181242195D01*
X412747948Y-181138632D01*
X412818328Y-181057856D01*
X412873143Y-181016455D01*
X412972776Y-180971728D01*
X413088255Y-180950967D01*
X413195599Y-180956525D01*
X413255664Y-180978943D01*
X413279235Y-180985323D01*
X413294877Y-180961535D01*
X413305795Y-180897788D01*
X413314055Y-180800687D01*
X413323099Y-180692541D01*
X413335661Y-180627475D01*
X413358519Y-180590268D01*
X413398451Y-180565699D01*
X413423538Y-180554819D01*
X413518423Y-180515072D01*
X413518314Y-181192455D01*
G37*
X413518314Y-181192455D02*
X413517943Y-181410661D01*
X413516508Y-181578519D01*
X413513402Y-181704070D01*
X413508022Y-181795355D01*
X413499762Y-181860415D01*
X413488016Y-181907291D01*
X413472181Y-181944024D01*
X413460190Y-181964991D01*
X413360890Y-182078694D01*
X413234988Y-182149965D01*
X413095691Y-182175538D01*
X412956205Y-182152150D01*
X412873143Y-182110119D01*
X412785945Y-182037411D01*
X412726517Y-181948612D01*
X412690661Y-181832320D01*
X412674181Y-181677135D01*
X412671847Y-181563287D01*
X412672161Y-181555106D01*
X412876124Y-181555106D01*
X412877370Y-181685657D01*
X412883078Y-181772080D01*
X412896204Y-181828618D01*
X412919706Y-181869514D01*
X412947786Y-181900362D01*
X413042088Y-181959905D01*
X413143340Y-181964992D01*
X413239036Y-181915279D01*
X413246484Y-181908543D01*
X413278274Y-181873502D01*
X413298208Y-181831811D01*
X413309000Y-181769762D01*
X413313365Y-181673644D01*
X413314055Y-181567379D01*
X413312559Y-181433880D01*
X413306364Y-181344822D01*
X413292914Y-181286293D01*
X413269651Y-181244382D01*
X413250575Y-181222123D01*
X413161963Y-181165985D01*
X413059908Y-181159235D01*
X412962495Y-181202114D01*
X412943696Y-181218032D01*
X412911693Y-181253382D01*
X412891718Y-181295502D01*
X412880993Y-181358251D01*
X412876739Y-181455487D01*
X412876124Y-181555106D01*
X412672161Y-181555106D01*
X412678904Y-181379947D01*
X412702872Y-181242195D01*
X412747948Y-181138632D01*
X412818328Y-181057856D01*
X412873143Y-181016455D01*
X412972776Y-180971728D01*
X413088255Y-180950967D01*
X413195599Y-180956525D01*
X413255664Y-180978943D01*
X413279235Y-180985323D01*
X413294877Y-180961535D01*
X413305795Y-180897788D01*
X413314055Y-180800687D01*
X413323099Y-180692541D01*
X413335661Y-180627475D01*
X413358519Y-180590268D01*
X413398451Y-180565699D01*
X413423538Y-180554819D01*
X413518423Y-180515072D01*
X413518314Y-181192455D01*
G36*
X412190343Y-180959920D02*
G01*
X412322965Y-181008859D01*
X412430410Y-181095419D01*
X412472432Y-181156352D01*
X412518243Y-181268161D01*
X412517291Y-181349006D01*
X412469208Y-181403378D01*
X412451417Y-181412624D01*
X412374604Y-181441450D01*
X412335376Y-181434065D01*
X412322089Y-181385658D01*
X412321412Y-181358920D01*
X412297086Y-181260548D01*
X412233681Y-181191734D01*
X412145554Y-181158498D01*
X412047063Y-181166861D01*
X411967002Y-181210296D01*
X411939961Y-181235072D01*
X411920794Y-181265129D01*
X411907846Y-181310565D01*
X411899464Y-181381476D01*
X411893993Y-181487960D01*
X411889778Y-181640112D01*
X411888687Y-181688287D01*
X411884707Y-181853095D01*
X411880181Y-181969088D01*
X411873395Y-182045833D01*
X411862631Y-182092893D01*
X411846173Y-182119835D01*
X411822306Y-182136223D01*
X411807026Y-182143463D01*
X411742133Y-182168220D01*
X411703934Y-182176391D01*
X411691312Y-182149103D01*
X411683608Y-182066603D01*
X411680780Y-181927941D01*
X411682786Y-181732162D01*
X411683411Y-181701965D01*
X411687821Y-181523349D01*
X411693035Y-181392923D01*
X411700455Y-181300492D01*
X411711482Y-181235858D01*
X411727517Y-181188825D01*
X411749961Y-181149196D01*
X411761702Y-181132215D01*
X411829019Y-181057080D01*
X411904310Y-180998638D01*
X411913528Y-180993536D01*
X412048533Y-180953260D01*
X412190343Y-180959920D01*
G37*
X412190343Y-180959920D02*
X412322965Y-181008859D01*
X412430410Y-181095419D01*
X412472432Y-181156352D01*
X412518243Y-181268161D01*
X412517291Y-181349006D01*
X412469208Y-181403378D01*
X412451417Y-181412624D01*
X412374604Y-181441450D01*
X412335376Y-181434065D01*
X412322089Y-181385658D01*
X412321412Y-181358920D01*
X412297086Y-181260548D01*
X412233681Y-181191734D01*
X412145554Y-181158498D01*
X412047063Y-181166861D01*
X411967002Y-181210296D01*
X411939961Y-181235072D01*
X411920794Y-181265129D01*
X411907846Y-181310565D01*
X411899464Y-181381476D01*
X411893993Y-181487960D01*
X411889778Y-181640112D01*
X411888687Y-181688287D01*
X411884707Y-181853095D01*
X411880181Y-181969088D01*
X411873395Y-182045833D01*
X411862631Y-182092893D01*
X411846173Y-182119835D01*
X411822306Y-182136223D01*
X411807026Y-182143463D01*
X411742133Y-182168220D01*
X411703934Y-182176391D01*
X411691312Y-182149103D01*
X411683608Y-182066603D01*
X411680780Y-181927941D01*
X411682786Y-181732162D01*
X411683411Y-181701965D01*
X411687821Y-181523349D01*
X411693035Y-181392923D01*
X411700455Y-181300492D01*
X411711482Y-181235858D01*
X411727517Y-181188825D01*
X411749961Y-181149196D01*
X411761702Y-181132215D01*
X411829019Y-181057080D01*
X411904310Y-180998638D01*
X411913528Y-180993536D01*
X412048533Y-180953260D01*
X412190343Y-180959920D01*
G36*
X411204344Y-180962360D02*
G01*
X411318743Y-181004842D01*
X411320052Y-181005658D01*
X411390803Y-181057730D01*
X411443036Y-181118584D01*
X411479771Y-181197887D01*
X411504034Y-181305309D01*
X411518845Y-181450517D01*
X411527229Y-181643179D01*
X411527964Y-181670628D01*
X411538520Y-182084521D01*
X411449691Y-182130456D01*
X411385418Y-182161498D01*
X411346610Y-182176206D01*
X411344815Y-182176391D01*
X411338100Y-182149250D01*
X411332765Y-182076041D01*
X411329483Y-181969081D01*
X411328768Y-181882469D01*
X411328751Y-181742162D01*
X411322337Y-181654051D01*
X411299980Y-181612025D01*
X411252132Y-181609975D01*
X411169249Y-181641790D01*
X411044113Y-181700272D01*
X410952097Y-181748845D01*
X410904771Y-181790986D01*
X410890858Y-181836916D01*
X410890837Y-181839189D01*
X410913795Y-181918311D01*
X410981770Y-181961055D01*
X411085798Y-181967246D01*
X411160730Y-181966172D01*
X411200239Y-181987753D01*
X411224878Y-182039591D01*
X411239059Y-182105632D01*
X411218623Y-182143104D01*
X411210928Y-182148467D01*
X411138483Y-182170006D01*
X411037033Y-182173055D01*
X410932557Y-182158778D01*
X410858525Y-182132688D01*
X410756172Y-182045785D01*
X410697991Y-181924816D01*
X410686469Y-181830308D01*
X410695262Y-181745062D01*
X410727080Y-181675476D01*
X410790084Y-181613672D01*
X410892431Y-181551772D01*
X411042282Y-181481897D01*
X411051412Y-181477948D01*
X411186397Y-181415588D01*
X411269694Y-181364446D01*
X411305397Y-181318488D01*
X411297603Y-181271683D01*
X411250407Y-181217998D01*
X411236294Y-181205644D01*
X411141759Y-181157741D01*
X411043806Y-181159758D01*
X410958497Y-181206724D01*
X410901896Y-181293669D01*
X410896637Y-181310734D01*
X410845423Y-181393504D01*
X410780437Y-181433372D01*
X410686469Y-181472882D01*
X410686469Y-181370658D01*
X410715053Y-181222072D01*
X410799895Y-181085784D01*
X410844045Y-181040191D01*
X410944405Y-180981674D01*
X411072035Y-180955184D01*
X411204344Y-180962360D01*
G37*
X411204344Y-180962360D02*
X411318743Y-181004842D01*
X411320052Y-181005658D01*
X411390803Y-181057730D01*
X411443036Y-181118584D01*
X411479771Y-181197887D01*
X411504034Y-181305309D01*
X411518845Y-181450517D01*
X411527229Y-181643179D01*
X411527964Y-181670628D01*
X411538520Y-182084521D01*
X411449691Y-182130456D01*
X411385418Y-182161498D01*
X411346610Y-182176206D01*
X411344815Y-182176391D01*
X411338100Y-182149250D01*
X411332765Y-182076041D01*
X411329483Y-181969081D01*
X411328768Y-181882469D01*
X411328751Y-181742162D01*
X411322337Y-181654051D01*
X411299980Y-181612025D01*
X411252132Y-181609975D01*
X411169249Y-181641790D01*
X411044113Y-181700272D01*
X410952097Y-181748845D01*
X410904771Y-181790986D01*
X410890858Y-181836916D01*
X410890837Y-181839189D01*
X410913795Y-181918311D01*
X410981770Y-181961055D01*
X411085798Y-181967246D01*
X411160730Y-181966172D01*
X411200239Y-181987753D01*
X411224878Y-182039591D01*
X411239059Y-182105632D01*
X411218623Y-182143104D01*
X411210928Y-182148467D01*
X411138483Y-182170006D01*
X411037033Y-182173055D01*
X410932557Y-182158778D01*
X410858525Y-182132688D01*
X410756172Y-182045785D01*
X410697991Y-181924816D01*
X410686469Y-181830308D01*
X410695262Y-181745062D01*
X410727080Y-181675476D01*
X410790084Y-181613672D01*
X410892431Y-181551772D01*
X411042282Y-181481897D01*
X411051412Y-181477948D01*
X411186397Y-181415588D01*
X411269694Y-181364446D01*
X411305397Y-181318488D01*
X411297603Y-181271683D01*
X411250407Y-181217998D01*
X411236294Y-181205644D01*
X411141759Y-181157741D01*
X411043806Y-181159758D01*
X410958497Y-181206724D01*
X410901896Y-181293669D01*
X410896637Y-181310734D01*
X410845423Y-181393504D01*
X410780437Y-181433372D01*
X410686469Y-181472882D01*
X410686469Y-181370658D01*
X410715053Y-181222072D01*
X410799895Y-181085784D01*
X410844045Y-181040191D01*
X410944405Y-180981674D01*
X411072035Y-180955184D01*
X411204344Y-180962360D01*
G36*
X409868998Y-180761857D02*
G01*
X409877554Y-180881188D01*
X409887381Y-180951506D01*
X409900999Y-180982179D01*
X409920927Y-180982571D01*
X409927389Y-180978910D01*
X410013340Y-180952398D01*
X410125145Y-180953946D01*
X410238814Y-180981199D01*
X410309910Y-181016455D01*
X410382805Y-181072778D01*
X410436093Y-181136519D01*
X410472675Y-181217510D01*
X410495450Y-181325586D01*
X410507319Y-181470580D01*
X410511182Y-181662326D01*
X410511251Y-181699109D01*
X410511297Y-182112288D01*
X410419354Y-182144339D01*
X410354052Y-182166144D01*
X410318224Y-182176297D01*
X410317170Y-182176391D01*
X410313642Y-182148860D01*
X410310639Y-182072923D01*
X410308390Y-181958565D01*
X410307124Y-181815769D01*
X410306929Y-181728951D01*
X410306523Y-181557773D01*
X410304432Y-181435088D01*
X410299347Y-181351000D01*
X410289960Y-181295614D01*
X410274961Y-181259032D01*
X410253042Y-181231359D01*
X410239357Y-181218032D01*
X410145349Y-181164328D01*
X410042764Y-181160307D01*
X409949690Y-181205725D01*
X409932478Y-181222123D01*
X409907232Y-181252957D01*
X409889720Y-181289531D01*
X409878542Y-181342415D01*
X409872296Y-181422177D01*
X409869582Y-181539385D01*
X409868998Y-181700991D01*
X409868998Y-182112288D01*
X409777055Y-182144339D01*
X409711753Y-182166144D01*
X409675925Y-182176297D01*
X409674871Y-182176391D01*
X409672175Y-182148448D01*
X409669745Y-182069630D01*
X409667678Y-181947453D01*
X409666071Y-181789432D01*
X409665023Y-181603083D01*
X409664631Y-181395920D01*
X409664630Y-181386706D01*
X409664630Y-180597020D01*
X409759515Y-180556997D01*
X409854400Y-180516973D01*
X409868998Y-180761857D01*
G37*
X409868998Y-180761857D02*
X409877554Y-180881188D01*
X409887381Y-180951506D01*
X409900999Y-180982179D01*
X409920927Y-180982571D01*
X409927389Y-180978910D01*
X410013340Y-180952398D01*
X410125145Y-180953946D01*
X410238814Y-180981199D01*
X410309910Y-181016455D01*
X410382805Y-181072778D01*
X410436093Y-181136519D01*
X410472675Y-181217510D01*
X410495450Y-181325586D01*
X410507319Y-181470580D01*
X410511182Y-181662326D01*
X410511251Y-181699109D01*
X410511297Y-182112288D01*
X410419354Y-182144339D01*
X410354052Y-182166144D01*
X410318224Y-182176297D01*
X410317170Y-182176391D01*
X410313642Y-182148860D01*
X410310639Y-182072923D01*
X410308390Y-181958565D01*
X410307124Y-181815769D01*
X410306929Y-181728951D01*
X410306523Y-181557773D01*
X410304432Y-181435088D01*
X410299347Y-181351000D01*
X410289960Y-181295614D01*
X410274961Y-181259032D01*
X410253042Y-181231359D01*
X410239357Y-181218032D01*
X410145349Y-181164328D01*
X410042764Y-181160307D01*
X409949690Y-181205725D01*
X409932478Y-181222123D01*
X409907232Y-181252957D01*
X409889720Y-181289531D01*
X409878542Y-181342415D01*
X409872296Y-181422177D01*
X409869582Y-181539385D01*
X409868998Y-181700991D01*
X409868998Y-182112288D01*
X409777055Y-182144339D01*
X409711753Y-182166144D01*
X409675925Y-182176297D01*
X409674871Y-182176391D01*
X409672175Y-182148448D01*
X409669745Y-182069630D01*
X409667678Y-181947453D01*
X409666071Y-181789432D01*
X409665023Y-181603083D01*
X409664631Y-181395920D01*
X409664630Y-181386706D01*
X409664630Y-180597020D01*
X409759515Y-180556997D01*
X409854400Y-180516973D01*
X409868998Y-180761857D01*
G36*
X407439952Y-180922676D02*
G01*
X407555058Y-181000111D01*
X407644011Y-181111949D01*
X407697149Y-181254265D01*
X407707897Y-181359015D01*
X407706676Y-181402726D01*
X407696456Y-181436194D01*
X407668361Y-181466179D01*
X407613516Y-181499440D01*
X407523045Y-181542738D01*
X407388072Y-181602833D01*
X407387389Y-181603134D01*
X407263151Y-181660037D01*
X407161273Y-181710565D01*
X407092167Y-181749280D01*
X407066246Y-181770740D01*
X407066239Y-181770913D01*
X407089085Y-181817644D01*
X407142509Y-181869154D01*
X407203842Y-181906261D01*
X407234915Y-181913632D01*
X407319689Y-181888138D01*
X407392693Y-181824291D01*
X407428313Y-181754094D01*
X407462580Y-181702343D01*
X407529703Y-181643409D01*
X407608608Y-181592496D01*
X407678221Y-181564809D01*
X407692777Y-181563287D01*
X407709163Y-181588321D01*
X407710150Y-181652311D01*
X407698108Y-181738593D01*
X407675407Y-181830501D01*
X407644414Y-181911369D01*
X407642848Y-181914509D01*
X407549581Y-182044734D01*
X407428704Y-182133311D01*
X407291427Y-182176786D01*
X407148960Y-182171706D01*
X407012512Y-182114616D01*
X407006445Y-182110602D01*
X406899110Y-182013326D01*
X406828532Y-181886409D01*
X406789474Y-181719526D01*
X406784232Y-181672639D01*
X406774948Y-181451329D01*
X406786078Y-181348124D01*
X407066239Y-181348124D01*
X407069879Y-181412503D01*
X407089789Y-181431291D01*
X407139426Y-181417235D01*
X407217667Y-181384009D01*
X407305126Y-181342359D01*
X407307299Y-181341256D01*
X407381430Y-181302265D01*
X407411181Y-181276244D01*
X407403845Y-181248965D01*
X407372953Y-181213121D01*
X407294360Y-181161251D01*
X407209723Y-181157439D01*
X407133803Y-181195189D01*
X407081365Y-181268001D01*
X407066239Y-181348124D01*
X406786078Y-181348124D01*
X406794044Y-181274261D01*
X406843034Y-181133829D01*
X406911236Y-181035447D01*
X407034335Y-180936030D01*
X407169928Y-180886711D01*
X407308355Y-180883568D01*
X407439952Y-180922676D01*
G37*
X407439952Y-180922676D02*
X407555058Y-181000111D01*
X407644011Y-181111949D01*
X407697149Y-181254265D01*
X407707897Y-181359015D01*
X407706676Y-181402726D01*
X407696456Y-181436194D01*
X407668361Y-181466179D01*
X407613516Y-181499440D01*
X407523045Y-181542738D01*
X407388072Y-181602833D01*
X407387389Y-181603134D01*
X407263151Y-181660037D01*
X407161273Y-181710565D01*
X407092167Y-181749280D01*
X407066246Y-181770740D01*
X407066239Y-181770913D01*
X407089085Y-181817644D01*
X407142509Y-181869154D01*
X407203842Y-181906261D01*
X407234915Y-181913632D01*
X407319689Y-181888138D01*
X407392693Y-181824291D01*
X407428313Y-181754094D01*
X407462580Y-181702343D01*
X407529703Y-181643409D01*
X407608608Y-181592496D01*
X407678221Y-181564809D01*
X407692777Y-181563287D01*
X407709163Y-181588321D01*
X407710150Y-181652311D01*
X407698108Y-181738593D01*
X407675407Y-181830501D01*
X407644414Y-181911369D01*
X407642848Y-181914509D01*
X407549581Y-182044734D01*
X407428704Y-182133311D01*
X407291427Y-182176786D01*
X407148960Y-182171706D01*
X407012512Y-182114616D01*
X407006445Y-182110602D01*
X406899110Y-182013326D01*
X406828532Y-181886409D01*
X406789474Y-181719526D01*
X406784232Y-181672639D01*
X406774948Y-181451329D01*
X406786078Y-181348124D01*
X407066239Y-181348124D01*
X407069879Y-181412503D01*
X407089789Y-181431291D01*
X407139426Y-181417235D01*
X407217667Y-181384009D01*
X407305126Y-181342359D01*
X407307299Y-181341256D01*
X407381430Y-181302265D01*
X407411181Y-181276244D01*
X407403845Y-181248965D01*
X407372953Y-181213121D01*
X407294360Y-181161251D01*
X407209723Y-181157439D01*
X407133803Y-181195189D01*
X407081365Y-181268001D01*
X407066239Y-181348124D01*
X406786078Y-181348124D01*
X406794044Y-181274261D01*
X406843034Y-181133829D01*
X406911236Y-181035447D01*
X407034335Y-180936030D01*
X407169928Y-180886711D01*
X407308355Y-180883568D01*
X407439952Y-180922676D01*
G36*
X405172621Y-180904015D02*
G01*
X405309461Y-180975968D01*
X405410451Y-181091766D01*
X405446325Y-181166213D01*
X405474239Y-181277992D01*
X405488529Y-181419227D01*
X405489884Y-181573371D01*
X405478995Y-181723879D01*
X405456553Y-181854205D01*
X405423250Y-181947803D01*
X405413015Y-181963922D01*
X405291782Y-182084249D01*
X405147787Y-182156317D01*
X404991539Y-182177408D01*
X404833548Y-182144802D01*
X404789580Y-182125253D01*
X404703956Y-182065012D01*
X404628808Y-181985135D01*
X404621706Y-181975004D01*
X404592839Y-181926181D01*
X404573757Y-181873990D01*
X404562484Y-181805285D01*
X404557045Y-181706918D01*
X404555462Y-181565744D01*
X404555435Y-181534092D01*
X404555507Y-181524019D01*
X404847389Y-181524019D01*
X404849087Y-181657256D01*
X404855772Y-181745674D01*
X404869825Y-181802785D01*
X404893629Y-181842102D01*
X404905779Y-181855241D01*
X404975636Y-181905172D01*
X405043459Y-181902895D01*
X405112035Y-181859584D01*
X405152935Y-181813346D01*
X405177158Y-181745857D01*
X405190761Y-181639433D01*
X405191694Y-181627020D01*
X405194016Y-181434147D01*
X405169750Y-181290900D01*
X405119224Y-181198160D01*
X405042768Y-181156807D01*
X405015476Y-181154552D01*
X404943811Y-181165893D01*
X404894790Y-181205184D01*
X404864818Y-181280326D01*
X404850299Y-181399222D01*
X404847389Y-181524019D01*
X404555507Y-181524019D01*
X404556522Y-181383659D01*
X404561088Y-181278549D01*
X404571088Y-181205714D01*
X404588479Y-181152108D01*
X404615216Y-181104681D01*
X404621124Y-181095864D01*
X404720432Y-180977007D01*
X404828642Y-180908008D01*
X404960381Y-180880619D01*
X405005117Y-180879281D01*
X405172621Y-180904015D01*
G37*
X405172621Y-180904015D02*
X405309461Y-180975968D01*
X405410451Y-181091766D01*
X405446325Y-181166213D01*
X405474239Y-181277992D01*
X405488529Y-181419227D01*
X405489884Y-181573371D01*
X405478995Y-181723879D01*
X405456553Y-181854205D01*
X405423250Y-181947803D01*
X405413015Y-181963922D01*
X405291782Y-182084249D01*
X405147787Y-182156317D01*
X404991539Y-182177408D01*
X404833548Y-182144802D01*
X404789580Y-182125253D01*
X404703956Y-182065012D01*
X404628808Y-181985135D01*
X404621706Y-181975004D01*
X404592839Y-181926181D01*
X404573757Y-181873990D01*
X404562484Y-181805285D01*
X404557045Y-181706918D01*
X404555462Y-181565744D01*
X404555435Y-181534092D01*
X404555507Y-181524019D01*
X404847389Y-181524019D01*
X404849087Y-181657256D01*
X404855772Y-181745674D01*
X404869825Y-181802785D01*
X404893629Y-181842102D01*
X404905779Y-181855241D01*
X404975636Y-181905172D01*
X405043459Y-181902895D01*
X405112035Y-181859584D01*
X405152935Y-181813346D01*
X405177158Y-181745857D01*
X405190761Y-181639433D01*
X405191694Y-181627020D01*
X405194016Y-181434147D01*
X405169750Y-181290900D01*
X405119224Y-181198160D01*
X405042768Y-181156807D01*
X405015476Y-181154552D01*
X404943811Y-181165893D01*
X404894790Y-181205184D01*
X404864818Y-181280326D01*
X404850299Y-181399222D01*
X404847389Y-181524019D01*
X404555507Y-181524019D01*
X404556522Y-181383659D01*
X404561088Y-181278549D01*
X404571088Y-181205714D01*
X404588479Y-181152108D01*
X404615216Y-181104681D01*
X404621124Y-181095864D01*
X404720432Y-180977007D01*
X404828642Y-180908008D01*
X404960381Y-180880619D01*
X405005117Y-180879281D01*
X405172621Y-180904015D01*
G36*
X408541829Y-180915719D02*
G01*
X408635523Y-180969914D01*
X408700664Y-181023707D01*
X408748307Y-181080066D01*
X408781128Y-181148987D01*
X408801806Y-181240468D01*
X408813020Y-181364506D01*
X408817449Y-181531098D01*
X408817963Y-181650851D01*
X408817963Y-182091659D01*
X408693883Y-182147283D01*
X408569802Y-182202907D01*
X408555205Y-181720095D01*
X408549173Y-181539779D01*
X408542845Y-181408901D01*
X408535006Y-181318511D01*
X408524437Y-181259664D01*
X408509923Y-181223413D01*
X408490248Y-181200810D01*
X408483935Y-181195917D01*
X408388288Y-181157706D01*
X408291607Y-181172827D01*
X408234055Y-181212943D01*
X408210645Y-181241370D01*
X408194439Y-181278672D01*
X408184141Y-181335223D01*
X408178449Y-181421394D01*
X408176064Y-181547558D01*
X408175664Y-181679042D01*
X408175586Y-181843999D01*
X408172761Y-181960761D01*
X408163307Y-182039510D01*
X408143340Y-182090431D01*
X408108976Y-182123706D01*
X408056332Y-182149520D01*
X407986017Y-182176344D01*
X407909220Y-182205542D01*
X407918362Y-181687346D01*
X407922043Y-181500539D01*
X407926350Y-181362490D01*
X407932523Y-181263568D01*
X407941802Y-181194145D01*
X407955427Y-181144590D01*
X407974639Y-181105273D01*
X407997802Y-181070584D01*
X408109552Y-180959770D01*
X408245913Y-180895689D01*
X408394225Y-180880339D01*
X408541829Y-180915719D01*
G37*
X408541829Y-180915719D02*
X408635523Y-180969914D01*
X408700664Y-181023707D01*
X408748307Y-181080066D01*
X408781128Y-181148987D01*
X408801806Y-181240468D01*
X408813020Y-181364506D01*
X408817449Y-181531098D01*
X408817963Y-181650851D01*
X408817963Y-182091659D01*
X408693883Y-182147283D01*
X408569802Y-182202907D01*
X408555205Y-181720095D01*
X408549173Y-181539779D01*
X408542845Y-181408901D01*
X408535006Y-181318511D01*
X408524437Y-181259664D01*
X408509923Y-181223413D01*
X408490248Y-181200810D01*
X408483935Y-181195917D01*
X408388288Y-181157706D01*
X408291607Y-181172827D01*
X408234055Y-181212943D01*
X408210645Y-181241370D01*
X408194439Y-181278672D01*
X408184141Y-181335223D01*
X408178449Y-181421394D01*
X408176064Y-181547558D01*
X408175664Y-181679042D01*
X408175586Y-181843999D01*
X408172761Y-181960761D01*
X408163307Y-182039510D01*
X408143340Y-182090431D01*
X408108976Y-182123706D01*
X408056332Y-182149520D01*
X407986017Y-182176344D01*
X407909220Y-182205542D01*
X407918362Y-181687346D01*
X407922043Y-181500539D01*
X407926350Y-181362490D01*
X407932523Y-181263568D01*
X407941802Y-181194145D01*
X407955427Y-181144590D01*
X407974639Y-181105273D01*
X407997802Y-181070584D01*
X408109552Y-180959770D01*
X408245913Y-180895689D01*
X408394225Y-180880339D01*
X408541829Y-180915719D01*
G36*
X406296300Y-180899903D02*
G01*
X406407850Y-180955522D01*
X406506308Y-181057931D01*
X406533423Y-181095864D01*
X406562962Y-181145500D01*
X406582128Y-181199412D01*
X406593093Y-181271364D01*
X406598029Y-181375122D01*
X406599113Y-181512101D01*
X406594218Y-181699815D01*
X406577204Y-181840758D01*
X406544577Y-181945908D01*
X406492842Y-182026243D01*
X406418504Y-182092741D01*
X406413042Y-182096678D01*
X406339780Y-182136953D01*
X406251560Y-182156880D01*
X406139362Y-182161793D01*
X405956967Y-182161793D01*
X405956891Y-182338857D01*
X405955193Y-182437470D01*
X405944850Y-182495314D01*
X405917822Y-182530006D01*
X405866068Y-182559164D01*
X405853639Y-182565121D01*
X405795477Y-182593039D01*
X405750444Y-182610672D01*
X405716959Y-182612194D01*
X405693438Y-182591781D01*
X405678300Y-182543607D01*
X405669963Y-182461846D01*
X405666844Y-182340672D01*
X405667360Y-182174260D01*
X405669929Y-181956785D01*
X405670732Y-181891736D01*
X405673622Y-181667502D01*
X405676212Y-181520821D01*
X405956814Y-181520821D01*
X405958391Y-181645326D01*
X405965400Y-181726787D01*
X405981258Y-181780515D01*
X406009381Y-181821823D01*
X406028475Y-181841971D01*
X406106535Y-181900921D01*
X406175647Y-181905720D01*
X406246960Y-181857038D01*
X406248768Y-181855241D01*
X406277783Y-181817618D01*
X406295433Y-181766484D01*
X406304336Y-181687738D01*
X406307109Y-181567276D01*
X406307159Y-181540588D01*
X406300458Y-181374583D01*
X406278648Y-181259505D01*
X406239165Y-181189254D01*
X406179444Y-181157729D01*
X406144928Y-181154552D01*
X406063011Y-181169460D01*
X406006821Y-181218548D01*
X405972998Y-181308362D01*
X405958180Y-181445445D01*
X405956814Y-181520821D01*
X405676212Y-181520821D01*
X405676687Y-181493952D01*
X405680647Y-181363382D01*
X405686226Y-181268087D01*
X405694146Y-181200364D01*
X405705131Y-181152507D01*
X405719901Y-181116813D01*
X405739182Y-181085578D01*
X405747449Y-181073824D01*
X405857112Y-180962797D01*
X405995765Y-180899847D01*
X406156154Y-180882297D01*
X406296300Y-180899903D01*
G37*
X406296300Y-180899903D02*
X406407850Y-180955522D01*
X406506308Y-181057931D01*
X406533423Y-181095864D01*
X406562962Y-181145500D01*
X406582128Y-181199412D01*
X406593093Y-181271364D01*
X406598029Y-181375122D01*
X406599113Y-181512101D01*
X406594218Y-181699815D01*
X406577204Y-181840758D01*
X406544577Y-181945908D01*
X406492842Y-182026243D01*
X406418504Y-182092741D01*
X406413042Y-182096678D01*
X406339780Y-182136953D01*
X406251560Y-182156880D01*
X406139362Y-182161793D01*
X405956967Y-182161793D01*
X405956891Y-182338857D01*
X405955193Y-182437470D01*
X405944850Y-182495314D01*
X405917822Y-182530006D01*
X405866068Y-182559164D01*
X405853639Y-182565121D01*
X405795477Y-182593039D01*
X405750444Y-182610672D01*
X405716959Y-182612194D01*
X405693438Y-182591781D01*
X405678300Y-182543607D01*
X405669963Y-182461846D01*
X405666844Y-182340672D01*
X405667360Y-182174260D01*
X405669929Y-181956785D01*
X405670732Y-181891736D01*
X405673622Y-181667502D01*
X405676212Y-181520821D01*
X405956814Y-181520821D01*
X405958391Y-181645326D01*
X405965400Y-181726787D01*
X405981258Y-181780515D01*
X406009381Y-181821823D01*
X406028475Y-181841971D01*
X406106535Y-181900921D01*
X406175647Y-181905720D01*
X406246960Y-181857038D01*
X406248768Y-181855241D01*
X406277783Y-181817618D01*
X406295433Y-181766484D01*
X406304336Y-181687738D01*
X406307109Y-181567276D01*
X406307159Y-181540588D01*
X406300458Y-181374583D01*
X406278648Y-181259505D01*
X406239165Y-181189254D01*
X406179444Y-181157729D01*
X406144928Y-181154552D01*
X406063011Y-181169460D01*
X406006821Y-181218548D01*
X405972998Y-181308362D01*
X405958180Y-181445445D01*
X405956814Y-181520821D01*
X405676212Y-181520821D01*
X405676687Y-181493952D01*
X405680647Y-181363382D01*
X405686226Y-181268087D01*
X405694146Y-181200364D01*
X405705131Y-181152507D01*
X405719901Y-181116813D01*
X405739182Y-181085578D01*
X405747449Y-181073824D01*
X405857112Y-180962797D01*
X405995765Y-180899847D01*
X406156154Y-180882297D01*
X406296300Y-180899903D01*
D17*
X371077600Y-207060800D02*
X371077600Y-140004800D01*
X371077600Y-207060800D02*
X388077600Y-207060800D01*
X388077600Y-207060800D02*
X388077600Y-140004800D01*
X388077600Y-140004800D02*
X371077600Y-140004800D01*
D12*
X384657600Y-194868800D02*
X384657600Y-152196800D01*
X384657600Y-152196800D02*
X373888000Y-152196800D01*
X373888000Y-152196800D02*
X373888000Y-194513200D01*
X384657600Y-194868800D02*
X379577600Y-194868800D01*
X379577600Y-194868800D02*
X375716800Y-196291200D01*
X375615200Y-196291200D02*
G75*
G02*
X373938631Y-194146099I-50969J1687901D01*
G01*
X342392000Y-194818000D02*
X338531200Y-196240400D01*
X347472000Y-194818000D02*
X342392000Y-194818000D01*
X336702400Y-152146000D02*
X336702400Y-194462400D01*
X347472000Y-152146000D02*
X336702400Y-152146000D01*
X347472000Y-194818000D02*
X347472000Y-152146000D01*
D17*
X350892000Y-139954000D02*
X333892000Y-139954000D01*
X350892000Y-207010000D02*
X350892000Y-139954000D01*
X333892000Y-207010000D02*
X350892000Y-207010000D01*
X333892000Y-207010000D02*
X333892000Y-139954000D01*
D12*
X338429600Y-196240400D02*
G75*
G02*
X336753031Y-194095299I-50969J1687901D01*
G01*
X305206400Y-194818000D02*
X301345600Y-196240400D01*
X310286400Y-194818000D02*
X305206400Y-194818000D01*
X299516800Y-152146000D02*
X299516800Y-194462400D01*
X310286400Y-152146000D02*
X299516800Y-152146000D01*
X310286400Y-194818000D02*
X310286400Y-152146000D01*
D17*
X313706400Y-139954000D02*
X296706400Y-139954000D01*
X313706400Y-207010000D02*
X313706400Y-139954000D01*
X296706400Y-207010000D02*
X313706400Y-207010000D01*
X296706400Y-207010000D02*
X296706400Y-139954000D01*
D12*
X301244000Y-196240400D02*
G75*
G02*
X299567431Y-194095299I-50969J1687901D01*
G01*
X268020800Y-194818000D02*
X264160000Y-196240400D01*
X273100800Y-194818000D02*
X268020800Y-194818000D01*
X262331200Y-152146000D02*
X262331200Y-194462400D01*
X273100800Y-152146000D02*
X262331200Y-152146000D01*
X273100800Y-194818000D02*
X273100800Y-152146000D01*
D17*
X276520800Y-139954000D02*
X259520800Y-139954000D01*
X276520800Y-207010000D02*
X276520800Y-139954000D01*
X259520800Y-207010000D02*
X276520800Y-207010000D01*
X259520800Y-207010000D02*
X259520800Y-139954000D01*
D12*
X264058400Y-196240400D02*
G75*
G02*
X262381831Y-194095299I-50969J1687901D01*
G01*
X230936800Y-194868800D02*
X227076000Y-196291200D01*
X236016800Y-194868800D02*
X230936800Y-194868800D01*
X225247200Y-152196800D02*
X225247200Y-194513200D01*
X236016800Y-152196800D02*
X225247200Y-152196800D01*
X236016800Y-194868800D02*
X236016800Y-152196800D01*
D17*
X239436800Y-140004800D02*
X222436800Y-140004800D01*
X239436800Y-207060800D02*
X239436800Y-140004800D01*
X222436800Y-207060800D02*
X239436800Y-207060800D01*
X222436800Y-207060800D02*
X222436800Y-140004800D01*
D12*
X226974400Y-196291200D02*
G75*
G02*
X225297831Y-194146099I-50969J1687901D01*
G01*
X193751200Y-194919600D02*
X189890400Y-196342000D01*
X198831200Y-194919600D02*
X193751200Y-194919600D01*
X188061600Y-152247600D02*
X188061600Y-194564000D01*
X198831200Y-152247600D02*
X188061600Y-152247600D01*
X198831200Y-194919600D02*
X198831200Y-152247600D01*
D17*
X202251200Y-140055600D02*
X185251200Y-140055600D01*
X202251200Y-207111600D02*
X202251200Y-140055600D01*
X185251200Y-207111600D02*
X202251200Y-207111600D01*
X185251200Y-207111600D02*
X185251200Y-140055600D01*
D12*
X189788800Y-196342000D02*
G75*
G02*
X188112231Y-194196899I-50969J1687901D01*
G01*
D15*
X380326800Y-209881800D02*
X378041800Y-209881800D01*
X378041800Y-209881800D02*
X378041800Y-211351800D01*
X378041800Y-211351800D02*
X380326800Y-211351800D01*
X380225200Y-136221800D02*
X377940200Y-136221800D01*
X377940200Y-136221800D02*
X377940200Y-137691800D01*
X377940200Y-137691800D02*
X380225200Y-137691800D01*
X343090400Y-209831000D02*
X340805400Y-209831000D01*
X340805400Y-209831000D02*
X340805400Y-211301000D01*
X340805400Y-211301000D02*
X343090400Y-211301000D01*
X343090400Y-136171000D02*
X340805400Y-136171000D01*
X340805400Y-136171000D02*
X340805400Y-137641000D01*
X340805400Y-137641000D02*
X343090400Y-137641000D01*
X305930300Y-209881800D02*
X303645300Y-209881800D01*
X303645300Y-209881800D02*
X303645300Y-211351800D01*
X303645300Y-211351800D02*
X305930300Y-211351800D01*
X305904800Y-136120200D02*
X303619800Y-136120200D01*
X303619800Y-136120200D02*
X303619800Y-137590200D01*
X303619800Y-137590200D02*
X305904800Y-137590200D01*
X268719200Y-209780200D02*
X266434200Y-209780200D01*
X266434200Y-209780200D02*
X266434200Y-211250200D01*
X266434200Y-211250200D02*
X268719200Y-211250200D01*
X268719200Y-136120200D02*
X266434200Y-136120200D01*
X266434200Y-136120200D02*
X266434200Y-137590200D01*
X266434200Y-137590200D02*
X268719200Y-137590200D01*
X231584400Y-209577000D02*
X229299400Y-209577000D01*
X229299400Y-209577000D02*
X229299400Y-211047000D01*
X229299400Y-211047000D02*
X231584400Y-211047000D01*
X231533600Y-135917000D02*
X229248600Y-135917000D01*
X229248600Y-135917000D02*
X229248600Y-137387000D01*
X229248600Y-137387000D02*
X231533600Y-137387000D01*
X194500400Y-209627800D02*
X192215400Y-209627800D01*
X192215400Y-209627800D02*
X192215400Y-211097800D01*
X192215400Y-211097800D02*
X194500400Y-211097800D01*
X194551200Y-135967800D02*
X192266200Y-135967800D01*
X192266200Y-135967800D02*
X192266200Y-137437800D01*
X192266200Y-137437800D02*
X194551200Y-137437800D01*
D14*
X413041100Y-140949680D02*
X419901100Y-140949680D01*
X419901100Y-132384800D02*
X419901100Y-145084800D01*
X413041100Y-132384800D02*
X419901100Y-132384800D01*
X413041100Y-145084800D02*
X413041100Y-132384800D01*
X419901100Y-145084800D02*
X413041100Y-145084800D01*
D12*
X119176800Y-194868800D02*
X115316000Y-196291200D01*
X124256800Y-194868800D02*
X119176800Y-194868800D01*
X113487200Y-152196800D02*
X113487200Y-194513200D01*
X124256800Y-152196800D02*
X113487200Y-152196800D01*
X124256800Y-194868800D02*
X124256800Y-152196800D01*
D17*
X127676800Y-140004800D02*
X110676800Y-140004800D01*
X127676800Y-207060800D02*
X127676800Y-140004800D01*
X110676800Y-207060800D02*
X127676800Y-207060800D01*
X110676800Y-207060800D02*
X110676800Y-140004800D01*
D12*
X115214400Y-196291200D02*
G75*
G02*
X113537831Y-194146099I-50969J1687901D01*
G01*
X156578300Y-194868800D02*
X152717500Y-196291200D01*
X161658300Y-194868800D02*
X156578300Y-194868800D01*
X150888700Y-152196800D02*
X150888700Y-194513200D01*
X161658300Y-152196800D02*
X150888700Y-152196800D01*
X161658300Y-194868800D02*
X161658300Y-152196800D01*
D17*
X165078300Y-140004800D02*
X148078300Y-140004800D01*
X165078300Y-207060800D02*
X165078300Y-140004800D01*
X148078300Y-207060800D02*
X165078300Y-207060800D01*
X148078300Y-207060800D02*
X148078300Y-140004800D01*
D12*
X152615900Y-196291200D02*
G75*
G02*
X150939331Y-194146099I-50969J1687901D01*
G01*
X441502800Y-194818000D02*
X437642000Y-196240400D01*
X446582800Y-194818000D02*
X441502800Y-194818000D01*
X435813200Y-152146000D02*
X435813200Y-194462400D01*
X446582800Y-152146000D02*
X435813200Y-152146000D01*
X446582800Y-194818000D02*
X446582800Y-152146000D01*
D17*
X450002800Y-139954000D02*
X433002800Y-139954000D01*
X450002800Y-207010000D02*
X450002800Y-139954000D01*
X433002800Y-207010000D02*
X450002800Y-207010000D01*
X433002800Y-207010000D02*
X433002800Y-139954000D01*
D12*
X437540400Y-196240400D02*
G75*
G02*
X435863831Y-194095299I-50969J1687901D01*
G01*
X479602800Y-194818000D02*
X475742000Y-196240400D01*
X484682800Y-194818000D02*
X479602800Y-194818000D01*
X473913200Y-152146000D02*
X473913200Y-194462400D01*
X484682800Y-152146000D02*
X473913200Y-152146000D01*
X484682800Y-194818000D02*
X484682800Y-152146000D01*
D17*
X488102800Y-139954000D02*
X471102800Y-139954000D01*
X488102800Y-207010000D02*
X488102800Y-139954000D01*
X471102800Y-207010000D02*
X488102800Y-207010000D01*
X471102800Y-207010000D02*
X471102800Y-139954000D01*
D12*
X475640400Y-196240400D02*
G75*
G02*
X473963831Y-194095299I-50969J1687901D01*
G01*
D15*
X119976800Y-135967800D02*
X117691800Y-135967800D01*
X117691800Y-135967800D02*
X117691800Y-137437800D01*
X117691800Y-137437800D02*
X119976800Y-137437800D01*
X119976800Y-209627800D02*
X117691800Y-209627800D01*
X117691800Y-209627800D02*
X117691800Y-211097800D01*
X117691800Y-211097800D02*
X119976800Y-211097800D01*
X155093300Y-137437800D02*
X157378300Y-137437800D01*
X155093300Y-135967800D02*
X155093300Y-137437800D01*
X157378300Y-135967800D02*
X155093300Y-135967800D01*
X157378300Y-209627800D02*
X155093300Y-209627800D01*
X155093300Y-209627800D02*
X155093300Y-211097800D01*
X155093300Y-211097800D02*
X157378300Y-211097800D01*
X397054400Y-130950600D02*
X397054400Y-133235600D01*
X398524400Y-130950600D02*
X397054400Y-130950600D01*
X398524400Y-133235600D02*
X398524400Y-130950600D01*
X392990400Y-130950600D02*
X392990400Y-133235600D01*
X394460400Y-130950600D02*
X392990400Y-130950600D01*
X394460400Y-133235600D02*
X394460400Y-130950600D01*
X307179900Y-253974300D02*
X307114900Y-253974300D01*
X307179900Y-250444300D02*
X307114900Y-250444300D01*
X313584900Y-253974300D02*
X313519900Y-253974300D01*
X313584900Y-250444300D02*
X313519900Y-250444300D01*
X313519900Y-249119300D02*
X313519900Y-250444300D01*
X307114900Y-250444300D02*
X307114900Y-253974300D01*
X313584900Y-250444300D02*
X313584900Y-253974300D01*
D14*
X348335600Y-255676400D02*
X348335600Y-255320800D01*
X348335600Y-252526800D02*
X348335600Y-252171200D01*
X343814400Y-252526800D02*
X343814400Y-252171200D01*
X343865200Y-255676400D02*
X343865200Y-255320800D01*
X343865200Y-255676400D02*
X348335600Y-255676400D01*
X343814400Y-252171200D02*
X348335600Y-252171200D01*
X465328000Y-232892600D02*
X465328000Y-229844600D01*
X458724000Y-232892600D02*
X458724000Y-229844600D01*
X458724000Y-228447600D02*
X458724000Y-228066600D01*
X458724000Y-228066600D02*
X465328000Y-228066600D01*
X465328000Y-228066600D02*
X465328000Y-228447600D01*
X465328000Y-234289600D02*
X465328000Y-234670600D01*
X465328000Y-234670600D02*
X458724000Y-234670600D01*
X458724000Y-234670600D02*
X458724000Y-234289600D01*
X453852000Y-242980600D02*
X453852000Y-239932600D01*
X447248000Y-242980600D02*
X447248000Y-239932600D01*
X447248000Y-238535600D02*
X447248000Y-238154600D01*
X447248000Y-238154600D02*
X453852000Y-238154600D01*
X453852000Y-238154600D02*
X453852000Y-238535600D01*
X453852000Y-244377600D02*
X453852000Y-244758600D01*
X453852000Y-244758600D02*
X447248000Y-244758600D01*
X447248000Y-244758600D02*
X447248000Y-244377600D01*
X465328000Y-243052600D02*
X465328000Y-240004600D01*
X458724000Y-243052600D02*
X458724000Y-240004600D01*
X458724000Y-238607600D02*
X458724000Y-238226600D01*
X458724000Y-238226600D02*
X465328000Y-238226600D01*
X465328000Y-238226600D02*
X465328000Y-238607600D01*
X465328000Y-244449600D02*
X465328000Y-244830600D01*
X465328000Y-244830600D02*
X458724000Y-244830600D01*
X458724000Y-244830600D02*
X458724000Y-244449600D01*
X458724000Y-254990600D02*
X458724000Y-254609600D01*
X465328000Y-254990600D02*
X458724000Y-254990600D01*
X465328000Y-254609600D02*
X465328000Y-254990600D01*
X465328000Y-248386600D02*
X465328000Y-248767600D01*
X458724000Y-248386600D02*
X465328000Y-248386600D01*
X458724000Y-248767600D02*
X458724000Y-248386600D01*
X458724000Y-253212600D02*
X458724000Y-250164600D01*
X465328000Y-253212600D02*
X465328000Y-250164600D01*
X470154000Y-244830600D02*
X470154000Y-244449600D01*
X476758000Y-244830600D02*
X470154000Y-244830600D01*
X476758000Y-244449600D02*
X476758000Y-244830600D01*
X476758000Y-238226600D02*
X476758000Y-238607600D01*
X470154000Y-238226600D02*
X476758000Y-238226600D01*
X470154000Y-238607600D02*
X470154000Y-238226600D01*
X470154000Y-243052600D02*
X470154000Y-240004600D01*
X476758000Y-243052600D02*
X476758000Y-240004600D01*
D15*
X333015900Y-254026800D02*
X327925900Y-254026800D01*
X333015900Y-253686800D02*
X333015900Y-254026800D01*
X333015900Y-251016800D02*
X330415900Y-251016800D01*
X333015900Y-251366800D02*
X333015900Y-251016800D01*
X328315983Y-254028536D02*
G75*
G03*
X332515900Y-254026800I2099917J101736D01*
G01*
X411494000Y-145019900D02*
X409754000Y-145019900D01*
X411494000Y-143279900D02*
X411494000Y-145019900D01*
X402054000Y-144779900D02*
X402054000Y-142779900D01*
X404854000Y-144779900D02*
X402054000Y-144779900D01*
X411254000Y-144779900D02*
X408454000Y-144779900D01*
X411254000Y-130179900D02*
X411254000Y-144779900D01*
X402054000Y-130179900D02*
X411254000Y-130179900D01*
X402054000Y-139179900D02*
X402054000Y-130179900D01*
D14*
X486260876Y-212202780D02*
X486260876Y-212917066D01*
X486213257Y-213059923D01*
X486118019Y-213155161D01*
X485975161Y-213202780D01*
X485879923Y-213202780D01*
X487260876Y-213202780D02*
X486689447Y-213202780D01*
X486975161Y-213202780D02*
X486975161Y-212202780D01*
X486879923Y-212345638D01*
X486784685Y-212440876D01*
X486689447Y-212488495D01*
X487641828Y-212298019D02*
X487689447Y-212250400D01*
X487784685Y-212202780D01*
X488022780Y-212202780D01*
X488118019Y-212250400D01*
X488165638Y-212298019D01*
X488213257Y-212393257D01*
X488213257Y-212488495D01*
X488165638Y-212631352D01*
X487594209Y-213202780D01*
X488213257Y-213202780D01*
X489079066Y-233491066D02*
X489555257Y-233491066D01*
X488983828Y-233776780D02*
X489317161Y-232776780D01*
X489650495Y-233776780D01*
X489983828Y-232776780D02*
X489983828Y-233586304D01*
X490031447Y-233681542D01*
X490079066Y-233729161D01*
X490174304Y-233776780D01*
X490364780Y-233776780D01*
X490460019Y-233729161D01*
X490507638Y-233681542D01*
X490555257Y-233586304D01*
X490555257Y-232776780D01*
X491031447Y-233776780D02*
X491031447Y-232776780D01*
X491269542Y-232776780D01*
X491412400Y-232824400D01*
X491507638Y-232919638D01*
X491555257Y-233014876D01*
X491602876Y-233205352D01*
X491602876Y-233348209D01*
X491555257Y-233538685D01*
X491507638Y-233633923D01*
X491412400Y-233729161D01*
X491269542Y-233776780D01*
X491031447Y-233776780D01*
X492031447Y-233776780D02*
X492031447Y-232776780D01*
X492698114Y-232776780D02*
X492888590Y-232776780D01*
X492983828Y-232824400D01*
X493079066Y-232919638D01*
X493126685Y-233110114D01*
X493126685Y-233443447D01*
X493079066Y-233633923D01*
X492983828Y-233729161D01*
X492888590Y-233776780D01*
X492698114Y-233776780D01*
X492602876Y-233729161D01*
X492507638Y-233633923D01*
X492460019Y-233443447D01*
X492460019Y-233110114D01*
X492507638Y-232919638D01*
X492602876Y-232824400D01*
X492698114Y-232776780D01*
X494507638Y-232776780D02*
X494698114Y-232776780D01*
X494793352Y-232824400D01*
X494888590Y-232919638D01*
X494936209Y-233110114D01*
X494936209Y-233443447D01*
X494888590Y-233633923D01*
X494793352Y-233729161D01*
X494698114Y-233776780D01*
X494507638Y-233776780D01*
X494412400Y-233729161D01*
X494317161Y-233633923D01*
X494269542Y-233443447D01*
X494269542Y-233110114D01*
X494317161Y-232919638D01*
X494412400Y-232824400D01*
X494507638Y-232776780D01*
X495364780Y-232776780D02*
X495364780Y-233586304D01*
X495412400Y-233681542D01*
X495460019Y-233729161D01*
X495555257Y-233776780D01*
X495745733Y-233776780D01*
X495840971Y-233729161D01*
X495888590Y-233681542D01*
X495936209Y-233586304D01*
X495936209Y-232776780D01*
X496269542Y-232776780D02*
X496840971Y-232776780D01*
X496555257Y-233776780D02*
X496555257Y-232776780D01*
X102517676Y-216774780D02*
X102517676Y-217489066D01*
X102470057Y-217631923D01*
X102374819Y-217727161D01*
X102231961Y-217774780D01*
X102136723Y-217774780D01*
X102946247Y-216870019D02*
X102993866Y-216822400D01*
X103089104Y-216774780D01*
X103327200Y-216774780D01*
X103422438Y-216822400D01*
X103470057Y-216870019D01*
X103517676Y-216965257D01*
X103517676Y-217060495D01*
X103470057Y-217203352D01*
X102898628Y-217774780D01*
X103517676Y-217774780D01*
X104136723Y-216774780D02*
X104231961Y-216774780D01*
X104327200Y-216822400D01*
X104374819Y-216870019D01*
X104422438Y-216965257D01*
X104470057Y-217155733D01*
X104470057Y-217393828D01*
X104422438Y-217584304D01*
X104374819Y-217679542D01*
X104327200Y-217727161D01*
X104231961Y-217774780D01*
X104136723Y-217774780D01*
X104041485Y-217727161D01*
X103993866Y-217679542D01*
X103946247Y-217584304D01*
X103898628Y-217393828D01*
X103898628Y-217155733D01*
X103946247Y-216965257D01*
X103993866Y-216870019D01*
X104041485Y-216822400D01*
X104136723Y-216774780D01*
X105557771Y-243209771D02*
X105891104Y-243209771D01*
X106033961Y-243733580D02*
X105557771Y-243733580D01*
X105557771Y-242733580D01*
X106033961Y-242733580D01*
X106367295Y-242733580D02*
X107033961Y-243733580D01*
X107033961Y-242733580D02*
X106367295Y-243733580D01*
X107272057Y-242733580D02*
X107843485Y-242733580D01*
X107557771Y-243733580D02*
X107557771Y-242733580D01*
X259762666Y-244359180D02*
X259762666Y-245073466D01*
X259715047Y-245216323D01*
X259619809Y-245311561D01*
X259476952Y-245359180D01*
X259381714Y-245359180D01*
X260667428Y-244359180D02*
X260476952Y-244359180D01*
X260381714Y-244406800D01*
X260334095Y-244454419D01*
X260238857Y-244597276D01*
X260191238Y-244787752D01*
X260191238Y-245168704D01*
X260238857Y-245263942D01*
X260286476Y-245311561D01*
X260381714Y-245359180D01*
X260572190Y-245359180D01*
X260667428Y-245311561D01*
X260715047Y-245263942D01*
X260762666Y-245168704D01*
X260762666Y-244930609D01*
X260715047Y-244835371D01*
X260667428Y-244787752D01*
X260572190Y-244740133D01*
X260381714Y-244740133D01*
X260286476Y-244787752D01*
X260238857Y-244835371D01*
X260191238Y-244930609D01*
X266398761Y-243863961D02*
X266541619Y-243911580D01*
X266779714Y-243911580D01*
X266874952Y-243863961D01*
X266922571Y-243816342D01*
X266970190Y-243721104D01*
X266970190Y-243625866D01*
X266922571Y-243530628D01*
X266874952Y-243483009D01*
X266779714Y-243435390D01*
X266589238Y-243387771D01*
X266494000Y-243340152D01*
X266446380Y-243292533D01*
X266398761Y-243197295D01*
X266398761Y-243102057D01*
X266446380Y-243006819D01*
X266494000Y-242959200D01*
X266589238Y-242911580D01*
X266827333Y-242911580D01*
X266970190Y-242959200D01*
X267398761Y-243911580D02*
X267398761Y-242911580D01*
X267636857Y-242911580D01*
X267779714Y-242959200D01*
X267874952Y-243054438D01*
X267922571Y-243149676D01*
X267970190Y-243340152D01*
X267970190Y-243483009D01*
X267922571Y-243673485D01*
X267874952Y-243768723D01*
X267779714Y-243863961D01*
X267636857Y-243911580D01*
X267398761Y-243911580D01*
X269732095Y-243816342D02*
X269684476Y-243863961D01*
X269541619Y-243911580D01*
X269446380Y-243911580D01*
X269303523Y-243863961D01*
X269208285Y-243768723D01*
X269160666Y-243673485D01*
X269113047Y-243483009D01*
X269113047Y-243340152D01*
X269160666Y-243149676D01*
X269208285Y-243054438D01*
X269303523Y-242959200D01*
X269446380Y-242911580D01*
X269541619Y-242911580D01*
X269684476Y-242959200D01*
X269732095Y-243006819D01*
X270113047Y-243625866D02*
X270589238Y-243625866D01*
X270017809Y-243911580D02*
X270351142Y-242911580D01*
X270684476Y-243911580D01*
X271589238Y-243911580D02*
X271255904Y-243435390D01*
X271017809Y-243911580D02*
X271017809Y-242911580D01*
X271398761Y-242911580D01*
X271494000Y-242959200D01*
X271541619Y-243006819D01*
X271589238Y-243102057D01*
X271589238Y-243244914D01*
X271541619Y-243340152D01*
X271494000Y-243387771D01*
X271398761Y-243435390D01*
X271017809Y-243435390D01*
X272017809Y-243911580D02*
X272017809Y-242911580D01*
X272255904Y-242911580D01*
X272398761Y-242959200D01*
X272494000Y-243054438D01*
X272541619Y-243149676D01*
X272589238Y-243340152D01*
X272589238Y-243483009D01*
X272541619Y-243673485D01*
X272494000Y-243768723D01*
X272398761Y-243863961D01*
X272255904Y-243911580D01*
X272017809Y-243911580D01*
X286245695Y-249795180D02*
X286245695Y-248795180D01*
X286245695Y-249271371D02*
X286817123Y-249271371D01*
X286817123Y-249795180D02*
X286817123Y-248795180D01*
X287721885Y-248795180D02*
X287531409Y-248795180D01*
X287436171Y-248842800D01*
X287388552Y-248890419D01*
X287293314Y-249033276D01*
X287245695Y-249223752D01*
X287245695Y-249604704D01*
X287293314Y-249699942D01*
X287340933Y-249747561D01*
X287436171Y-249795180D01*
X287626647Y-249795180D01*
X287721885Y-249747561D01*
X287769504Y-249699942D01*
X287817123Y-249604704D01*
X287817123Y-249366609D01*
X287769504Y-249271371D01*
X287721885Y-249223752D01*
X287626647Y-249176133D01*
X287436171Y-249176133D01*
X287340933Y-249223752D01*
X287293314Y-249271371D01*
X287245695Y-249366609D01*
D18*
X383975428Y-210341028D02*
X383975428Y-208817028D01*
X384701142Y-210341028D02*
X384701142Y-208817028D01*
X385572000Y-210341028D01*
X385572000Y-208817028D01*
X387676571Y-209470171D02*
X387531428Y-209397600D01*
X387458857Y-209325028D01*
X387386285Y-209179885D01*
X387386285Y-209107314D01*
X387458857Y-208962171D01*
X387531428Y-208889600D01*
X387676571Y-208817028D01*
X387966857Y-208817028D01*
X388112000Y-208889600D01*
X388184571Y-208962171D01*
X388257142Y-209107314D01*
X388257142Y-209179885D01*
X388184571Y-209325028D01*
X388112000Y-209397600D01*
X387966857Y-209470171D01*
X387676571Y-209470171D01*
X387531428Y-209542742D01*
X387458857Y-209615314D01*
X387386285Y-209760457D01*
X387386285Y-210050742D01*
X387458857Y-210195885D01*
X387531428Y-210268457D01*
X387676571Y-210341028D01*
X387966857Y-210341028D01*
X388112000Y-210268457D01*
X388184571Y-210195885D01*
X388257142Y-210050742D01*
X388257142Y-209760457D01*
X388184571Y-209615314D01*
X388112000Y-209542742D01*
X387966857Y-209470171D01*
X346789828Y-210341028D02*
X346789828Y-208817028D01*
X347515542Y-210341028D02*
X347515542Y-208817028D01*
X348386400Y-210341028D01*
X348386400Y-208817028D01*
X350128114Y-208817028D02*
X351144114Y-208817028D01*
X350490971Y-210341028D01*
X309655028Y-210442628D02*
X309655028Y-208918628D01*
X310380742Y-210442628D02*
X310380742Y-208918628D01*
X311251600Y-210442628D01*
X311251600Y-208918628D01*
X313791600Y-208918628D02*
X313501314Y-208918628D01*
X313356171Y-208991200D01*
X313283600Y-209063771D01*
X313138457Y-209281485D01*
X313065885Y-209571771D01*
X313065885Y-210152342D01*
X313138457Y-210297485D01*
X313211028Y-210370057D01*
X313356171Y-210442628D01*
X313646457Y-210442628D01*
X313791600Y-210370057D01*
X313864171Y-210297485D01*
X313936742Y-210152342D01*
X313936742Y-209789485D01*
X313864171Y-209644342D01*
X313791600Y-209571771D01*
X313646457Y-209499200D01*
X313356171Y-209499200D01*
X313211028Y-209571771D01*
X313138457Y-209644342D01*
X313065885Y-209789485D01*
X272418628Y-210544228D02*
X272418628Y-209020228D01*
X273144342Y-210544228D02*
X273144342Y-209020228D01*
X274015200Y-210544228D01*
X274015200Y-209020228D01*
X276627771Y-209020228D02*
X275902057Y-209020228D01*
X275829485Y-209745942D01*
X275902057Y-209673371D01*
X276047200Y-209600800D01*
X276410057Y-209600800D01*
X276555200Y-209673371D01*
X276627771Y-209745942D01*
X276700342Y-209891085D01*
X276700342Y-210253942D01*
X276627771Y-210399085D01*
X276555200Y-210471657D01*
X276410057Y-210544228D01*
X276047200Y-210544228D01*
X275902057Y-210471657D01*
X275829485Y-210399085D01*
X235436228Y-210849028D02*
X235436228Y-209325028D01*
X236161942Y-210849028D02*
X236161942Y-209325028D01*
X237032800Y-210849028D01*
X237032800Y-209325028D01*
X239572800Y-209833028D02*
X239572800Y-210849028D01*
X239209942Y-209252457D02*
X238847085Y-210341028D01*
X239790514Y-210341028D01*
X198047428Y-210747428D02*
X198047428Y-209223428D01*
X198773142Y-210747428D02*
X198773142Y-209223428D01*
X199644000Y-210747428D01*
X199644000Y-209223428D01*
X201385714Y-209223428D02*
X202329142Y-209223428D01*
X201821142Y-209804000D01*
X202038857Y-209804000D01*
X202184000Y-209876571D01*
X202256571Y-209949142D01*
X202329142Y-210094285D01*
X202329142Y-210457142D01*
X202256571Y-210602285D01*
X202184000Y-210674857D01*
X202038857Y-210747428D01*
X201603428Y-210747428D01*
X201458285Y-210674857D01*
X201385714Y-210602285D01*
D14*
X285496095Y-131024780D02*
X285496095Y-130024780D01*
X285496095Y-130500971D02*
X286067523Y-130500971D01*
X286067523Y-131024780D02*
X286067523Y-130024780D01*
X287019904Y-130024780D02*
X286543714Y-130024780D01*
X286496095Y-130500971D01*
X286543714Y-130453352D01*
X286638952Y-130405733D01*
X286877047Y-130405733D01*
X286972285Y-130453352D01*
X287019904Y-130500971D01*
X287067523Y-130596209D01*
X287067523Y-130834304D01*
X287019904Y-130929542D01*
X286972285Y-130977161D01*
X286877047Y-131024780D01*
X286638952Y-131024780D01*
X286543714Y-130977161D01*
X286496095Y-130929542D01*
X377683923Y-212694780D02*
X377683923Y-211694780D01*
X377922019Y-211694780D01*
X378064876Y-211742400D01*
X378160114Y-211837638D01*
X378207733Y-211932876D01*
X378255352Y-212123352D01*
X378255352Y-212266209D01*
X378207733Y-212456685D01*
X378160114Y-212551923D01*
X378064876Y-212647161D01*
X377922019Y-212694780D01*
X377683923Y-212694780D01*
X379207733Y-212694780D02*
X378636304Y-212694780D01*
X378922019Y-212694780D02*
X378922019Y-211694780D01*
X378826780Y-211837638D01*
X378731542Y-211932876D01*
X378636304Y-211980495D01*
X379826780Y-211694780D02*
X379922019Y-211694780D01*
X380017257Y-211742400D01*
X380064876Y-211790019D01*
X380112495Y-211885257D01*
X380160114Y-212075733D01*
X380160114Y-212313828D01*
X380112495Y-212504304D01*
X380064876Y-212599542D01*
X380017257Y-212647161D01*
X379922019Y-212694780D01*
X379826780Y-212694780D01*
X379731542Y-212647161D01*
X379683923Y-212599542D01*
X379636304Y-212504304D01*
X379588685Y-212313828D01*
X379588685Y-212075733D01*
X379636304Y-211885257D01*
X379683923Y-211790019D01*
X379731542Y-211742400D01*
X379826780Y-211694780D01*
X380493447Y-211694780D02*
X381112495Y-211694780D01*
X380779161Y-212075733D01*
X380922019Y-212075733D01*
X381017257Y-212123352D01*
X381064876Y-212170971D01*
X381112495Y-212266209D01*
X381112495Y-212504304D01*
X381064876Y-212599542D01*
X381017257Y-212647161D01*
X380922019Y-212694780D01*
X380636304Y-212694780D01*
X380541066Y-212647161D01*
X380493447Y-212599542D01*
X377633123Y-139034780D02*
X377633123Y-138034780D01*
X377871219Y-138034780D01*
X378014076Y-138082400D01*
X378109314Y-138177638D01*
X378156933Y-138272876D01*
X378204552Y-138463352D01*
X378204552Y-138606209D01*
X378156933Y-138796685D01*
X378109314Y-138891923D01*
X378014076Y-138987161D01*
X377871219Y-139034780D01*
X377633123Y-139034780D01*
X379156933Y-139034780D02*
X378585504Y-139034780D01*
X378871219Y-139034780D02*
X378871219Y-138034780D01*
X378775980Y-138177638D01*
X378680742Y-138272876D01*
X378585504Y-138320495D01*
X379775980Y-138034780D02*
X379871219Y-138034780D01*
X379966457Y-138082400D01*
X380014076Y-138130019D01*
X380061695Y-138225257D01*
X380109314Y-138415733D01*
X380109314Y-138653828D01*
X380061695Y-138844304D01*
X380014076Y-138939542D01*
X379966457Y-138987161D01*
X379871219Y-139034780D01*
X379775980Y-139034780D01*
X379680742Y-138987161D01*
X379633123Y-138939542D01*
X379585504Y-138844304D01*
X379537885Y-138653828D01*
X379537885Y-138415733D01*
X379585504Y-138225257D01*
X379633123Y-138130019D01*
X379680742Y-138082400D01*
X379775980Y-138034780D01*
X380490266Y-138130019D02*
X380537885Y-138082400D01*
X380633123Y-138034780D01*
X380871219Y-138034780D01*
X380966457Y-138082400D01*
X381014076Y-138130019D01*
X381061695Y-138225257D01*
X381061695Y-138320495D01*
X381014076Y-138463352D01*
X380442647Y-139034780D01*
X381061695Y-139034780D01*
X340974514Y-212643980D02*
X340974514Y-211643980D01*
X341212609Y-211643980D01*
X341355466Y-211691600D01*
X341450704Y-211786838D01*
X341498323Y-211882076D01*
X341545942Y-212072552D01*
X341545942Y-212215409D01*
X341498323Y-212405885D01*
X341450704Y-212501123D01*
X341355466Y-212596361D01*
X341212609Y-212643980D01*
X340974514Y-212643980D01*
X342022133Y-212643980D02*
X342212609Y-212643980D01*
X342307847Y-212596361D01*
X342355466Y-212548742D01*
X342450704Y-212405885D01*
X342498323Y-212215409D01*
X342498323Y-211834457D01*
X342450704Y-211739219D01*
X342403085Y-211691600D01*
X342307847Y-211643980D01*
X342117371Y-211643980D01*
X342022133Y-211691600D01*
X341974514Y-211739219D01*
X341926895Y-211834457D01*
X341926895Y-212072552D01*
X341974514Y-212167790D01*
X342022133Y-212215409D01*
X342117371Y-212263028D01*
X342307847Y-212263028D01*
X342403085Y-212215409D01*
X342450704Y-212167790D01*
X342498323Y-212072552D01*
X342831657Y-211643980D02*
X343450704Y-211643980D01*
X343117371Y-212024933D01*
X343260228Y-212024933D01*
X343355466Y-212072552D01*
X343403085Y-212120171D01*
X343450704Y-212215409D01*
X343450704Y-212453504D01*
X343403085Y-212548742D01*
X343355466Y-212596361D01*
X343260228Y-212643980D01*
X342974514Y-212643980D01*
X342879276Y-212596361D01*
X342831657Y-212548742D01*
X341025314Y-138933180D02*
X341025314Y-137933180D01*
X341263409Y-137933180D01*
X341406266Y-137980800D01*
X341501504Y-138076038D01*
X341549123Y-138171276D01*
X341596742Y-138361752D01*
X341596742Y-138504609D01*
X341549123Y-138695085D01*
X341501504Y-138790323D01*
X341406266Y-138885561D01*
X341263409Y-138933180D01*
X341025314Y-138933180D01*
X342072933Y-138933180D02*
X342263409Y-138933180D01*
X342358647Y-138885561D01*
X342406266Y-138837942D01*
X342501504Y-138695085D01*
X342549123Y-138504609D01*
X342549123Y-138123657D01*
X342501504Y-138028419D01*
X342453885Y-137980800D01*
X342358647Y-137933180D01*
X342168171Y-137933180D01*
X342072933Y-137980800D01*
X342025314Y-138028419D01*
X341977695Y-138123657D01*
X341977695Y-138361752D01*
X342025314Y-138456990D01*
X342072933Y-138504609D01*
X342168171Y-138552228D01*
X342358647Y-138552228D01*
X342453885Y-138504609D01*
X342501504Y-138456990D01*
X342549123Y-138361752D01*
X342930076Y-138028419D02*
X342977695Y-137980800D01*
X343072933Y-137933180D01*
X343311028Y-137933180D01*
X343406266Y-137980800D01*
X343453885Y-138028419D01*
X343501504Y-138123657D01*
X343501504Y-138218895D01*
X343453885Y-138361752D01*
X342882457Y-138933180D01*
X343501504Y-138933180D01*
X303839714Y-212745580D02*
X303839714Y-211745580D01*
X304077809Y-211745580D01*
X304220666Y-211793200D01*
X304315904Y-211888438D01*
X304363523Y-211983676D01*
X304411142Y-212174152D01*
X304411142Y-212317009D01*
X304363523Y-212507485D01*
X304315904Y-212602723D01*
X304220666Y-212697961D01*
X304077809Y-212745580D01*
X303839714Y-212745580D01*
X304982571Y-212174152D02*
X304887333Y-212126533D01*
X304839714Y-212078914D01*
X304792095Y-211983676D01*
X304792095Y-211936057D01*
X304839714Y-211840819D01*
X304887333Y-211793200D01*
X304982571Y-211745580D01*
X305173047Y-211745580D01*
X305268285Y-211793200D01*
X305315904Y-211840819D01*
X305363523Y-211936057D01*
X305363523Y-211983676D01*
X305315904Y-212078914D01*
X305268285Y-212126533D01*
X305173047Y-212174152D01*
X304982571Y-212174152D01*
X304887333Y-212221771D01*
X304839714Y-212269390D01*
X304792095Y-212364628D01*
X304792095Y-212555104D01*
X304839714Y-212650342D01*
X304887333Y-212697961D01*
X304982571Y-212745580D01*
X305173047Y-212745580D01*
X305268285Y-212697961D01*
X305315904Y-212650342D01*
X305363523Y-212555104D01*
X305363523Y-212364628D01*
X305315904Y-212269390D01*
X305268285Y-212221771D01*
X305173047Y-212174152D01*
X305696857Y-211745580D02*
X306315904Y-211745580D01*
X305982571Y-212126533D01*
X306125428Y-212126533D01*
X306220666Y-212174152D01*
X306268285Y-212221771D01*
X306315904Y-212317009D01*
X306315904Y-212555104D01*
X306268285Y-212650342D01*
X306220666Y-212697961D01*
X306125428Y-212745580D01*
X305839714Y-212745580D01*
X305744476Y-212697961D01*
X305696857Y-212650342D01*
X303839714Y-138983980D02*
X303839714Y-137983980D01*
X304077809Y-137983980D01*
X304220666Y-138031600D01*
X304315904Y-138126838D01*
X304363523Y-138222076D01*
X304411142Y-138412552D01*
X304411142Y-138555409D01*
X304363523Y-138745885D01*
X304315904Y-138841123D01*
X304220666Y-138936361D01*
X304077809Y-138983980D01*
X303839714Y-138983980D01*
X304982571Y-138412552D02*
X304887333Y-138364933D01*
X304839714Y-138317314D01*
X304792095Y-138222076D01*
X304792095Y-138174457D01*
X304839714Y-138079219D01*
X304887333Y-138031600D01*
X304982571Y-137983980D01*
X305173047Y-137983980D01*
X305268285Y-138031600D01*
X305315904Y-138079219D01*
X305363523Y-138174457D01*
X305363523Y-138222076D01*
X305315904Y-138317314D01*
X305268285Y-138364933D01*
X305173047Y-138412552D01*
X304982571Y-138412552D01*
X304887333Y-138460171D01*
X304839714Y-138507790D01*
X304792095Y-138603028D01*
X304792095Y-138793504D01*
X304839714Y-138888742D01*
X304887333Y-138936361D01*
X304982571Y-138983980D01*
X305173047Y-138983980D01*
X305268285Y-138936361D01*
X305315904Y-138888742D01*
X305363523Y-138793504D01*
X305363523Y-138603028D01*
X305315904Y-138507790D01*
X305268285Y-138460171D01*
X305173047Y-138412552D01*
X305744476Y-138079219D02*
X305792095Y-138031600D01*
X305887333Y-137983980D01*
X306125428Y-137983980D01*
X306220666Y-138031600D01*
X306268285Y-138079219D01*
X306315904Y-138174457D01*
X306315904Y-138269695D01*
X306268285Y-138412552D01*
X305696857Y-138983980D01*
X306315904Y-138983980D01*
X266603314Y-212643980D02*
X266603314Y-211643980D01*
X266841409Y-211643980D01*
X266984266Y-211691600D01*
X267079504Y-211786838D01*
X267127123Y-211882076D01*
X267174742Y-212072552D01*
X267174742Y-212215409D01*
X267127123Y-212405885D01*
X267079504Y-212501123D01*
X266984266Y-212596361D01*
X266841409Y-212643980D01*
X266603314Y-212643980D01*
X267508076Y-211643980D02*
X268174742Y-211643980D01*
X267746171Y-212643980D01*
X268460457Y-211643980D02*
X269079504Y-211643980D01*
X268746171Y-212024933D01*
X268889028Y-212024933D01*
X268984266Y-212072552D01*
X269031885Y-212120171D01*
X269079504Y-212215409D01*
X269079504Y-212453504D01*
X269031885Y-212548742D01*
X268984266Y-212596361D01*
X268889028Y-212643980D01*
X268603314Y-212643980D01*
X268508076Y-212596361D01*
X268460457Y-212548742D01*
X266603314Y-138983980D02*
X266603314Y-137983980D01*
X266841409Y-137983980D01*
X266984266Y-138031600D01*
X267079504Y-138126838D01*
X267127123Y-138222076D01*
X267174742Y-138412552D01*
X267174742Y-138555409D01*
X267127123Y-138745885D01*
X267079504Y-138841123D01*
X266984266Y-138936361D01*
X266841409Y-138983980D01*
X266603314Y-138983980D01*
X267508076Y-137983980D02*
X268174742Y-137983980D01*
X267746171Y-138983980D01*
X268508076Y-138079219D02*
X268555695Y-138031600D01*
X268650933Y-137983980D01*
X268889028Y-137983980D01*
X268984266Y-138031600D01*
X269031885Y-138079219D01*
X269079504Y-138174457D01*
X269079504Y-138269695D01*
X269031885Y-138412552D01*
X268460457Y-138983980D01*
X269079504Y-138983980D01*
X229417714Y-212440780D02*
X229417714Y-211440780D01*
X229655809Y-211440780D01*
X229798666Y-211488400D01*
X229893904Y-211583638D01*
X229941523Y-211678876D01*
X229989142Y-211869352D01*
X229989142Y-212012209D01*
X229941523Y-212202685D01*
X229893904Y-212297923D01*
X229798666Y-212393161D01*
X229655809Y-212440780D01*
X229417714Y-212440780D01*
X230846285Y-211440780D02*
X230655809Y-211440780D01*
X230560571Y-211488400D01*
X230512952Y-211536019D01*
X230417714Y-211678876D01*
X230370095Y-211869352D01*
X230370095Y-212250304D01*
X230417714Y-212345542D01*
X230465333Y-212393161D01*
X230560571Y-212440780D01*
X230751047Y-212440780D01*
X230846285Y-212393161D01*
X230893904Y-212345542D01*
X230941523Y-212250304D01*
X230941523Y-212012209D01*
X230893904Y-211916971D01*
X230846285Y-211869352D01*
X230751047Y-211821733D01*
X230560571Y-211821733D01*
X230465333Y-211869352D01*
X230417714Y-211916971D01*
X230370095Y-212012209D01*
X231274857Y-211440780D02*
X231893904Y-211440780D01*
X231560571Y-211821733D01*
X231703428Y-211821733D01*
X231798666Y-211869352D01*
X231846285Y-211916971D01*
X231893904Y-212012209D01*
X231893904Y-212250304D01*
X231846285Y-212345542D01*
X231798666Y-212393161D01*
X231703428Y-212440780D01*
X231417714Y-212440780D01*
X231322476Y-212393161D01*
X231274857Y-212345542D01*
X229519314Y-138729980D02*
X229519314Y-137729980D01*
X229757409Y-137729980D01*
X229900266Y-137777600D01*
X229995504Y-137872838D01*
X230043123Y-137968076D01*
X230090742Y-138158552D01*
X230090742Y-138301409D01*
X230043123Y-138491885D01*
X229995504Y-138587123D01*
X229900266Y-138682361D01*
X229757409Y-138729980D01*
X229519314Y-138729980D01*
X230947885Y-137729980D02*
X230757409Y-137729980D01*
X230662171Y-137777600D01*
X230614552Y-137825219D01*
X230519314Y-137968076D01*
X230471695Y-138158552D01*
X230471695Y-138539504D01*
X230519314Y-138634742D01*
X230566933Y-138682361D01*
X230662171Y-138729980D01*
X230852647Y-138729980D01*
X230947885Y-138682361D01*
X230995504Y-138634742D01*
X231043123Y-138539504D01*
X231043123Y-138301409D01*
X230995504Y-138206171D01*
X230947885Y-138158552D01*
X230852647Y-138110933D01*
X230662171Y-138110933D01*
X230566933Y-138158552D01*
X230519314Y-138206171D01*
X230471695Y-138301409D01*
X231424076Y-137825219D02*
X231471695Y-137777600D01*
X231566933Y-137729980D01*
X231805028Y-137729980D01*
X231900266Y-137777600D01*
X231947885Y-137825219D01*
X231995504Y-137920457D01*
X231995504Y-138015695D01*
X231947885Y-138158552D01*
X231376457Y-138729980D01*
X231995504Y-138729980D01*
X192486114Y-212745580D02*
X192486114Y-211745580D01*
X192724209Y-211745580D01*
X192867066Y-211793200D01*
X192962304Y-211888438D01*
X193009923Y-211983676D01*
X193057542Y-212174152D01*
X193057542Y-212317009D01*
X193009923Y-212507485D01*
X192962304Y-212602723D01*
X192867066Y-212697961D01*
X192724209Y-212745580D01*
X192486114Y-212745580D01*
X193962304Y-211745580D02*
X193486114Y-211745580D01*
X193438495Y-212221771D01*
X193486114Y-212174152D01*
X193581352Y-212126533D01*
X193819447Y-212126533D01*
X193914685Y-212174152D01*
X193962304Y-212221771D01*
X194009923Y-212317009D01*
X194009923Y-212555104D01*
X193962304Y-212650342D01*
X193914685Y-212697961D01*
X193819447Y-212745580D01*
X193581352Y-212745580D01*
X193486114Y-212697961D01*
X193438495Y-212650342D01*
X194343257Y-211745580D02*
X194962304Y-211745580D01*
X194628971Y-212126533D01*
X194771828Y-212126533D01*
X194867066Y-212174152D01*
X194914685Y-212221771D01*
X194962304Y-212317009D01*
X194962304Y-212555104D01*
X194914685Y-212650342D01*
X194867066Y-212697961D01*
X194771828Y-212745580D01*
X194486114Y-212745580D01*
X194390876Y-212697961D01*
X194343257Y-212650342D01*
X192638514Y-138983980D02*
X192638514Y-137983980D01*
X192876609Y-137983980D01*
X193019466Y-138031600D01*
X193114704Y-138126838D01*
X193162323Y-138222076D01*
X193209942Y-138412552D01*
X193209942Y-138555409D01*
X193162323Y-138745885D01*
X193114704Y-138841123D01*
X193019466Y-138936361D01*
X192876609Y-138983980D01*
X192638514Y-138983980D01*
X194114704Y-137983980D02*
X193638514Y-137983980D01*
X193590895Y-138460171D01*
X193638514Y-138412552D01*
X193733752Y-138364933D01*
X193971847Y-138364933D01*
X194067085Y-138412552D01*
X194114704Y-138460171D01*
X194162323Y-138555409D01*
X194162323Y-138793504D01*
X194114704Y-138888742D01*
X194067085Y-138936361D01*
X193971847Y-138983980D01*
X193733752Y-138983980D01*
X193638514Y-138936361D01*
X193590895Y-138888742D01*
X194543276Y-138079219D02*
X194590895Y-138031600D01*
X194686133Y-137983980D01*
X194924228Y-137983980D01*
X195019466Y-138031600D01*
X195067085Y-138079219D01*
X195114704Y-138174457D01*
X195114704Y-138269695D01*
X195067085Y-138412552D01*
X194495657Y-138983980D01*
X195114704Y-138983980D01*
X103428895Y-130973980D02*
X103428895Y-129973980D01*
X103428895Y-130450171D02*
X104000323Y-130450171D01*
X104000323Y-130973980D02*
X104000323Y-129973980D01*
X105000323Y-130973980D02*
X104428895Y-130973980D01*
X104714609Y-130973980D02*
X104714609Y-129973980D01*
X104619371Y-130116838D01*
X104524133Y-130212076D01*
X104428895Y-130259695D01*
X493484295Y-249591980D02*
X493484295Y-248591980D01*
X493484295Y-249068171D02*
X494055723Y-249068171D01*
X494055723Y-249591980D02*
X494055723Y-248591980D01*
X494960485Y-248925314D02*
X494960485Y-249591980D01*
X494722390Y-248544361D02*
X494484295Y-249258647D01*
X495103342Y-249258647D01*
X493471295Y-131177180D02*
X493471295Y-130177180D01*
X493471295Y-130653371D02*
X494042723Y-130653371D01*
X494042723Y-131177180D02*
X494042723Y-130177180D01*
X494423676Y-130177180D02*
X495042723Y-130177180D01*
X494709390Y-130558133D01*
X494852247Y-130558133D01*
X494947485Y-130605752D01*
X494995104Y-130653371D01*
X495042723Y-130748609D01*
X495042723Y-130986704D01*
X494995104Y-131081942D01*
X494947485Y-131129561D01*
X494852247Y-131177180D01*
X494566533Y-131177180D01*
X494471295Y-131129561D01*
X494423676Y-131081942D01*
X103784495Y-249795180D02*
X103784495Y-248795180D01*
X103784495Y-249271371D02*
X104355923Y-249271371D01*
X104355923Y-249795180D02*
X104355923Y-248795180D01*
X104784495Y-248890419D02*
X104832114Y-248842800D01*
X104927352Y-248795180D01*
X105165447Y-248795180D01*
X105260685Y-248842800D01*
X105308304Y-248890419D01*
X105355923Y-248985657D01*
X105355923Y-249080895D01*
X105308304Y-249223752D01*
X104736876Y-249795180D01*
X105355923Y-249795180D01*
X417423766Y-131456061D02*
X417566623Y-131503680D01*
X417804719Y-131503680D01*
X417899957Y-131456061D01*
X417947576Y-131408442D01*
X417995195Y-131313204D01*
X417995195Y-131217966D01*
X417947576Y-131122728D01*
X417899957Y-131075109D01*
X417804719Y-131027490D01*
X417614242Y-130979871D01*
X417519004Y-130932252D01*
X417471385Y-130884633D01*
X417423766Y-130789395D01*
X417423766Y-130694157D01*
X417471385Y-130598919D01*
X417519004Y-130551300D01*
X417614242Y-130503680D01*
X417852338Y-130503680D01*
X417995195Y-130551300D01*
X418328528Y-130503680D02*
X418566623Y-131503680D01*
X418757100Y-130789395D01*
X418947576Y-131503680D01*
X419185671Y-130503680D01*
X419471385Y-130503680D02*
X420138052Y-130503680D01*
X419709480Y-131503680D01*
D18*
X123676228Y-210544228D02*
X123676228Y-209020228D01*
X124401942Y-210544228D02*
X124401942Y-209020228D01*
X125272800Y-210544228D01*
X125272800Y-209020228D01*
X127957942Y-210544228D02*
X127087085Y-210544228D01*
X127522514Y-210544228D02*
X127522514Y-209020228D01*
X127377371Y-209237942D01*
X127232228Y-209383085D01*
X127087085Y-209455657D01*
X160823728Y-210544228D02*
X160823728Y-209020228D01*
X161549442Y-210544228D02*
X161549442Y-209020228D01*
X162420300Y-210544228D01*
X162420300Y-209020228D01*
X164234585Y-209165371D02*
X164307157Y-209092800D01*
X164452300Y-209020228D01*
X164815157Y-209020228D01*
X164960300Y-209092800D01*
X165032871Y-209165371D01*
X165105442Y-209310514D01*
X165105442Y-209455657D01*
X165032871Y-209673371D01*
X164162014Y-210544228D01*
X165105442Y-210544228D01*
X433501800Y-137341428D02*
X433501800Y-138430000D01*
X433429228Y-138647714D01*
X433284085Y-138792857D01*
X433066371Y-138865428D01*
X432921228Y-138865428D01*
X434953228Y-137341428D02*
X434227514Y-137341428D01*
X434154942Y-138067142D01*
X434227514Y-137994571D01*
X434372657Y-137922000D01*
X434735514Y-137922000D01*
X434880657Y-137994571D01*
X434953228Y-138067142D01*
X435025800Y-138212285D01*
X435025800Y-138575142D01*
X434953228Y-138720285D01*
X434880657Y-138792857D01*
X434735514Y-138865428D01*
X434372657Y-138865428D01*
X434227514Y-138792857D01*
X434154942Y-138720285D01*
X444260514Y-208969428D02*
X444550800Y-208969428D01*
X444695942Y-209042000D01*
X444841085Y-209187142D01*
X444913657Y-209477428D01*
X444913657Y-209985428D01*
X444841085Y-210275714D01*
X444695942Y-210420857D01*
X444550800Y-210493428D01*
X444260514Y-210493428D01*
X444115371Y-210420857D01*
X443970228Y-210275714D01*
X443897657Y-209985428D01*
X443897657Y-209477428D01*
X443970228Y-209187142D01*
X444115371Y-209042000D01*
X444260514Y-208969428D01*
X445566800Y-208969428D02*
X445566800Y-210203142D01*
X445639371Y-210348285D01*
X445711942Y-210420857D01*
X445857085Y-210493428D01*
X446147371Y-210493428D01*
X446292514Y-210420857D01*
X446365085Y-210348285D01*
X446437657Y-210203142D01*
X446437657Y-208969428D01*
X446945657Y-208969428D02*
X447816514Y-208969428D01*
X447381085Y-210493428D02*
X447381085Y-208969428D01*
X450283942Y-210493428D02*
X449413085Y-210493428D01*
X449848514Y-210493428D02*
X449848514Y-208969428D01*
X449703371Y-209187142D01*
X449558228Y-209332285D01*
X449413085Y-209404857D01*
X471638085Y-137468428D02*
X471638085Y-138557000D01*
X471565514Y-138774714D01*
X471420371Y-138919857D01*
X471202657Y-138992428D01*
X471057514Y-138992428D01*
X473162085Y-138992428D02*
X472291228Y-138992428D01*
X472726657Y-138992428D02*
X472726657Y-137468428D01*
X472581514Y-137686142D01*
X472436371Y-137831285D01*
X472291228Y-137903857D01*
X474468371Y-137976428D02*
X474468371Y-138992428D01*
X474105514Y-137395857D02*
X473742657Y-138484428D01*
X474686085Y-138484428D01*
X482360514Y-209223428D02*
X482650800Y-209223428D01*
X482795942Y-209296000D01*
X482941085Y-209441142D01*
X483013657Y-209731428D01*
X483013657Y-210239428D01*
X482941085Y-210529714D01*
X482795942Y-210674857D01*
X482650800Y-210747428D01*
X482360514Y-210747428D01*
X482215371Y-210674857D01*
X482070228Y-210529714D01*
X481997657Y-210239428D01*
X481997657Y-209731428D01*
X482070228Y-209441142D01*
X482215371Y-209296000D01*
X482360514Y-209223428D01*
X483666800Y-209223428D02*
X483666800Y-210457142D01*
X483739371Y-210602285D01*
X483811942Y-210674857D01*
X483957085Y-210747428D01*
X484247371Y-210747428D01*
X484392514Y-210674857D01*
X484465085Y-210602285D01*
X484537657Y-210457142D01*
X484537657Y-209223428D01*
X485045657Y-209223428D02*
X485916514Y-209223428D01*
X485481085Y-210747428D02*
X485481085Y-209223428D01*
X487513085Y-209368571D02*
X487585657Y-209296000D01*
X487730800Y-209223428D01*
X488093657Y-209223428D01*
X488238800Y-209296000D01*
X488311371Y-209368571D01*
X488383942Y-209513714D01*
X488383942Y-209658857D01*
X488311371Y-209876571D01*
X487440514Y-210747428D01*
X488383942Y-210747428D01*
D14*
X118184704Y-138933180D02*
X118184704Y-137933180D01*
X118422800Y-137933180D01*
X118565657Y-137980800D01*
X118660895Y-138076038D01*
X118708514Y-138171276D01*
X118756133Y-138361752D01*
X118756133Y-138504609D01*
X118708514Y-138695085D01*
X118660895Y-138790323D01*
X118565657Y-138885561D01*
X118422800Y-138933180D01*
X118184704Y-138933180D01*
X119708514Y-138933180D02*
X119137085Y-138933180D01*
X119422800Y-138933180D02*
X119422800Y-137933180D01*
X119327561Y-138076038D01*
X119232323Y-138171276D01*
X119137085Y-138218895D01*
X118438704Y-212593180D02*
X118438704Y-211593180D01*
X118676800Y-211593180D01*
X118819657Y-211640800D01*
X118914895Y-211736038D01*
X118962514Y-211831276D01*
X119010133Y-212021752D01*
X119010133Y-212164609D01*
X118962514Y-212355085D01*
X118914895Y-212450323D01*
X118819657Y-212545561D01*
X118676800Y-212593180D01*
X118438704Y-212593180D01*
X119391085Y-211688419D02*
X119438704Y-211640800D01*
X119533942Y-211593180D01*
X119772038Y-211593180D01*
X119867276Y-211640800D01*
X119914895Y-211688419D01*
X119962514Y-211783657D01*
X119962514Y-211878895D01*
X119914895Y-212021752D01*
X119343466Y-212593180D01*
X119962514Y-212593180D01*
X155840204Y-138933180D02*
X155840204Y-137933180D01*
X156078300Y-137933180D01*
X156221157Y-137980800D01*
X156316395Y-138076038D01*
X156364014Y-138171276D01*
X156411633Y-138361752D01*
X156411633Y-138504609D01*
X156364014Y-138695085D01*
X156316395Y-138790323D01*
X156221157Y-138885561D01*
X156078300Y-138933180D01*
X155840204Y-138933180D01*
X156744966Y-137933180D02*
X157364014Y-137933180D01*
X157030680Y-138314133D01*
X157173538Y-138314133D01*
X157268776Y-138361752D01*
X157316395Y-138409371D01*
X157364014Y-138504609D01*
X157364014Y-138742704D01*
X157316395Y-138837942D01*
X157268776Y-138885561D01*
X157173538Y-138933180D01*
X156887823Y-138933180D01*
X156792585Y-138885561D01*
X156744966Y-138837942D01*
X155840204Y-212593180D02*
X155840204Y-211593180D01*
X156078300Y-211593180D01*
X156221157Y-211640800D01*
X156316395Y-211736038D01*
X156364014Y-211831276D01*
X156411633Y-212021752D01*
X156411633Y-212164609D01*
X156364014Y-212355085D01*
X156316395Y-212450323D01*
X156221157Y-212545561D01*
X156078300Y-212593180D01*
X155840204Y-212593180D01*
X157268776Y-211926514D02*
X157268776Y-212593180D01*
X157030680Y-211545561D02*
X156792585Y-212259847D01*
X157411633Y-212259847D01*
X399083304Y-132887980D02*
X399083304Y-131887980D01*
X399321400Y-131887980D01*
X399464257Y-131935600D01*
X399559495Y-132030838D01*
X399607114Y-132126076D01*
X399654733Y-132316552D01*
X399654733Y-132459409D01*
X399607114Y-132649885D01*
X399559495Y-132745123D01*
X399464257Y-132840361D01*
X399321400Y-132887980D01*
X399083304Y-132887980D01*
X400226161Y-132316552D02*
X400130923Y-132268933D01*
X400083304Y-132221314D01*
X400035685Y-132126076D01*
X400035685Y-132078457D01*
X400083304Y-131983219D01*
X400130923Y-131935600D01*
X400226161Y-131887980D01*
X400416638Y-131887980D01*
X400511876Y-131935600D01*
X400559495Y-131983219D01*
X400607114Y-132078457D01*
X400607114Y-132126076D01*
X400559495Y-132221314D01*
X400511876Y-132268933D01*
X400416638Y-132316552D01*
X400226161Y-132316552D01*
X400130923Y-132364171D01*
X400083304Y-132411790D01*
X400035685Y-132507028D01*
X400035685Y-132697504D01*
X400083304Y-132792742D01*
X400130923Y-132840361D01*
X400226161Y-132887980D01*
X400416638Y-132887980D01*
X400511876Y-132840361D01*
X400559495Y-132792742D01*
X400607114Y-132697504D01*
X400607114Y-132507028D01*
X400559495Y-132411790D01*
X400511876Y-132364171D01*
X400416638Y-132316552D01*
X396551304Y-134427980D02*
X397170352Y-134427980D01*
X396837019Y-134808933D01*
X396979876Y-134808933D01*
X397075114Y-134856552D01*
X397122733Y-134904171D01*
X397170352Y-134999409D01*
X397170352Y-135237504D01*
X397122733Y-135332742D01*
X397075114Y-135380361D01*
X396979876Y-135427980D01*
X396694161Y-135427980D01*
X396598923Y-135380361D01*
X396551304Y-135332742D01*
X397456066Y-134427980D02*
X397789400Y-135427980D01*
X398122733Y-134427980D01*
X398360828Y-134427980D02*
X398979876Y-134427980D01*
X398646542Y-134808933D01*
X398789400Y-134808933D01*
X398884638Y-134856552D01*
X398932257Y-134904171D01*
X398979876Y-134999409D01*
X398979876Y-135237504D01*
X398932257Y-135332742D01*
X398884638Y-135380361D01*
X398789400Y-135427980D01*
X398503685Y-135427980D01*
X398408447Y-135380361D01*
X398360828Y-135332742D01*
X390955304Y-132887980D02*
X390955304Y-131887980D01*
X391193400Y-131887980D01*
X391336257Y-131935600D01*
X391431495Y-132030838D01*
X391479114Y-132126076D01*
X391526733Y-132316552D01*
X391526733Y-132459409D01*
X391479114Y-132649885D01*
X391431495Y-132745123D01*
X391336257Y-132840361D01*
X391193400Y-132887980D01*
X390955304Y-132887980D01*
X392002923Y-132887980D02*
X392193400Y-132887980D01*
X392288638Y-132840361D01*
X392336257Y-132792742D01*
X392431495Y-132649885D01*
X392479114Y-132459409D01*
X392479114Y-132078457D01*
X392431495Y-131983219D01*
X392383876Y-131935600D01*
X392288638Y-131887980D01*
X392098161Y-131887980D01*
X392002923Y-131935600D01*
X391955304Y-131983219D01*
X391907685Y-132078457D01*
X391907685Y-132316552D01*
X391955304Y-132411790D01*
X392002923Y-132459409D01*
X392098161Y-132507028D01*
X392288638Y-132507028D01*
X392383876Y-132459409D01*
X392431495Y-132411790D01*
X392479114Y-132316552D01*
X393534923Y-134427980D02*
X393058733Y-134427980D01*
X393011114Y-134904171D01*
X393058733Y-134856552D01*
X393153971Y-134808933D01*
X393392066Y-134808933D01*
X393487304Y-134856552D01*
X393534923Y-134904171D01*
X393582542Y-134999409D01*
X393582542Y-135237504D01*
X393534923Y-135332742D01*
X393487304Y-135380361D01*
X393392066Y-135427980D01*
X393153971Y-135427980D01*
X393058733Y-135380361D01*
X393011114Y-135332742D01*
X393868257Y-134427980D02*
X394201590Y-135427980D01*
X394534923Y-134427980D01*
X304295276Y-247864380D02*
X304295276Y-248578666D01*
X304247657Y-248721523D01*
X304152419Y-248816761D01*
X304009561Y-248864380D01*
X303914323Y-248864380D01*
X305295276Y-248864380D02*
X304723847Y-248864380D01*
X305009561Y-248864380D02*
X305009561Y-247864380D01*
X304914323Y-248007238D01*
X304819085Y-248102476D01*
X304723847Y-248150095D01*
X305914323Y-247864380D02*
X306009561Y-247864380D01*
X306104800Y-247912000D01*
X306152419Y-247959619D01*
X306200038Y-248054857D01*
X306247657Y-248245333D01*
X306247657Y-248483428D01*
X306200038Y-248673904D01*
X306152419Y-248769142D01*
X306104800Y-248816761D01*
X306009561Y-248864380D01*
X305914323Y-248864380D01*
X305819085Y-248816761D01*
X305771466Y-248769142D01*
X305723847Y-248673904D01*
X305676228Y-248483428D01*
X305676228Y-248245333D01*
X305723847Y-248054857D01*
X305771466Y-247959619D01*
X305819085Y-247912000D01*
X305914323Y-247864380D01*
X308929257Y-257884561D02*
X309072114Y-257932180D01*
X309310209Y-257932180D01*
X309405447Y-257884561D01*
X309453066Y-257836942D01*
X309500685Y-257741704D01*
X309500685Y-257646466D01*
X309453066Y-257551228D01*
X309405447Y-257503609D01*
X309310209Y-257455990D01*
X309119733Y-257408371D01*
X309024495Y-257360752D01*
X308976876Y-257313133D01*
X308929257Y-257217895D01*
X308929257Y-257122657D01*
X308976876Y-257027419D01*
X309024495Y-256979800D01*
X309119733Y-256932180D01*
X309357828Y-256932180D01*
X309500685Y-256979800D01*
X309834019Y-256932180D02*
X310072114Y-257932180D01*
X310262590Y-257217895D01*
X310453066Y-257932180D01*
X310691161Y-256932180D01*
X311072114Y-257932180D02*
X311072114Y-256932180D01*
X311310209Y-256932180D01*
X311453066Y-256979800D01*
X311548304Y-257075038D01*
X311595923Y-257170276D01*
X311643542Y-257360752D01*
X311643542Y-257503609D01*
X311595923Y-257694085D01*
X311548304Y-257789323D01*
X311453066Y-257884561D01*
X311310209Y-257932180D01*
X311072114Y-257932180D01*
X344571819Y-257652780D02*
X344238485Y-257176590D01*
X344000390Y-257652780D02*
X344000390Y-256652780D01*
X344381342Y-256652780D01*
X344476580Y-256700400D01*
X344524200Y-256748019D01*
X344571819Y-256843257D01*
X344571819Y-256986114D01*
X344524200Y-257081352D01*
X344476580Y-257128971D01*
X344381342Y-257176590D01*
X344000390Y-257176590D01*
X345000390Y-257128971D02*
X345333723Y-257128971D01*
X345476580Y-257652780D02*
X345000390Y-257652780D01*
X345000390Y-256652780D01*
X345476580Y-256652780D01*
X345857533Y-257605161D02*
X346000390Y-257652780D01*
X346238485Y-257652780D01*
X346333723Y-257605161D01*
X346381342Y-257557542D01*
X346428961Y-257462304D01*
X346428961Y-257367066D01*
X346381342Y-257271828D01*
X346333723Y-257224209D01*
X346238485Y-257176590D01*
X346048009Y-257128971D01*
X345952771Y-257081352D01*
X345905152Y-257033733D01*
X345857533Y-256938495D01*
X345857533Y-256843257D01*
X345905152Y-256748019D01*
X345952771Y-256700400D01*
X346048009Y-256652780D01*
X346286104Y-256652780D01*
X346428961Y-256700400D01*
X346857533Y-257128971D02*
X347190866Y-257128971D01*
X347333723Y-257652780D02*
X346857533Y-257652780D01*
X346857533Y-256652780D01*
X347333723Y-256652780D01*
X347619438Y-256652780D02*
X348190866Y-256652780D01*
X347905152Y-257652780D02*
X347905152Y-256652780D01*
X461240285Y-235646980D02*
X461240285Y-236456504D01*
X461287904Y-236551742D01*
X461335523Y-236599361D01*
X461430761Y-236646980D01*
X461621238Y-236646980D01*
X461716476Y-236599361D01*
X461764095Y-236551742D01*
X461811714Y-236456504D01*
X461811714Y-235646980D01*
X462287904Y-236646980D02*
X462287904Y-235646980D01*
X462668857Y-235646980D01*
X462764095Y-235694600D01*
X462811714Y-235742219D01*
X462859333Y-235837457D01*
X462859333Y-235980314D01*
X462811714Y-236075552D01*
X462764095Y-236123171D01*
X462668857Y-236170790D01*
X462287904Y-236170790D01*
X449643619Y-246806980D02*
X449167428Y-246806980D01*
X449167428Y-245806980D01*
X449976952Y-246283171D02*
X450310285Y-246283171D01*
X450453142Y-246806980D02*
X449976952Y-246806980D01*
X449976952Y-245806980D01*
X450453142Y-245806980D01*
X451215047Y-246283171D02*
X450881714Y-246283171D01*
X450881714Y-246806980D02*
X450881714Y-245806980D01*
X451357904Y-245806980D01*
X451596000Y-245806980D02*
X452167428Y-245806980D01*
X451881714Y-246806980D02*
X451881714Y-245806980D01*
X459621238Y-246521266D02*
X460097428Y-246521266D01*
X459526000Y-246806980D02*
X459859333Y-245806980D01*
X460192666Y-246806980D01*
X461097428Y-246711742D02*
X461049809Y-246759361D01*
X460906952Y-246806980D01*
X460811714Y-246806980D01*
X460668857Y-246759361D01*
X460573619Y-246664123D01*
X460526000Y-246568885D01*
X460478380Y-246378409D01*
X460478380Y-246235552D01*
X460526000Y-246045076D01*
X460573619Y-245949838D01*
X460668857Y-245854600D01*
X460811714Y-245806980D01*
X460906952Y-245806980D01*
X461049809Y-245854600D01*
X461097428Y-245902219D01*
X461383142Y-245806980D02*
X461954571Y-245806980D01*
X461668857Y-246806980D02*
X461668857Y-245806980D01*
X462287904Y-246806980D02*
X462287904Y-245806980D01*
X462954571Y-245806980D02*
X463145047Y-245806980D01*
X463240285Y-245854600D01*
X463335523Y-245949838D01*
X463383142Y-246140314D01*
X463383142Y-246473647D01*
X463335523Y-246664123D01*
X463240285Y-246759361D01*
X463145047Y-246806980D01*
X462954571Y-246806980D01*
X462859333Y-246759361D01*
X462764095Y-246664123D01*
X462716476Y-246473647D01*
X462716476Y-246140314D01*
X462764095Y-245949838D01*
X462859333Y-245854600D01*
X462954571Y-245806980D01*
X463811714Y-246806980D02*
X463811714Y-245806980D01*
X464383142Y-246806980D01*
X464383142Y-245806980D01*
X460145047Y-256966980D02*
X460145047Y-255966980D01*
X460383142Y-255966980D01*
X460526000Y-256014600D01*
X460621238Y-256109838D01*
X460668857Y-256205076D01*
X460716476Y-256395552D01*
X460716476Y-256538409D01*
X460668857Y-256728885D01*
X460621238Y-256824123D01*
X460526000Y-256919361D01*
X460383142Y-256966980D01*
X460145047Y-256966980D01*
X461335523Y-255966980D02*
X461526000Y-255966980D01*
X461621238Y-256014600D01*
X461716476Y-256109838D01*
X461764095Y-256300314D01*
X461764095Y-256633647D01*
X461716476Y-256824123D01*
X461621238Y-256919361D01*
X461526000Y-256966980D01*
X461335523Y-256966980D01*
X461240285Y-256919361D01*
X461145047Y-256824123D01*
X461097428Y-256633647D01*
X461097428Y-256300314D01*
X461145047Y-256109838D01*
X461240285Y-256014600D01*
X461335523Y-255966980D01*
X462097428Y-255966980D02*
X462335523Y-256966980D01*
X462526000Y-256252695D01*
X462716476Y-256966980D01*
X462954571Y-255966980D01*
X463335523Y-256966980D02*
X463335523Y-255966980D01*
X463906952Y-256966980D01*
X463906952Y-255966980D01*
X472122666Y-246806980D02*
X471789333Y-246330790D01*
X471551238Y-246806980D02*
X471551238Y-245806980D01*
X471932190Y-245806980D01*
X472027428Y-245854600D01*
X472075047Y-245902219D01*
X472122666Y-245997457D01*
X472122666Y-246140314D01*
X472075047Y-246235552D01*
X472027428Y-246283171D01*
X471932190Y-246330790D01*
X471551238Y-246330790D01*
X472551238Y-246806980D02*
X472551238Y-245806980D01*
X473551238Y-245854600D02*
X473456000Y-245806980D01*
X473313142Y-245806980D01*
X473170285Y-245854600D01*
X473075047Y-245949838D01*
X473027428Y-246045076D01*
X472979809Y-246235552D01*
X472979809Y-246378409D01*
X473027428Y-246568885D01*
X473075047Y-246664123D01*
X473170285Y-246759361D01*
X473313142Y-246806980D01*
X473408380Y-246806980D01*
X473551238Y-246759361D01*
X473598857Y-246711742D01*
X473598857Y-246378409D01*
X473408380Y-246378409D01*
X474027428Y-246806980D02*
X474027428Y-245806980D01*
X474027428Y-246283171D02*
X474598857Y-246283171D01*
X474598857Y-246806980D02*
X474598857Y-245806980D01*
X474932190Y-245806980D02*
X475503619Y-245806980D01*
X475217904Y-246806980D02*
X475217904Y-245806980D01*
X324764495Y-250861580D02*
X324764495Y-251671104D01*
X324812114Y-251766342D01*
X324859733Y-251813961D01*
X324954971Y-251861580D01*
X325145447Y-251861580D01*
X325240685Y-251813961D01*
X325288304Y-251766342D01*
X325335923Y-251671104D01*
X325335923Y-250861580D01*
X326240685Y-251194914D02*
X326240685Y-251861580D01*
X326002590Y-250813961D02*
X325764495Y-251528247D01*
X326383542Y-251528247D01*
X327663995Y-257805180D02*
X327663995Y-256805180D01*
X328711614Y-257805180D02*
X328378280Y-257328990D01*
X328140185Y-257805180D02*
X328140185Y-256805180D01*
X328521138Y-256805180D01*
X328616376Y-256852800D01*
X328663995Y-256900419D01*
X328711614Y-256995657D01*
X328711614Y-257138514D01*
X328663995Y-257233752D01*
X328616376Y-257281371D01*
X328521138Y-257328990D01*
X328140185Y-257328990D01*
X330473519Y-257805180D02*
X330140185Y-257328990D01*
X329902090Y-257805180D02*
X329902090Y-256805180D01*
X330283042Y-256805180D01*
X330378280Y-256852800D01*
X330425900Y-256900419D01*
X330473519Y-256995657D01*
X330473519Y-257138514D01*
X330425900Y-257233752D01*
X330378280Y-257281371D01*
X330283042Y-257328990D01*
X329902090Y-257328990D01*
X330902090Y-257281371D02*
X331235423Y-257281371D01*
X331378280Y-257805180D02*
X330902090Y-257805180D01*
X330902090Y-256805180D01*
X331378280Y-256805180D01*
X332378280Y-257709942D02*
X332330661Y-257757561D01*
X332187804Y-257805180D01*
X332092566Y-257805180D01*
X331949709Y-257757561D01*
X331854471Y-257662323D01*
X331806852Y-257567085D01*
X331759233Y-257376609D01*
X331759233Y-257233752D01*
X331806852Y-257043276D01*
X331854471Y-256948038D01*
X331949709Y-256852800D01*
X332092566Y-256805180D01*
X332187804Y-256805180D01*
X332330661Y-256852800D01*
X332378280Y-256900419D01*
X332663995Y-256805180D02*
X332997328Y-257805180D01*
X333330661Y-256805180D01*
X412283376Y-130046480D02*
X412283376Y-130760766D01*
X412235757Y-130903623D01*
X412140519Y-130998861D01*
X411997661Y-131046480D01*
X411902423Y-131046480D01*
X413283376Y-131046480D02*
X412711947Y-131046480D01*
X412997661Y-131046480D02*
X412997661Y-130046480D01*
X412902423Y-130189338D01*
X412807185Y-130284576D01*
X412711947Y-130332195D01*
X413616709Y-130046480D02*
X414235757Y-130046480D01*
X413902423Y-130427433D01*
X414045280Y-130427433D01*
X414140519Y-130475052D01*
X414188138Y-130522671D01*
X414235757Y-130617909D01*
X414235757Y-130856004D01*
X414188138Y-130951242D01*
X414140519Y-130998861D01*
X414045280Y-131046480D01*
X413759566Y-131046480D01*
X413664328Y-130998861D01*
X413616709Y-130951242D01*
X404044495Y-147937480D02*
X404044495Y-146937480D01*
X404282590Y-146937480D01*
X404425447Y-146985100D01*
X404520685Y-147080338D01*
X404568304Y-147175576D01*
X404615923Y-147366052D01*
X404615923Y-147508909D01*
X404568304Y-147699385D01*
X404520685Y-147794623D01*
X404425447Y-147889861D01*
X404282590Y-147937480D01*
X404044495Y-147937480D01*
X405615923Y-147842242D02*
X405568304Y-147889861D01*
X405425447Y-147937480D01*
X405330209Y-147937480D01*
X405187352Y-147889861D01*
X405092114Y-147794623D01*
X405044495Y-147699385D01*
X404996876Y-147508909D01*
X404996876Y-147366052D01*
X405044495Y-147175576D01*
X405092114Y-147080338D01*
X405187352Y-146985100D01*
X405330209Y-146937480D01*
X405425447Y-146937480D01*
X405568304Y-146985100D01*
X405615923Y-147032719D01*
X406711161Y-146937480D02*
X407377828Y-146937480D01*
X406949257Y-147937480D01*
X407758780Y-147842242D02*
X407806400Y-147889861D01*
X407758780Y-147937480D01*
X407711161Y-147889861D01*
X407758780Y-147842242D01*
X407758780Y-147937480D01*
X408711161Y-146937480D02*
X408234971Y-146937480D01*
X408187352Y-147413671D01*
X408234971Y-147366052D01*
X408330209Y-147318433D01*
X408568304Y-147318433D01*
X408663542Y-147366052D01*
X408711161Y-147413671D01*
X408758780Y-147508909D01*
X408758780Y-147747004D01*
X408711161Y-147842242D01*
X408663542Y-147889861D01*
X408568304Y-147937480D01*
X408330209Y-147937480D01*
X408234971Y-147889861D01*
X408187352Y-147842242D01*
X409044495Y-146937480D02*
X409377828Y-147937480D01*
X409711161Y-146937480D01*
M02*
