G04 #@! TF.GenerationSoftware,KiCad,Pcbnew,5.1.6-c6e7f7d~87~ubuntu18.04.1*
G04 #@! TF.CreationDate,2020-10-17T10:37:56+01:00*
G04 #@! TF.ProjectId,ossw,6f737377-2e6b-4696-9361-645f70636258,1.1*
G04 #@! TF.SameCoordinates,Original*
G04 #@! TF.FileFunction,Copper,L1,Top*
G04 #@! TF.FilePolarity,Positive*
%FSLAX46Y46*%
G04 Gerber Fmt 4.6, Leading zero omitted, Abs format (unit mm)*
G04 Created by KiCad (PCBNEW 5.1.6-c6e7f7d~87~ubuntu18.04.1) date 2020-10-17 10:37:56*
%MOMM*%
%LPD*%
G01*
G04 APERTURE LIST*
G04 #@! TA.AperFunction,WasherPad*
%ADD10O,3.200000X2.000000*%
G04 #@! TD*
G04 #@! TA.AperFunction,ComponentPad*
%ADD11C,3.000000*%
G04 #@! TD*
G04 #@! TA.AperFunction,ComponentPad*
%ADD12C,2.100000*%
G04 #@! TD*
G04 #@! TA.AperFunction,SMDPad,CuDef*
%ADD13R,0.800000X1.500000*%
G04 #@! TD*
G04 #@! TA.AperFunction,SMDPad,CuDef*
%ADD14R,1.450000X2.000000*%
G04 #@! TD*
G04 #@! TA.AperFunction,SMDPad,CuDef*
%ADD15R,8.000000X5.000000*%
G04 #@! TD*
G04 #@! TA.AperFunction,ComponentPad*
%ADD16C,0.800000*%
G04 #@! TD*
G04 #@! TA.AperFunction,ComponentPad*
%ADD17C,6.400000*%
G04 #@! TD*
G04 #@! TA.AperFunction,ComponentPad*
%ADD18C,1.998980*%
G04 #@! TD*
G04 #@! TA.AperFunction,ComponentPad*
%ADD19R,3.300000X3.300000*%
G04 #@! TD*
G04 #@! TA.AperFunction,ComponentPad*
%ADD20C,3.300000*%
G04 #@! TD*
G04 #@! TA.AperFunction,SMDPad,CuDef*
%ADD21R,0.740000X2.400000*%
G04 #@! TD*
G04 #@! TA.AperFunction,SMDPad,CuDef*
%ADD22R,0.900000X2.000000*%
G04 #@! TD*
G04 #@! TA.AperFunction,SMDPad,CuDef*
%ADD23R,2.450000X1.000000*%
G04 #@! TD*
G04 #@! TA.AperFunction,ComponentPad*
%ADD24C,1.800000*%
G04 #@! TD*
G04 #@! TA.AperFunction,ComponentPad*
%ADD25C,2.600000*%
G04 #@! TD*
G04 #@! TA.AperFunction,ViaPad*
%ADD26C,0.600000*%
G04 #@! TD*
G04 #@! TA.AperFunction,ViaPad*
%ADD27C,0.800000*%
G04 #@! TD*
G04 #@! TA.AperFunction,ViaPad*
%ADD28C,1.200000*%
G04 #@! TD*
G04 #@! TA.AperFunction,Conductor*
%ADD29C,0.250000*%
G04 #@! TD*
G04 #@! TA.AperFunction,Conductor*
%ADD30C,0.200000*%
G04 #@! TD*
G04 APERTURE END LIST*
D10*
X491845200Y-215972000D03*
X491845200Y-230172000D03*
D11*
X492995200Y-223072000D03*
X489645200Y-219322000D03*
X488645200Y-226822000D03*
G04 #@! TA.AperFunction,ComponentPad*
G36*
G01*
X109304800Y-238214300D02*
X109304800Y-239915300D01*
G75*
G02*
X109105300Y-240114800I-199500J0D01*
G01*
X107404300Y-240114800D01*
G75*
G02*
X107204800Y-239915300I0J199500D01*
G01*
X107204800Y-238214300D01*
G75*
G02*
X107404300Y-238014800I199500J0D01*
G01*
X109105300Y-238014800D01*
G75*
G02*
X109304800Y-238214300I0J-199500D01*
G01*
G37*
G04 #@! TD.AperFunction*
D12*
X108254800Y-236064800D03*
X108254800Y-233064800D03*
X108254800Y-230064800D03*
X108254800Y-227064800D03*
X108254800Y-224064800D03*
X108254800Y-221064800D03*
X105154800Y-239064800D03*
X105254800Y-236064800D03*
X105254800Y-233064800D03*
X105254800Y-230064800D03*
X105254800Y-227064800D03*
X105254800Y-224064800D03*
X105254800Y-221064800D03*
D13*
X272694000Y-254229200D03*
X271594000Y-254229200D03*
X270494000Y-254229200D03*
X269394000Y-254229200D03*
X268294000Y-254229200D03*
X267194000Y-254229200D03*
X266094000Y-254229200D03*
X264994000Y-254229200D03*
D14*
X262619000Y-248529200D03*
X276369000Y-248529200D03*
X276369000Y-256829200D03*
X262619000Y-256829200D03*
D15*
X372745000Y-248107200D03*
X422529000Y-248107200D03*
D16*
X288704656Y-251845744D03*
X287007600Y-251142800D03*
X285310544Y-251845744D03*
X284607600Y-253542800D03*
X285310544Y-255239856D03*
X287007600Y-255942800D03*
X288704656Y-255239856D03*
X289407600Y-253542800D03*
D17*
X287007600Y-253542800D03*
D18*
X382031240Y-192582800D03*
X376951240Y-190677800D03*
X382031240Y-188772800D03*
X376951240Y-186867800D03*
X382031240Y-184962800D03*
X376951240Y-183057800D03*
X382031240Y-181152800D03*
X376951240Y-179247800D03*
X382031240Y-177342800D03*
X376951240Y-175437800D03*
X382031240Y-173532800D03*
X376951240Y-171627800D03*
X382031240Y-169722800D03*
X376951240Y-167817800D03*
X382031240Y-165912800D03*
X376951240Y-164007800D03*
X382031240Y-162102800D03*
X376951240Y-160197800D03*
X382031240Y-158292800D03*
X376951240Y-156387800D03*
X382031240Y-154482800D03*
X344845640Y-154432000D03*
X339765640Y-156337000D03*
X344845640Y-158242000D03*
X339765640Y-160147000D03*
X344845640Y-162052000D03*
X339765640Y-163957000D03*
X344845640Y-165862000D03*
X339765640Y-167767000D03*
X344845640Y-169672000D03*
X339765640Y-171577000D03*
X344845640Y-173482000D03*
X339765640Y-175387000D03*
X344845640Y-177292000D03*
X339765640Y-179197000D03*
X344845640Y-181102000D03*
X339765640Y-183007000D03*
X344845640Y-184912000D03*
X339765640Y-186817000D03*
X344845640Y-188722000D03*
X339765640Y-190627000D03*
X344845640Y-192532000D03*
X307660040Y-154432000D03*
X302580040Y-156337000D03*
X307660040Y-158242000D03*
X302580040Y-160147000D03*
X307660040Y-162052000D03*
X302580040Y-163957000D03*
X307660040Y-165862000D03*
X302580040Y-167767000D03*
X307660040Y-169672000D03*
X302580040Y-171577000D03*
X307660040Y-173482000D03*
X302580040Y-175387000D03*
X307660040Y-177292000D03*
X302580040Y-179197000D03*
X307660040Y-181102000D03*
X302580040Y-183007000D03*
X307660040Y-184912000D03*
X302580040Y-186817000D03*
X307660040Y-188722000D03*
X302580040Y-190627000D03*
X307660040Y-192532000D03*
X270474440Y-154432000D03*
X265394440Y-156337000D03*
X270474440Y-158242000D03*
X265394440Y-160147000D03*
X270474440Y-162052000D03*
X265394440Y-163957000D03*
X270474440Y-165862000D03*
X265394440Y-167767000D03*
X270474440Y-169672000D03*
X265394440Y-171577000D03*
X270474440Y-173482000D03*
X265394440Y-175387000D03*
X270474440Y-177292000D03*
X265394440Y-179197000D03*
X270474440Y-181102000D03*
X265394440Y-183007000D03*
X270474440Y-184912000D03*
X265394440Y-186817000D03*
X270474440Y-188722000D03*
X265394440Y-190627000D03*
X270474440Y-192532000D03*
X233390440Y-154482800D03*
X228310440Y-156387800D03*
X233390440Y-158292800D03*
X228310440Y-160197800D03*
X233390440Y-162102800D03*
X228310440Y-164007800D03*
X233390440Y-165912800D03*
X228310440Y-167817800D03*
X233390440Y-169722800D03*
X228310440Y-171627800D03*
X233390440Y-173532800D03*
X228310440Y-175437800D03*
X233390440Y-177342800D03*
X228310440Y-179247800D03*
X233390440Y-181152800D03*
X228310440Y-183057800D03*
X233390440Y-184962800D03*
X228310440Y-186867800D03*
X233390440Y-188772800D03*
X228310440Y-190677800D03*
X233390440Y-192582800D03*
X196204840Y-154533600D03*
X191124840Y-156438600D03*
X196204840Y-158343600D03*
X191124840Y-160248600D03*
X196204840Y-162153600D03*
X191124840Y-164058600D03*
X196204840Y-165963600D03*
X191124840Y-167868600D03*
X196204840Y-169773600D03*
X191124840Y-171678600D03*
X196204840Y-173583600D03*
X191124840Y-175488600D03*
X196204840Y-177393600D03*
X191124840Y-179298600D03*
X196204840Y-181203600D03*
X191124840Y-183108600D03*
X196204840Y-185013600D03*
X191124840Y-186918600D03*
X196204840Y-188823600D03*
X191124840Y-190728600D03*
X196204840Y-192633600D03*
D16*
X287955056Y-133075344D03*
X286258000Y-132372400D03*
X284560944Y-133075344D03*
X283858000Y-134772400D03*
X284560944Y-136469456D03*
X286258000Y-137172400D03*
X287955056Y-136469456D03*
X288658000Y-134772400D03*
D17*
X286258000Y-134772400D03*
G04 #@! TA.AperFunction,SMDPad,CuDef*
G36*
G01*
X379876800Y-210873050D02*
X379876800Y-210360550D01*
G75*
G02*
X380095550Y-210141800I218750J0D01*
G01*
X380533050Y-210141800D01*
G75*
G02*
X380751800Y-210360550I0J-218750D01*
G01*
X380751800Y-210873050D01*
G75*
G02*
X380533050Y-211091800I-218750J0D01*
G01*
X380095550Y-211091800D01*
G75*
G02*
X379876800Y-210873050I0J218750D01*
G01*
G37*
G04 #@! TD.AperFunction*
G04 #@! TA.AperFunction,SMDPad,CuDef*
G36*
G01*
X378301800Y-210873050D02*
X378301800Y-210360550D01*
G75*
G02*
X378520550Y-210141800I218750J0D01*
G01*
X378958050Y-210141800D01*
G75*
G02*
X379176800Y-210360550I0J-218750D01*
G01*
X379176800Y-210873050D01*
G75*
G02*
X378958050Y-211091800I-218750J0D01*
G01*
X378520550Y-211091800D01*
G75*
G02*
X378301800Y-210873050I0J218750D01*
G01*
G37*
G04 #@! TD.AperFunction*
G04 #@! TA.AperFunction,SMDPad,CuDef*
G36*
G01*
X379775200Y-137213050D02*
X379775200Y-136700550D01*
G75*
G02*
X379993950Y-136481800I218750J0D01*
G01*
X380431450Y-136481800D01*
G75*
G02*
X380650200Y-136700550I0J-218750D01*
G01*
X380650200Y-137213050D01*
G75*
G02*
X380431450Y-137431800I-218750J0D01*
G01*
X379993950Y-137431800D01*
G75*
G02*
X379775200Y-137213050I0J218750D01*
G01*
G37*
G04 #@! TD.AperFunction*
G04 #@! TA.AperFunction,SMDPad,CuDef*
G36*
G01*
X378200200Y-137213050D02*
X378200200Y-136700550D01*
G75*
G02*
X378418950Y-136481800I218750J0D01*
G01*
X378856450Y-136481800D01*
G75*
G02*
X379075200Y-136700550I0J-218750D01*
G01*
X379075200Y-137213050D01*
G75*
G02*
X378856450Y-137431800I-218750J0D01*
G01*
X378418950Y-137431800D01*
G75*
G02*
X378200200Y-137213050I0J218750D01*
G01*
G37*
G04 #@! TD.AperFunction*
G04 #@! TA.AperFunction,SMDPad,CuDef*
G36*
G01*
X342640400Y-210822250D02*
X342640400Y-210309750D01*
G75*
G02*
X342859150Y-210091000I218750J0D01*
G01*
X343296650Y-210091000D01*
G75*
G02*
X343515400Y-210309750I0J-218750D01*
G01*
X343515400Y-210822250D01*
G75*
G02*
X343296650Y-211041000I-218750J0D01*
G01*
X342859150Y-211041000D01*
G75*
G02*
X342640400Y-210822250I0J218750D01*
G01*
G37*
G04 #@! TD.AperFunction*
G04 #@! TA.AperFunction,SMDPad,CuDef*
G36*
G01*
X341065400Y-210822250D02*
X341065400Y-210309750D01*
G75*
G02*
X341284150Y-210091000I218750J0D01*
G01*
X341721650Y-210091000D01*
G75*
G02*
X341940400Y-210309750I0J-218750D01*
G01*
X341940400Y-210822250D01*
G75*
G02*
X341721650Y-211041000I-218750J0D01*
G01*
X341284150Y-211041000D01*
G75*
G02*
X341065400Y-210822250I0J218750D01*
G01*
G37*
G04 #@! TD.AperFunction*
G04 #@! TA.AperFunction,SMDPad,CuDef*
G36*
G01*
X342640400Y-137162250D02*
X342640400Y-136649750D01*
G75*
G02*
X342859150Y-136431000I218750J0D01*
G01*
X343296650Y-136431000D01*
G75*
G02*
X343515400Y-136649750I0J-218750D01*
G01*
X343515400Y-137162250D01*
G75*
G02*
X343296650Y-137381000I-218750J0D01*
G01*
X342859150Y-137381000D01*
G75*
G02*
X342640400Y-137162250I0J218750D01*
G01*
G37*
G04 #@! TD.AperFunction*
G04 #@! TA.AperFunction,SMDPad,CuDef*
G36*
G01*
X341065400Y-137162250D02*
X341065400Y-136649750D01*
G75*
G02*
X341284150Y-136431000I218750J0D01*
G01*
X341721650Y-136431000D01*
G75*
G02*
X341940400Y-136649750I0J-218750D01*
G01*
X341940400Y-137162250D01*
G75*
G02*
X341721650Y-137381000I-218750J0D01*
G01*
X341284150Y-137381000D01*
G75*
G02*
X341065400Y-137162250I0J218750D01*
G01*
G37*
G04 #@! TD.AperFunction*
G04 #@! TA.AperFunction,SMDPad,CuDef*
G36*
G01*
X305480300Y-210873050D02*
X305480300Y-210360550D01*
G75*
G02*
X305699050Y-210141800I218750J0D01*
G01*
X306136550Y-210141800D01*
G75*
G02*
X306355300Y-210360550I0J-218750D01*
G01*
X306355300Y-210873050D01*
G75*
G02*
X306136550Y-211091800I-218750J0D01*
G01*
X305699050Y-211091800D01*
G75*
G02*
X305480300Y-210873050I0J218750D01*
G01*
G37*
G04 #@! TD.AperFunction*
G04 #@! TA.AperFunction,SMDPad,CuDef*
G36*
G01*
X303905300Y-210873050D02*
X303905300Y-210360550D01*
G75*
G02*
X304124050Y-210141800I218750J0D01*
G01*
X304561550Y-210141800D01*
G75*
G02*
X304780300Y-210360550I0J-218750D01*
G01*
X304780300Y-210873050D01*
G75*
G02*
X304561550Y-211091800I-218750J0D01*
G01*
X304124050Y-211091800D01*
G75*
G02*
X303905300Y-210873050I0J218750D01*
G01*
G37*
G04 #@! TD.AperFunction*
G04 #@! TA.AperFunction,SMDPad,CuDef*
G36*
G01*
X305454800Y-137111450D02*
X305454800Y-136598950D01*
G75*
G02*
X305673550Y-136380200I218750J0D01*
G01*
X306111050Y-136380200D01*
G75*
G02*
X306329800Y-136598950I0J-218750D01*
G01*
X306329800Y-137111450D01*
G75*
G02*
X306111050Y-137330200I-218750J0D01*
G01*
X305673550Y-137330200D01*
G75*
G02*
X305454800Y-137111450I0J218750D01*
G01*
G37*
G04 #@! TD.AperFunction*
G04 #@! TA.AperFunction,SMDPad,CuDef*
G36*
G01*
X303879800Y-137111450D02*
X303879800Y-136598950D01*
G75*
G02*
X304098550Y-136380200I218750J0D01*
G01*
X304536050Y-136380200D01*
G75*
G02*
X304754800Y-136598950I0J-218750D01*
G01*
X304754800Y-137111450D01*
G75*
G02*
X304536050Y-137330200I-218750J0D01*
G01*
X304098550Y-137330200D01*
G75*
G02*
X303879800Y-137111450I0J218750D01*
G01*
G37*
G04 #@! TD.AperFunction*
G04 #@! TA.AperFunction,SMDPad,CuDef*
G36*
G01*
X268269200Y-210771450D02*
X268269200Y-210258950D01*
G75*
G02*
X268487950Y-210040200I218750J0D01*
G01*
X268925450Y-210040200D01*
G75*
G02*
X269144200Y-210258950I0J-218750D01*
G01*
X269144200Y-210771450D01*
G75*
G02*
X268925450Y-210990200I-218750J0D01*
G01*
X268487950Y-210990200D01*
G75*
G02*
X268269200Y-210771450I0J218750D01*
G01*
G37*
G04 #@! TD.AperFunction*
G04 #@! TA.AperFunction,SMDPad,CuDef*
G36*
G01*
X266694200Y-210771450D02*
X266694200Y-210258950D01*
G75*
G02*
X266912950Y-210040200I218750J0D01*
G01*
X267350450Y-210040200D01*
G75*
G02*
X267569200Y-210258950I0J-218750D01*
G01*
X267569200Y-210771450D01*
G75*
G02*
X267350450Y-210990200I-218750J0D01*
G01*
X266912950Y-210990200D01*
G75*
G02*
X266694200Y-210771450I0J218750D01*
G01*
G37*
G04 #@! TD.AperFunction*
G04 #@! TA.AperFunction,SMDPad,CuDef*
G36*
G01*
X268269200Y-137111450D02*
X268269200Y-136598950D01*
G75*
G02*
X268487950Y-136380200I218750J0D01*
G01*
X268925450Y-136380200D01*
G75*
G02*
X269144200Y-136598950I0J-218750D01*
G01*
X269144200Y-137111450D01*
G75*
G02*
X268925450Y-137330200I-218750J0D01*
G01*
X268487950Y-137330200D01*
G75*
G02*
X268269200Y-137111450I0J218750D01*
G01*
G37*
G04 #@! TD.AperFunction*
G04 #@! TA.AperFunction,SMDPad,CuDef*
G36*
G01*
X266694200Y-137111450D02*
X266694200Y-136598950D01*
G75*
G02*
X266912950Y-136380200I218750J0D01*
G01*
X267350450Y-136380200D01*
G75*
G02*
X267569200Y-136598950I0J-218750D01*
G01*
X267569200Y-137111450D01*
G75*
G02*
X267350450Y-137330200I-218750J0D01*
G01*
X266912950Y-137330200D01*
G75*
G02*
X266694200Y-137111450I0J218750D01*
G01*
G37*
G04 #@! TD.AperFunction*
G04 #@! TA.AperFunction,SMDPad,CuDef*
G36*
G01*
X231134400Y-210568250D02*
X231134400Y-210055750D01*
G75*
G02*
X231353150Y-209837000I218750J0D01*
G01*
X231790650Y-209837000D01*
G75*
G02*
X232009400Y-210055750I0J-218750D01*
G01*
X232009400Y-210568250D01*
G75*
G02*
X231790650Y-210787000I-218750J0D01*
G01*
X231353150Y-210787000D01*
G75*
G02*
X231134400Y-210568250I0J218750D01*
G01*
G37*
G04 #@! TD.AperFunction*
G04 #@! TA.AperFunction,SMDPad,CuDef*
G36*
G01*
X229559400Y-210568250D02*
X229559400Y-210055750D01*
G75*
G02*
X229778150Y-209837000I218750J0D01*
G01*
X230215650Y-209837000D01*
G75*
G02*
X230434400Y-210055750I0J-218750D01*
G01*
X230434400Y-210568250D01*
G75*
G02*
X230215650Y-210787000I-218750J0D01*
G01*
X229778150Y-210787000D01*
G75*
G02*
X229559400Y-210568250I0J218750D01*
G01*
G37*
G04 #@! TD.AperFunction*
G04 #@! TA.AperFunction,SMDPad,CuDef*
G36*
G01*
X231083600Y-136908250D02*
X231083600Y-136395750D01*
G75*
G02*
X231302350Y-136177000I218750J0D01*
G01*
X231739850Y-136177000D01*
G75*
G02*
X231958600Y-136395750I0J-218750D01*
G01*
X231958600Y-136908250D01*
G75*
G02*
X231739850Y-137127000I-218750J0D01*
G01*
X231302350Y-137127000D01*
G75*
G02*
X231083600Y-136908250I0J218750D01*
G01*
G37*
G04 #@! TD.AperFunction*
G04 #@! TA.AperFunction,SMDPad,CuDef*
G36*
G01*
X229508600Y-136908250D02*
X229508600Y-136395750D01*
G75*
G02*
X229727350Y-136177000I218750J0D01*
G01*
X230164850Y-136177000D01*
G75*
G02*
X230383600Y-136395750I0J-218750D01*
G01*
X230383600Y-136908250D01*
G75*
G02*
X230164850Y-137127000I-218750J0D01*
G01*
X229727350Y-137127000D01*
G75*
G02*
X229508600Y-136908250I0J218750D01*
G01*
G37*
G04 #@! TD.AperFunction*
G04 #@! TA.AperFunction,SMDPad,CuDef*
G36*
G01*
X194050400Y-210619050D02*
X194050400Y-210106550D01*
G75*
G02*
X194269150Y-209887800I218750J0D01*
G01*
X194706650Y-209887800D01*
G75*
G02*
X194925400Y-210106550I0J-218750D01*
G01*
X194925400Y-210619050D01*
G75*
G02*
X194706650Y-210837800I-218750J0D01*
G01*
X194269150Y-210837800D01*
G75*
G02*
X194050400Y-210619050I0J218750D01*
G01*
G37*
G04 #@! TD.AperFunction*
G04 #@! TA.AperFunction,SMDPad,CuDef*
G36*
G01*
X192475400Y-210619050D02*
X192475400Y-210106550D01*
G75*
G02*
X192694150Y-209887800I218750J0D01*
G01*
X193131650Y-209887800D01*
G75*
G02*
X193350400Y-210106550I0J-218750D01*
G01*
X193350400Y-210619050D01*
G75*
G02*
X193131650Y-210837800I-218750J0D01*
G01*
X192694150Y-210837800D01*
G75*
G02*
X192475400Y-210619050I0J218750D01*
G01*
G37*
G04 #@! TD.AperFunction*
G04 #@! TA.AperFunction,SMDPad,CuDef*
G36*
G01*
X194101200Y-136959050D02*
X194101200Y-136446550D01*
G75*
G02*
X194319950Y-136227800I218750J0D01*
G01*
X194757450Y-136227800D01*
G75*
G02*
X194976200Y-136446550I0J-218750D01*
G01*
X194976200Y-136959050D01*
G75*
G02*
X194757450Y-137177800I-218750J0D01*
G01*
X194319950Y-137177800D01*
G75*
G02*
X194101200Y-136959050I0J218750D01*
G01*
G37*
G04 #@! TD.AperFunction*
G04 #@! TA.AperFunction,SMDPad,CuDef*
G36*
G01*
X192526200Y-136959050D02*
X192526200Y-136446550D01*
G75*
G02*
X192744950Y-136227800I218750J0D01*
G01*
X193182450Y-136227800D01*
G75*
G02*
X193401200Y-136446550I0J-218750D01*
G01*
X193401200Y-136959050D01*
G75*
G02*
X193182450Y-137177800I-218750J0D01*
G01*
X192744950Y-137177800D01*
G75*
G02*
X192526200Y-136959050I0J218750D01*
G01*
G37*
G04 #@! TD.AperFunction*
D16*
X105887856Y-133024544D03*
X104190800Y-132321600D03*
X102493744Y-133024544D03*
X101790800Y-134721600D03*
X102493744Y-136418656D03*
X104190800Y-137121600D03*
X105887856Y-136418656D03*
X106590800Y-134721600D03*
D17*
X104190800Y-134721600D03*
D16*
X495943256Y-251642544D03*
X494246200Y-250939600D03*
X492549144Y-251642544D03*
X491846200Y-253339600D03*
X492549144Y-255036656D03*
X494246200Y-255739600D03*
X495943256Y-255036656D03*
X496646200Y-253339600D03*
D17*
X494246200Y-253339600D03*
D16*
X495930256Y-133227744D03*
X494233200Y-132524800D03*
X492536144Y-133227744D03*
X491833200Y-134924800D03*
X492536144Y-136621856D03*
X494233200Y-137324800D03*
X495930256Y-136621856D03*
X496633200Y-134924800D03*
D17*
X494233200Y-134924800D03*
D16*
X106243456Y-251845744D03*
X104546400Y-251142800D03*
X102849344Y-251845744D03*
X102146400Y-253542800D03*
X102849344Y-255239856D03*
X104546400Y-255942800D03*
X106243456Y-255239856D03*
X106946400Y-253542800D03*
D17*
X104546400Y-253542800D03*
D19*
X416471100Y-143434800D03*
D20*
X416471100Y-138734800D03*
X416471100Y-134034800D03*
D18*
X121630440Y-154482800D03*
X116550440Y-156387800D03*
X121630440Y-158292800D03*
X116550440Y-160197800D03*
X121630440Y-162102800D03*
X116550440Y-164007800D03*
X121630440Y-165912800D03*
X116550440Y-167817800D03*
X121630440Y-169722800D03*
X116550440Y-171627800D03*
X121630440Y-173532800D03*
X116550440Y-175437800D03*
X121630440Y-177342800D03*
X116550440Y-179247800D03*
X121630440Y-181152800D03*
X116550440Y-183057800D03*
X121630440Y-184962800D03*
X116550440Y-186867800D03*
X121630440Y-188772800D03*
X116550440Y-190677800D03*
X121630440Y-192582800D03*
X159031940Y-154482800D03*
X153951940Y-156387800D03*
X159031940Y-158292800D03*
X153951940Y-160197800D03*
X159031940Y-162102800D03*
X153951940Y-164007800D03*
X159031940Y-165912800D03*
X153951940Y-167817800D03*
X159031940Y-169722800D03*
X153951940Y-171627800D03*
X159031940Y-173532800D03*
X153951940Y-175437800D03*
X159031940Y-177342800D03*
X153951940Y-179247800D03*
X159031940Y-181152800D03*
X153951940Y-183057800D03*
X159031940Y-184962800D03*
X153951940Y-186867800D03*
X159031940Y-188772800D03*
X153951940Y-190677800D03*
X159031940Y-192582800D03*
X443956440Y-154432000D03*
X438876440Y-156337000D03*
X443956440Y-158242000D03*
X438876440Y-160147000D03*
X443956440Y-162052000D03*
X438876440Y-163957000D03*
X443956440Y-165862000D03*
X438876440Y-167767000D03*
X443956440Y-169672000D03*
X438876440Y-171577000D03*
X443956440Y-173482000D03*
X438876440Y-175387000D03*
X443956440Y-177292000D03*
X438876440Y-179197000D03*
X443956440Y-181102000D03*
X438876440Y-183007000D03*
X443956440Y-184912000D03*
X438876440Y-186817000D03*
X443956440Y-188722000D03*
X438876440Y-190627000D03*
X443956440Y-192532000D03*
X482056440Y-154432000D03*
X476976440Y-156337000D03*
X482056440Y-158242000D03*
X476976440Y-160147000D03*
X482056440Y-162052000D03*
X476976440Y-163957000D03*
X482056440Y-165862000D03*
X476976440Y-167767000D03*
X482056440Y-169672000D03*
X476976440Y-171577000D03*
X482056440Y-173482000D03*
X476976440Y-175387000D03*
X482056440Y-177292000D03*
X476976440Y-179197000D03*
X482056440Y-181102000D03*
X476976440Y-183007000D03*
X482056440Y-184912000D03*
X476976440Y-186817000D03*
X482056440Y-188722000D03*
X476976440Y-190627000D03*
X482056440Y-192532000D03*
G04 #@! TA.AperFunction,SMDPad,CuDef*
G36*
G01*
X119526800Y-136959050D02*
X119526800Y-136446550D01*
G75*
G02*
X119745550Y-136227800I218750J0D01*
G01*
X120183050Y-136227800D01*
G75*
G02*
X120401800Y-136446550I0J-218750D01*
G01*
X120401800Y-136959050D01*
G75*
G02*
X120183050Y-137177800I-218750J0D01*
G01*
X119745550Y-137177800D01*
G75*
G02*
X119526800Y-136959050I0J218750D01*
G01*
G37*
G04 #@! TD.AperFunction*
G04 #@! TA.AperFunction,SMDPad,CuDef*
G36*
G01*
X117951800Y-136959050D02*
X117951800Y-136446550D01*
G75*
G02*
X118170550Y-136227800I218750J0D01*
G01*
X118608050Y-136227800D01*
G75*
G02*
X118826800Y-136446550I0J-218750D01*
G01*
X118826800Y-136959050D01*
G75*
G02*
X118608050Y-137177800I-218750J0D01*
G01*
X118170550Y-137177800D01*
G75*
G02*
X117951800Y-136959050I0J218750D01*
G01*
G37*
G04 #@! TD.AperFunction*
G04 #@! TA.AperFunction,SMDPad,CuDef*
G36*
G01*
X119526800Y-210619050D02*
X119526800Y-210106550D01*
G75*
G02*
X119745550Y-209887800I218750J0D01*
G01*
X120183050Y-209887800D01*
G75*
G02*
X120401800Y-210106550I0J-218750D01*
G01*
X120401800Y-210619050D01*
G75*
G02*
X120183050Y-210837800I-218750J0D01*
G01*
X119745550Y-210837800D01*
G75*
G02*
X119526800Y-210619050I0J218750D01*
G01*
G37*
G04 #@! TD.AperFunction*
G04 #@! TA.AperFunction,SMDPad,CuDef*
G36*
G01*
X117951800Y-210619050D02*
X117951800Y-210106550D01*
G75*
G02*
X118170550Y-209887800I218750J0D01*
G01*
X118608050Y-209887800D01*
G75*
G02*
X118826800Y-210106550I0J-218750D01*
G01*
X118826800Y-210619050D01*
G75*
G02*
X118608050Y-210837800I-218750J0D01*
G01*
X118170550Y-210837800D01*
G75*
G02*
X117951800Y-210619050I0J218750D01*
G01*
G37*
G04 #@! TD.AperFunction*
G04 #@! TA.AperFunction,SMDPad,CuDef*
G36*
G01*
X155353300Y-136959050D02*
X155353300Y-136446550D01*
G75*
G02*
X155572050Y-136227800I218750J0D01*
G01*
X156009550Y-136227800D01*
G75*
G02*
X156228300Y-136446550I0J-218750D01*
G01*
X156228300Y-136959050D01*
G75*
G02*
X156009550Y-137177800I-218750J0D01*
G01*
X155572050Y-137177800D01*
G75*
G02*
X155353300Y-136959050I0J218750D01*
G01*
G37*
G04 #@! TD.AperFunction*
G04 #@! TA.AperFunction,SMDPad,CuDef*
G36*
G01*
X156928300Y-136959050D02*
X156928300Y-136446550D01*
G75*
G02*
X157147050Y-136227800I218750J0D01*
G01*
X157584550Y-136227800D01*
G75*
G02*
X157803300Y-136446550I0J-218750D01*
G01*
X157803300Y-136959050D01*
G75*
G02*
X157584550Y-137177800I-218750J0D01*
G01*
X157147050Y-137177800D01*
G75*
G02*
X156928300Y-136959050I0J218750D01*
G01*
G37*
G04 #@! TD.AperFunction*
G04 #@! TA.AperFunction,SMDPad,CuDef*
G36*
G01*
X156928300Y-210619050D02*
X156928300Y-210106550D01*
G75*
G02*
X157147050Y-209887800I218750J0D01*
G01*
X157584550Y-209887800D01*
G75*
G02*
X157803300Y-210106550I0J-218750D01*
G01*
X157803300Y-210619050D01*
G75*
G02*
X157584550Y-210837800I-218750J0D01*
G01*
X157147050Y-210837800D01*
G75*
G02*
X156928300Y-210619050I0J218750D01*
G01*
G37*
G04 #@! TD.AperFunction*
G04 #@! TA.AperFunction,SMDPad,CuDef*
G36*
G01*
X155353300Y-210619050D02*
X155353300Y-210106550D01*
G75*
G02*
X155572050Y-209887800I218750J0D01*
G01*
X156009550Y-209887800D01*
G75*
G02*
X156228300Y-210106550I0J-218750D01*
G01*
X156228300Y-210619050D01*
G75*
G02*
X156009550Y-210837800I-218750J0D01*
G01*
X155572050Y-210837800D01*
G75*
G02*
X155353300Y-210619050I0J218750D01*
G01*
G37*
G04 #@! TD.AperFunction*
G04 #@! TA.AperFunction,SMDPad,CuDef*
G36*
G01*
X397533150Y-131210600D02*
X398045650Y-131210600D01*
G75*
G02*
X398264400Y-131429350I0J-218750D01*
G01*
X398264400Y-131866850D01*
G75*
G02*
X398045650Y-132085600I-218750J0D01*
G01*
X397533150Y-132085600D01*
G75*
G02*
X397314400Y-131866850I0J218750D01*
G01*
X397314400Y-131429350D01*
G75*
G02*
X397533150Y-131210600I218750J0D01*
G01*
G37*
G04 #@! TD.AperFunction*
G04 #@! TA.AperFunction,SMDPad,CuDef*
G36*
G01*
X397533150Y-132785600D02*
X398045650Y-132785600D01*
G75*
G02*
X398264400Y-133004350I0J-218750D01*
G01*
X398264400Y-133441850D01*
G75*
G02*
X398045650Y-133660600I-218750J0D01*
G01*
X397533150Y-133660600D01*
G75*
G02*
X397314400Y-133441850I0J218750D01*
G01*
X397314400Y-133004350D01*
G75*
G02*
X397533150Y-132785600I218750J0D01*
G01*
G37*
G04 #@! TD.AperFunction*
G04 #@! TA.AperFunction,SMDPad,CuDef*
G36*
G01*
X393469150Y-131210600D02*
X393981650Y-131210600D01*
G75*
G02*
X394200400Y-131429350I0J-218750D01*
G01*
X394200400Y-131866850D01*
G75*
G02*
X393981650Y-132085600I-218750J0D01*
G01*
X393469150Y-132085600D01*
G75*
G02*
X393250400Y-131866850I0J218750D01*
G01*
X393250400Y-131429350D01*
G75*
G02*
X393469150Y-131210600I218750J0D01*
G01*
G37*
G04 #@! TD.AperFunction*
G04 #@! TA.AperFunction,SMDPad,CuDef*
G36*
G01*
X393469150Y-132785600D02*
X393981650Y-132785600D01*
G75*
G02*
X394200400Y-133004350I0J-218750D01*
G01*
X394200400Y-133441850D01*
G75*
G02*
X393981650Y-133660600I-218750J0D01*
G01*
X393469150Y-133660600D01*
G75*
G02*
X393250400Y-133441850I0J218750D01*
G01*
X393250400Y-133004350D01*
G75*
G02*
X393469150Y-132785600I218750J0D01*
G01*
G37*
G04 #@! TD.AperFunction*
D21*
X312889900Y-250259300D03*
X312889900Y-254159300D03*
X311619900Y-250259300D03*
X311619900Y-254159300D03*
X310349900Y-250259300D03*
X310349900Y-254159300D03*
X309079900Y-250259300D03*
X309079900Y-254159300D03*
X307809900Y-250259300D03*
X307809900Y-254159300D03*
D22*
X344050400Y-253898400D03*
X348150400Y-253898400D03*
D23*
X459024000Y-233654600D03*
X459024000Y-229154600D03*
X465074000Y-233654600D03*
X465074000Y-229154600D03*
X447548000Y-243742600D03*
X447548000Y-239242600D03*
X453598000Y-243742600D03*
X453598000Y-239242600D03*
X459024000Y-243814600D03*
X459024000Y-239314600D03*
X465074000Y-243814600D03*
X465074000Y-239314600D03*
X465074000Y-249474600D03*
X465074000Y-253974600D03*
X459024000Y-249474600D03*
X459024000Y-253974600D03*
X476504000Y-239314600D03*
X476504000Y-243814600D03*
X470454000Y-239314600D03*
X470454000Y-243814600D03*
G04 #@! TA.AperFunction,ComponentPad*
G36*
G01*
X326975900Y-253176600D02*
X326975900Y-251877000D01*
G75*
G02*
X327226100Y-251626800I250200J0D01*
G01*
X328525700Y-251626800D01*
G75*
G02*
X328775900Y-251877000I0J-250200D01*
G01*
X328775900Y-253176600D01*
G75*
G02*
X328525700Y-253426800I-250200J0D01*
G01*
X327226100Y-253426800D01*
G75*
G02*
X326975900Y-253176600I0J250200D01*
G01*
G37*
G04 #@! TD.AperFunction*
D24*
X330415900Y-252526800D03*
X332955900Y-252526800D03*
D25*
X406654000Y-143979900D03*
X406654000Y-137979900D03*
X401954000Y-140979900D03*
D26*
X342087200Y-184861200D03*
X342188800Y-192836800D03*
X347268800Y-171450000D03*
X347218000Y-179070000D03*
X379374400Y-166116000D03*
X379272800Y-184861200D03*
X379374400Y-192836800D03*
X384454400Y-171450000D03*
X379323600Y-169672000D03*
X384403600Y-179070000D03*
X384200400Y-164134800D03*
X230632000Y-166116000D03*
X230530400Y-184861200D03*
X241046000Y-184353200D03*
X230632000Y-192836800D03*
X235712000Y-171450000D03*
X230581200Y-169672000D03*
X235661200Y-179070000D03*
X241046000Y-171653200D03*
X235458000Y-164134800D03*
X267817600Y-166116000D03*
X267716000Y-184861200D03*
X278231600Y-184353200D03*
X272897600Y-171450000D03*
X267766800Y-169672000D03*
X272846800Y-179070000D03*
X278231600Y-171653200D03*
X272643600Y-164134800D03*
X304952400Y-166116000D03*
X304850800Y-184861200D03*
X315366400Y-184353200D03*
X304952400Y-192836800D03*
X310032400Y-171450000D03*
X304901600Y-169672000D03*
X309981600Y-179070000D03*
X315366400Y-171653200D03*
X309778400Y-164134800D03*
X342188800Y-166116000D03*
X352602800Y-184353200D03*
X342138000Y-169672000D03*
X352602800Y-171653200D03*
X347014800Y-164134800D03*
X389788400Y-184353200D03*
X389788400Y-171653200D03*
X255969500Y-180988700D03*
D27*
X243687600Y-164439600D03*
D26*
X293002700Y-180937900D03*
D27*
X280720800Y-164388800D03*
D26*
X330188300Y-180988700D03*
D27*
X317906400Y-164439600D03*
D26*
X367373900Y-180887100D03*
D27*
X355092000Y-164338000D03*
D26*
X404559500Y-180937900D03*
D27*
X392277600Y-164388800D03*
D26*
X267766800Y-192735200D03*
D27*
X206502000Y-164338000D03*
X391693400Y-131673600D03*
D26*
X310349900Y-247129300D03*
X307809900Y-247129300D03*
X470408000Y-246100600D03*
X459003400Y-245821200D03*
X456844400Y-233654600D03*
D27*
X447522600Y-241604800D03*
X479602800Y-186791600D03*
X479475800Y-184962800D03*
X479475800Y-175488600D03*
X479475800Y-169773600D03*
X479475800Y-163880800D03*
X484962200Y-160223200D03*
X484962200Y-152476200D03*
X479475800Y-179146200D03*
X362559600Y-231343200D03*
X351052625Y-225730575D03*
X352983800Y-239141000D03*
X347700600Y-235966000D03*
X336689700Y-236410500D03*
X338340700Y-239534700D03*
X338328000Y-241173000D03*
X394335000Y-239293400D03*
X391261600Y-237032800D03*
X352729800Y-246507000D03*
X350951800Y-246507000D03*
X360172101Y-239039501D03*
X427913800Y-242519200D03*
X428371000Y-239623600D03*
X369925600Y-233019600D03*
X379552200Y-228879400D03*
X314782200Y-251002800D03*
X118922800Y-192760600D03*
X118922800Y-184785000D03*
X119176800Y-169595800D03*
X119176800Y-166014400D03*
X123545600Y-164312600D03*
X119176800Y-158369000D03*
X129362200Y-171373800D03*
X129362200Y-183946800D03*
D28*
X412775400Y-154305000D03*
X413029400Y-150241000D03*
X404698200Y-158140400D03*
X433730400Y-155575000D03*
X433730400Y-162687000D03*
X435000400Y-146177000D03*
X432079400Y-131953000D03*
X432206400Y-141605000D03*
X388899400Y-145034000D03*
D27*
X169468800Y-164388800D03*
X132130800Y-164388800D03*
D26*
X156311600Y-158292800D03*
X156311600Y-165912800D03*
X156311600Y-169468800D03*
X156311600Y-184708800D03*
X156311600Y-192582800D03*
X166776400Y-184200800D03*
X161391600Y-179070000D03*
X124002800Y-171450000D03*
X161391600Y-171450000D03*
X161036000Y-164185600D03*
X436575200Y-185115200D03*
X446328800Y-190703200D03*
X446328800Y-179120800D03*
X446278000Y-171399200D03*
X436676800Y-169875200D03*
X446278000Y-163880800D03*
X446836800Y-160172400D03*
X446836800Y-156464000D03*
D27*
X452272400Y-213055200D03*
D26*
X445719200Y-218643200D03*
X449376800Y-219252800D03*
X437692800Y-212953600D03*
X433273200Y-217170000D03*
X433273200Y-222758000D03*
X437642000Y-226822000D03*
X181610000Y-180949600D03*
X124002800Y-179019200D03*
X166776400Y-171500800D03*
X355041200Y-231444800D03*
X350824800Y-231444800D03*
X144221200Y-180949600D03*
X396392400Y-237083600D03*
X349707200Y-253898400D03*
X203860400Y-171551600D03*
X203860400Y-184251600D03*
X198272400Y-164033200D03*
X193395600Y-169570400D03*
X193446400Y-166014400D03*
X193446400Y-158343600D03*
X198526400Y-171348400D03*
X193344800Y-184759600D03*
X193446400Y-192735200D03*
X198475600Y-178968400D03*
X218783900Y-180887100D03*
X230682800Y-158496000D03*
X304901600Y-158394400D03*
X267766800Y-158445200D03*
X342138000Y-158394400D03*
X379272800Y-158445200D03*
X459524100Y-252793500D03*
X427837600Y-208534000D03*
X425805600Y-208534000D03*
X420852600Y-205613000D03*
X432917600Y-211836000D03*
X428726600Y-201676000D03*
X425043600Y-188976000D03*
X422503600Y-188976000D03*
X419709600Y-191516000D03*
X425932600Y-198247000D03*
D27*
X414629600Y-234238800D03*
D26*
X267208000Y-248869200D03*
X269392400Y-248869200D03*
X267157200Y-255676400D03*
X341274400Y-234492800D03*
X121361200Y-237642400D03*
X124968000Y-236169200D03*
X128320800Y-234594400D03*
X131673600Y-233121200D03*
X395884400Y-131622800D03*
X143586200Y-209804000D03*
X144843500Y-219456000D03*
X403682200Y-209854800D03*
X404939500Y-219506800D03*
X366496600Y-209804000D03*
X367753900Y-219456000D03*
X329311000Y-209905600D03*
X330568300Y-219456000D03*
X292125400Y-209854800D03*
X293382700Y-219456000D03*
X255092200Y-209905600D03*
X256349500Y-219456000D03*
X217906600Y-209804000D03*
X219163900Y-219456000D03*
X180721000Y-209854800D03*
X181978300Y-219506800D03*
X144868900Y-211074000D03*
X146138900Y-218313000D03*
X406234900Y-218363800D03*
X404964900Y-211124800D03*
X369049300Y-218313000D03*
X367779300Y-211074000D03*
X331863700Y-218338400D03*
X330593700Y-211175600D03*
X294678100Y-218338400D03*
X293408100Y-211124800D03*
X257606800Y-218338400D03*
X256374900Y-211175600D03*
X219189300Y-211074000D03*
X220459300Y-218313000D03*
X182003700Y-211124800D03*
X183273700Y-218363800D03*
X146138900Y-209804000D03*
X147535900Y-217170000D03*
X407631900Y-217220800D03*
X406234900Y-209854800D03*
X370446300Y-217170000D03*
X369049300Y-209804000D03*
X333248000Y-217220800D03*
X331863700Y-209905600D03*
X296075100Y-217170000D03*
X294678100Y-209854800D03*
X259041900Y-217220800D03*
X257644900Y-209905600D03*
X220459300Y-209804000D03*
X221856300Y-217170000D03*
X183273700Y-209854800D03*
X184670700Y-217220800D03*
X147383500Y-211074000D03*
X148653500Y-216027000D03*
X407479500Y-211124800D03*
X408749500Y-216077800D03*
X370293900Y-211074000D03*
X371563900Y-216027000D03*
X333108300Y-211175600D03*
X334378300Y-216052400D03*
X295922700Y-211124800D03*
X297192700Y-216052400D03*
X258889500Y-211175600D03*
X260159500Y-216052400D03*
X221703900Y-211074000D03*
X222973900Y-216027000D03*
X184518300Y-211124800D03*
X185788300Y-216077800D03*
D27*
X121399300Y-136702800D03*
D26*
X119888000Y-207695800D03*
D27*
X116763800Y-136639300D03*
D26*
X116763800Y-210362800D03*
X121462800Y-210362800D03*
D27*
X158800800Y-136702800D03*
X154101800Y-136677400D03*
D26*
X157327600Y-207721200D03*
X154228800Y-210362800D03*
X158826200Y-210362800D03*
X397789400Y-134467600D03*
X393725400Y-134467600D03*
X149669500Y-211074000D03*
X150939500Y-213741000D03*
X409765500Y-211124800D03*
X411035500Y-213791800D03*
X372579900Y-211074000D03*
X373849900Y-213741000D03*
X335394300Y-211175600D03*
X336664300Y-213766400D03*
X298208700Y-211124800D03*
X299478700Y-213766400D03*
X261175500Y-211175600D03*
X262432800Y-213766400D03*
X223989900Y-211074000D03*
X225259900Y-213741000D03*
X186804300Y-211124800D03*
X188074300Y-213791800D03*
D27*
X483920800Y-199136000D03*
D26*
X441934600Y-199136000D03*
X316280800Y-254177800D03*
X311619900Y-256209800D03*
X142278100Y-211074000D03*
X143548100Y-220599000D03*
X403644100Y-220649800D03*
X402374100Y-211124800D03*
X366458500Y-220599000D03*
X365188500Y-211074000D03*
X329272900Y-220624400D03*
X328002900Y-211175600D03*
X292087300Y-220624400D03*
X290817300Y-211124800D03*
X255054100Y-220624400D03*
X253784100Y-211175600D03*
X216598500Y-211074000D03*
X217868500Y-220599000D03*
X179412900Y-211124800D03*
X180682900Y-220649800D03*
X140957300Y-209804000D03*
X142354300Y-221869000D03*
X401053300Y-209854800D03*
X402450300Y-221919800D03*
X363867700Y-209804000D03*
X365264700Y-221869000D03*
X326682100Y-209905600D03*
X328079100Y-221894400D03*
X289496500Y-209854800D03*
X290893500Y-221894400D03*
X252463300Y-209905600D03*
X253860300Y-221894400D03*
X215277700Y-209804000D03*
X216674700Y-221869000D03*
X178092100Y-209854800D03*
X179489100Y-221919800D03*
X416788600Y-215011000D03*
X416788600Y-223088200D03*
X135585200Y-210718400D03*
X135585200Y-222707200D03*
X172847000Y-210870800D03*
X172923200Y-222859600D03*
X344017600Y-251155200D03*
X342696800Y-253898400D03*
X460121000Y-227533200D03*
X448818000Y-237591600D03*
X459968600Y-237718600D03*
X459994000Y-247878600D03*
X471449400Y-237820200D03*
X455828400Y-200914000D03*
X464362800Y-200914000D03*
X464400900Y-186397900D03*
X457504800Y-186436000D03*
X457758800Y-172720000D03*
X464413600Y-172669200D03*
X464362800Y-158750000D03*
X457784200Y-158750000D03*
X307809900Y-256273300D03*
D27*
X389864600Y-154686000D03*
X318922400Y-191959000D03*
X310286400Y-135432800D03*
X244602000Y-191654200D03*
X235940600Y-212217000D03*
X386283200Y-136956800D03*
X347472000Y-135432800D03*
X235966000Y-135178800D03*
X384657600Y-212344000D03*
X393293600Y-191959000D03*
X347446600Y-212242400D03*
X356108000Y-191908200D03*
X273100800Y-135382000D03*
X273151600Y-212191600D03*
X281686000Y-191908200D03*
X310235600Y-212293200D03*
X395122400Y-165404800D03*
X357936800Y-165354000D03*
X320751200Y-165455600D03*
X283565600Y-165404800D03*
X246532400Y-165455600D03*
X207518000Y-191705000D03*
X209346800Y-165354000D03*
X198856600Y-212242400D03*
X198983600Y-135229600D03*
X393966700Y-153644600D03*
X393979400Y-154686000D03*
X394995400Y-153670000D03*
X396011400Y-153670000D03*
X397027400Y-153670000D03*
X398043400Y-153670000D03*
X394995400Y-154686000D03*
X396011400Y-154686000D03*
X397027400Y-154686000D03*
X392963400Y-153670000D03*
X391947400Y-153670000D03*
X390931400Y-153670000D03*
X389915400Y-153670000D03*
X390931400Y-154686000D03*
X391947400Y-154686000D03*
X392963400Y-154686000D03*
X389915400Y-152654000D03*
X390931400Y-152654000D03*
X389915400Y-151638000D03*
X390931400Y-151638000D03*
X390931400Y-150622000D03*
X389915400Y-150622000D03*
X389915400Y-149606000D03*
X390931400Y-149606000D03*
X390931400Y-148590000D03*
X389915400Y-148590000D03*
X391947400Y-149606000D03*
X392963400Y-149606000D03*
X393979400Y-149606000D03*
X394995400Y-149606000D03*
X396011400Y-149606000D03*
X397027400Y-149606000D03*
X398043400Y-149606000D03*
X398043400Y-150622000D03*
X398043400Y-152654000D03*
X398043400Y-151638000D03*
X391947400Y-148590000D03*
X392963400Y-148590000D03*
X393979400Y-148590000D03*
X394995400Y-148590000D03*
X396011400Y-148590000D03*
X397027400Y-148590000D03*
X398170400Y-148590000D03*
X392963400Y-147574000D03*
X394995400Y-147574000D03*
X393979400Y-147574000D03*
X397027400Y-152654000D03*
X397027400Y-151638000D03*
X397027400Y-150622000D03*
X161747200Y-135229600D03*
X134772400Y-165354000D03*
X172212000Y-165455600D03*
X398043400Y-154686000D03*
X124561600Y-212293200D03*
X161645600Y-212242400D03*
X132994400Y-191668400D03*
X170281600Y-191755800D03*
X124358500Y-135280500D03*
D26*
X419328600Y-208534000D03*
D27*
X419709600Y-196088000D03*
X419709600Y-201676000D03*
X439724800Y-231190800D03*
X422376600Y-213233000D03*
X434441600Y-210312000D03*
X421487600Y-237134400D03*
D26*
X462788000Y-237147100D03*
X451383500Y-236982100D03*
X312889900Y-247129300D03*
D27*
X418045900Y-162915600D03*
X418045900Y-163931600D03*
X419061900Y-162915600D03*
X419061900Y-163931600D03*
X420077900Y-163931600D03*
X420077900Y-162915600D03*
X421093900Y-162915600D03*
X421093900Y-163931600D03*
X417029900Y-163931600D03*
X416013900Y-162915600D03*
X416013900Y-163931600D03*
X414997900Y-163931600D03*
X414997900Y-162915600D03*
X414997900Y-161899600D03*
X421093900Y-161899600D03*
X414997900Y-160883600D03*
X414997900Y-159867600D03*
X414997900Y-158851600D03*
X414997900Y-157835600D03*
X416013900Y-157835600D03*
X417029900Y-157835600D03*
X418045900Y-157835600D03*
X419061900Y-157835600D03*
X420077900Y-157835600D03*
X421093900Y-157835600D03*
X421093900Y-158851600D03*
X413981900Y-163931600D03*
X413981900Y-162915600D03*
X413981900Y-161899600D03*
X413981900Y-160883600D03*
X413981900Y-159867600D03*
X413981900Y-158851600D03*
X422109900Y-163931600D03*
X422109900Y-162915600D03*
X422109900Y-158851600D03*
X422109900Y-159867600D03*
X422109900Y-157835600D03*
X422109900Y-161899600D03*
X422109900Y-160883600D03*
X421093900Y-160883600D03*
X421093900Y-159867600D03*
X418045900Y-156819600D03*
X419061900Y-156819600D03*
X400583400Y-135737600D03*
D26*
X474218000Y-237845600D03*
D27*
X133807200Y-182676800D03*
D26*
X462813500Y-227584100D03*
D27*
X443890400Y-208026000D03*
X171094400Y-183057800D03*
X462788000Y-247878600D03*
X419049200Y-158800800D03*
X420065200Y-158800800D03*
X417017200Y-158775400D03*
X416001200Y-158800800D03*
X418045900Y-158813500D03*
X359587699Y-229895501D03*
X351637600Y-239141000D03*
X336651600Y-234797600D03*
X387781800Y-237718600D03*
X388226400Y-238620400D03*
X358597200Y-242112800D03*
X369925600Y-237312200D03*
X417042600Y-162915600D03*
X417017200Y-156819600D03*
X413994600Y-157835600D03*
X336016600Y-255320800D03*
X314756800Y-253212600D03*
D26*
X349656400Y-231444800D03*
X208330800Y-183134000D03*
X356870000Y-183184800D03*
X394055600Y-183184800D03*
X319735200Y-183184800D03*
X282498800Y-183235600D03*
X245414800Y-183337200D03*
X428980600Y-213868000D03*
D27*
X387908800Y-242570000D03*
X409549600Y-234188000D03*
D26*
X401929600Y-234188000D03*
X269392400Y-252730000D03*
X268122400Y-245973600D03*
X272491200Y-245160800D03*
X278841200Y-246989600D03*
X281584400Y-247802400D03*
X264972800Y-248869200D03*
X272694400Y-248818400D03*
X148526500Y-209804000D03*
X149923500Y-214884000D03*
X410019500Y-214934800D03*
X408622500Y-209854800D03*
X372833900Y-214884000D03*
X371436900Y-209804000D03*
X335648300Y-214884000D03*
X334251300Y-209905600D03*
X298450000Y-214884000D03*
X297065700Y-209854800D03*
X261366000Y-214884000D03*
X260032500Y-209905600D03*
X222846900Y-209804000D03*
X224243900Y-214884000D03*
X185661300Y-209854800D03*
X187058300Y-214934800D03*
D27*
X483920800Y-197866000D03*
D26*
X441109100Y-198437500D03*
D27*
X196037200Y-136702800D03*
D26*
X194513200Y-207721200D03*
D27*
X191236600Y-136677400D03*
D26*
X191363600Y-210362800D03*
X196011800Y-210362800D03*
D27*
X233019600Y-136652000D03*
D26*
X228447600Y-210312000D03*
X231597200Y-207670400D03*
D27*
X228320600Y-136626600D03*
D26*
X233095800Y-210312000D03*
D27*
X270154400Y-136855200D03*
X265455400Y-136829800D03*
D26*
X265582400Y-210515200D03*
X268732000Y-207873600D03*
X270230600Y-210515200D03*
D27*
X307340000Y-136906000D03*
D26*
X302768000Y-210616800D03*
X305917600Y-207975200D03*
D27*
X302641000Y-136880600D03*
D26*
X307416200Y-210616800D03*
D27*
X344525600Y-136906000D03*
X339826600Y-136880600D03*
D26*
X339953600Y-210566000D03*
X343103200Y-207924400D03*
X344601800Y-210566000D03*
D27*
X381711200Y-137007600D03*
X377012200Y-136982200D03*
D26*
X377139200Y-210616800D03*
X380288800Y-207975200D03*
X381787400Y-210616800D03*
X210083400Y-210820000D03*
X210108800Y-222758000D03*
X247218200Y-210921600D03*
X247192800Y-222961200D03*
X284302200Y-210870800D03*
X284276800Y-222808800D03*
X321437000Y-210921600D03*
X321411600Y-222808800D03*
X358622600Y-210820000D03*
X358597200Y-222758000D03*
X395808200Y-210870800D03*
X395782800Y-223469200D03*
X422757600Y-223139000D03*
X422757600Y-216408000D03*
X272694400Y-252730000D03*
X271526000Y-252730000D03*
X270459200Y-252730000D03*
X268325600Y-255676400D03*
X266090400Y-252730000D03*
X271272000Y-243128800D03*
X269748000Y-243128800D03*
X264972800Y-252780800D03*
D29*
X393725400Y-131648100D02*
X391718900Y-131648100D01*
X391718900Y-131648100D02*
X391693400Y-131673600D01*
D30*
X470454000Y-243814600D02*
X470454000Y-246054600D01*
X470454000Y-246054600D02*
X470408000Y-246100600D01*
X311619900Y-250259300D02*
X310349900Y-250259300D01*
X310349900Y-250259300D02*
X310349900Y-247129300D01*
X307809900Y-250259300D02*
X307809900Y-247129300D01*
X459024000Y-243814600D02*
X459024000Y-245800600D01*
X459024000Y-245800600D02*
X459003400Y-245821200D01*
X470408000Y-246100600D02*
X470408000Y-246100600D01*
X459003400Y-245821200D02*
X458978000Y-245846600D01*
X447548000Y-243742600D02*
X447548000Y-241630200D01*
X447548000Y-241630200D02*
X447522600Y-241604800D01*
X459024000Y-233654600D02*
X456844400Y-233654600D01*
X348150400Y-253898400D02*
X349707200Y-253898400D01*
X459524100Y-252793500D02*
X459270100Y-252793500D01*
X459024000Y-253039600D02*
X459024000Y-253974600D01*
X459270100Y-252793500D02*
X459024000Y-253039600D01*
X267194000Y-254127600D02*
X267194000Y-255639600D01*
X267194000Y-255639600D02*
X267157200Y-255676400D01*
X397789400Y-131648100D02*
X395909700Y-131648100D01*
X395909700Y-131648100D02*
X395884400Y-131622800D01*
X143573500Y-209816700D02*
X143586200Y-209804000D01*
X144843500Y-219456000D02*
X143573500Y-218186000D01*
X143573500Y-218186000D02*
X143573500Y-209816700D01*
X404939500Y-219506800D02*
X403669500Y-218236800D01*
X403669500Y-218236800D02*
X403669500Y-209867500D01*
X403669500Y-209867500D02*
X403682200Y-209854800D01*
X367753900Y-219456000D02*
X366483900Y-218186000D01*
X366483900Y-218186000D02*
X366483900Y-209816700D01*
X366483900Y-209816700D02*
X366496600Y-209804000D01*
X329298300Y-209918300D02*
X329311000Y-209905600D01*
X293382700Y-219506800D02*
X292112700Y-218236800D01*
X292112700Y-218236800D02*
X292112700Y-209867500D01*
X292112700Y-209867500D02*
X292125400Y-209854800D01*
X255079500Y-209918300D02*
X255092200Y-209905600D01*
X219163900Y-219456000D02*
X217893900Y-218186000D01*
X217893900Y-218186000D02*
X217893900Y-209816700D01*
X217893900Y-209816700D02*
X217906600Y-209804000D01*
X180708300Y-209867500D02*
X180721000Y-209854800D01*
X181978300Y-219506800D02*
X180708300Y-218236800D01*
X180708300Y-218236800D02*
X180708300Y-209867500D01*
X255079500Y-218186000D02*
X255079500Y-218173300D01*
X256349500Y-219456000D02*
X255079500Y-218186000D01*
X255079500Y-218173300D02*
X255079500Y-209918300D01*
X329298300Y-218186000D02*
X329298300Y-217944700D01*
X330568300Y-219456000D02*
X329298300Y-218186000D01*
X329298300Y-217944700D02*
X329298300Y-209918300D01*
X144868900Y-217043000D02*
X146138900Y-218313000D01*
X144868900Y-217043000D02*
X144868900Y-211074000D01*
X404964900Y-217093800D02*
X406234900Y-218363800D01*
X404964900Y-217093800D02*
X404964900Y-211124800D01*
X367779300Y-217043000D02*
X369049300Y-218313000D01*
X367779300Y-217043000D02*
X367779300Y-211074000D01*
X293408100Y-217093800D02*
X294678100Y-218363800D01*
X293408100Y-217093800D02*
X293408100Y-211124800D01*
X219189300Y-217043000D02*
X220459300Y-218313000D01*
X219189300Y-217043000D02*
X219189300Y-211074000D01*
X182003700Y-217093800D02*
X183273700Y-218363800D01*
X182003700Y-217093800D02*
X182003700Y-211124800D01*
X257606800Y-218338400D02*
X256374900Y-217106500D01*
X256374900Y-217106500D02*
X256374900Y-217004900D01*
X256374900Y-217004900D02*
X256374900Y-211175600D01*
X330593700Y-217068400D02*
X330593700Y-216928700D01*
X331863700Y-218338400D02*
X330593700Y-217068400D01*
X330593700Y-216928700D02*
X330593700Y-211175600D01*
X146138900Y-215773000D02*
X147535900Y-217170000D01*
X146138900Y-211074000D02*
X146138900Y-215773000D01*
X146138900Y-211074000D02*
X146138900Y-209804000D01*
X406234900Y-211124800D02*
X406234900Y-215823800D01*
X406234900Y-215823800D02*
X407631900Y-217220800D01*
X406234900Y-211124800D02*
X406234900Y-209854800D01*
X369049300Y-211074000D02*
X369049300Y-215773000D01*
X369049300Y-215773000D02*
X370446300Y-217170000D01*
X369049300Y-211074000D02*
X369049300Y-209804000D01*
X294678100Y-211124800D02*
X294678100Y-215823800D01*
X294678100Y-215823800D02*
X296075100Y-217220800D01*
X294678100Y-211124800D02*
X294678100Y-209854800D01*
X257644900Y-211175600D02*
X257644900Y-209905600D01*
X220459300Y-215773000D02*
X221856300Y-217170000D01*
X220459300Y-211074000D02*
X220459300Y-215773000D01*
X220459300Y-211074000D02*
X220459300Y-209804000D01*
X183273700Y-215823800D02*
X184670700Y-217220800D01*
X183273700Y-211124800D02*
X183273700Y-215823800D01*
X183273700Y-211124800D02*
X183273700Y-209854800D01*
X259041900Y-217220800D02*
X257644900Y-215823800D01*
X257644900Y-215823800D02*
X257644900Y-215760300D01*
X257644900Y-211175600D02*
X257644900Y-215760300D01*
X331863700Y-211175600D02*
X331863700Y-209905600D01*
X331863700Y-215836500D02*
X331863700Y-215607900D01*
X333248000Y-217220800D02*
X331863700Y-215836500D01*
X331863700Y-215607900D02*
X331863700Y-211175600D01*
X147383500Y-211074000D02*
X147383500Y-214757000D01*
X147383500Y-214757000D02*
X148653500Y-216027000D01*
X407479500Y-214807800D02*
X408749500Y-216077800D01*
X407479500Y-211124800D02*
X407479500Y-214807800D01*
X370293900Y-214757000D02*
X371563900Y-216027000D01*
X370293900Y-211074000D02*
X370293900Y-214757000D01*
X295922700Y-214807800D02*
X297192700Y-216077800D01*
X295922700Y-211124800D02*
X295922700Y-214807800D01*
X221703900Y-211074000D02*
X221703900Y-214757000D01*
X221703900Y-214757000D02*
X222973900Y-216027000D01*
X184518300Y-211124800D02*
X184518300Y-214807800D01*
X184518300Y-214807800D02*
X185788300Y-216077800D01*
X260159500Y-216052400D02*
X258889500Y-214782400D01*
X258889500Y-214782400D02*
X258889500Y-214718900D01*
X258889500Y-211175600D02*
X258889500Y-214718900D01*
X333108300Y-214782400D02*
X333108300Y-214541100D01*
X334378300Y-216052400D02*
X333108300Y-214782400D01*
X333108300Y-211175600D02*
X333108300Y-214541100D01*
X121399300Y-136702800D02*
X119964300Y-136702800D01*
X119024400Y-207695800D02*
X118351200Y-208369000D01*
X118351200Y-208369000D02*
X118351200Y-210337400D01*
X119888000Y-207695800D02*
X119024400Y-207695800D01*
X118389300Y-210362800D02*
X116763800Y-210362800D01*
X118325800Y-136639300D02*
X118389300Y-136702800D01*
X116763800Y-136639300D02*
X118325800Y-136639300D01*
X116763800Y-210362800D02*
X116763800Y-210362800D01*
X121462800Y-210362800D02*
X121462800Y-210362800D01*
X121462800Y-210362800D02*
X119964300Y-210362800D01*
X158800800Y-136702800D02*
X157365800Y-136702800D01*
X155790800Y-210362800D02*
X154228800Y-210362800D01*
X155765400Y-136677400D02*
X155790800Y-136702800D01*
X154101800Y-136677400D02*
X155765400Y-136677400D01*
X155790800Y-208394400D02*
X155790800Y-210362800D01*
X157327600Y-207721200D02*
X156464000Y-207721200D01*
X156464000Y-207721200D02*
X155790800Y-208394400D01*
X154228800Y-210362800D02*
X154228800Y-210362800D01*
X158800800Y-210362800D02*
X157365800Y-210362800D01*
X397814900Y-133197600D02*
X397789400Y-133223100D01*
X397789400Y-134467600D02*
X397789400Y-133223100D01*
X393725400Y-134467600D02*
X393725400Y-133223100D01*
X154078940Y-182930800D02*
X153951940Y-183057800D01*
X149669500Y-212471000D02*
X150939500Y-213741000D01*
X149669500Y-211074000D02*
X149669500Y-212471000D01*
X409765500Y-212521800D02*
X411035500Y-213791800D01*
X409765500Y-211124800D02*
X409765500Y-212521800D01*
X372579900Y-212471000D02*
X373849900Y-213741000D01*
X372579900Y-211074000D02*
X372579900Y-212471000D01*
X298208700Y-212521800D02*
X299478700Y-213791800D01*
X298208700Y-211124800D02*
X298208700Y-212521800D01*
X223989900Y-212471000D02*
X225259900Y-213741000D01*
X223989900Y-211074000D02*
X223989900Y-212471000D01*
X186804300Y-212521800D02*
X188074300Y-213791800D01*
X186804300Y-211124800D02*
X186804300Y-212521800D01*
X261175500Y-212509100D02*
X261175500Y-212407500D01*
X262432800Y-213766400D02*
X261175500Y-212509100D01*
X261175500Y-211175600D02*
X261175500Y-212407500D01*
X336664300Y-213766400D02*
X335394300Y-212496400D01*
X335394300Y-211175600D02*
X335394300Y-212229700D01*
X335394300Y-212496400D02*
X335394300Y-212229700D01*
X483920800Y-199136000D02*
X441934600Y-199136000D01*
X312889900Y-254159300D02*
X316262300Y-254159300D01*
X316262300Y-254159300D02*
X316280800Y-254177800D01*
X316280800Y-254177800D02*
X316280800Y-254177800D01*
X311619900Y-256209800D02*
X311619900Y-254159300D01*
X142278100Y-219329000D02*
X143548100Y-220599000D01*
X142278100Y-211074000D02*
X142278100Y-219329000D01*
X402374100Y-211124800D02*
X402374100Y-219379800D01*
X402374100Y-219379800D02*
X403644100Y-220649800D01*
X365188500Y-211074000D02*
X365188500Y-219329000D01*
X365188500Y-219329000D02*
X366458500Y-220599000D01*
X290817300Y-211124800D02*
X290817300Y-219379800D01*
X290817300Y-219379800D02*
X292087300Y-220649800D01*
X216598500Y-219329000D02*
X217868500Y-220599000D01*
X216598500Y-211074000D02*
X216598500Y-219329000D01*
X179412900Y-219379800D02*
X180682900Y-220649800D01*
X179412900Y-211124800D02*
X179412900Y-219379800D01*
X253784100Y-219354400D02*
X253784100Y-219290900D01*
X255054100Y-220624400D02*
X253784100Y-219354400D01*
X253784100Y-211175600D02*
X253784100Y-219290900D01*
X329272900Y-220624400D02*
X328002900Y-219354400D01*
X328002900Y-219354400D02*
X328002900Y-219138500D01*
X328002900Y-211175600D02*
X328002900Y-219138500D01*
X140957300Y-220472000D02*
X142354300Y-221869000D01*
X140957300Y-209804000D02*
X140957300Y-220472000D01*
X401053300Y-209854800D02*
X401053300Y-220522800D01*
X401053300Y-220522800D02*
X402450300Y-221919800D01*
X363867700Y-209804000D02*
X363867700Y-220472000D01*
X363867700Y-220472000D02*
X365264700Y-221869000D01*
X289496500Y-209854800D02*
X289496500Y-220522800D01*
X289496500Y-220522800D02*
X290893500Y-221919800D01*
X215277700Y-220472000D02*
X216674700Y-221869000D01*
X215277700Y-209804000D02*
X215277700Y-220472000D01*
X178092100Y-220522800D02*
X179489100Y-221919800D01*
X178092100Y-209854800D02*
X178092100Y-220522800D01*
X252463300Y-220497400D02*
X252463300Y-220433900D01*
X253860300Y-221894400D02*
X252463300Y-220497400D01*
X252463300Y-209905600D02*
X252463300Y-220433900D01*
X326682100Y-220497400D02*
X326682100Y-220408500D01*
X328079100Y-221894400D02*
X326682100Y-220497400D01*
X326682100Y-209905600D02*
X326682100Y-220408500D01*
X416788600Y-215011000D02*
X416788600Y-223088200D01*
X135585200Y-222707200D02*
X135585200Y-210794600D01*
X172847000Y-210870800D02*
X172847000Y-210870800D01*
X172923200Y-210947000D02*
X172847000Y-210870800D01*
X172923200Y-222859600D02*
X172923200Y-210947000D01*
X344025000Y-253923800D02*
X344050400Y-253898400D01*
X344050400Y-253898400D02*
X344050400Y-251188000D01*
X344050400Y-253898400D02*
X342696800Y-253898400D01*
X459024000Y-229154600D02*
X459024000Y-227962915D01*
X459453715Y-227533200D02*
X459024000Y-227962915D01*
X459453715Y-227533200D02*
X460121000Y-227533200D01*
X447497200Y-239191800D02*
X447497200Y-238099600D01*
X447497200Y-238099600D02*
X448005200Y-237591600D01*
X448005200Y-237591600D02*
X448818000Y-237591600D01*
X459994000Y-237718600D02*
X459968600Y-237718600D01*
X459428315Y-237718600D02*
X459024000Y-238122915D01*
X459024000Y-238122915D02*
X459024000Y-239314600D01*
X459968600Y-237718600D02*
X459428315Y-237718600D01*
X459024000Y-249474600D02*
X459024000Y-248315200D01*
X459460600Y-247878600D02*
X459994000Y-247878600D01*
X459024000Y-248315200D02*
X459460600Y-247878600D01*
X471449400Y-237820200D02*
X470877900Y-237820200D01*
X470454000Y-238244100D02*
X470454000Y-239314600D01*
X470877900Y-237820200D02*
X470454000Y-238244100D01*
X455853800Y-200914000D02*
X464362800Y-200914000D01*
X464362800Y-200914000D02*
X464362800Y-200914000D01*
X457504800Y-186436000D02*
X457504800Y-186436000D01*
X457504800Y-186436000D02*
X464362800Y-186436000D01*
X457758800Y-172720000D02*
X457758800Y-172720000D01*
X457758800Y-172720000D02*
X464362800Y-172720000D01*
X457758800Y-158750000D02*
X457784200Y-158750000D01*
X464362800Y-158750000D02*
X464362800Y-158750000D01*
X457784200Y-158750000D02*
X464362800Y-158750000D01*
X307809900Y-256273300D02*
X307809900Y-254159300D01*
X312889900Y-250259300D02*
X312889900Y-247129300D01*
X269392400Y-254126000D02*
X269394000Y-254127600D01*
X269392400Y-252730000D02*
X269392400Y-254126000D01*
X148526500Y-213487000D02*
X149923500Y-214884000D01*
X148526500Y-209804000D02*
X148526500Y-213487000D01*
X408622500Y-213537800D02*
X410019500Y-214934800D01*
X408622500Y-209854800D02*
X408622500Y-213537800D01*
X371436900Y-213487000D02*
X372833900Y-214884000D01*
X371436900Y-209804000D02*
X371436900Y-213487000D01*
X297065700Y-213537800D02*
X298462700Y-214934800D01*
X297065700Y-209854800D02*
X297065700Y-213537800D01*
X222846900Y-213487000D02*
X224243900Y-214884000D01*
X222846900Y-209804000D02*
X222846900Y-213487000D01*
X185661300Y-213537800D02*
X187058300Y-214934800D01*
X185661300Y-209854800D02*
X185661300Y-213537800D01*
X261366000Y-214884000D02*
X260032500Y-213550500D01*
X260032500Y-209905600D02*
X260032500Y-213499700D01*
X335648300Y-214884000D02*
X334251300Y-213487000D01*
X334251300Y-209905600D02*
X334251300Y-213347300D01*
X334251300Y-213487000D02*
X334251300Y-213347300D01*
X482574600Y-197866000D02*
X483920800Y-197866000D01*
X482003100Y-198437500D02*
X482574600Y-197866000D01*
X441109100Y-198437500D02*
X482003100Y-198437500D01*
X196037200Y-136702800D02*
X194602200Y-136702800D01*
X192925600Y-208394400D02*
X192925600Y-210362800D01*
X194462400Y-207721200D02*
X193598800Y-207721200D01*
X193598800Y-207721200D02*
X192925600Y-208394400D01*
X192925600Y-210362800D02*
X191363600Y-210362800D01*
X191236600Y-136677400D02*
X192900200Y-136677400D01*
X191363600Y-210362800D02*
X191363600Y-210362800D01*
X195986400Y-210362800D02*
X194551400Y-210362800D01*
X233019600Y-136652000D02*
X231584600Y-136652000D01*
X230009600Y-208343600D02*
X230009600Y-210312000D01*
X231546400Y-207670400D02*
X230682800Y-207670400D01*
X230009600Y-210312000D02*
X228447600Y-210312000D01*
X230682800Y-207670400D02*
X230009600Y-208343600D01*
X228447600Y-210312000D02*
X228447600Y-210312000D01*
X228320600Y-136626600D02*
X229984200Y-136626600D01*
X233070400Y-210312000D02*
X231635400Y-210312000D01*
X270154400Y-136855200D02*
X268719400Y-136855200D01*
X265455400Y-136829800D02*
X267119000Y-136829800D01*
X267144400Y-208546800D02*
X267144400Y-210515200D01*
X267817600Y-207873600D02*
X267144400Y-208546800D01*
X267144400Y-210515200D02*
X265582400Y-210515200D01*
X268681200Y-207873600D02*
X267817600Y-207873600D01*
X270205200Y-210515200D02*
X268770200Y-210515200D01*
X307340000Y-136906000D02*
X305905000Y-136906000D01*
X304330000Y-208648400D02*
X304330000Y-210616800D01*
X305866800Y-207975200D02*
X305003200Y-207975200D01*
X304330000Y-210616800D02*
X302768000Y-210616800D01*
X305003200Y-207975200D02*
X304330000Y-208648400D01*
X302641000Y-136880600D02*
X304304600Y-136880600D01*
X307390800Y-210616800D02*
X305955800Y-210616800D01*
X344525600Y-136906000D02*
X343090600Y-136906000D01*
X339826600Y-136880600D02*
X341490200Y-136880600D01*
X341515600Y-208597600D02*
X341515600Y-210566000D01*
X342188800Y-207924400D02*
X341515600Y-208597600D01*
X341515600Y-210566000D02*
X339953600Y-210566000D01*
X343052400Y-207924400D02*
X342188800Y-207924400D01*
X344576400Y-210566000D02*
X343141400Y-210566000D01*
X381711200Y-137007600D02*
X380276200Y-137007600D01*
X377012200Y-136982200D02*
X378675800Y-136982200D01*
X378701200Y-208648400D02*
X378701200Y-210616800D01*
X379374400Y-207975200D02*
X378701200Y-208648400D01*
X378701200Y-210616800D02*
X377139200Y-210616800D01*
X380238000Y-207975200D02*
X379374400Y-207975200D01*
X381762000Y-210616800D02*
X380327000Y-210616800D01*
X210083400Y-210820000D02*
X210083400Y-210820000D01*
X210108800Y-210845400D02*
X210083400Y-210820000D01*
X210108800Y-222758000D02*
X210108800Y-210845400D01*
X247218200Y-210921600D02*
X247218200Y-210921600D01*
X247192800Y-210947000D02*
X247218200Y-210921600D01*
X247192800Y-222961200D02*
X247192800Y-210947000D01*
X284302200Y-210870800D02*
X284302200Y-210870800D01*
X284276800Y-210896200D02*
X284302200Y-210870800D01*
X284276800Y-222808800D02*
X284276800Y-210896200D01*
X321437000Y-210921600D02*
X321437000Y-210921600D01*
X321411600Y-210947000D02*
X321437000Y-210921600D01*
X321411600Y-222808800D02*
X321411600Y-210947000D01*
X358622600Y-210820000D02*
X358622600Y-210820000D01*
X358597200Y-210845400D02*
X358622600Y-210820000D01*
X358597200Y-222758000D02*
X358597200Y-210845400D01*
X395808200Y-210870800D02*
X395808200Y-210870800D01*
X395782800Y-210896200D02*
X395808200Y-210870800D01*
X395782800Y-223469200D02*
X395782800Y-210896200D01*
X422757600Y-223139000D02*
X422757600Y-216408000D01*
X272694000Y-254229200D02*
X272694000Y-252730400D01*
X272694000Y-252730400D02*
X272694400Y-252730000D01*
X271526000Y-254059600D02*
X271594000Y-254127600D01*
X271526000Y-252730000D02*
X271526000Y-254059600D01*
X270459200Y-254092800D02*
X270494000Y-254127600D01*
X270459200Y-252730000D02*
X270459200Y-254092800D01*
X268294000Y-255594000D02*
X268325600Y-255625600D01*
X268325600Y-254159200D02*
X268294000Y-254127600D01*
X268325600Y-255676400D02*
X268325600Y-254159200D01*
X266090400Y-254124000D02*
X266094000Y-254127600D01*
X266090400Y-252730000D02*
X266090400Y-254124000D01*
X271272000Y-243128800D02*
X269748000Y-243128800D01*
X264994000Y-254229200D02*
X264994000Y-252802000D01*
X264994000Y-252802000D02*
X264972800Y-252780800D01*
X262619000Y-248427600D02*
X262619000Y-256727600D01*
X276369000Y-248427600D02*
X276369000Y-256727600D01*
X262619000Y-248427600D02*
X263718400Y-248427600D01*
X263718400Y-248427600D02*
X263956800Y-248666000D01*
X263956800Y-248666000D02*
X263956800Y-256844800D01*
X263956800Y-256844800D02*
X264414000Y-257302000D01*
X264414000Y-257302000D02*
X274370800Y-257302000D01*
X274370800Y-257302000D02*
X274878800Y-256794000D01*
X274878800Y-256794000D02*
X274878800Y-248716800D01*
X275168000Y-248427600D02*
X276369000Y-248427600D01*
X274878800Y-248716800D02*
X275168000Y-248427600D01*
M02*
