M48
; DRILL file {KiCad 5.1.6-c6e7f7d~87~ubuntu18.04.1} date Sat Oct 17 10:37:59 2020
; FORMAT={-:-/ absolute / metric / decimal}
; #@! TF.CreationDate,2020-10-17T10:37:59+01:00
; #@! TF.GenerationSoftware,Kicad,Pcbnew,5.1.6-c6e7f7d~87~ubuntu18.04.1
FMAT,2
METRIC
T1C0.300
T2C0.400
T3C0.500
T4C0.600
T5C0.900
T6C1.199
T7C1.200
T8C1.500
T9C1.600
T10C2.100
T11C3.200
T12C1.800
T13C3.500
%
G90
G05
T1
X116.764Y-210.363
X119.888Y-207.696
X121.361Y-237.642
X121.463Y-210.363
X124.003Y-171.45
X124.003Y-179.019
X124.968Y-236.169
X128.321Y-234.594
X131.674Y-233.121
X135.585Y-210.718
X135.585Y-222.707
X140.957Y-209.804
X142.278Y-211.074
X142.354Y-221.869
X143.548Y-220.599
X143.586Y-209.804
X144.221Y-180.95
X144.844Y-219.456
X144.869Y-211.074
X146.139Y-209.804
X146.139Y-218.313
X147.383Y-211.074
X147.536Y-217.17
X148.526Y-209.804
X148.653Y-216.027
X149.669Y-211.074
X149.923Y-214.884
X150.939Y-213.741
X154.229Y-210.363
X156.312Y-158.293
X156.312Y-165.913
X156.312Y-169.469
X156.312Y-184.709
X156.312Y-192.583
X157.328Y-207.721
X158.826Y-210.363
X161.036Y-164.186
X161.392Y-171.45
X161.392Y-179.07
X166.776Y-171.501
X166.776Y-184.201
X172.847Y-210.871
X172.923Y-222.86
X178.092Y-209.855
X179.413Y-211.125
X179.489Y-221.92
X180.683Y-220.65
X180.721Y-209.855
X181.61Y-180.95
X181.978Y-219.507
X182.004Y-211.125
X183.274Y-209.855
X183.274Y-218.364
X184.518Y-211.125
X184.671Y-217.221
X185.661Y-209.855
X185.788Y-216.078
X186.804Y-211.125
X187.058Y-214.935
X188.074Y-213.792
X191.364Y-210.363
X193.345Y-184.76
X193.396Y-169.57
X193.446Y-158.344
X193.446Y-166.014
X193.446Y-192.735
X194.513Y-207.721
X196.012Y-210.363
X198.272Y-164.033
X198.476Y-178.968
X198.526Y-171.348
X203.86Y-171.552
X203.86Y-184.252
X208.331Y-183.134
X210.083Y-210.82
X210.109Y-222.758
X215.278Y-209.804
X216.599Y-211.074
X216.675Y-221.869
X217.868Y-220.599
X217.907Y-209.804
X218.784Y-180.887
X219.164Y-219.456
X219.189Y-211.074
X220.459Y-209.804
X220.459Y-218.313
X221.704Y-211.074
X221.856Y-217.17
X222.847Y-209.804
X222.974Y-216.027
X223.99Y-211.074
X224.244Y-214.884
X225.26Y-213.741
X228.448Y-210.312
X230.53Y-184.861
X230.581Y-169.672
X230.632Y-166.116
X230.632Y-192.837
X230.683Y-158.496
X231.597Y-207.67
X233.096Y-210.312
X235.458Y-164.135
X235.661Y-179.07
X235.712Y-171.45
X241.046Y-171.653
X241.046Y-184.353
X245.415Y-183.337
X247.193Y-222.961
X247.218Y-210.922
X252.463Y-209.906
X253.784Y-211.176
X253.86Y-221.894
X255.054Y-220.624
X255.092Y-209.906
X255.969Y-180.989
X256.349Y-219.456
X256.375Y-211.176
X257.607Y-218.338
X257.645Y-209.906
X258.889Y-211.176
X259.042Y-217.221
X260.032Y-209.906
X260.159Y-216.052
X261.175Y-211.176
X261.366Y-214.884
X262.433Y-213.766
X264.973Y-248.869
X264.973Y-252.781
X265.582Y-210.515
X266.09Y-252.73
X267.157Y-255.676
X267.208Y-248.869
X267.716Y-184.861
X267.767Y-158.445
X267.767Y-169.672
X267.767Y-192.735
X267.818Y-166.116
X268.122Y-245.974
X268.326Y-255.676
X268.732Y-207.874
X269.392Y-248.869
X269.392Y-252.73
X269.748Y-243.129
X270.231Y-210.515
X270.459Y-252.73
X271.272Y-243.129
X271.526Y-252.73
X272.491Y-245.161
X272.644Y-164.135
X272.694Y-248.818
X272.694Y-252.73
X272.847Y-179.07
X272.898Y-171.45
X278.232Y-171.653
X278.232Y-184.353
X278.841Y-246.99
X281.584Y-247.802
X282.499Y-183.236
X284.277Y-222.809
X284.302Y-210.871
X289.496Y-209.855
X290.817Y-211.125
X290.893Y-221.894
X292.087Y-220.624
X292.125Y-209.855
X293.003Y-180.938
X293.383Y-219.456
X293.408Y-211.125
X294.678Y-209.855
X294.678Y-218.338
X295.923Y-211.125
X296.075Y-217.17
X297.066Y-209.855
X297.193Y-216.052
X298.209Y-211.125
X298.45Y-214.884
X299.479Y-213.766
X302.768Y-210.617
X304.851Y-184.861
X304.902Y-158.394
X304.902Y-169.672
X304.952Y-166.116
X304.952Y-192.837
X305.918Y-207.975
X307.416Y-210.617
X307.81Y-247.129
X307.81Y-256.273
X309.778Y-164.135
X309.982Y-179.07
X310.032Y-171.45
X310.35Y-247.129
X311.62Y-256.21
X312.89Y-247.129
X315.366Y-171.653
X315.366Y-184.353
X316.281Y-254.178
X319.735Y-183.185
X321.412Y-222.809
X321.437Y-210.922
X326.682Y-209.906
X328.003Y-211.176
X328.079Y-221.894
X329.273Y-220.624
X329.311Y-209.906
X330.188Y-180.989
X330.568Y-219.456
X330.594Y-211.176
X331.864Y-209.906
X331.864Y-218.338
X333.108Y-211.176
X333.248Y-217.221
X334.251Y-209.906
X334.378Y-216.052
X335.394Y-211.176
X335.648Y-214.884
X336.664Y-213.766
X339.954Y-210.566
X341.274Y-234.493
X342.087Y-184.861
X342.138Y-158.394
X342.138Y-169.672
X342.189Y-166.116
X342.189Y-192.837
X342.697Y-253.898
X343.103Y-207.924
X344.018Y-251.155
X344.602Y-210.566
X347.015Y-164.135
X347.218Y-179.07
X347.269Y-171.45
X349.656Y-231.445
X349.707Y-253.898
X350.825Y-231.445
X352.603Y-171.653
X352.603Y-184.353
X355.041Y-231.445
X356.87Y-183.185
X358.597Y-222.758
X358.623Y-210.82
X363.868Y-209.804
X365.188Y-211.074
X365.265Y-221.869
X366.458Y-220.599
X366.497Y-209.804
X367.374Y-180.887
X367.754Y-219.456
X367.779Y-211.074
X369.049Y-209.804
X369.049Y-218.313
X370.294Y-211.074
X370.446Y-217.17
X371.437Y-209.804
X371.564Y-216.027
X372.58Y-211.074
X372.834Y-214.884
X373.85Y-213.741
X377.139Y-210.617
X379.273Y-158.445
X379.273Y-184.861
X379.324Y-169.672
X379.374Y-166.116
X379.374Y-192.837
X380.289Y-207.975
X381.787Y-210.617
X384.2Y-164.135
X384.404Y-179.07
X384.454Y-171.45
X389.788Y-171.653
X389.788Y-184.353
X393.725Y-134.468
X394.056Y-183.185
X395.783Y-223.469
X395.808Y-210.871
X395.884Y-131.623
X396.392Y-237.084
X397.789Y-134.468
X401.053Y-209.855
X401.93Y-234.188
X402.374Y-211.125
X402.45Y-221.92
X403.644Y-220.65
X403.682Y-209.855
X404.559Y-180.938
X404.94Y-219.507
X404.965Y-211.125
X406.235Y-209.855
X406.235Y-218.364
X407.479Y-211.125
X407.632Y-217.221
X408.623Y-209.855
X408.749Y-216.078
X409.765Y-211.125
X410.019Y-214.935
X411.035Y-213.792
X416.789Y-215.011
X416.789Y-223.088
X419.329Y-208.534
X419.71Y-191.516
X420.853Y-205.613
X422.504Y-188.976
X422.758Y-216.408
X422.758Y-223.139
X425.044Y-188.976
X425.806Y-208.534
X425.933Y-198.247
X427.838Y-208.534
X428.727Y-201.676
X428.981Y-213.868
X432.918Y-211.836
X433.273Y-217.17
X433.273Y-222.758
X436.575Y-185.115
X436.677Y-169.875
X437.642Y-226.822
X437.693Y-212.954
X441.109Y-198.438
X441.935Y-199.136
X445.719Y-218.643
X446.278Y-163.881
X446.278Y-171.399
X446.329Y-179.121
X446.329Y-190.703
X446.837Y-156.464
X446.837Y-160.172
X448.818Y-237.592
X449.377Y-219.253
X451.383Y-236.982
X455.828Y-200.914
X456.844Y-233.655
X457.505Y-186.436
X457.759Y-172.72
X457.784Y-158.75
X459.003Y-245.821
X459.524Y-252.793
X459.969Y-237.719
X459.994Y-247.879
X460.121Y-227.533
X462.788Y-237.147
X462.813Y-227.584
X464.363Y-158.75
X464.363Y-200.914
X464.401Y-186.398
X464.414Y-172.669
X470.408Y-246.101
X471.449Y-237.82
X474.218Y-237.846
T2
X116.764Y-136.639
X118.923Y-184.785
X118.923Y-192.761
X119.177Y-158.369
X119.177Y-166.014
X119.177Y-169.596
X121.399Y-136.703
X123.546Y-164.313
X124.358Y-135.28
X124.562Y-212.293
X129.362Y-171.374
X129.362Y-183.947
X132.131Y-164.389
X132.994Y-191.668
X133.807Y-182.677
X134.772Y-165.354
X154.102Y-136.677
X158.801Y-136.703
X161.646Y-212.242
X161.747Y-135.23
X169.469Y-164.389
X170.282Y-191.756
X171.094Y-183.058
X172.212Y-165.456
X191.237Y-136.677
X196.037Y-136.703
X198.857Y-212.242
X198.984Y-135.23
X206.502Y-164.338
X207.518Y-191.705
X209.347Y-165.354
X228.321Y-136.627
X233.02Y-136.652
X235.941Y-212.217
X235.966Y-135.179
X243.688Y-164.44
X244.602Y-191.654
X246.532Y-165.456
X265.455Y-136.83
X270.154Y-136.855
X273.101Y-135.382
X273.152Y-212.192
X280.721Y-164.389
X281.686Y-191.908
X283.566Y-165.405
X302.641Y-136.881
X307.34Y-136.906
X310.236Y-212.293
X310.286Y-135.433
X314.757Y-253.213
X314.782Y-251.003
X317.906Y-164.44
X318.922Y-191.959
X320.751Y-165.456
X336.017Y-255.321
X336.652Y-234.798
X336.69Y-236.41
X338.328Y-241.173
X338.341Y-239.535
X339.827Y-136.881
X344.526Y-136.906
X347.447Y-212.242
X347.472Y-135.433
X347.701Y-235.966
X350.952Y-246.507
X351.053Y-225.731
X351.638Y-239.141
X352.73Y-246.507
X352.984Y-239.141
X355.092Y-164.338
X356.108Y-191.908
X357.937Y-165.354
X358.597Y-242.113
X359.588Y-229.896
X360.172Y-239.04
X362.56Y-231.343
X369.926Y-233.02
X369.926Y-237.312
X377.012Y-136.982
X379.552Y-228.879
X381.711Y-137.008
X384.658Y-212.344
X386.283Y-136.957
X387.782Y-237.719
X387.909Y-242.57
X388.226Y-238.62
X389.865Y-154.686
X389.915Y-148.59
X389.915Y-149.606
X389.915Y-150.622
X389.915Y-151.638
X389.915Y-152.654
X389.915Y-153.67
X390.931Y-148.59
X390.931Y-149.606
X390.931Y-150.622
X390.931Y-151.638
X390.931Y-152.654
X390.931Y-153.67
X390.931Y-154.686
X391.262Y-237.033
X391.693Y-131.674
X391.947Y-148.59
X391.947Y-149.606
X391.947Y-153.67
X391.947Y-154.686
X392.278Y-164.389
X392.963Y-147.574
X392.963Y-148.59
X392.963Y-149.606
X392.963Y-153.67
X392.963Y-154.686
X393.294Y-191.959
X393.967Y-153.645
X393.979Y-147.574
X393.979Y-148.59
X393.979Y-149.606
X393.979Y-154.686
X394.335Y-239.293
X394.995Y-147.574
X394.995Y-148.59
X394.995Y-149.606
X394.995Y-153.67
X394.995Y-154.686
X395.122Y-165.405
X396.011Y-148.59
X396.011Y-149.606
X396.011Y-153.67
X396.011Y-154.686
X397.027Y-148.59
X397.027Y-149.606
X397.027Y-150.622
X397.027Y-151.638
X397.027Y-152.654
X397.027Y-153.67
X397.027Y-154.686
X398.043Y-149.606
X398.043Y-150.622
X398.043Y-151.638
X398.043Y-152.654
X398.043Y-153.67
X398.043Y-154.686
X398.17Y-148.59
X400.583Y-135.738
X409.55Y-234.188
X413.982Y-158.852
X413.982Y-159.868
X413.982Y-160.884
X413.982Y-161.9
X413.982Y-162.916
X413.982Y-163.932
X413.995Y-157.836
X414.63Y-234.239
X414.998Y-157.836
X414.998Y-158.852
X414.998Y-159.868
X414.998Y-160.884
X414.998Y-161.9
X414.998Y-162.916
X414.998Y-163.932
X416.001Y-158.801
X416.014Y-157.836
X416.014Y-162.916
X416.014Y-163.932
X417.017Y-156.82
X417.017Y-158.775
X417.03Y-157.836
X417.03Y-163.932
X417.043Y-162.916
X418.046Y-156.82
X418.046Y-157.836
X418.046Y-158.814
X418.046Y-162.916
X418.046Y-163.932
X419.049Y-158.801
X419.062Y-156.82
X419.062Y-157.836
X419.062Y-162.916
X419.062Y-163.932
X419.71Y-196.088
X419.71Y-201.676
X420.065Y-158.801
X420.078Y-157.836
X420.078Y-162.916
X420.078Y-163.932
X421.094Y-157.836
X421.094Y-158.852
X421.094Y-159.868
X421.094Y-160.884
X421.094Y-161.9
X421.094Y-162.916
X421.094Y-163.932
X421.488Y-237.134
X422.11Y-157.836
X422.11Y-158.852
X422.11Y-159.868
X422.11Y-160.884
X422.11Y-161.9
X422.11Y-162.916
X422.11Y-163.932
X422.377Y-213.233
X427.914Y-242.519
X428.371Y-239.624
X434.442Y-210.312
X439.725Y-231.191
X443.89Y-208.026
X447.523Y-241.605
X452.272Y-213.055
X462.788Y-247.879
X479.476Y-163.881
X479.476Y-169.774
X479.476Y-175.489
X479.476Y-179.146
X479.476Y-184.963
X479.603Y-186.792
X483.921Y-197.866
X483.921Y-199.136
X484.962Y-152.476
X484.962Y-160.223
T3
X491.833Y-134.925
X492.536Y-133.228
X492.536Y-136.622
X494.233Y-132.525
X494.233Y-137.325
X495.93Y-133.228
X495.93Y-136.622
X496.633Y-134.925
X102.146Y-253.543
X102.849Y-251.846
X102.849Y-255.24
X104.546Y-251.143
X104.546Y-255.943
X106.243Y-251.846
X106.243Y-255.24
X106.946Y-253.543
X284.608Y-253.543
X285.311Y-251.846
X285.311Y-255.24
X287.008Y-251.143
X287.008Y-255.943
X288.705Y-251.846
X288.705Y-255.24
X289.408Y-253.543
X283.858Y-134.772
X284.561Y-133.075
X284.561Y-136.469
X286.258Y-132.372
X286.258Y-137.172
X287.955Y-133.075
X287.955Y-136.469
X288.658Y-134.772
X491.846Y-253.34
X492.549Y-251.643
X492.549Y-255.037
X494.246Y-250.94
X494.246Y-255.74
X495.943Y-251.643
X495.943Y-255.037
X496.646Y-253.34
X101.791Y-134.722
X102.494Y-133.025
X102.494Y-136.419
X104.191Y-132.322
X104.191Y-137.122
X105.888Y-133.025
X105.888Y-136.419
X106.591Y-134.722
T4
X388.899Y-145.034
X404.698Y-158.14
X412.775Y-154.305
X413.029Y-150.241
X432.079Y-131.953
X432.206Y-141.605
X433.73Y-155.575
X433.73Y-162.687
X435.0Y-146.177
T5
X327.876Y-252.527
X330.416Y-252.527
X332.956Y-252.527
T6
X153.952Y-156.388
X153.952Y-160.198
X153.952Y-164.008
X153.952Y-167.818
X153.952Y-171.628
X153.952Y-175.438
X153.952Y-179.248
X153.952Y-183.058
X153.952Y-186.868
X153.952Y-190.678
X159.032Y-154.483
X159.032Y-158.293
X159.032Y-162.103
X159.032Y-165.913
X159.032Y-169.723
X159.032Y-173.533
X159.032Y-177.343
X159.032Y-181.153
X159.032Y-184.963
X159.032Y-188.773
X159.032Y-192.583
X476.976Y-156.337
X476.976Y-160.147
X476.976Y-163.957
X476.976Y-167.767
X476.976Y-171.577
X476.976Y-175.387
X476.976Y-179.197
X476.976Y-183.007
X476.976Y-186.817
X476.976Y-190.627
X482.056Y-154.432
X482.056Y-158.242
X482.056Y-162.052
X482.056Y-165.862
X482.056Y-169.672
X482.056Y-173.482
X482.056Y-177.292
X482.056Y-181.102
X482.056Y-184.912
X482.056Y-188.722
X482.056Y-192.532
X302.58Y-156.337
X302.58Y-160.147
X302.58Y-163.957
X302.58Y-167.767
X302.58Y-171.577
X302.58Y-175.387
X302.58Y-179.197
X302.58Y-183.007
X302.58Y-186.817
X302.58Y-190.627
X307.66Y-154.432
X307.66Y-158.242
X307.66Y-162.052
X307.66Y-165.862
X307.66Y-169.672
X307.66Y-173.482
X307.66Y-177.292
X307.66Y-181.102
X307.66Y-184.912
X307.66Y-188.722
X307.66Y-192.532
X228.31Y-156.388
X228.31Y-160.198
X228.31Y-164.008
X228.31Y-167.818
X228.31Y-171.628
X228.31Y-175.438
X228.31Y-179.248
X228.31Y-183.058
X228.31Y-186.868
X228.31Y-190.678
X233.39Y-154.483
X233.39Y-158.293
X233.39Y-162.103
X233.39Y-165.913
X233.39Y-169.723
X233.39Y-173.533
X233.39Y-177.343
X233.39Y-181.153
X233.39Y-184.963
X233.39Y-188.773
X233.39Y-192.583
X191.125Y-156.439
X191.125Y-160.249
X191.125Y-164.059
X191.125Y-167.869
X191.125Y-171.679
X191.125Y-175.489
X191.125Y-179.299
X191.125Y-183.109
X191.125Y-186.919
X191.125Y-190.729
X196.205Y-154.534
X196.205Y-158.344
X196.205Y-162.154
X196.205Y-165.964
X196.205Y-169.774
X196.205Y-173.584
X196.205Y-177.394
X196.205Y-181.204
X196.205Y-185.014
X196.205Y-188.824
X196.205Y-192.634
X339.766Y-156.337
X339.766Y-160.147
X339.766Y-163.957
X339.766Y-167.767
X339.766Y-171.577
X339.766Y-175.387
X339.766Y-179.197
X339.766Y-183.007
X339.766Y-186.817
X339.766Y-190.627
X344.846Y-154.432
X344.846Y-158.242
X344.846Y-162.052
X344.846Y-165.862
X344.846Y-169.672
X344.846Y-173.482
X344.846Y-177.292
X344.846Y-181.102
X344.846Y-184.912
X344.846Y-188.722
X344.846Y-192.532
X438.876Y-156.337
X438.876Y-160.147
X438.876Y-163.957
X438.876Y-167.767
X438.876Y-171.577
X438.876Y-175.387
X438.876Y-179.197
X438.876Y-183.007
X438.876Y-186.817
X438.876Y-190.627
X443.956Y-154.432
X443.956Y-158.242
X443.956Y-162.052
X443.956Y-165.862
X443.956Y-169.672
X443.956Y-173.482
X443.956Y-177.292
X443.956Y-181.102
X443.956Y-184.912
X443.956Y-188.722
X443.956Y-192.532
X376.951Y-156.388
X376.951Y-160.198
X376.951Y-164.008
X376.951Y-167.818
X376.951Y-171.628
X376.951Y-175.438
X376.951Y-179.248
X376.951Y-183.058
X376.951Y-186.868
X376.951Y-190.678
X382.031Y-154.483
X382.031Y-158.293
X382.031Y-162.103
X382.031Y-165.913
X382.031Y-169.723
X382.031Y-173.533
X382.031Y-177.343
X382.031Y-181.153
X382.031Y-184.963
X382.031Y-188.773
X382.031Y-192.583
X265.394Y-156.337
X265.394Y-160.147
X265.394Y-163.957
X265.394Y-167.767
X265.394Y-171.577
X265.394Y-175.387
X265.394Y-179.197
X265.394Y-183.007
X265.394Y-186.817
X265.394Y-190.627
X270.474Y-154.432
X270.474Y-158.242
X270.474Y-162.052
X270.474Y-165.862
X270.474Y-169.672
X270.474Y-173.482
X270.474Y-177.292
X270.474Y-181.102
X270.474Y-184.912
X270.474Y-188.722
X270.474Y-192.532
X116.55Y-156.388
X116.55Y-160.198
X116.55Y-164.008
X116.55Y-167.818
X116.55Y-171.628
X116.55Y-175.438
X116.55Y-179.248
X116.55Y-183.058
X116.55Y-186.868
X116.55Y-190.678
X121.63Y-154.483
X121.63Y-158.293
X121.63Y-162.103
X121.63Y-165.913
X121.63Y-169.723
X121.63Y-173.533
X121.63Y-177.343
X121.63Y-181.153
X121.63Y-184.963
X121.63Y-188.773
X121.63Y-192.583
T7
X105.155Y-239.065
X105.255Y-221.065
X105.255Y-224.065
X105.255Y-227.065
X105.255Y-230.065
X105.255Y-233.065
X105.255Y-236.065
X108.255Y-221.065
X108.255Y-224.065
X108.255Y-227.065
X108.255Y-230.065
X108.255Y-233.065
X108.255Y-236.065
X108.255Y-239.065
T8
X488.645Y-226.822
X489.645Y-219.322
X492.995Y-223.072
T9
X401.954Y-140.98
X406.654Y-137.98
X406.654Y-143.98
T10
X416.471Y-134.035
X416.471Y-138.735
X416.471Y-143.435
T11
X494.233Y-134.925
X104.546Y-253.543
X287.008Y-253.543
X286.258Y-134.772
X494.246Y-253.34
X104.191Y-134.722
T13
X305.206Y-202.442
X305.232Y-144.551
X230.937Y-202.493
X230.962Y-144.602
X193.751Y-202.544
X193.777Y-144.653
X342.392Y-202.442
X342.417Y-144.551
X441.503Y-202.442
X441.528Y-144.551
X379.578Y-202.493
X379.603Y-144.602
X268.021Y-202.442
X268.046Y-144.551
X119.177Y-202.493
X119.202Y-144.602
X156.578Y-202.493
X156.604Y-144.602
X479.603Y-202.442
X479.628Y-144.551
T12
G00X491.245Y-215.972
M15
G01X492.445Y-215.972
M16
G05
G00X491.245Y-230.172
M15
G01X492.445Y-230.172
M16
G05
T0
M30
